<svg width="105" height="53" viewBox="0 0 105 53" fill="none" xmlns="http://www.w3.org/2000/svg">
<path d="M12.6379 3.02923C12.9171 2.84063 13.3941 2.72714 13.7465 2.55404C15.2346 1.84148 15.838 1.69251 17.2501 1.24087C19.2941 0.352475 25.8345 -0.444444 25.8125 0.616456C25.8125 0.616478 25.8125 0.616501 25.8125 0.616523C25.8125 0.625358 25.8119 0.634297 25.8107 0.643339C25.7868 0.813693 25.2555 1.00686 25.184 1.20436C25.1126 1.40222 25.1947 2.64632 24.5041 2.75119C23.4995 2.86227 21.0387 2.93256 20.505 3.10177C20.1429 3.19515 19.7258 3.4185 19.2762 3.57048C17.8333 4.07138 17.0449 4.29487 15.9348 5.1497C15.3721 5.23593 14.8085 5.34397 14.2428 5.47581C13.6474 5.89118 12.6077 6.309 12.2508 6.57923C11.9579 6.79674 11.8623 7.02587 11.5655 7.25806C11.2343 7.51914 10.6349 7.81472 10.0705 8.34604C9.15293 9.22492 9.24673 9.6338 8.76455 10.2033C8.26913 10.7947 7.34997 11.6086 6.87193 12.4886C6.82981 12.611 6.78882 12.7336 6.74897 12.8562C6.8682 12.8311 6.98728 12.8071 7.10622 12.7841C6.85617 13.2071 6.59696 13.2866 6.34909 13.6674C6.0599 14.1174 6.06386 14.4347 5.8867 14.7432C5.74188 14.9963 5.43755 15.2828 5.27256 15.6269C5.03405 16.1288 5.25949 16.1029 5.16459 16.3845C5.1024 16.4886 4.38362 18.5442 4.37109 18.6658C4.0842 19.5505 3.82014 19.5542 3.60304 20.2767C3.0525 22.1636 2.99632 24.2052 3.08792 26.0237C3.08792 26.0237 3.08792 26.0237 3.08792 26.0237C3.09336 26.1381 3.09928 26.2515 3.10556 26.364C3.15282 27.2161 3.20035 28.0995 3.26859 28.9508C2.4372 27.6722 2.34076 30.7642 3.20071 29.4819C3.20287 30.4517 3.61716 31.0582 3.79945 31.934C3.92281 32.5022 3.89706 32.9331 4.17782 33.7217C4.67732 35.135 5.76999 36.3747 5.33268 37.0985C6.27856 38.583 6.99343 39.975 7.89287 40.0667C8.19015 40.3933 8.64371 41.5172 8.96441 41.9225C9.20039 42.3558 11.8916 44.9298 12.4407 45.2282C12.9317 45.59 13.8343 46.1657 14.3113 46.364C14.9197 46.6211 15.5854 46.2279 16.2931 47.4131C17.5437 47.8855 17.9781 48.0642 19.1411 48.5179C19.3522 48.5973 19.3452 48.7162 19.4728 48.7521C19.7367 48.8259 20.2054 48.86 20.6808 48.9547C21.4623 49.1097 21.8717 49.4176 21.8472 49.0344C22.3758 49.0608 22.895 49.0681 23.4204 49.0587C23.5935 49.1493 23.7681 49.238 23.9454 49.3247C24.2298 49.268 24.5161 49.2062 24.7943 49.1391C24.5409 49.5196 25.4909 49.5021 25.8125 49.3199C25.9385 49.2534 25.9721 49.1696 25.8125 49.0855C25.8044 49.081 25.7958 49.0765 25.7866 49.072C25.7952 49.0729 25.8039 49.0739 25.8125 49.0749C26.8664 49.1864 27.9203 49.2979 28.9742 49.4094C28.8259 50.0273 31.3082 49.4807 31.0992 49.1447C31.2209 49.1452 31.3425 49.1457 31.4641 49.1462C32.529 49.3104 33.5069 49.1761 34.8049 49.2863C36.1027 49.3966 35.9809 49.4567 36.3756 49.7409C36.681 49.7247 36.9864 49.7084 37.2918 49.6921C38.8944 48.913 38.6112 50.2619 41.3555 49.6643C42.2322 50.1539 44.3936 49.8967 45.8266 49.7483C45.9934 49.731 45.9962 49.636 46.2183 49.6067C46.7613 49.5362 48.1468 49.6584 48.0994 49.3518C48.579 49.4405 49.0586 49.5292 49.5382 49.6179C49.9302 49.5621 50.3223 49.5064 50.7143 49.4506C50.7123 49.3549 50.7103 49.2592 50.7083 49.1635C51.4977 49.4897 52.7381 49.3644 53.35 49.4423C53.4717 49.4582 53.498 49.5902 53.8765 49.6262C54.3189 49.6689 55.1432 49.6299 55.6703 49.6711C55.8753 49.5249 56.0802 49.3786 56.2851 49.2324C57.2278 49.1531 57.5591 49.5391 58.1127 49.5691C58.2123 49.5743 60.0307 49.5465 60.1286 49.5383C60.9307 49.473 60.7035 49.1441 63.0231 49.2146C63.4362 49.2273 63.7703 49.3411 64.1436 49.3457C64.8032 49.3539 66.7906 49.0959 66.9469 48.8574C67.7469 49.1558 69.8873 49.0338 70.5177 49.1201C70.708 49.1466 70.7509 49.3367 71.3358 49.3772C71.8099 49.4102 73.031 49.2579 73.6324 49.2834C74.2707 49.3112 74.4986 49.4709 74.7846 49.4821C75.0548 49.4926 75.3039 49.3637 75.6721 49.3645C76.8215 49.369 77.8624 49.5765 78.7709 49.5803C78.7848 49.5804 78.7986 49.5804 78.8125 49.5803C80.0692 49.5772 81.1388 49.1095 82.1218 48.7991C82.3767 48.7874 82.6422 48.8278 82.9078 48.7812C86.2017 48.2318 89.771 46.7849 92.5324 44.8369C93.87 44.0315 96.9771 41.5344 95.6104 41.6967C95.9239 41.2644 98.5558 38.3537 98.87 37.644C99.251 36.9964 99.3831 36.3981 99.6316 35.8701C100.361 34.271 100.915 33.1228 101.268 30.9979C101.354 30.4461 101.274 29.8359 101.325 29.5138C101.386 29.1303 101.618 28.7319 101.678 28.2224C101.745 27.6525 101.789 26.8448 101.78 26.0237C101.78 26.0237 101.78 26.0237 101.78 26.0237C101.774 25.1022 101.7 24.1793 101.65 23.5638C101.632 23.3503 101.779 23.2576 101.788 22.9454C101.828 21.7256 101.484 20.3996 101.056 20.7517C100.979 19.2017 100.263 17.9268 99.6765 16.6596C98.5727 13.8854 95.1711 9.51051 92.9072 8.18017C91.5254 7.30843 91.477 7.48015 89.5133 6.14042C89.0703 5.85349 88.6246 5.56525 88.0584 5.25628C86.7423 4.53521 85.4967 3.70723 84.2493 3.91471C82.6412 3.39261 81.3039 3.32696 80.0648 2.83226C79.9094 2.92613 79.7576 3.02161 79.6064 3.11849C79.3994 3.11398 79.1918 3.11221 78.9836 3.11321C78.9272 3.02751 78.8702 2.94201 78.8125 2.85672C78.804 2.84476 78.7955 2.8328 78.787 2.82083C77.2005 2.79465 75.1877 3.19436 73.8448 3.19144C71.5932 3.18694 65.794 3.03165 63.659 2.90042C62.5255 2.83074 62.4645 3.03902 61.8156 2.61087C61.5621 2.64066 61.3086 2.67044 61.055 2.70023C60.8964 2.79398 60.7377 2.88773 60.5791 2.98148C59.1249 2.98523 57.4 2.83961 56.0147 2.8411C53.4903 2.8441 49.6996 3.10212 47.1646 2.93265C46.5289 2.88991 45.7344 2.69658 45.1119 2.69876C44.206 2.70176 43.9858 3.0226 42.8362 3.0286C40.8548 3.03835 37.1648 2.66563 35.292 2.69413C34.7358 2.70238 34.4763 2.82176 34.0922 2.83451C32.4816 2.88925 31.1594 2.87953 29.615 3.064C27.9569 2.75655 28.1001 2.3597 27.5862 1.95926C27.1968 1.65703 26.0026 0.95662 25.833 0.691923C25.714 0.505959 26.1586 0.266738 25.9917 0.0620389C27.9784 -0.101432 28.813 0.0785279 30.4262 0.366483C33.4053 0.355008 36.3844 0.343534 39.3636 0.332059C39.6346 0.443794 39.9056 0.55553 40.1767 0.667265C40.1767 0.667509 40.1767 0.667753 40.1767 0.667997C41.3208 0.796947 41.8057 0.509193 42.4227 0.443876C48.3298 -0.18153 59.9562 0.307956 66.4593 0.378446C67.8607 0.393438 72.4192 0.242875 73.3808 0.424344C73.6297 0.471605 73.699 0.643897 73.9638 0.651396C75.58 0.581415 77.1963 0.511435 78.8125 0.441455C79.599 0.409021 80.3821 0.411836 81.1678 0.450669C86.2033 1.15545 91.2912 3.02775 95.2722 6.31891C101.116 11.0753 104.665 18.5063 104.658 26.0237C104.658 26.0237 104.658 26.0237 104.658 26.0237C104.723 32.3847 102.284 38.7199 98.0093 43.3816C96.2435 45.3693 93.6259 47.5934 91.2726 48.7555C90.2922 49.2417 89.7794 49.1991 88.5472 49.9379C88.5052 49.8745 88.4633 49.8111 88.4216 49.7476C87.3081 50.2869 86.6081 50.7066 85.2563 51.0807C84.1289 51.438 81.0365 51.8915 79.9906 51.8606C79.4527 51.8673 79.649 51.7219 79.1487 51.7319C79.0491 51.7335 78.9363 51.7372 78.8125 51.742C77.9194 51.7785 76.4421 51.9289 75.447 51.9289C74.4272 51.9289 72.7079 51.7685 71.9238 51.7917C69.1001 51.8742 66.0243 52.1121 63.0152 52.0483C62.1839 52.0303 61.1148 51.8497 60.8545 51.8547C60.346 51.8652 60.1945 52.0406 59.853 52.0632C58.118 52.1772 55.4135 51.9687 53.7129 51.9604C48.1714 51.9334 42.3008 52.01 36.7831 51.9778C33.7964 51.9604 29.116 51.9806 25.8125 51.9037C25.2255 51.8908 24.69 51.8559 24.2038 51.8071C23.4743 51.7282 23.6867 51.5512 23.0809 51.4917C22.4075 51.4189 22.031 51.4905 21.7135 51.4515C19.5099 51.2977 14.8122 49.7654 13.112 48.5142C12.7791 48.2962 12.6118 48.0195 12.4108 47.8969C12.3094 47.8345 12.0248 47.7802 11.7043 47.5828C8.89563 45.8083 7.13116 44.0529 5.18451 41.4554C2.10438 37.3407 -0.0638942 31.6265 0.00141573 26.0237C0.00141573 26.0237 0.00141573 26.0237 0.00141573 26.0237C0.00460088 24.8538 0.0912749 23.7068 0.259398 22.582C0.472798 21.1651 1.00365 20.2847 1.04332 20.0935C1.14076 19.6719 1.00816 19.3466 1.21728 18.4805C1.88534 15.5654 4.0019 12.0971 5.72551 9.88098C6.54741 8.76098 7.70716 7.19474 8.73372 6.24858C9.5233 5.45592 11.7303 4.03376 12.1071 3.70693C12.3276 3.49286 12.3361 3.23475 12.6379 3.02923ZM4.33757 34.6172C3.93778 34.5892 4.94653 36.1729 4.83497 35.461C4.80644 35.3046 4.43541 34.6277 4.33757 34.6172ZM87.4215 48.1393C87.3695 48.0533 87.3177 47.9673 87.266 47.8812C87.0526 48.0079 86.8363 48.1316 86.6186 48.2517C86.7687 48.2621 86.9184 48.2713 87.0702 48.2784C87.1878 48.2329 87.3049 48.1865 87.4215 48.1393Z" fill="black"/>
<ellipse cx="25.8125" cy="26.0237" rx="20.5" ry="19.5" fill="black"/>
<path d="M47.1948 19.3231C47.2717 19.4728 47.2216 19.7355 47.2724 19.9225C47.4806 20.7121 47.4666 21.0263 47.5755 21.7528C47.8046 22.8116 48.1708 26.0367 47.2197 26.0237C47.2197 26.0237 47.2197 26.0237 47.2197 26.0237C47.2108 26.0237 47.2019 26.0234 47.1928 26.0228C47.0216 26.011 46.8324 25.7521 46.6372 25.7182C46.4419 25.6845 45.191 25.7277 45.1101 25.4001C45.0118 24.9266 45.214 23.7378 45.1526 23.4774C45.1174 23.3025 44.9704 23.1041 44.9101 22.8853C44.7128 22.1848 44.701 21.7857 44.227 21.2455C44.3121 20.9515 44.39 20.6538 44.4593 20.349C44.2791 20.0455 44.2932 19.4794 44.1998 19.2853C44.1247 19.1274 43.9664 19.0839 43.8892 18.9216C43.802 18.7405 43.8003 18.3976 43.6166 18.0749C43.3128 17.547 42.9614 17.617 42.7503 17.3292C42.5311 17.0323 42.3834 16.4438 42.0171 16.1193C41.9532 16.0912 41.8892 16.0636 41.8252 16.0365C41.7806 16.1189 41.7354 16.2009 41.6899 16.2826C41.526 16.1133 41.608 15.9326 41.4832 15.7559C41.3357 15.5486 41.1275 15.5448 41.0244 15.4109C40.9401 15.3012 40.9243 15.0721 40.8023 14.9372C40.6246 14.741 40.5173 14.9073 40.3995 14.8233C40.3572 14.7838 39.5837 14.0918 39.5379 14.0574C39.2236 13.7485 39.3746 13.5378 39.13 13.2749C38.4452 12.5472 37.5095 12.074 36.7163 11.6315C36.3608 11.4321 36.0135 11.1945 35.6845 10.9532C36.5867 10.7178 35.5814 9.53809 35.5414 10.7074C35.2174 10.3544 34.7984 10.4486 34.4378 10.2184C34.2025 10.0696 34.0876 9.85591 33.7201 9.6989C33.0593 9.41637 32.2061 9.54906 32.2454 8.78808C31.408 8.64223 30.7547 8.20782 30.3153 8.77254C30.1034 8.7618 29.6418 8.2708 29.4093 8.17765C29.1987 8.06873 27.4496 7.67572 27.1525 7.66772C26.8587 7.63741 26.3485 7.60816 26.0997 7.66314C25.9988 7.68459 25.9074 7.77003 25.8125 7.84921C25.6123 8.01502 25.4082 8.1513 25.0186 7.63282C24.3796 7.7246 24.1553 7.71988 23.5495 7.69085C23.4398 7.68636 23.4141 7.57181 23.3508 7.57916C23.22 7.59464 23.0109 7.70818 22.7824 7.75278C22.4057 7.82633 22.1478 7.62511 22.2551 7.98712C22.0197 8.09256 21.7865 8.20233 21.5565 8.31622C21.456 8.26366 21.3548 8.21184 21.2528 8.16077C21.1395 8.26775 21.0296 8.37532 20.9191 8.48437C20.9393 7.91511 20.1022 8.47024 20.4832 8.69101C19.9937 8.70919 19.4967 8.74767 19.0014 8.80468C18.8545 8.19357 17.9665 9.12088 18.1939 9.398C18.1428 9.41853 18.0918 9.43926 18.041 9.4602C17.5324 9.49761 17.1831 9.80502 16.6112 9.97535C16.0358 10.1526 16.0582 10.0786 15.7591 9.91889C15.6436 10.0027 15.5288 10.0878 15.4149 10.1742C15.1968 11.2227 14.567 9.9993 13.8571 11.2334C13.2352 11.0741 12.5807 11.9185 12.1951 12.4777C12.1493 12.5426 12.2123 12.6137 12.1568 12.7046C12.0195 12.9228 11.4785 13.2861 11.7137 13.487C11.4971 13.5798 11.2811 13.6775 11.0657 13.7801C10.9839 13.9509 10.9052 14.1223 10.8295 14.294C10.9022 14.3562 10.975 14.4184 11.0477 14.4806C10.5651 14.5348 10.3029 15.0584 10.0742 15.2327C10.028 15.2674 9.9152 15.1966 9.78184 15.3152C9.62491 15.4533 9.4357 15.7859 9.26595 15.9649C9.334 16.1253 9.40391 16.2843 9.47565 16.4417C9.31167 16.8397 8.90723 16.7659 8.75027 16.9706C8.71815 17.0054 8.33614 17.7483 8.32692 17.7939C8.21981 18.1535 8.54153 18.1981 8.05199 19.1195C7.9667 19.2846 7.80381 19.3804 7.73654 19.5363C7.61027 19.8117 7.56081 20.7454 7.77382 20.8797C7.37514 21.1245 7.24836 22.0853 7.11136 22.342C7.06765 22.4199 6.8765 22.3976 6.78509 22.6501C6.70903 22.8556 6.76717 23.4267 6.70842 23.6904C6.64318 23.9717 6.47424 24.0584 6.44909 24.187C6.42599 24.3084 6.54343 24.4331 6.52914 24.599C6.48259 25.1185 6.26026 25.5821 6.2559 26.0045C6.25583 26.0109 6.25581 26.0173 6.25583 26.0237C6.25829 26.626 6.66184 27.1311 6.87235 27.5953C6.85873 27.7182 6.78915 27.8443 6.80288 27.9729C6.96121 29.5501 7.34816 31.3092 7.9053 32.819C8.1279 33.5208 8.5974 35.4191 9.10609 34.5518C9.33866 34.7048 10.0683 36.4441 10.3097 36.7238C10.5242 37.0107 10.8234 37.1306 11.0052 37.3406C11.5575 37.9698 11.8897 38.4866 12.7392 39.0771C12.9599 39.2286 13.2932 39.2714 13.4102 39.3714C13.5509 39.4925 13.5959 39.758 13.7821 39.9173C14.2215 40.301 15.1512 40.8677 15.6152 41.1758C15.6994 41.2336 15.65 41.386 15.7528 41.5029C16.1518 41.9601 16.7472 42.2418 16.8689 41.745C17.3894 42.3282 18.1241 42.3701 18.7517 42.5933C20.0708 43.1105 22.6016 43.7939 23.8617 43.6666C24.648 43.5999 24.63 43.3893 25.7624 43.5988C25.7791 43.6016 25.7958 43.6045 25.8125 43.6075C26.0498 43.649 26.2901 43.6989 26.5788 43.7357C27.2988 43.8291 28.0261 44.1715 28.5101 43.6035C29.3281 43.621 29.9325 43.4033 30.6192 43.6742C30.6649 43.5581 30.7097 43.4418 30.753 43.3255C30.8486 43.2984 30.9438 43.2707 31.0387 43.2423C31.0941 43.328 31.1498 43.4136 31.2059 43.499C31.9136 43.3338 32.6424 42.6575 33.1893 42.4361C34.137 42.1089 36.4801 40.9954 37.3205 40.4989C37.7779 40.2541 37.6681 40.0712 38.1646 40.2286C38.2376 40.1336 38.3097 40.0379 38.3806 39.9419C38.3776 39.8236 38.3735 39.7056 38.3683 39.588C38.8671 39.1707 39.5356 38.7469 39.9691 38.293C40.7767 37.4726 41.6123 35.9771 42.3328 35.0961C42.5179 34.8769 42.8653 34.6622 42.9985 34.4118C43.1907 34.0469 42.9525 33.8131 43.167 33.3506C43.5477 32.5662 44.4553 31.1241 44.6189 30.2781C44.6718 30.0313 44.5811 29.8899 44.6057 29.7185C44.704 29.0024 44.8046 28.412 44.6898 27.7097C45.0617 27.0054 45.4439 27.0798 45.8579 26.862C46.1705 26.6995 46.8817 26.1261 47.1443 26.0341C47.3304 25.9726 47.5689 26.2027 47.7739 26.1175C47.925 27.1571 47.7069 27.599 47.3293 28.3876C47.1595 29.9085 46.8111 31.4109 46.2945 32.8533C46.1416 32.9458 45.9884 33.035 45.8344 33.1223C45.8342 33.1222 45.8339 33.1221 45.8337 33.1221C45.5022 33.6112 45.6659 33.9439 45.5942 34.2607C45.0607 37.4239 40.5491 41.8557 37.599 43.3427C37.0046 43.7356 34.9804 44.9199 34.4439 44.9123C34.3085 44.9173 34.2108 44.7712 34.0844 44.8139C33.0161 45.352 31.8968 45.8053 30.7398 46.1667C29.1091 46.3483 27.4715 46.5628 25.8125 46.6193C24.9487 46.6487 24.0883 46.6355 23.2358 46.5533C16.5025 45.9492 10.0481 42.0734 6.68062 36.1639C6.02288 35.0395 5.21655 33.5623 4.90105 32.3084C4.76891 31.786 4.96867 31.5009 4.59589 30.8776C4.66641 30.8523 4.73696 30.8272 4.80754 30.8021C4.57655 30.2363 4.32911 29.8892 4.19965 29.2105C4.07815 28.6467 3.9281 27.1129 3.95755 26.604C3.96518 26.3385 4.1064 26.4346 4.10275 26.1888C4.10209 26.1398 4.09899 26.0844 4.09419 26.0237C4.05485 25.5625 3.93488 24.7939 3.98282 24.2756C4.02388 23.746 4.30621 22.886 4.35945 22.4845C4.53218 21.0405 4.76428 19.4123 5.45341 17.9893C5.64165 17.5956 6.0477 17.1739 6.10387 17.0531C6.21252 16.8138 6.09398 16.6632 6.15776 16.4946C6.47743 15.6315 7.41842 14.5457 7.95915 13.8548C9.69512 11.5661 11.9783 9.4674 14.4776 8.07471C16.0271 7.15122 18.8359 6.02882 20.4903 5.81455C20.8434 5.76096 20.7932 5.9699 21.0829 5.90689C21.4048 5.83869 21.5559 5.67903 21.7058 5.64075C22.6443 5.37955 24.6811 5.06768 25.8125 5.16906C25.9273 5.17705 26.0323 5.18788 26.1255 5.20135C26.3187 5.22949 26.4537 5.38399 26.5677 5.38712C26.6254 5.38904 26.7598 5.29065 26.9426 5.28904C28.5625 5.28505 29.7384 5.51868 31.2691 5.92204C34.1947 6.68531 37.527 8.07917 39.9452 10.2103C40.4733 10.6698 40.6213 11.2154 40.6938 11.2768C40.8533 11.416 41.0909 11.3605 41.4366 11.6306C42.5971 12.5272 43.6615 14.1965 44.4664 15.3118C44.8742 15.8573 45.5572 16.5616 45.9046 17.1574C46.1953 17.6267 46.5905 18.8612 46.7691 19.0529C46.8828 19.1687 47.1104 19.1614 47.1948 19.3231ZM33.3908 9.37827C33.6001 9.08547 32.6681 9.0322 32.912 9.32584C32.9662 9.39034 33.3359 9.45208 33.3908 9.37827ZM6.57956 30.2014C6.67385 30.1703 6.76819 30.1393 6.86256 30.1084C6.79544 30.0045 6.72924 29.8994 6.66398 29.7931C6.61991 29.8704 6.57634 29.9483 6.53327 30.0266C6.54841 30.085 6.56384 30.1433 6.57956 30.2014Z" fill="black"/>
</svg>
