<svg width="105" height="55" viewBox="0 0 105 55" fill="none" xmlns="http://www.w3.org/2000/svg">
<path d="M1.3125 27.0735C1.3125 41.1567 12.7292 52.5735 26.8125 52.5735H77.8125C91.8958 52.5735 103.312 41.1567 103.312 27.0735C103.312 12.9902 91.8958 1.57349 77.8125 1.57349H26.8125C12.7292 1.57349 1.3125 12.9902 1.3125 27.0735Z" fill="black"/>
<path d="M13.5246 51.1521C13.8089 51.3373 14.2888 51.4441 14.6465 51.6134C16.1528 52.3086 16.7629 52.4522 18.1874 52.8914C20.253 53.7563 26.8337 54.5376 26.8125 53.4807C26.8125 53.4807 26.8125 53.4807 26.8125 53.4806C26.8125 53.4718 26.8119 53.4629 26.8106 53.4538C26.7867 53.2834 26.2511 53.0904 26.1788 52.893C26.1067 52.6952 26.1879 51.4509 25.4902 51.3467C24.4734 51.236 21.9863 51.1737 21.4469 51.0078C21.0793 50.9159 20.6579 50.6952 20.2009 50.5455C18.7382 50.0532 17.9385 49.8357 16.8037 48.9898C16.2357 48.9094 15.6627 48.8057 15.0917 48.681C14.4823 48.2709 13.4259 47.8655 13.0609 47.6C12.7611 47.3861 12.6587 47.1572 12.3545 46.9288C12.0149 46.6721 11.404 46.3846 10.822 45.8609C9.87535 44.9947 9.95713 44.5822 9.45526 44.0191C8.9391 43.434 7.99015 42.6356 7.48002 41.7614C7.43349 41.6391 7.3881 41.5167 7.3439 41.3943C7.46436 41.4166 7.58463 41.4378 7.70484 41.4581C7.43924 41.0384 7.17627 40.9646 6.91373 40.5872C6.60777 40.142 6.59956 39.8217 6.41022 39.5153C6.25571 39.2646 5.93972 38.9843 5.76083 38.6419C5.50247 38.1432 5.72941 38.1628 5.62296 37.8812C5.55647 37.7768 4.75307 35.7276 4.73423 35.6039C4.40962 34.7214 4.14454 34.7253 3.89629 34.0057C3.22201 32.0029 3.09639 29.8052 3.1165 27.8799C3.11848 27.6147 3.11998 27.3453 3.12201 27.0735C3.12201 27.0735 3.12201 27.0735 3.12201 27.0735C3.12655 26.461 3.13396 25.8523 3.15078 25.2529C2.38602 26.5883 2.13041 23.4732 3.05565 24.7197C3.00742 23.7403 3.38905 23.1032 3.52337 22.2091C3.61595 21.6266 3.56596 21.1957 3.80262 20.3811C4.22231 18.9246 5.24132 17.6025 4.76119 16.9025C5.61834 15.3438 6.24609 13.8924 7.14068 13.734C7.41829 13.383 7.80005 12.2199 8.0943 11.7887C8.30354 11.3364 10.8244 8.54203 11.3525 8.1964C11.819 7.7937 12.6821 7.14156 13.1465 6.90181C13.7368 6.59312 14.4381 6.92741 15.056 5.68032C16.2744 5.09753 16.6977 4.87914 17.8276 4.32016C18.0334 4.22148 18.0161 4.10353 18.1413 4.0559C18.4008 3.95777 18.8677 3.88075 19.3384 3.74164C20.1086 3.51455 20.495 3.16818 20.5043 3.55248C21.031 3.47681 21.557 3.4192 22.0837 3.37891C22.2494 3.27212 22.4174 3.167 22.5877 3.06364C22.8799 3.0928 23.1715 3.12714 23.4583 3.16708C23.0521 2.66092 25.0778 2.75768 24.4625 3.13844C25.233 2.97622 26.0158 2.85088 26.8125 2.7637C27.0538 2.73839 27.2951 2.71309 27.5364 2.68778C27.3868 2.0699 29.8909 2.61647 29.6801 2.95243C29.8028 2.95194 29.9255 2.95145 30.0482 2.95096C31.1224 2.78674 32.1089 2.92106 33.4183 2.81083C34.7276 2.7006 34.6047 2.64043 35.0028 2.35623C35.3109 2.37251 35.619 2.38879 35.9271 2.40506C37.5438 3.18419 37.258 1.83524 40.0264 2.4329C40.9109 1.94322 43.0912 2.20043 44.5369 2.34891C44.7051 2.36615 44.7079 2.4612 44.932 2.49051C45.4797 2.56099 46.8774 2.43881 46.8296 2.7454C47.3134 2.65669 47.7972 2.56799 48.2811 2.47928C48.6765 2.53503 49.072 2.59077 49.4674 2.64652C49.4654 2.74222 49.4634 2.83792 49.4614 2.93363C50.2578 2.60745 51.509 2.7328 52.1263 2.65482C52.2491 2.63901 52.2757 2.50699 52.6575 2.47098C53.1037 2.42824 53.9353 2.4673 54.467 2.42606C54.6738 2.5723 54.8805 2.71854 55.0872 2.86478C56.0382 2.9441 56.3724 2.5581 56.9308 2.52811C57.0314 2.5229 58.8657 2.55062 58.9645 2.55887C59.7736 2.62419 59.5444 2.95304 61.8844 2.8826C62.3011 2.86986 62.6382 2.75607 63.0148 2.7515C63.6802 2.74325 65.685 3.00132 65.8427 3.23978C66.6497 2.94133 68.8089 3.06332 69.4449 2.97709C69.6368 2.95057 69.6801 2.76047 70.2701 2.72001C70.7484 2.68701 71.9802 2.83923 72.5869 2.81376C73.2308 2.78601 73.4607 2.62631 73.7492 2.61502C74.0218 2.60453 74.2731 2.73344 74.6445 2.7327C75.804 2.7282 76.8541 2.5207 77.7705 2.51688C77.7845 2.51682 77.7985 2.5168 77.8125 2.51682C79.0826 2.51998 80.1628 2.98564 81.1603 3.29338C81.4189 3.30448 81.6852 3.2629 81.9548 3.30875C85.2889 3.84724 88.9095 5.26316 91.7387 7.1781C93.1045 7.96905 96.3006 10.4171 94.923 10.281C95.2504 10.711 97.9916 13.5808 98.334 14.2854C98.7396 14.9267 98.896 15.5275 99.1652 16.0514C99.9598 17.6422 100.562 18.7806 101.009 20.9128C101.12 21.4642 101.068 22.0879 101.133 22.4088C101.212 22.7936 101.463 23.188 101.546 23.6981C101.689 24.5452 101.783 25.9148 101.772 27.0735C101.769 27.5836 101.754 28.0452 101.743 28.4061C101.737 28.6228 101.889 28.7088 101.913 29.0237C102.015 30.2529 101.743 31.6103 101.297 31.2803C101.304 32.8495 100.661 34.1787 100.147 35.495C99.2022 38.3631 96.0778 43.0073 93.9009 44.5278C92.5754 45.5153 92.5127 45.3471 90.6394 46.8573C90.2148 47.1835 89.7903 47.5101 89.2443 47.8698C87.9769 48.7079 86.7951 49.6477 85.522 49.5573C83.9485 50.2283 82.6096 50.4215 81.4092 51.0331C81.245 50.9544 81.0822 50.8741 80.9209 50.7922C80.7128 50.8166 80.504 50.8384 80.2944 50.8575C80.239 50.9609 80.1839 51.0641 80.1273 51.1672C79.4143 51.2478 78.6006 51.2067 77.8125 51.1156C76.8841 51.0147 75.9814 50.9042 75.2668 50.9057C72.9954 50.9102 67.1452 51.0655 64.9915 51.1967C63.848 51.2664 63.7865 51.0581 63.1319 51.4863C62.8761 51.4565 62.6204 51.4267 62.3646 51.3969C62.2046 51.3032 62.0445 51.2094 61.8845 51.1157C60.4175 51.1119 58.6775 51.2576 57.28 51.2561C54.7334 51.2531 50.9094 50.995 48.3521 51.1645C47.7109 51.2073 46.9094 51.4006 46.2815 51.3984C45.3676 51.3954 45.1455 51.0746 43.9857 51.0686C41.9869 51.0588 38.2645 51.4315 36.3753 51.403C35.8142 51.3948 35.5524 51.2754 35.1649 51.2627C33.5402 51.2079 32.2063 51.2176 30.6485 51.0332C28.9757 51.3406 29.1202 51.7375 28.6018 52.1379C28.2089 52.4401 27.0042 53.1405 26.8332 53.4052C26.7131 53.5912 27.1616 53.8304 26.9933 54.0351C28.9974 54.1986 29.8394 54.0186 31.4667 53.7307C34.472 53.7422 37.4773 53.7536 40.4826 53.7651C40.756 53.6534 41.0294 53.5416 41.3029 53.4299C41.3029 53.4297 41.3029 53.4294 41.3029 53.4292C42.457 53.3002 42.9462 53.588 43.5686 53.6533C49.5276 54.2787 61.2562 53.7892 67.8164 53.7187C69.23 53.7037 73.8286 53.8543 74.7986 53.6728C75.0498 53.6256 75.1196 53.4533 75.3868 53.4458C76.1954 53.4805 77.0039 53.5152 77.8125 53.5499C79.4514 53.6178 81.1032 53.5357 82.7396 53.2989C87.7236 52.1154 92.6545 49.8035 96.4037 46.2016C101.591 41.2816 104.646 34.2029 104.65 27.0735C104.65 27.0735 104.65 27.0735 104.65 27.0735C104.725 20.2346 102.003 13.4278 97.2808 8.53832C95.4519 6.58409 92.7733 4.40159 90.3877 3.26746C89.3933 2.79266 88.8778 2.8413 87.6282 2.1142C87.5869 2.17804 87.5456 2.24194 87.5045 2.30589C86.3776 1.77689 85.6668 1.36219 84.3041 0.996937C83.1649 0.647579 80.0517 0.205181 78.9988 0.235981C78.4571 0.229744 78.6549 0.375008 78.1511 0.36517C78.0508 0.363659 77.9371 0.359974 77.8125 0.355183C76.9116 0.318687 75.4212 0.168243 74.4174 0.16824C73.3886 0.16824 71.6543 0.328693 70.8633 0.305447C68.0148 0.222958 64.912 -0.0148849 61.8764 0.0488548C61.0379 0.0668907 59.9593 0.247498 59.6967 0.242458C59.1838 0.231964 59.031 0.0565186 58.6864 0.0339622C56.9362 -0.0800133 54.208 0.128475 52.4924 0.136745C46.9022 0.163742 40.9801 0.0871658 35.4139 0.119411C33.0896 0.132793 29.7484 0.12384 26.8125 0.154343C25.2224 0.168163 23.7499 0.342125 22.6153 0.567295C21.8909 0.715401 22.119 0.871708 21.5182 0.988327C20.8509 1.12439 20.4631 1.08928 20.1511 1.15735C17.9557 1.52079 13.3834 3.46708 11.7777 4.85545C11.4612 5.10108 11.3145 5.39177 11.1228 5.53067C11.0262 5.60133 10.7456 5.67897 10.4394 5.90275C7.7607 7.90517 6.11889 9.79405 4.34136 12.5371C1.75297 16.5558 -0.0314735 21.8401 0.000242352 27.0735C-0.00135124 28.6884 0.151785 30.2881 0.450891 31.819C0.728452 33.2342 1.29683 34.0984 1.345 34.2897C1.46102 34.7113 1.34176 35.0409 1.58763 35.9056C2.37792 38.8095 4.6205 42.2262 6.41534 44.4099C7.27401 45.514 8.48069 47.0601 9.53426 47.9894C10.3467 48.7682 12.5938 50.1581 12.9781 50.4806C13.2035 50.6917 13.2174 50.9503 13.5246 51.1521ZM3.91137 19.4683C3.5138 19.5218 4.43002 17.8612 4.35984 18.5856C4.34013 18.746 4.00885 19.4507 3.91137 19.4683ZM86.5204 3.92467C86.4692 4.01113 86.4181 4.09768 86.3673 4.18432C86.1493 4.05887 85.9312 3.93737 85.709 3.81844C85.8603 3.80698 86.0121 3.79695 86.1643 3.78836C86.283 3.83273 86.4019 3.87825 86.5204 3.92467Z" fill="black"/>
<ellipse cx="20.5" cy="19.5" rx="20.5" ry="19.5" transform="matrix(1 0 0 -1 58.3125 46.5735)" fill="white"/>
<path d="M100.195 33.7741C100.272 33.6243 100.222 33.3617 100.272 33.1746C100.481 32.385 100.467 32.0708 100.575 31.3443C100.805 30.2855 101.171 27.0604 100.22 27.0735C100.22 27.0735 100.22 27.0735 100.22 27.0735C100.211 27.0735 100.202 27.0738 100.193 27.0744C100.022 27.0862 99.8324 27.3451 99.6372 27.379C99.4419 27.4127 98.191 27.3694 98.1101 27.6971C98.0118 28.1705 98.214 29.3594 98.1526 29.6198C98.1174 29.7947 97.9704 29.9931 97.9101 30.2119C97.7128 30.9123 97.701 31.3115 97.227 31.8516C97.3121 32.1456 97.39 32.4434 97.4593 32.7482C97.2791 33.0516 97.2932 33.6178 97.1998 33.8118C97.1247 33.9697 96.9664 34.0133 96.8892 34.1756C96.802 34.3567 96.8003 34.6996 96.6166 35.0222C96.3128 35.5502 95.9614 35.4802 95.7503 35.768C95.5311 36.0648 95.3834 36.6533 95.0171 36.9779C94.9532 37.006 94.8892 37.0335 94.8252 37.0607C94.7806 36.9783 94.7354 36.8962 94.6899 36.8146C94.526 36.9838 94.608 37.1646 94.4832 37.3412C94.3357 37.5486 94.1275 37.5524 94.0244 37.6863C93.9401 37.796 93.9243 38.0251 93.8023 38.16C93.6246 38.3562 93.5173 38.1898 93.3995 38.2739C93.3572 38.3133 92.5837 39.0053 92.5379 39.0398C92.2236 39.3486 92.3746 39.5593 92.13 39.8222C91.4452 40.55 90.5095 41.0232 89.7163 41.4657C89.3608 41.6651 89.0135 41.9027 88.6845 42.144C89.5867 42.3794 88.5814 43.5591 88.5414 42.3897C88.2174 42.7428 87.7984 42.6486 87.4378 42.8788C87.2025 43.0275 87.0876 43.2413 86.7201 43.3983C86.0593 43.6808 85.2061 43.5481 85.2454 44.3091C84.408 44.4549 83.7547 44.8893 83.3153 44.3246C83.1034 44.3354 82.6418 44.8264 82.4093 44.9195C82.1987 45.0284 80.4496 45.4214 80.1525 45.4294C79.8587 45.4598 79.3485 45.489 79.0997 45.434C78.9988 45.4126 78.9074 45.3271 78.8125 45.248C78.6123 45.0821 78.4082 44.9459 78.0186 45.4644C77.3796 45.3726 77.1553 45.3773 76.5495 45.4063C76.4398 45.4108 76.4141 45.5254 76.3508 45.518C76.22 45.5025 76.0109 45.389 75.7824 45.3444C75.4057 45.2708 75.1478 45.4721 75.2551 45.11C75.0197 45.0046 74.7865 44.8948 74.5565 44.7809C74.456 44.8335 74.3548 44.8853 74.2528 44.9364C74.1395 44.8294 74.0296 44.7218 73.9191 44.6128C73.9393 45.1821 73.1022 44.6269 73.4832 44.4062C72.9937 44.388 72.4967 44.3495 72.0014 44.2925C71.8545 44.9036 70.9665 43.9763 71.1939 43.6992C71.1428 43.6786 71.0918 43.6579 71.041 43.637C70.5324 43.5996 70.1831 43.2921 69.6112 43.1218C69.0358 42.9446 69.0582 43.0185 68.7591 43.1783C68.6436 43.0944 68.5288 43.0093 68.4149 42.9229C68.1968 41.8745 67.567 43.0979 66.8571 41.8637C66.2352 42.023 65.5807 41.1787 65.1951 40.6195C65.1493 40.5546 65.2123 40.4835 65.1568 40.3926C65.0195 40.1743 64.4785 39.811 64.7137 39.6101C64.4971 39.5174 64.2811 39.4197 64.0657 39.3171C63.9839 39.1462 63.9052 38.9749 63.8295 38.8032C63.9022 38.741 63.975 38.6788 64.0477 38.6166C63.5651 38.5623 63.3029 38.0388 63.0742 37.8645C63.028 37.8298 62.9152 37.9006 62.7818 37.782C62.6249 37.6439 62.4357 37.3112 62.2659 37.1323C62.334 36.9719 62.4039 36.8129 62.4756 36.6554C62.3117 36.2575 61.9072 36.3312 61.7503 36.1266C61.7182 36.0918 61.3361 35.3489 61.3269 35.3032C61.2198 34.9437 61.5415 34.8991 61.052 33.9777C60.9667 33.8126 60.8038 33.7167 60.7365 33.5609C60.6103 33.2855 60.5608 32.3517 60.7738 32.2175C60.3751 31.9727 60.2484 31.0119 60.1114 30.7552C60.0677 30.6772 59.8765 30.6995 59.7851 30.4471C59.709 30.2416 59.7672 29.6704 59.7084 29.4068C59.6432 29.1255 59.4742 29.0388 59.4491 28.9102C59.426 28.7888 59.5434 28.6641 59.5291 28.4981C59.4826 27.9787 59.2603 27.5151 59.2559 27.0927C59.2558 27.0863 59.2558 27.0799 59.2558 27.0735C59.2583 26.4711 59.6618 25.9661 59.8723 25.5019C59.8587 25.3789 59.7891 25.2529 59.8029 25.1243C59.9612 23.5471 60.3482 21.788 60.9053 20.2782C61.1279 19.5764 61.5974 17.6781 62.1061 18.5454C62.3387 18.3924 63.0683 16.653 63.3097 16.3734C63.5242 16.0865 63.8234 15.9666 64.0052 15.7565C64.5575 15.1273 64.8897 14.6105 65.7392 14.0201C65.9599 13.8686 66.2932 13.8258 66.4102 13.7258C66.5509 13.6047 66.5959 13.3391 66.7821 13.1799C67.2215 12.7962 68.1512 12.2295 68.6152 11.9213C68.6994 11.8636 68.65 11.7112 68.7528 11.5942C69.1518 11.1371 69.7472 10.8554 69.8689 11.3522C70.3894 10.7689 71.1241 10.7271 71.7517 10.5038C73.0708 9.9867 75.6016 9.30327 76.8617 9.43059C77.648 9.49723 77.63 9.70791 78.7624 9.49839C78.7791 9.49554 78.7958 9.49264 78.8125 9.4897C79.0498 9.44815 79.2901 9.39832 79.5788 9.36151C80.2988 9.26811 81.0261 8.92563 81.5101 9.49363C82.3281 9.47615 82.9325 9.69391 83.6192 9.423C83.6649 9.5391 83.7097 9.65539 83.753 9.77171C83.8486 9.79874 83.9438 9.82646 84.0387 9.85487C84.0941 9.76912 84.1498 9.68357 84.2059 9.5982C84.9136 9.76341 85.6424 10.4397 86.1893 10.6611C87.137 10.9883 89.4801 12.1018 90.3205 12.5982C90.7779 12.8431 90.6681 13.0259 91.1646 12.8686C91.2376 12.9636 91.3097 13.0592 91.3806 13.1552C91.3776 13.2736 91.3735 13.3916 91.3683 13.5092C91.8671 13.9265 92.5356 14.3503 92.9691 14.8042C93.7767 15.6246 94.6123 17.12 95.3328 18.001C95.5179 18.2202 95.8653 18.435 95.9985 18.6854C96.1907 19.0503 95.9525 19.284 96.167 19.7466C96.5477 20.531 97.4553 21.9731 97.6189 22.8191C97.6718 23.0659 97.5811 23.2073 97.6057 23.3787C97.704 24.0947 97.8046 24.6852 97.6898 25.3875C98.0617 26.0917 98.4439 26.0174 98.8579 26.2352C99.1705 26.3977 99.8817 26.9711 100.144 27.0631C100.33 27.1246 100.569 26.8945 100.774 26.9797C100.925 25.94 100.707 25.4981 100.329 24.7096C100.159 23.1887 99.8111 21.6862 99.2945 20.2438C99.1416 20.1514 98.9884 20.0622 98.8344 19.9748C98.8342 19.9749 98.8339 19.975 98.8337 19.9751C98.5022 19.486 98.6659 19.1532 98.5942 18.8365C98.0607 15.6732 93.5491 11.2415 90.599 9.75445C90.0046 9.36155 87.9804 8.17726 87.4439 8.18486C87.3085 8.17987 87.2108 8.32602 87.0844 8.28331C86.0161 7.74514 84.8968 7.2919 83.7398 6.93046C82.1091 6.74889 80.4715 6.53436 78.8125 6.47788C77.9487 6.44846 77.0883 6.46171 76.2358 6.54386C69.5025 7.14795 63.0481 11.0238 59.6806 16.9333C59.0229 18.0577 58.2166 19.5349 57.9011 20.7887C57.7689 21.3111 57.9687 21.5963 57.5959 22.2196C57.6664 22.2448 57.737 22.27 57.8075 22.2951C57.5765 22.8609 57.3291 23.2079 57.1996 23.8867C57.0781 24.4505 56.9281 25.9843 56.9575 26.4932C56.9652 26.7587 57.1064 26.6626 57.1028 26.9084C57.1021 26.9573 57.099 27.0128 57.0942 27.0735C57.0548 27.5347 56.9349 28.3033 56.9828 28.8216C57.0239 29.3511 57.3062 30.2112 57.3595 30.6126C57.5322 32.0567 57.7643 33.6849 58.4534 35.1079C58.6416 35.5016 59.0477 35.9232 59.1039 36.0441C59.2125 36.2833 59.094 36.434 59.1578 36.6025C59.4774 37.4656 60.4184 38.5514 60.9591 39.2424C62.6951 41.531 64.9783 43.6298 67.4776 45.0225C69.0271 45.9459 71.8359 47.0683 73.4903 47.2826C73.8434 47.3362 73.7932 47.1273 74.0829 47.1903C74.4048 47.2585 74.5559 47.4181 74.7058 47.4564C75.6443 47.7176 77.6811 48.0295 78.8125 47.9281C78.9273 47.9201 79.0323 47.9093 79.1255 47.8958C79.3187 47.8677 79.4537 47.7132 79.5677 47.71C79.6254 47.7081 79.7598 47.8065 79.9426 47.8081C81.5625 47.8121 82.7384 47.5785 84.2691 47.1751C87.1947 46.4119 90.527 45.018 92.9452 42.8869C93.4733 42.4273 93.6213 41.8818 93.6938 41.8204C93.8533 41.6811 94.0909 41.7366 94.4366 41.4666C95.5971 40.57 96.6615 38.9006 97.4664 37.7854C97.8742 37.2398 98.5572 36.5355 98.9046 35.9398C99.1953 35.4705 99.5905 34.236 99.7691 34.0442C99.8828 33.9285 100.11 33.9358 100.195 33.7741ZM86.3908 43.7189C86.6001 44.0117 85.6681 44.065 85.912 43.7713C85.9662 43.7068 86.3359 43.6451 86.3908 43.7189ZM59.5796 22.8958C59.6739 22.9269 59.7682 22.9579 59.8626 22.9888C59.7954 23.0927 59.7292 23.1978 59.664 23.304C59.6199 23.2267 59.5763 23.1489 59.5333 23.0706C59.5484 23.0122 59.5638 22.9539 59.5796 22.8958Z" fill="white"/>
</svg>
