<svg width="224" height="64" viewBox="0 0 224 64" fill="none" xmlns="http://www.w3.org/2000/svg">
<g filter="url(#filter0_d_64_1721)">
<path d="M6 1.52362H218V45.5236H6V1.52362Z" fill="white" shape-rendering="crispEdges"/>
<path d="M4.00296 26.6287C3.97897 26.0185 4.10867 25.1572 4.1155 24.4373C4.1455 21.4218 4.23541 20.3044 4.2864 17.576C4.36215 13.5305 4.19167 1.52393 5.09277 1.52362C5.0928 1.52362 5.09282 1.52362 5.09284 1.52362C5.10168 1.52362 5.11061 1.52478 5.11966 1.52711C5.29133 1.56919 5.47873 2.59041 5.67288 2.74195C5.8671 2.89327 7.12095 2.7798 7.19144 4.23024C7.28433 6.33327 6.96284 11.3781 6.97708 12.4998C6.9869 13.2666 7.10089 14.2107 7.12113 15.1912C7.18636 18.3527 7.103 20.0069 7.41263 22.8553C7.24946 23.9946 7.0863 25.1339 6.92313 26.2733C6.99878 27.7598 6.78359 30.0127 6.79544 30.9158C6.80519 31.6567 6.93422 32.0909 6.94022 32.8631C6.94767 33.7292 6.8084 35.0592 6.82938 36.6346C6.86312 39.2172 7.19972 39.6768 7.24247 41.2264C7.27391 42.3686 7.19057 43.9615 7.18227 45.5236L6 44.3413C6.63556 44.3447 7.26611 44.3357 7.85904 44.3014C8.11622 44.2644 8.37334 44.2274 8.63053 44.1903C8.44627 44.1066 8.26203 44.0229 8.07779 43.9391C9.11053 43.9001 9.55462 44.0718 10.5036 44.0749C11.6201 44.0786 12.1898 43.9159 12.9411 43.9167C13.5566 43.9174 14.3911 44.0479 15.1891 44.0397C16.3526 44.0285 16.0982 43.8401 16.7243 43.8048C16.9741 43.7911 21.5927 43.6872 21.8532 43.6857C23.8349 43.6783 24.0074 43.9361 25.5876 43.9586C29.9703 44.0201 34.4692 43.8118 38.5232 43.7331C40.3334 43.6978 42.2221 43.7128 44.0271 43.7541C41.1841 44.4139 47.4757 44.9275 45.1228 43.8949C47.131 44.0418 48.555 43.7631 50.4587 43.8102C51.6901 43.841 52.5423 43.9841 54.3005 43.9804C57.4203 43.9728 60.8329 43.5658 61.7302 44.3014C65.3926 44.1717 68.5646 44.4386 69.8846 43.7892C70.829 43.7495 73.2491 44.1363 74.3084 44.1889C75.3102 44.2384 82.9963 44.413 84.2537 44.4228C85.5111 44.4325 87.7123 44.4431 88.7713 44.3861C90.1018 44.3156 91.0315 43.6422 93.4002 44.4296C96.1544 44.3659 97.1356 44.3884 99.6971 44.4799C100.161 44.4964 100.213 44.6133 100.484 44.6134C101.042 44.6134 101.992 44.527 102.988 44.5165C104.626 44.4993 105.561 44.7452 105.379 44.3695C106.459 44.3065 107.539 44.2436 108.619 44.1806C108.998 44.2531 109.377 44.3256 109.756 44.3981C110.333 44.3191 110.911 44.2401 111.488 44.161C110.81 44.7047 114.874 44.3839 113.555 44.0719C115.648 44.1844 117.742 44.2969 119.836 44.4093C119.544 45.0272 124.433 44.4806 124.021 44.1447C124.261 44.1452 124.501 44.1457 124.74 44.1461C126.838 44.3104 128.764 44.176 131.32 44.2863C133.877 44.3965 133.637 44.4567 134.414 44.7409C135.016 44.7246 135.617 44.7083 136.219 44.692C139.375 43.9129 138.817 45.2619 144.223 44.6642C145.95 45.1539 150.207 44.8967 153.029 44.7482C153.358 44.731 153.363 44.6359 153.801 44.6066C154.87 44.5361 157.599 44.6583 157.506 44.3517C158.45 44.4404 159.395 44.5291 160.34 44.6178C161.112 44.5621 161.884 44.5063 162.656 44.4506C162.652 44.3549 162.648 44.2592 162.645 44.1635C164.199 44.4897 166.642 44.3643 167.848 44.4423C168.087 44.4581 168.139 44.5901 168.885 44.6261C169.756 44.6689 171.38 44.6298 172.418 44.671C172.822 44.5248 173.225 44.3786 173.629 44.2323C175.486 44.153 176.138 44.539 177.229 44.569C177.425 44.5742 181.006 44.5465 181.199 44.5382C182.779 44.4729 182.331 44.1441 186.9 44.2145C187.714 44.2272 188.372 44.341 189.107 44.3456C190.407 44.3539 194.321 44.0958 194.629 43.8573C196.205 44.1558 200.42 44.0338 201.662 44.12C202.037 44.1465 202.122 44.3366 203.273 44.3771C204.207 44.4101 206.613 44.2579 207.797 44.2834C209.054 44.3111 209.503 44.4708 210.066 44.4821C210.599 44.4926 211.089 44.3637 211.815 44.3644C214.078 44.3689 216.129 44.5764 217.918 44.5802C217.945 44.5803 217.973 44.5803 218 44.5803L217.057 45.5236C217.055 42.9694 216.679 40.7089 216.511 38.5665C216.536 38.0291 216.618 37.5011 216.619 36.9376C216.631 29.9673 216.701 22.1044 216.783 15.1134C216.82 11.8679 217.339 3.7971 216.474 5.95123C216.407 5.45504 216.438 3.58995 216.493 1.52362L218 3.03087C215.369 2.9607 212.413 2.85008 211.539 2.84714C209.979 2.84194 208.743 2.99695 207.517 2.99924C203.818 3.00599 201.213 2.89429 196.711 3.02927C195.548 3.06456 194.302 3.2482 193.613 3.24607C192.784 3.24307 191.891 3.06546 190.816 3.05417C188.255 3.02868 183.481 3.0871 181.023 3.05637C180.575 3.05037 180.417 2.89442 179.775 2.84568C177.276 2.65522 174.475 2.67174 174.97 3.16965C171.767 2.88697 168.804 3.14482 165.836 3.16062C159.559 3.19286 148.126 3.07664 142.658 3.28586C139.21 3.41785 139.298 3.64116 134.222 3.44846C133.096 3.40572 131.974 3.34808 130.607 3.29709C127.404 3.17711 124.465 2.76456 122.023 3.26169C118.465 3.13276 115.632 3.22419 112.992 2.79904C112.681 2.90101 112.369 3.00298 112.058 3.10495C111.622 3.10748 111.186 3.11 110.75 3.11252C110.614 3.01527 110.478 2.91802 110.341 2.82077C107.217 2.79459 103.252 3.1943 100.607 3.19138C96.1722 3.18688 84.7498 3.03159 80.5445 2.90036C78.312 2.83068 78.1918 3.03896 76.9137 2.61081C76.4143 2.6406 75.915 2.67038 75.4156 2.70017C75.1031 2.79392 74.7906 2.88767 74.4781 2.98142C71.6138 2.98517 68.2165 2.83955 65.4879 2.84104C60.5156 2.84404 53.0493 3.10206 48.0562 2.93259C46.8042 2.88985 45.2392 2.69652 44.0132 2.6987C42.2288 2.7017 41.7951 3.02254 39.5308 3.02854C35.6281 3.03829 28.3601 2.66557 24.6714 2.69406C23.5758 2.70232 23.0646 2.8217 22.3081 2.83445C19.1359 2.88919 16.5315 2.87947 13.4897 3.06394C10.2236 2.75649 10.5058 2.35964 9.49361 1.9592C8.72652 1.65697 6.37437 0.956559 6.04047 0.691862C5.80593 0.505898 6.68164 0.266677 6.35297 0.0619779C10.266 -0.101493 11.91 0.0784669 15.0874 0.366422C20.9552 0.354947 26.8231 0.343473 32.6909 0.331998C33.2248 0.443733 33.7586 0.555469 34.2925 0.667204C34.2925 0.667448 34.2925 0.667692 34.2925 0.667936C36.5459 0.796886 37.501 0.509132 38.7163 0.443815C50.3512 -0.181591 73.2513 0.307895 86.0602 0.378385C88.8203 0.393377 97.7991 0.242814 99.693 0.424283C100.183 0.471544 100.32 0.643836 100.841 0.651335C105.502 0.548877 110.163 0.446419 114.824 0.343961C124.408 0.611668 134.317 0.390576 143.974 0.349332C168.859 0.242919 193.507 0.114666 218 0.138325C218.784 0.132203 219.379 0.740003 219.385 1.52362C219.384 2.74792 219.383 3.97183 219.381 5.19537C219.372 10.1624 219.501 16.4655 219.418 21.3282C219.384 23.3576 219.107 24.2032 219.313 26.8692C219.239 26.8972 219.164 26.9252 219.09 26.9532C219.18 29.2798 219.349 30.7666 219.366 33.3751C219.381 35.5717 219.392 41.3833 219.363 43.3243C219.349 44.3312 219.21 43.9561 219.21 44.8947C219.211 45.0813 219.214 45.2925 219.218 45.5236C219.224 46.2128 218.689 46.7365 218 46.7419C216.241 46.7784 213.331 46.9289 211.371 46.9289C209.362 46.9289 205.976 46.7684 204.432 46.7917C198.87 46.8741 192.812 47.112 186.885 47.0483C185.247 47.0302 183.142 46.8496 182.629 46.8546C181.627 46.8651 181.329 47.0406 180.656 47.0631C177.239 47.1771 171.912 46.9686 168.562 46.9604C157.648 46.9334 146.085 47.0099 135.217 46.9777C128.351 46.9575 116.941 46.9883 110.601 46.8564C109.234 46.8279 109.599 46.6357 108.451 46.6357C107.178 46.6357 106.489 46.7655 105.894 46.776C101.777 46.8495 92.6893 46.9808 88.8026 46.8481C88.0622 46.8226 87.5252 46.672 87.0818 46.6725C86.8575 46.6725 86.3506 46.7753 85.6463 46.7858C79.4271 46.8788 74.8926 46.8188 68.7986 46.7836C57.1275 46.7169 43.6042 46.9081 31.3435 46.8046C28.6721 46.7821 26.8402 46.4842 26.4646 46.4872C25.6402 46.4932 25.1126 46.6936 23.4431 46.7431C18.1884 46.8971 11.2088 46.7137 6 46.7789C5.28994 46.7844 4.75028 46.2337 4.74473 45.5236C4.74106 45.2299 4.73659 44.9418 4.73123 44.66C4.68174 42.0516 4.4274 38.4672 4.37112 35.9002C4.32613 33.85 4.4259 29.0081 4.31424 28.0994C4.24677 27.5466 4.03008 27.2908 4.00296 26.6287ZM56.1736 44.1476C55.8083 44.4941 59.6468 44.2061 58.2068 44.0202C57.8825 43.9783 56.268 44.0577 56.1736 44.1476ZM217.226 27.6095C217.127 27.6446 217.028 27.6798 216.929 27.7149C216.97 28.2188 217.011 28.7228 217.052 29.2267C217.112 28.9435 217.171 28.6603 217.231 28.3771C217.229 28.1212 217.227 27.8653 217.226 27.6095Z" fill="black"/>
<path d="M85.2331 12.7286C86.0731 13.0286 86.4931 13.4936 86.4931 14.1236L86.9431 31.2686V36.8036C86.9431 37.8236 86.5081 38.3336 85.6381 38.3336H85.0531C84.5131 37.9736 84.2431 37.5536 84.2431 37.0736V31.8536L83.8381 14.0336C83.8381 13.2836 84.3031 12.8486 85.2331 12.7286ZM99.1827 20.5586C101.403 20.5586 103.083 22.2086 104.223 25.5086L104.403 26.4536C104.403 29.6636 102.903 32.9486 99.9027 36.3086C98.7027 37.4186 97.4877 37.9736 96.2577 37.9736C94.4577 37.9736 93.1827 36.9386 92.4327 34.8686C92.1627 33.9086 92.0277 33.0686 92.0277 32.3486V31.8086C92.0277 27.0686 93.7527 23.4686 97.2027 21.0086C97.8027 20.7086 98.4627 20.5586 99.1827 20.5586ZM94.6827 32.2586C94.6827 34.2986 95.2077 35.3186 96.2577 35.3186C98.4477 35.3186 100.263 32.5136 101.703 26.9036V26.0486C101.193 24.1886 100.248 23.2586 98.8677 23.2586C98.3277 23.2586 98.0577 23.6336 98.0577 24.3836C98.0577 24.8936 97.4577 25.2986 96.2577 25.5986C95.2077 27.3686 94.6827 29.5886 94.6827 32.2586ZM115.442 20.2436C116.822 20.2436 117.512 20.9036 117.512 22.2236C117.692 22.2236 117.782 22.4486 117.782 22.8986H117.962L117.782 24.2036L117.962 33.2936L117.692 40.4936C120.392 40.4936 122.207 42.4736 123.137 46.4336C123.137 47.2436 122.582 47.7086 121.472 47.8286C120.962 47.8286 120.392 46.7036 119.762 44.4536C119.162 43.5836 118.472 43.1486 117.692 43.1486H117.512C116.552 49.5386 115.712 52.7336 114.992 52.7336C114.122 54.3236 112.862 55.1186 111.212 55.1186C108.782 54.5486 107.567 53.3336 107.567 51.4736V51.2036C107.567 48.3836 109.577 45.3236 113.597 42.0236L114.992 41.1686L115.172 36.3086V35.1836H114.992C113.972 36.4736 112.997 37.1186 112.067 37.1186H111.797C109.727 37.1186 108.542 35.5286 108.242 32.3486V31.3586C108.242 27.5186 109.652 24.1886 112.472 21.3686C113.342 20.6186 114.332 20.2436 115.442 20.2436ZM110.942 30.7736V32.9336C111.062 33.9236 111.287 34.4186 111.617 34.4186H112.067C112.907 34.4186 113.942 31.3286 115.172 25.1486V22.8986C113.372 22.8986 111.962 25.5236 110.942 30.7736ZM110.222 51.2936C110.342 52.0436 110.762 52.4186 111.482 52.4186C112.922 52.4186 113.957 49.8536 114.587 44.7236H114.317C111.587 47.0936 110.222 49.2836 110.222 51.2936ZM122.666 14.0786C123.806 14.3186 124.376 14.8286 124.376 15.6086C124.076 16.4486 123.596 16.8686 122.936 16.8686C121.826 16.6586 121.271 16.1036 121.271 15.2036C121.571 14.4536 122.036 14.0786 122.666 14.0786ZM124.376 20.3786C124.856 20.3786 125.261 20.8136 125.591 21.6836L125.186 24.8786V26.9936C125.186 29.4536 125.606 32.6786 126.446 36.6686C126.146 37.2386 125.636 37.5236 124.916 37.5236C123.686 37.5236 122.876 33.9236 122.486 26.7236V25.1486C122.486 21.9686 123.116 20.3786 124.376 20.3786ZM136.411 22.3586C138.961 22.5686 140.236 23.8136 140.236 26.0936L140.326 26.6786L140.236 33.6986C140.236 34.5086 140.701 35.6036 141.631 36.9836V37.0736C141.391 37.9436 140.956 38.3786 140.326 38.3786C138.466 37.5986 137.536 35.9486 137.536 33.4286V32.8436L137.401 32.7536L137.536 32.5736V32.4836L137.671 26.2736C137.671 25.4036 137.296 24.9686 136.546 24.9686H136.006C134.506 25.5686 133.756 28.8536 133.756 34.8236C133.756 36.8936 133.231 37.9286 132.181 37.9286C131.371 37.9286 130.951 37.4186 130.921 36.3986V31.8986C130.921 26.0786 131.431 23.1686 132.451 23.1686L132.901 23.0336L133.846 23.1686C134.656 22.6286 135.511 22.3586 136.411 22.3586Z" fill="black"/>
</g>
<defs>
<filter id="filter0_d_64_1721" x="0" y="0" width="223.446" height="63.1187" filterUnits="userSpaceOnUse" color-interpolation-filters="sRGB">
<feFlood flood-opacity="0" result="BackgroundImageFix"/>
<feColorMatrix in="SourceAlpha" type="matrix" values="0 0 0 0 0 0 0 0 0 0 0 0 0 0 0 0 0 0 127 0" result="hardAlpha"/>
<feOffset dy="4"/>
<feGaussianBlur stdDeviation="2"/>
<feComposite in2="hardAlpha" operator="out"/>
<feColorMatrix type="matrix" values="0 0 0 0 0 0 0 0 0 0 0 0 0 0 0 0 0 0 0.25 0"/>
<feBlend mode="normal" in2="BackgroundImageFix" result="effect1_dropShadow_64_1721"/>
<feBlend mode="normal" in="SourceGraphic" in2="effect1_dropShadow_64_1721" result="shape"/>
</filter>
</defs>
</svg>
