<svg width="43" height="42" viewBox="0 0 43 42" fill="none" xmlns="http://www.w3.org/2000/svg">
<path d="M27.2316 2.22343C24.212 2.22343 16.8252 2.55124 13.9589 3.6928C12.6766 4.20352 11.918 4.99502 10.3823 6.7126C6.8122 10.7054 4.27867 14.3645 3.42894 16.4836C2.2512 19.4206 1.73469 23.7373 1.51274 27.7117C1.31782 31.2021 3.40517 33.9261 4.65842 35.2337C6.22301 36.866 10.6385 38.2984 18.4345 39.8394C22.9546 40.7328 25.9706 39.857 27.3266 39.2692C29.637 38.2678 31.9198 36.5542 34.3116 34.1216C37.9054 30.4666 39.6623 27.2218 40.1978 25.8089C41.0362 23.597 41.2786 19.3343 41.2381 14.5068C41.1931 9.13619 38.9927 6.40037 36.5928 3.76373C35.1096 2.1342 32.753 1.66735 27.8293 1.50104C26.8079 1.54246 26.4386 1.64216 25.8316 1.87298C25.2247 2.1038 24.3912 2.46271 23.5324 2.8325" stroke="black" stroke-width="3" stroke-linecap="round"/>
<path d="M25.7995 7.81985C25.2871 7.90878 23.1649 8.91484 21.6735 10.2659C21.1472 10.7426 21.0334 11.4748 20.9912 12.1731C20.9051 13.5966 23.7342 15.1471 25.6444 16.037C27.3373 16.8257 29.7265 16.1171 31.1137 15.1149C32.4963 14.1158 32.2004 11.3302 31.6094 9.30305C30.3136 8.10113 29.0251 7.64612 27.9697 7.46761C27.4507 7.39757 26.9654 7.36926 26.4654 7.34009" stroke="black" stroke-width="3" stroke-linecap="round"/>
<path d="M10.8471 14.093C10.8232 14.093 10.487 14.1221 9.88152 14.3091C9.57297 14.4045 9.37014 14.753 9.24503 15.0718C9.11992 15.3906 9.10636 15.7336 9.23416 16.0502C9.36197 16.3669 9.63156 16.6468 9.98439 16.858C12.2941 18.2407 15.843 17.0466 16.3539 16.4849C16.8524 15.9368 16.6938 15.087 16.4706 14.4046C16.0341 13.743 15.4041 13.1805 14.6676 12.7676C14.2817 12.5845 13.8709 12.4549 13.4477 12.3214" stroke="black" stroke-width="3" stroke-linecap="round"/>
<path d="M8.63923 23.3039C8.63923 23.2776 8.61211 23.7119 8.62207 24.5691C8.63112 25.3483 9.32543 26.086 10.3044 26.7558C12.2517 28.0879 14.1874 27.5817 15.0581 27.429C15.8611 27.2882 16.386 26.2239 16.8066 25.1275C17.1404 24.2573 16.858 23.4253 16.3808 22.725C14.6936 21.6868 13.0325 21.3903 11.6689 21.3976C11.0758 21.426 10.6834 21.5045 9.9915 21.7245" stroke="black" stroke-width="3" stroke-linecap="round"/>
<path d="M24.5366 26.3927C23.9392 26.8438 22.7162 28.0618 22.6255 28.6735C22.5346 29.2862 23.0088 29.9087 23.6215 30.5045C24.3192 31.1828 25.1946 31.4186 25.8852 31.4858C26.5928 31.5547 27.3193 31.2689 27.9847 30.9199C28.5978 30.5983 29.0207 30.0098 29.3552 29.3795C29.6964 28.7366 29.5219 27.9514 29.3011 27.3102C27.8933 26.1049 26.345 25.2517 25.5892 25.1093C25.1664 25.0614 24.6639 25.063 24.1462 25.0646" stroke="black" stroke-width="3" stroke-linecap="round"/>
<path d="M26.1167 28.6021C26.0917 28.6021 26.0962 28.9176 26.2284 29.5544C26.3743 30.257 27.0033 30.7264 27.3507 30.8213C27.8863 30.9675 27.2744 29.51 26.8456 28.9699C26.6422 28.7137 26.3065 28.6456 26.1746 28.7375C26.0428 28.8293 26.0837 29.122 25.9615 29.2368C25.8392 29.3516 25.5526 29.2795 25.3522 29.1053C25.1519 28.9312 25.0465 28.657 25.0667 28.3784C25.0869 28.0997 25.2359 27.8248 25.8111 27.4462" stroke="#8A38F5" stroke-width="3" stroke-linecap="round"/>
<path d="M12.7334 23.8511C12.8016 23.8511 13.1325 23.8511 13.6775 23.7207C13.9511 23.6552 14.1205 23.3294 14.1411 23.0108C14.1862 22.3113 13.6029 21.7599 13.0903 21.4605C12.8322 21.3097 12.5075 21.3032 12.2422 21.385C11.9768 21.4668 11.7626 21.6735 11.6257 21.9271C11.0698 22.9568 11.4871 23.9947 11.6511 24.5802C11.7382 24.891 12.137 25.1005 12.4508 25.2453C12.7645 25.39 13.0587 25.4305 13.2334 25.3064C13.4081 25.1823 13.4544 24.8922 13.3093 24.7331C13.1642 24.574 12.8264 24.5547 12.6139 24.715C12.4013 24.8753 12.3244 25.2157 12.3304 25.5462C12.3365 25.8767 12.4278 26.1869 13.3366 26.4317" stroke="#3EF538" stroke-width="3" stroke-linecap="round"/>
<path d="M13.3206 14.2664C13.2963 14.2664 13.867 14.2937 14.5157 14.3081C14.9253 14.3173 13.1637 14.1996 12.3477 14.3175C11.9841 14.3701 11.7687 14.6163 11.7943 14.7529C12.1046 14.9623 12.6547 15.2334 13.2229 15.5298C13.5345 15.6302 13.8932 15.6291 14.5948 15.428" stroke="#FF5D00" stroke-width="3" stroke-linecap="round"/>
</svg>
