<svg width="28" height="27" viewBox="0 0 28 27" fill="none" xmlns="http://www.w3.org/2000/svg">
<path d="M18.9254 8.16763C18.4749 7.80664 17.0789 6.83746 16.0884 6.73061C12.3244 6.32455 8.60781 12.5358 8.08777 15.1116C7.75602 16.7548 8.18013 18.1665 8.58935 19.0428C9.58919 21.1839 13.5791 21.808 16.5124 22.2687C18.4827 22.578 20.0011 21.9574 20.6424 21.2285C22.3388 19.3001 21.8524 12.2156 21.2189 7.69617C20.9943 6.0943 19.6529 5.00916 18.7951 4.18167C16.5548 2.02031 11.5662 3.35451 9.48387 4.03571C6.53125 5.00161 5.08094 7.77023 3.6988 10.8533C2.44975 13.6394 3.57854 17.6823 5.00531 19.6239C6.63716 21.8445 13.7174 21.1142 17.7793 20.4489C19.2017 20.2159 20.1002 18.8769 20.7895 17.8231C21.5198 16.7066 21.7663 15.239 21.6709 13.7322C21.5796 12.2909 20.5218 11.2051 19.6125 10.3643C17.5691 8.47469 12.8175 9.04706 9.93254 10.1247C7.21839 11.1385 6.27664 14.5529 5.5086 17.2853C5.289 18.0665 5.40491 19.0506 5.74345 19.7224C6.3978 21.0209 9.62539 21.1509 13.1329 21.1145C15.0396 21.0948 16.0175 20.2199 16.823 19.2987C18.2287 17.6911 17.9309 14.1555 17.0552 11.1533C16.6529 9.77397 14.355 9.71228 12.6481 9.74076C11.9279 9.75277 11.5215 10.0313 11.1494 10.4189C9.44375 12.1951 9.73859 14.5728 9.99372 15.6816C10.2279 16.6994 11.9126 16.7334 13.1242 16.7731C13.6828 16.7915 14.1274 16.666 14.4922 16.3555C15.2935 15.6733 15.4953 14.3885 15.6274 13.2771C15.6897 12.7526 15.6723 12.3009 15.3145 12.0121C14.4225 11.292 12.9039 11.5332 11.8397 11.7801C11.3454 11.8948 11.0662 12.3535 10.879 12.7935C10.4986 13.6875 10.5965 14.7627 10.8129 15.739C11.0379 16.7537 12.3513 17.2633 13.5376 17.6605C14.7521 18.0671 15.9868 17.5891 16.9423 16.8527C18.9568 15.3002 18.8851 12.4149 18.8242 10.1214C18.7928 8.94192 17.7971 8.10184 16.9058 7.54659C15.9263 6.93648 14.485 7.12387 13.0248 7.30458C11.3766 7.50855 10.0847 8.51227 9.09887 9.52543C6.81176 11.876 7.27478 16.2035 8.12047 18.8343C9.13468 21.9893 15.9771 19.6886 17.5548 18.6783C19.4675 17.4535 19.8025 13.0259 19.7958 7.07401C19.7945 5.91046 19.2122 5.47034 18.7889 5.12936C17.2376 3.87975 13.9092 4.07902 10.0131 4.72971C7.87254 5.08718 6.48719 6.14602 5.6872 6.72815C3.67077 8.19547 3.09488 11.5858 3.00059 17.8954C2.97399 19.6756 3.85103 20.4428 4.59734 21.0473C6.24 22.3778 13.7833 22.1621 18.2047 21.7861C20.4408 21.596 22.1138 19.57 23.3842 17.9871C25.491 15.3621 23.6988 9.14534 22.3202 6.52812C20.5446 3.15747 16.9368 3.69769 12.8118 3.68321C10.5129 3.67513 9.09814 5.51987 7.88986 7.06734C6.45829 8.9008 5.96643 11.4437 5.49715 15.0308C5.20832 17.2386 5.67993 18.9444 6.31458 19.7852C7.88373 21.8642 11.6546 21.5824 13.5174 22.3293C13.9598 22.5068 14.438 22.4733 14.4104 22.5401C13.517 24.7041 9.17041 22.6798 8.79288 22.5344C9.42161 22.7138 10.6294 22.9606 11.8179 23.0942C12.3852 23.1581 12.8795 23.2143 13.6229 23.2721" stroke="none" fill="black"/>
</svg>
