<svg width="29" height="29" viewBox="0 0 29 29" fill="none" xmlns="http://www.w3.org/2000/svg">
<path d="M19.8904 1.77506C19.8111 1.77506 18.4222 1.77506 16.1537 1.97156C13.083 2.23756 11.9109 6.96888 11.189 9.55806C10.6292 11.5659 11.3275 13.5191 12.1439 14.6867C13.8604 17.1415 17.0653 16.4283 19.7936 16.0256C21.2452 15.8113 22.9802 14.4418 24.8809 13.0084C26.2971 11.9405 26.5868 10.3734 26.6634 9.08223C26.7974 6.82215 24.3879 4.65867 21.8251 2.80205C19.3155 0.983901 14.4539 1.39284 11.3646 2.09466C10.2874 2.33936 9.79341 3.64428 9.25602 4.75338C7.4882 8.40195 8.52107 14.5397 9.67529 18.0923C10.7384 21.3645 13.8136 22.7765 15.9741 23.6107C17.0379 24.0214 18.2131 23.8419 19.2515 23.6621C20.2988 23.4808 21.1688 22.3626 22.0103 21.0433C24.284 17.4782 23.4127 11.7305 22.1853 8.20097C21.113 5.11741 17.6858 4.05236 14.6504 3.2841C11.2293 2.4182 8.11896 3.92169 5.89875 5.72536C4.90248 6.53473 4.58856 7.76706 4.35223 8.92306C4.08398 10.2351 4.34399 11.7577 4.83417 13.3025C5.93784 16.7806 10.2993 18.762 14.2848 20.3001C18.3926 21.8854 22.4249 20.5321 25.0694 18.7163C27.6144 16.9689 27.3457 13.5029 27.2822 10.6869C27.2509 9.30204 26.4625 8.11277 25.6548 7.06068C23.9319 4.81644 20.4458 4.37873 17.335 4.29762C15.894 4.26005 14.5757 4.84017 13.4086 5.65026C9.08013 8.65466 10.4263 20.853 11.5363 24.7871C12.2926 27.4674 16.4536 27.0604 19.2782 26.8715C20.68 26.7778 21.7391 25.6168 22.5785 24.4942C24.4867 21.9419 24.0043 17.5872 23.1684 13.5518C22.2741 9.23488 18.6756 6.72997 16.0499 4.94839C14.9242 4.18462 13.0732 4.20748 11.0705 4.33418C10.1273 4.39384 9.39331 4.92192 8.89649 5.36175C7.29253 6.7817 7.70688 9.33496 7.98862 11.4117C8.27224 13.5022 10.6064 14.8109 12.9129 15.8374C15.5442 17.0084 18.3748 15.8975 20.599 14.656C22.7711 13.4435 22.8232 10.2424 22.7891 7.29273C22.7724 5.84014 21.6428 4.57665 20.4384 3.46679C18.0365 1.25353 13.9414 1.47378 9.97387 2.61695C5.25131 3.97764 3.4032 8.78081 1.95444 11.6557C1.37796 12.7997 1.46806 14.039 1.59545 15.1637C1.87036 17.591 5.17042 18.6475 7.62554 19.3084C8.72081 19.6033 9.89401 19.3402 11.0469 18.9451C13.4941 18.1064 14.7289 15.1286 15.654 12.7556C16.2696 11.1764 15.6557 9.35128 14.7333 7.99666C13.7383 6.53543 11.427 6.6142 9.70835 6.86252C8.42555 7.04787 7.64407 8.29381 6.94829 9.65309C4.98194 13.4946 6.37656 19.2051 7.9466 21.9856C9.53376 24.7964 13.6603 24.9429 16.9539 24.978C18.4799 24.9942 19.7984 24.164 20.9209 23.2417C23.2674 21.3137 23.3703 16.1957 23.0487 12.6447C22.9308 11.3425 21.7327 10.413 20.735 9.57791C18.8171 7.97265 14.4362 8.20312 11.1901 9.15188C8.43784 9.95631 7.95907 13.5887 7.62959 16.4879C7.46763 17.913 7.82131 19.2777 8.23299 20.4742C8.62049 21.6004 9.92271 22.4957 11.3732 23.2557C12.4738 23.8323 13.6369 23.627 14.6703 23.4896C15.7104 23.3514 16.5803 22.5341 17.328 21.6636C18.8149 19.9324 18.726 16.9724 18.6485 14.1823C18.6121 12.8695 17.8868 11.7189 17.2055 10.7055C16.5781 9.77228 15.3749 9.13985 13.8225 8.69902C12.1715 8.23016 10.714 8.92096 9.77614 9.62926C8.75426 10.401 8.16011 11.6292 7.68253 12.7875C7.19225 13.9766 7.32638 15.4377 7.73686 17.1311C8.83809 21.674 13.7978 22.8977 17.4358 23.8798C19.0485 24.3152 20.6781 24.0276 22.0835 23.835C23.3282 23.6644 24.169 22.7229 24.7603 21.6823C25.396 20.5637 25.3778 19.025 25.2843 17.465C25.0864 14.1595 21.1772 11.732 17.5344 10.0375C14.0272 8.40622 10.1586 9.55858 7.34217 10.7685C5.99214 11.3485 5.30946 12.6281 4.78494 13.6171C4.25792 14.6108 4.33767 15.8033 4.41977 16.8722C4.59338 19.1324 7.30148 20.6347 9.38796 21.5986C10.3893 22.0612 11.622 21.8803 12.7974 21.7694C13.9614 21.6596 14.9593 20.9459 15.8314 20.0692C17.8039 18.0864 17.9596 14.8906 18.0898 11.9593C18.1529 10.5395 17.5748 9.26665 16.9347 8.21475C16.3395 7.23662 14.7705 6.77813 12.9264 6.58053C11.4216 6.41929 10.1263 7.37241 8.94856 8.484C6.35222 10.9346 5.83682 15.368 5.71942 19.2293C5.667 20.9536 6.35956 22.4816 7.14371 23.7688C7.87986 24.9773 9.06358 25.6123 10.1322 26.0728C11.2649 26.5609 12.6876 26.4241 14.0977 26.1962C15.5429 25.9627 16.7678 24.712 17.8943 23.3698C20.1257 20.7111 20.0197 16.5998 19.8176 13.1157C19.6546 10.3051 16.3549 8.70575 13.7002 7.63224C10.6138 6.38413 5.86972 8.24491 3.21003 10.1381C2.15516 10.8889 2.229 12.3973 2.24524 13.4999C2.28199 15.9945 5.01978 18.1313 7.80785 19.8986C9.17344 20.7642 11.4495 20.7594 13.8504 20.6168C14.92 20.5533 15.6252 19.9894 16.0539 19.5162C16.8011 18.6912 16.7443 17.4472 16.7183 16.2841C16.6926 15.1348 15.9735 14.0269 15.0795 12.9934C13.285 10.9187 9.75031 10.9708 6.75567 11.1054C5.27877 11.1717 4.13244 12.3851 3.22197 13.5335C1.49395 15.7133 1.83029 18.9535 2.45831 21.5785C3.08045 24.179 7.24376 24.77 10.4549 25.0755C12.0147 25.2239 13.5659 24.6317 14.9871 23.9749C16.3526 23.3439 17.2289 22.0549 17.9411 20.8329C19.3415 18.4302 18.5955 15.1755 17.6285 12.8029C17.1578 11.6481 16.0023 11.0638 14.9189 10.5754C13.4845 9.9288 11.5499 10.233 9.91494 10.7869C6.16151 12.0585 8.2497 19.9121 9.42551 23.3872C9.96056 24.9685 11.341 25.866 12.4802 26.5452C13.6351 27.2338 15.2107 27.2525 16.8225 27.2179C18.4739 27.1824 19.9827 26.0513 21.3197 24.543C24.3799 21.0906 24.4669 15.8956 24.6034 11.364C24.6601 9.47949 23.7582 8.07026 22.8752 7.0192C22.0091 5.98837 20.7108 5.5176 19.1063 5.28036C16.8902 4.95268 15.0127 5.45563 13.9731 5.99443C12.9384 6.53069 12.3265 7.59651 11.8717 8.71086C10.4874 12.1025 11.6025 16.9957 12.7804 19.1868C13.3358 20.2201 14.7913 20.3827 15.9882 20.6503C17.2551 20.9335 18.6637 20.648 20.0023 20.0595C22.7379 18.8568 23.4252 14.9833 23.8612 11.6562C24.0709 10.0563 23.1425 8.67092 22.2111 7.56211C20.2647 5.24481 17.1129 4.83717 14.602 4.79973C13.4063 4.7819 12.4417 5.85925 11.6308 6.91697C9.91135 9.15994 10.141 12.8187 10.5236 15.829C10.9093 18.8627 14.3371 20.5865 17.0974 21.7172C18.4086 22.2544 19.8102 22.0789 21.0582 21.9088C21.7103 21.82 22.3347 21.3986 22.7239 20.9591C24.258 19.2269 23.1828 15.8844 21.8101 13.1214C21.0355 11.5621 19.3418 10.6916 17.9222 9.97219C16.6071 9.30575 14.5384 9.31271 12.2704 9.51881C11.2451 9.61198 10.5804 10.3075 10.1875 10.8444C9.50667 11.7748 9.64439 13.0694 9.71672 14.3268C9.78678 15.5448 10.4982 16.6692 11.454 17.7415C13.6383 20.1921 17.6019 20.595 20.8923 20.7523C22.3366 20.8213 23.5579 20.0311 24.532 19.1872C26.4664 17.5115 26.0848 14.361 25.4835 11.797C25.1668 10.4469 23.8661 9.5846 22.7707 8.85517C21.6791 8.12833 19.7345 8.01123 17.5146 8.14833C16.4879 8.21174 15.7347 8.81251 15.2319 9.39486C13.2608 11.678 14.1039 15.7667 14.9143 18.8095C15.6501 21.572 18.6133 22.1913 20.1777 22.4544C20.9259 22.5802 21.6206 22.0484 22.1406 21.4972C24.4474 19.0516 24.3619 11.9785 24.035 7.23126C23.9206 5.5688 22.6501 4.36388 21.613 3.32626C20.4157 2.12832 18.512 2.03968 16.9702 2.41392C14.2408 3.07639 13.468 7.06243 12.8594 10.5444C12.2308 14.1407 13.8857 17.1076 15.7025 19.1965C16.5233 20.1403 17.9303 20.54 19.248 20.7533C19.8387 20.849 20.2996 20.4244 20.6162 19.9522C22.5338 17.0926 21.1515 11.9653 19.7507 9.77242C19.3474 9.14118 18.422 8.80607 17.7466 8.54859C17.0712 8.29111 16.5098 8.26204 16.132 8.76954C15.1477 10.092 15.5547 12.0076 16.0169 13.2345C17.0672 16.0229 20.3157 17.1985 22.7021 17.6246C23.2947 17.7304 23.9283 17.4477 24.2706 16.8324C25.1139 15.3171 24.3375 13.4012 23.4734 12.1888C21.6045 9.56666 17.7029 9.28444 14.6446 9.17544C13.3562 9.12952 12.3029 9.69941 11.4986 10.4816C9.59635 12.3316 10.2552 17.2318 11.1191 20.3085C11.2602 20.8109 12.0231 20.6932 12.6284 20.1491C15.8543 17.2493 15.9433 11.5866 15.7835 8.35281C15.7521 7.71625 14.8994 7.24185 14.1767 6.94348C12.6888 6.32922 11.261 6.83589 10.3772 7.4555C8.32129 8.89685 8.22232 12.2357 8.27128 14.8443C8.2948 16.0974 9.53318 17.0876 10.71 17.9399C11.8358 18.7552 13.1638 19.0081 14.336 19.1841C15.4293 19.3483 16.6333 19.0391 17.7003 18.3467C18.2093 18.0164 18.2818 17.2837 18.1175 16.6283C17.7573 15.1913 16.4289 14.4096 15.3682 14.0753C14.292 13.7361 13.0229 13.9072 11.7082 14.2187C8.74108 14.9217 7.53126 18.5047 6.79248 20.9763C6.60483 21.6041 6.85149 22.3362 7.33124 22.8499C8.39802 23.9921 10.3911 23.9354 12.0542 23.5333C13.9058 23.0855 14.6553 21.2719 15.0617 20.2635C15.4693 19.252 15.4368 17.7 15.0608 15.8533C14.6892 14.0285 12.7629 13.0499 11.0358 12.4273C9.16535 11.753 7.16085 12.5452 5.79385 13.6322C4.43459 14.713 4.82863 16.6362 4.89072 17.6575C4.95344 18.6891 5.52395 19.6002 6.38184 20.3812C7.46593 21.368 9.03393 21.4508 10.0819 21.2538C10.5831 21.1595 10.8379 20.5323 10.8474 19.5526C10.8569 18.5728 10.5663 17.1204 10.1187 16.3391C9.67109 15.5578 9.07531 15.4918 8.48469 15.7279C7.89408 15.964 7.3267 16.5043 7.00172 17.0459C6.41662 18.0209 6.56444 19.9284 6.99277 21.917C7.16636 22.7229 8.19522 22.7556 8.76639 22.4266C10.0039 21.7136 10.0673 19.3498 9.95878 17.4653C9.9156 16.7158 9.34031 16.4706 8.50441 16.3493C7.66851 16.228 6.44721 16.2597 5.5991 16.4868C4.75099 16.7138 4.31307 17.1352 4.09639 17.7146C3.87971 18.294 3.89754 19.0186 4.2033 19.6058C4.50906 20.1931 5.1022 20.6211 5.6789 20.8301C6.2556 21.039 6.79789 21.0159 7.03927 20.7183C7.28064 20.4207 7.20469 19.8494 6.86568 19.5418C6.52668 19.2343 5.92693 19.2079 5.89703 19.4079C5.86714 19.608 6.42528 20.0354 7.19564 20.1247C8.92857 20.3258 10.3573 19.2894 11.2426 18.2916C12.3583 17.0343 12.7055 15.117 12.6424 13.8966C12.6265 13.5908 12.2001 14.029 12.0946 14.5607C11.9891 15.0923 12.104 15.7317 12.4264 16.212C12.7488 16.6923 13.2753 16.9942 13.8308 17.0377C14.3864 17.0813 14.9551 16.8574 15.468 16.2628C17.7242 13.6475 17.2423 10.7665 16.7968 8.4719C16.6659 7.79782 15.8396 7.2356 15.1404 6.85996C14.4412 6.48432 13.6757 6.39383 12.9675 6.53744C12.2594 6.68105 11.6319 7.06151 11.1855 7.74265C10.2038 9.24047 10.2435 10.9632 10.3066 12.0907C10.3682 13.1902 10.9247 14.2039 11.6461 15.1181C12.3634 16.0271 13.6429 16.6011 15.0538 17.011C15.7296 17.2073 16.3926 17.0853 16.9427 16.6853C18.167 15.795 18.4908 14.2348 18.6927 13.1554C18.8981 12.0573 18.6987 10.6305 18.0984 9.17746C17.8172 8.49679 17.0589 8.21257 16.3789 8.04571C15.699 7.87885 14.9863 7.90989 14.4223 8.08672C13.3921 8.40972 12.7598 9.45958 12.251 10.5745C11.2113 12.8527 12.1265 15.9116 13.5575 18.2685C14.2467 19.4037 15.7658 19.9142 17.0754 20.108C17.659 20.1943 18.0654 19.4834 18.275 18.56C19.1989 14.4908 17.7175 12.1749 16.3031 10.3787C15.965 9.94934 15.1228 10.359 14.6563 10.675C12.2355 12.3147 12.9595 16.7723 13.3848 17.7702C13.5967 18.2674 14.3279 18.4266 14.7492 18.2981C15.1704 18.1696 15.3944 17.667 15.4463 17.1171C15.4982 16.5672 15.3714 15.9852 15.2408 15.3857" stroke="#FFEE00" stroke-width="3" stroke-linecap="round"/>
</svg>
