<svg width="30" height="30" viewBox="0 0 30 30" fill="none" xmlns="http://www.w3.org/2000/svg">
<path d="M16.7484 10.2255C16.677 10.2255 16.0922 10.4103 15.0958 10.9203C14.1106 11.4244 13.7248 12.6842 13.3361 13.9236C13.1125 14.6364 13.1705 15.6035 13.4138 16.2993C13.6571 16.995 14.1695 17.4117 15.0485 17.6263C17.1081 18.1292 19.1884 17.6369 20.62 17.0898C21.9913 16.5656 22.7113 15.2557 23.2155 14.1002C23.7681 12.8337 23.5755 11.3591 23.382 10.0991C23.1814 8.79217 21.7268 7.96865 20.3101 7.32675C16.7799 5.72724 12.9169 6.73542 11.77 7.51657C9.4666 9.08554 10.0252 13.2346 10.6639 15.8553C10.9761 17.1365 12.7036 17.639 14.4991 17.9202C16.8303 18.2852 18.6765 17.6544 19.6311 16.8192C20.7574 15.8337 21.4388 14.1879 21.9376 12.1881C22.5582 9.70042 21.8985 7.68074 21.0665 6.83049C18.5868 4.2965 13.1926 6.00888 12.1771 6.46444C9.26003 7.77301 8.30653 13.4331 7.98811 19.256C7.92489 20.4121 8.33946 20.9024 8.72619 21.243C11.0307 23.2727 16.105 21.3963 19.7236 19.4251C21.278 18.5783 21.9532 16.6507 22.6228 14.2651C23.5262 11.0469 22.8046 8.38008 22.2596 7.22259C21.1679 4.904 15.5782 5.03037 11.8745 5.54459C8.89173 5.95872 7.24644 8.97151 5.8989 11.43C5.03212 13.0114 4.93178 15.8128 5.03114 18.7004C5.09411 20.5305 6.37407 21.8771 7.62534 23.2096C9.32611 25.0208 15.0712 25.2542 19.1489 24.5195C22.572 23.9027 23.6125 18.984 24.0511 16.0239C24.531 12.7856 23.8413 10.1627 23.2871 9.11182C22.9653 8.58586 22.5612 8.07478 21.7485 7.42951C20.9358 6.78424 19.7268 6.02027 17.7728 5.00104" stroke="#E21C1C" stroke-width="10" stroke-linecap="round"/>
</svg>
