<svg width="27" height="30" viewBox="0 0 27 30" fill="none" xmlns="http://www.w3.org/2000/svg">
<path d="M12.7241 9.24575C12.7241 9.22554 12.1965 9.20501 11.1984 9.2479C8.74868 9.35316 6.71694 12.434 5.64656 14.7046C3.74281 18.7431 4.77671 21.4125 5.25305 22.7677C5.80878 24.3488 7.66696 25.2884 9.46883 26.0029C12.2406 27.1021 16.3655 26.3174 18.8405 25.3282C22.1453 24.0073 22.9662 21.908 23.8162 20.3277C24.9546 18.2111 24.4735 14.7764 23.3809 11.8556C21.034 5.58172 17.7663 4.68912 15.8177 3.49054C13.0882 1.81163 8.70593 2.64786 7.37084 3.23845C5.88723 3.89474 4.49714 6.25965 3.44156 8.08045C2.36768 9.93283 2.45369 15.5763 2.55883 18.7617C2.61141 20.3548 4.06444 21.995 5.33268 23.2154C6.448 24.2887 9.48758 24.3194 12.2833 24.2484C16.234 24.1482 18.1957 21.5363 19.7557 20.0845C21.3314 18.6182 22.0693 16.7277 22.6184 14.9827C23.0133 13.7278 22.8707 12.537 22.7208 11.7474C22.1148 8.5556 17.284 5.55964 15.3891 4.61464C12.6899 3.26856 9.45636 3.66936 6.84134 4.17669C5.39005 4.45825 4.95986 6.73895 3.63104 13.5735C2.99329 16.8537 3.33499 18.8055 3.45977 19.5917C3.67919 20.9742 4.99057 21.7012 6.36249 22.2769C8.26276 23.0743 11.1764 22.2066 15.5864 20.1912C18.2363 18.9803 19.3241 17.1614 20.1754 15.8289C20.867 14.7462 20.7117 13.2484 20.4602 11.6346C20.1864 9.87825 18.6743 8.69891 17.4256 7.74373C15.6114 6.35598 9.932 6.04152 7.15059 6.57824C5.74397 6.84967 5.80568 9.41793 5.68738 14.5647C5.65049 16.1697 6.1849 17.2536 6.83052 18.2666C7.68469 19.6069 9.70516 19.666 11.2753 19.7573C12.8644 19.8496 14.1128 18.9962 15.0199 18.1168C15.8584 17.3039 15.8648 14.8135 15.7784 12.7449C15.7139 11.2002 14.5101 9.92087 13.6505 8.85528C13.278 8.39356 12.5746 8.04283 11.7571 7.82008C11.4063 7.72451 11.1417 7.9022 10.9527 8.10371C10.0869 9.0266 10.3717 12.7335 10.8197 15.0571C10.9412 15.6874 11.7907 16.0219 12.629 16.2741C13.5464 16.5501 14.3343 15.8771 14.7619 15.3773C15.6398 14.351 15.6557 12.9166 15.5533 11.7558C15.5222 11.403 15.1773 11.0316 14.8575 10.7656C14.2389 10.2509 13.4029 10.2789 12.767 10.4339C11.5717 10.7251 11.3089 12.8637 11.1888 15.253C11.1602 15.8229 11.4065 16.2262 11.6456 16.4918C11.8846 16.7573 12.2022 16.8701 12.4979 16.8686C12.7936 16.867 13.0577 16.7477 13.2483 16.5455C14.0603 15.6846 13.9366 13.8765 13.4729 12.773C13.2648 12.2777 12.3132 12.5973 11.6249 12.9198C11.2748 13.0838 11.0687 13.4969 11.023 13.9304C10.9772 14.3639 11.1354 14.8686 11.4102 15.1436C11.685 15.4186 12.0717 15.4486 12.3759 15.3495C12.6801 15.2503 12.8901 15.0211 13.0184 14.7017C13.1466 14.3822 13.1867 13.9795 13.0399 13.5748C12.7218 12.6976 11.9381 12.2732 11.3791 12.1172C10.8266 11.963 10.2575 12.031 9.68164 12.2551C8.83916 12.5829 8.56466 13.6047 8.45175 14.4566C8.29656 15.6276 8.47837 16.5712 8.72497 17.0264C9.22357 17.9466 10.485 17.854 11.2308 17.7913C11.5522 17.7643 11.7125 17.4993 11.7995 17.2516C11.8866 17.0038 11.884 16.7178 11.7227 16.4661C11.3634 15.9055 10.519 15.7703 9.78042 15.8224C9.42802 15.8473 9.1481 16.0618 8.96034 16.2795C8.77259 16.4972 8.69237 16.761 8.75507 17.0327C8.81776 17.3044 9.02579 17.576 9.48022 17.731C9.93465 17.8859 10.6292 17.9159 11.0924 17.8523C11.5557 17.7886 11.7667 17.6305 11.7007 17.4664C11.2856 17.1369 10.6437 16.9666 10.0943 17.0165C9.82688 17.0664 9.58265 17.1662 8.99014 17.6049" stroke="#0062FF" stroke-width="5" stroke-linecap="round"/>
</svg>
