<svg width="50" height="40" viewBox="0 0 50 40" fill="none" xmlns="http://www.w3.org/2000/svg">
<path d="M3.77013 3.53382C3.76373 2.84349 3.19892 2.28906 2.5086 2.29546C1.81827 2.30186 1.26384 2.86667 1.27024 3.557L2.52019 3.54541L3.77013 3.53382ZM2.52111 3.6454L1.27117 3.65699L1.27232 3.78083L1.29774 3.90204L2.52111 3.6454ZM2.6354 4.1902L3.78412 4.68311L3.93987 4.32013L3.85877 3.93356L2.6354 4.1902ZM2.35613 4.84105L1.20742 4.34815L1.00123 4.82865L1.19859 5.31285L2.35613 4.84105ZM2.62103 5.49095L3.85267 5.27753L3.82959 5.14433L3.77857 5.01914L2.62103 5.49095ZM2.73315 6.138L3.92539 6.51356L4.01665 6.22386L3.96479 5.92458L2.73315 6.138ZM2.52784 6.78975L1.3356 6.41418L1.27948 6.59233L1.27789 6.77909L2.52784 6.78975ZM2.52231 7.43933L1.27235 7.42868L1.27072 7.61975L1.32625 7.80257L2.52231 7.43933ZM2.71931 8.08801L3.96191 8.22385L3.98971 7.96955L3.91537 7.72477L2.71931 8.08801ZM2.64797 8.74067L3.77436 9.28265L3.86727 9.08954L3.89056 8.87651L2.64797 8.74067ZM2.33493 9.39125L1.20854 8.84928L0.893296 9.50445L1.30693 10.1024L2.33493 9.39125ZM2.78271 10.0385L4.00647 10.2934L4.11577 9.76839L3.81071 9.32741L2.78271 10.0385ZM2.64724 10.6892L1.42348 10.4344L1.36087 10.7351L1.44477 11.0306L2.64724 10.6892ZM2.83101 11.3364L3.9548 11.8838L4.16392 11.4544L4.03348 10.995L2.83101 11.3364ZM2.51197 11.9915L1.38818 11.4441L1.21774 11.7941L1.2761 12.1789L2.51197 11.9915ZM2.61044 12.6407L3.84633 12.4534L3.8463 12.4533L2.61044 12.6407ZM2.70857 13.2884L1.47268 13.4756L1.48404 13.5506L1.50437 13.6236L2.70857 13.2884ZM2.88842 13.9344L3.91332 14.65L4.25067 14.1668L4.09263 13.5991L2.88842 13.9344ZM2.42733 14.5948L1.40243 13.8792L0.87965 14.6279L1.434 15.3536L2.42733 14.5948ZM2.91506 15.2332L4.09139 15.656L4.32163 15.0154L3.90839 14.4744L2.91506 15.2332ZM2.67911 15.8897L1.50277 15.467L1.3733 15.8272L1.46776 16.1982L2.67911 15.8897ZM2.84345 16.5352L3.93903 17.137L4.17651 16.7047L4.0548 16.2268L2.84345 16.5352ZM2.47969 17.1974L1.38412 16.5955L0.97571 17.339L1.51571 17.9931L2.47969 17.1974ZM3.00135 17.8293L4.23235 18.0464L4.33253 17.4784L3.96533 17.0335L3.00135 17.8293ZM2.88594 18.4836L1.65494 18.2665L1.64106 18.3452L1.63732 18.4251L2.88594 18.4836ZM2.85537 19.1353L1.60674 19.0767L1.60201 19.1775L1.61351 19.2777L2.85537 19.1353ZM2.92959 19.7823L4.06824 20.298L4.21082 19.9832L4.17144 19.6399L2.92959 19.7823ZM2.62794 20.4483L1.48928 19.9326L1.25893 20.4412L1.48398 20.9522L2.62794 20.4483ZM2.90821 21.0847L4.15317 20.9725L4.13478 20.7684L4.05217 20.5808L2.90821 21.0847ZM2.96654 21.7321L4.12983 22.1896L4.23803 21.9144L4.2115 21.6199L2.96654 21.7321ZM2.70377 22.4003L1.54048 21.9429L1.29081 22.5778L1.68972 23.1312L2.70377 22.4003ZM3.1517 23.0218L4.39192 23.1779L4.45334 22.6899L4.16575 22.2909L3.1517 23.0218ZM3.06889 23.6798L4.30486 23.8665L4.30717 23.8512L4.3091 23.8359L3.06889 23.6798ZM2.96899 24.3409L1.73302 24.1541L1.67915 24.5107L1.82344 24.8411L2.96899 24.3409ZM3.24323 24.9689L4.48353 24.8136L4.46108 24.6343L4.38878 24.4687L3.24323 24.9689ZM3.32385 25.6126L4.47224 26.1062L4.60637 25.7942L4.56416 25.4572L3.32385 25.6126ZM3.02898 26.2985L1.88059 25.8049L1.55708 26.5574L2.11797 27.1544L3.02898 26.2985ZM3.58513 26.8905L4.69464 27.4662L5.10258 26.6801L4.49614 26.0346L3.58513 26.8905ZM3.22322 27.5879L2.1137 27.0122L1.89956 27.4249L2.00714 27.8772L3.22322 27.5879ZM3.375 28.2261L2.15893 28.5153L2.22758 28.8039L2.41859 29.0309L3.375 28.2261ZM3.86956 28.8138L5.10906 28.6521L5.06171 28.2891L4.82598 28.0089L3.86956 28.8138ZM3.95338 29.4563L5.10895 29.9329L5.23597 29.625L5.19288 29.2946L3.95338 29.4563ZM3.66397 30.158L2.50839 29.6814L2.31217 30.1572L2.5078 30.6332L3.66397 30.158ZM3.91804 30.7762L5.14505 30.5376L5.12136 30.4158L5.07421 30.3011L3.91804 30.7762ZM4.04199 31.4135L5.28923 31.3303L5.284 31.2519L5.269 31.1748L4.04199 31.4135ZM4.08553 32.0666L2.8383 32.1497L2.83974 32.1713L2.84193 32.1929L4.08553 32.0666ZM4.15157 32.7168L5.39948 32.6446L5.39792 32.6175L5.39517 32.5905L4.15157 32.7168ZM4.18955 33.3734L2.94163 33.4456L2.96601 33.8671L3.24095 34.1875L4.18955 33.3734ZM4.67291 33.9367L5.92281 33.9203L5.91688 33.4668L5.62151 33.1226L4.67291 33.9367ZM4.68157 34.5987L3.43168 34.6151L3.43612 34.9553L3.61237 35.2463L4.68157 34.5987ZM5.03658 35.1849L6.25759 35.4526L6.36455 34.9646L6.10578 34.5374L5.03658 35.1849ZM4.88258 35.8874L3.66158 35.6197L3.58391 35.974L3.70794 36.3148L4.88258 35.8874ZM5.10611 36.5017L6.3188 36.1986L6.30302 36.1354L6.28075 36.0742L5.10611 36.5017ZM5.26378 37.1325L4.05109 37.4356L4.08311 37.5637L4.1412 37.6823L5.26378 37.1325ZM5.55413 37.7253L6.74023 37.3307L6.71369 37.251L6.67671 37.1755L5.55413 37.7253ZM5.73061 38.2558L4.54452 38.6504L4.78989 39.388L5.55995 39.4941L5.73061 38.2558ZM6.32395 38.3376L6.15329 39.5759L6.23702 39.5874L6.32154 39.5876L6.32395 38.3376ZM6.97298 38.3388L6.97057 39.5888L7.09954 39.5891L7.22584 39.563L6.97298 38.3388ZM7.61552 38.2061L7.36523 36.9814L7.36266 36.982L7.61552 38.2061ZM8.2572 38.075L8.20427 36.8261L8.10463 36.8303L8.00692 36.8503L8.2572 38.075ZM8.90595 38.0475L8.91103 36.7975L8.88201 36.7974L8.85301 36.7986L8.90595 38.0475ZM9.55859 38.0501L10.0127 36.8855L9.79611 36.8011L9.56367 36.8001L9.55859 38.0501ZM10.2288 38.3115L9.77471 39.4761L10.1007 39.6032L10.4454 39.5426L10.2288 38.3115ZM10.8749 38.1978L11.0915 39.4289L11.2816 39.3955L11.4529 39.3062L10.8749 38.1978ZM11.4993 37.8722L11.3955 36.6265L11.1446 36.6474L10.9214 36.7638L11.4993 37.8722ZM12.1461 37.8183L12.4049 36.5953L12.2252 36.5573L12.0422 36.5726L12.1461 37.8183ZM12.8087 37.9585L12.5499 39.1814L12.6488 39.2023L12.7496 39.2071L12.8087 37.9585ZM13.4634 37.9895L13.4043 39.2381L13.4379 39.2397L13.4715 39.2394L13.4634 37.9895ZM14.1153 37.9852L14.1145 36.7352L14.1072 36.7353L14.1153 37.9852ZM14.7678 37.9848L14.7686 39.2348L14.9068 39.2347L15.0417 39.2044L14.7678 37.9848ZM15.4093 37.8407L15.3799 36.5911L15.2561 36.594L15.1354 36.6211L15.4093 37.8407ZM16.0613 37.8254L16.1844 36.5814L16.1083 36.5739L16.0319 36.5757L16.0613 37.8254ZM16.7196 37.8905L16.5966 39.1344L17.0023 39.1745L17.3536 38.9678L16.7196 37.8905ZM17.3413 37.5246L16.9488 36.3378L16.8222 36.3797L16.7073 36.4473L17.3413 37.5246ZM17.9762 37.3146L18.1104 36.0718L17.841 36.0428L17.5837 36.1278L17.9762 37.3146ZM18.6342 37.3857L18.5 38.6284L18.5867 38.6378L18.6738 38.635L18.6342 37.3857ZM19.2857 37.365L19.3253 38.6143L19.3941 38.6122L19.4622 38.6024L19.2857 37.365ZM19.9307 37.2729L19.81 36.0288L19.782 36.0315L19.7541 36.0355L19.9307 37.2729ZM20.5769 37.2103L20.9762 36.0257L20.7226 35.9403L20.4562 35.9661L20.5769 37.2103ZM21.2471 37.4361L20.8479 38.6207L21.3169 38.7787L21.767 38.5729L21.2471 37.4361ZM21.877 37.148L21.8806 35.8981L21.6065 35.8973L21.3572 36.0113L21.877 37.148ZM22.5292 37.1499L22.5257 38.3999L22.5954 38.4001L22.6648 38.3925L22.5292 37.1499ZM23.1754 37.0794L23.1471 35.8298L23.0933 35.831L23.0399 35.8368L23.1754 37.0794ZM23.8266 37.0647L24.0734 35.8393L23.9372 35.8118L23.7983 35.815L23.8266 37.0647ZM24.4898 37.1982L24.243 38.4236L24.8312 38.5421L25.2915 38.1572L24.4898 37.1982ZM25.1009 36.6873L25.7851 35.6411L25.0098 35.1341L24.2992 35.7283L25.1009 36.6873ZM25.7892 37.1374L25.105 38.1835L25.4839 38.4313L25.9335 38.379L25.7892 37.1374ZM26.4354 37.0623L26.5797 38.3039L26.7649 38.2824L26.9358 38.2077L26.4354 37.0623ZM27.0654 36.787L26.633 35.6142L26.5986 35.6269L26.565 35.6416L27.0654 36.787ZM27.6992 36.5534L27.6027 35.3071L27.4297 35.3205L27.2669 35.3805L27.6992 36.5534ZM28.3475 36.5032L28.444 37.7495L28.4746 37.7471L28.505 37.7432L28.3475 36.5032ZM28.9925 36.4212L29.5981 35.3278L29.2405 35.1297L28.8349 35.1812L28.9925 36.4212ZM29.6754 36.7995L29.0697 37.893L29.5527 38.1605L30.0757 37.9837L29.6754 36.7995ZM30.3109 36.5846L30.4065 35.3383L30.1522 35.3188L29.9106 35.4005L30.3109 36.5846ZM30.967 36.635L30.8714 37.8813L31.1089 37.8995L31.3364 37.8291L30.967 36.635ZM31.6022 36.4385L31.6264 35.1887L31.4252 35.1848L31.2329 35.2443L31.6022 36.4385ZM32.2563 36.4511L32.2321 37.7009L32.5682 37.7074L32.8621 37.5445L32.2563 36.4511ZM32.8815 36.1047L33.5284 35.0351L32.9089 34.6604L32.2756 35.0113L32.8815 36.1047ZM33.5672 36.5194L32.9203 37.589L33.5867 37.9921L34.2422 37.5715L33.5672 36.5194ZM34.1866 36.122L34.3214 34.8793L33.8829 34.8318L33.5116 35.0699L34.1866 36.122ZM34.8429 36.1932L34.7082 37.4359L34.7849 37.4442L34.862 37.443L34.8429 36.1932ZM35.4954 36.1832L35.5145 37.4331L35.821 37.4284L36.0906 37.2824L35.4954 36.1832ZM36.1213 35.8443L36.4492 34.6381L35.9663 34.5068L35.5262 34.7451L36.1213 35.8443ZM36.7889 36.0257L36.461 37.232L36.6368 37.2798L36.8189 37.2754L36.7889 36.0257ZM37.4402 36.0101L37.7454 34.7979L37.5804 34.7564L37.4102 34.7605L37.4402 36.0101ZM38.1062 36.1778L37.801 37.39L38.3453 37.527L38.8094 37.2113L38.1062 36.1778ZM38.7244 35.7572L38.6848 34.5078L38.3216 34.5193L38.0212 34.7237L38.7244 35.7572ZM39.3739 35.7366L39.5988 34.507L39.4676 34.483L39.3342 34.4872L39.3739 35.7366ZM40.0331 35.8572L39.8082 37.0868L39.8816 37.1002L39.9562 37.1048L40.0331 35.8572ZM40.6912 35.8978L40.6142 37.1454L40.7649 37.1547L40.9134 37.1279L40.6912 35.8978ZM41.3338 35.7817L41.5561 37.0118L41.6691 36.9914L41.7765 36.9507L41.3338 35.7817ZM41.9664 35.5422L41.7182 34.3171L41.6187 34.3372L41.5237 34.3732L41.9664 35.5422ZM42.6064 35.4125L42.3626 34.1865L42.3581 34.1874L42.6064 35.4125ZM43.2488 35.2848L43.844 34.1856L43.4474 33.9708L43.005 34.0588L43.2488 35.2848ZM43.9304 35.6539L43.3352 36.7531L44.056 37.1434L44.7013 36.6379L43.9304 35.6539ZM44.543 35.174L44.6589 33.9294L44.1637 33.8832L43.7721 34.19L44.543 35.174ZM45.1998 35.2351L45.0839 36.4798L45.2097 36.4915L45.3354 36.4778L45.1998 35.2351ZM45.8451 35.1647L45.898 33.9158L45.8035 33.9118L45.7095 33.9221L45.8451 35.1647ZM46.5028 35.1925L46.45 36.4414L47.0011 36.4647L47.3898 36.0733L46.5028 35.1925ZM46.9541 34.738L46.1182 33.8087L46.092 33.8322L46.0672 33.8572L46.9541 34.738ZM47.4574 34.2854L48.2933 35.2147L48.6486 34.8952L48.7001 34.4201L47.4574 34.2854ZM47.5299 33.6167L46.4991 32.9095L46.3211 33.1691L46.2871 33.482L47.5299 33.6167ZM47.9352 33.0259L48.9659 33.7331L49.3908 33.1137L49.0434 32.4477L47.9352 33.0259ZM47.5695 32.3251L46.5939 31.5437L46.0841 32.1802L46.4613 32.9032L47.5695 32.3251ZM48.0658 31.7054L49.0415 32.4868L49.3369 32.1178L49.3143 31.6457L48.0658 31.7054ZM48.0342 31.0455L49.2828 30.9858L49.2647 30.6079L49.0401 30.3034L48.0342 31.0455ZM47.5569 30.3986L46.312 30.2858L46.2692 30.7586L46.551 31.1407L47.5569 30.3986ZM47.6156 29.7508L46.4 29.4596L46.3789 29.5478L46.3707 29.638L47.6156 29.7508ZM47.7727 29.095L46.5733 28.7429L46.5644 28.7731L46.557 28.8038L47.7727 29.095ZM47.9682 28.4289L49.1676 28.781L49.2929 28.3542L49.1204 27.9441L47.9682 28.4289ZM47.7014 27.7946L46.4515 27.8105L46.4546 28.0545L46.5492 28.2794L47.7014 27.7946ZM47.6931 27.1414L48.943 27.1255L48.9418 27.0339L48.9273 26.9433L47.6931 27.1414ZM47.5898 26.4983L48.824 26.3002L48.8187 26.2669L48.8116 26.234L47.5898 26.4983ZM47.4516 25.8592L46.2097 25.7178L46.1864 25.9223L46.2299 26.1235L47.4516 25.8592ZM47.527 25.1972L48.769 25.3386L48.7831 25.215L48.7725 25.0912L47.527 25.1972ZM47.4718 24.5486L46.2267 24.4381L46.2171 24.5463L46.2263 24.6546L47.4718 24.5486ZM47.5306 23.886L48.7757 23.9965L48.8119 23.5887L48.5998 23.2384L47.5306 23.886ZM47.1611 23.2759L45.9525 22.9567L45.817 23.4697L46.0919 23.9235L47.1611 23.2759ZM47.3403 22.5973L48.5489 22.9166L48.6276 22.6186L48.5587 22.3182L47.3403 22.5973ZM47.1943 21.96L45.947 22.0418L45.9535 22.1416L45.9759 22.2392L47.1943 21.96ZM47.1516 21.3093L48.3989 21.2275L48.3843 21.0049L48.2936 20.8011L47.1516 21.3093ZM46.8763 20.6907L48.0184 20.1825L48.0018 20.1453L47.9828 20.1091L46.8763 20.6907ZM46.5552 20.0797L45.3185 20.262L45.3496 20.4727L45.4487 20.6613L46.5552 20.0797ZM46.4604 19.4371L45.2396 19.1685L45.1903 19.3925L45.2238 19.6194L46.4604 19.4371ZM46.6097 18.7585L47.8305 19.027L47.9183 18.6279L47.7534 18.254L46.6097 18.7585ZM46.3376 18.1416L45.1051 17.9336L45.0427 18.3031L45.1939 18.6461L46.3376 18.1416ZM46.4515 17.467L47.6841 17.675L47.7349 17.3738L47.6411 17.0831L46.4515 17.467ZM46.2492 16.8401L45.0138 17.0309L45.029 17.1293L45.0596 17.224L46.2492 16.8401ZM46.1499 16.1976L47.3853 16.0068L47.3758 15.9457L47.3604 15.8859L46.1499 16.1976ZM45.9871 15.5651L47.1976 15.2534L47.1716 15.1524L47.1292 15.0572L45.9871 15.5651ZM45.7137 14.9506L44.4637 14.9452L44.4626 15.2134L44.5716 15.4585L45.7137 14.9506ZM45.7166 14.2919L44.489 14.0562L44.4671 14.1704L44.4666 14.2866L45.7166 14.2919ZM45.8471 13.612L47.0747 13.8478L47.1209 13.6071L47.0728 13.3667L45.8471 13.612ZM45.7194 12.974L44.4769 13.1108L44.4829 13.1655L44.4937 13.2193L45.7194 12.974ZM45.6481 12.3268L46.8906 12.1899L46.8528 11.8464L46.6438 11.571L45.6481 12.3268ZM45.2046 11.7425L44.0204 11.3425L43.8083 11.9703L44.209 12.4982L45.2046 11.7425ZM45.4403 11.0445L46.6246 11.4444L46.8268 10.8456L46.4645 10.3279L45.4403 11.0445ZM45.0278 10.4549L43.8162 10.7623L43.8725 10.9841L44.0037 11.1716L45.0278 10.4549ZM44.8673 9.82198L43.6183 9.87187L43.6235 10.0026L43.6556 10.1294L44.8673 9.82198ZM44.8412 9.16874L43.6868 8.68927L43.5812 8.94353L43.5922 9.21863L44.8412 9.16874ZM45.1376 8.45491L46.292 8.93438L46.4428 8.57135L46.3587 8.18736L45.1376 8.45491ZM44.9988 7.82132L46.2198 7.55376L46.1514 7.24143L45.9414 7.00032L44.9988 7.82132ZM44.5014 7.25024L43.2683 7.0455L43.1718 7.62685L43.5588 8.07123L44.5014 7.25024ZM44.6146 6.56841L45.8477 6.77315L45.8604 6.69656L45.8636 6.619L44.6146 6.56841ZM44.6417 5.90011L45.8907 5.95069L45.905 5.59559L45.7304 5.28603L44.6417 5.90011ZM44.3057 5.3045L43.0874 5.58405L43.1279 5.7607L43.217 5.91858L44.3057 5.3045ZM44.1601 4.66978L45.3784 4.39023L45.3379 4.21362L45.2489 4.05578L44.1601 4.66978ZM43.8274 4.0798L42.64 4.4703L42.6783 4.58689L42.7386 4.6938L43.8274 4.0798ZM43.6245 3.4629L42.4634 2.99992L42.2952 3.42188L42.4371 3.85341L43.6245 3.4629ZM43.9311 2.69398L45.0922 3.15696L45.3754 2.44694L44.8723 1.87139L43.9311 2.69398ZM43.4278 2.11811L44.369 1.29552L44.0945 0.981424L43.6864 0.895143L43.4278 2.11811ZM42.7438 1.97351L42.3527 3.16074L42.418 3.18226L42.4853 3.19648L42.7438 1.97351ZM42.1186 1.76755L41.7064 2.94763L41.7169 2.9513L41.7275 2.95479L42.1186 1.76755ZM41.4864 1.54671L41.8987 0.366634L41.7142 0.302204L41.5189 0.297128L41.4864 1.54671ZM40.8264 1.52955L40.7569 2.77762L40.7754 2.77865L40.794 2.77913L40.8264 1.52955ZM40.1747 1.49326L40.2442 0.245192L40.1241 0.238505L40.0049 0.254839L40.1747 1.49326ZM39.5158 1.58357L39.3461 0.345152L39.2579 0.357231L39.1724 0.381667L39.5158 1.58357ZM38.8596 1.77107L38.9123 3.01995L39.0604 3.0137L39.203 2.97297L38.8596 1.77107ZM38.2102 1.79851L37.8944 3.00794L38.0757 3.05531L38.263 3.04739L38.2102 1.79851ZM37.5653 1.63007L37.8811 0.420636L37.6005 0.347361L37.3164 0.4051L37.5653 1.63007ZM36.9133 1.76253L36.6105 2.9753L36.885 3.04383L37.1622 2.9875L36.9133 1.76253ZM36.2669 1.60113L36.5697 0.388356L36.3421 0.331548L36.1095 0.361078L36.2669 1.60113ZM35.6164 1.6837L35.1707 2.85156L35.4632 2.96317L35.7738 2.92375L35.6164 1.6837ZM34.9659 1.4355L35.4115 0.267634L34.9681 0.0984023L34.524 0.266211L34.9659 1.4355ZM34.3177 1.68048L34.1227 2.91519L34.4498 2.96682L34.7596 2.84976L34.3177 1.68048ZM33.6676 1.57785L33.459 2.8104L33.4727 2.81256L33.6676 1.57785ZM33.0163 1.46762L32.6628 2.6666L32.7342 2.68766L32.8077 2.70009L33.0163 1.46762ZM32.3625 1.27489L32.716 0.0759062L32.4586 2.03848e-05L32.1927 0.0364734L32.3625 1.27489ZM31.7129 1.36395L31.8598 2.60529L31.8713 2.60394L31.8827 2.60237L31.7129 1.36395ZM31.0636 1.44078L30.8294 2.66865L31.0189 2.70479L31.2105 2.68212L31.0636 1.44078ZM30.4095 1.31602L30.6437 0.0881578L30.3473 0.031636L30.0578 0.116507L30.4095 1.31602ZM29.7641 1.50522L30.0742 2.71616L30.0951 2.7108L30.1158 2.70474L29.7641 1.50522ZM29.119 1.67041L29.343 2.90017L29.3864 2.89227L29.429 2.88134L29.119 1.67041ZM28.473 1.78808L28.0379 2.95991L28.3595 3.07933L28.697 3.01785L28.473 1.78808ZM27.8133 1.54313L28.2484 0.371296L27.9161 0.247939L27.5686 0.317304L27.8133 1.54313ZM27.1677 1.67198L26.923 0.446154L26.7901 0.472683L26.666 0.527084L27.1677 1.67198ZM26.5297 1.95156L26.4126 3.19607L26.7349 3.22638L27.0314 3.09645L26.5297 1.95156ZM25.8766 1.89013L25.7465 3.13341L25.7595 3.13463L25.8766 1.89013ZM25.2224 1.82167L25.3525 0.578414L25.3419 0.577397L25.2224 1.82167ZM24.5679 1.7588L24.6874 0.514524L24.3895 0.485906L24.1109 0.595328L24.5679 1.7588ZM23.9314 2.00879L23.5434 3.19704L23.9703 3.33647L24.3884 3.17226L23.9314 2.00879ZM23.2667 1.79173L23.6548 0.603484L23.3003 0.487724L22.9403 0.585099L23.2667 1.79173ZM22.6265 1.96491L22.4919 3.20763L22.7258 3.23298L22.953 3.17154L22.6265 1.96491ZM21.9698 1.89373L22.1045 0.651007L21.6902 0.606114L21.3319 0.818746L21.9698 1.89373ZM21.3461 2.26385L20.835 3.40462L21.4265 3.6696L21.9839 3.33883L21.3461 2.26385ZM20.6706 1.96129L21.1817 0.82052L20.5477 0.536541L19.9718 0.924879L20.6706 1.96129ZM20.0529 2.37783L19.636 3.55627L20.2296 3.76627L20.7517 3.41424L20.0529 2.37783ZM19.3797 2.13969L19.7966 0.961254L19.6028 0.892696L19.3972 0.889813L19.3797 2.13969ZM18.7256 2.13052L18.7431 0.880639L18.3252 0.874777L17.9878 1.12145L18.7256 2.13052ZM18.1156 2.5765L17.5677 3.70005L18.2451 4.03031L18.8534 3.58556L18.1156 2.5765ZM17.4294 2.24193L17.9773 1.11838L17.6109 0.939716L17.2096 1.01141L17.4294 2.24193ZM16.788 2.35653L16.5682 1.12595L16.556 1.12824L16.788 2.35653ZM16.1463 2.47772L15.8829 3.69964L16.1299 3.75292L16.3783 3.706L16.1463 2.47772ZM15.475 2.33297L15.7385 1.11106L15.0711 0.967141L14.5893 1.45096L15.475 2.33297ZM14.8894 2.92105L14.9404 4.17001L15.4297 4.15003L15.7752 3.80307L14.8894 2.92105ZM14.2393 2.9476L13.8434 4.13324L14.061 4.20592L14.2903 4.19656L14.2393 2.9476ZM13.5552 2.71916L13.9511 1.53352L13.4449 1.36447L12.9727 1.61319L13.5552 2.71916ZM12.9419 3.04221L12.9956 4.29105L13.276 4.27898L13.5244 4.14817L12.9419 3.04221ZM12.2902 3.07025L12.2365 1.82141L12.0963 1.82744L11.961 1.8644L12.2902 3.07025ZM11.658 3.24287L11.1257 4.37385L11.5427 4.57013L11.9873 4.44873L11.658 3.24287ZM10.9551 2.912L11.4874 1.78101L10.8287 1.47097L10.234 1.89094L10.9551 2.912ZM10.3587 3.33311L9.97361 4.5223L10.5688 4.71506L11.0798 4.35417L10.3587 3.33311ZM9.66756 3.10926L10.0527 1.92007L9.30191 1.67692L8.75955 2.25019L9.66756 3.10926ZM9.10224 3.70679L9.25422 4.94752L9.70095 4.8928L10.0103 4.56586L9.10224 3.70679ZM8.45736 3.78578L8.4199 5.03522L8.51495 5.03807L8.60934 5.02651L8.45736 3.78578ZM7.79606 3.76595L7.83353 2.51651L7.68753 2.51214L7.54445 2.54154L7.79606 3.76595ZM7.15929 3.8968L6.72972 5.07067L7.06313 5.19268L7.4109 5.12122L7.15929 3.8968ZM6.45761 3.64002L6.88718 2.46615L6.47188 2.31417L6.0534 2.45718L6.45761 3.64002ZM5.83277 3.85354L6.07226 5.08039L6.15612 5.06402L6.23697 5.03639L5.83277 3.85354ZM5.19487 3.97807L4.95538 2.75122L4.88092 2.76576L4.80876 2.78919L5.19487 3.97807ZM4.57094 4.1807L4.18483 2.99183L4.00908 3.04891L3.85737 3.15439L4.57094 4.1807ZM3.98758 4.5863L4.03356 5.83546L4.40005 5.82197L4.70116 5.61261L3.98758 4.5863ZM3.33155 4.61045L3.18205 5.85148L3.27947 5.86321L3.37753 5.8596L3.33155 4.61045ZM2.65041 4.52839L2.79991 3.28737L2.65202 3.26955L2.50408 3.28699L2.65041 4.52839ZM2.0018 4.60485L1.85548 3.36344L1.49913 3.40544L1.21932 3.63005L2.0018 4.60485ZM1.43474 5.06004L0.648427 6.03175L1.43158 6.66548L2.21722 6.03484L1.43474 5.06004ZM2.03643 3.93894C1.49977 3.50468 0.712679 3.58769 0.278413 4.12435C-0.155854 4.66101 -0.0728465 5.4481 0.463814 5.88236L1.25012 4.91065L2.03643 3.93894ZM2.52019 3.54541L1.27024 3.557L1.27117 3.65699L2.52111 3.6454L3.77106 3.63382L3.77013 3.53382L2.52019 3.54541ZM2.52111 3.6454L1.29774 3.90204L1.41203 4.44684L2.6354 4.1902L3.85877 3.93356L3.74448 3.38876L2.52111 3.6454ZM2.6354 4.1902L1.48669 3.6973L1.20742 4.34815L2.35613 4.84105L3.50485 5.33395L3.78412 4.68311L2.6354 4.1902ZM2.35613 4.84105L1.19859 5.31285L1.46349 5.96275L2.62103 5.49095L3.77857 5.01914L3.51367 4.36924L2.35613 4.84105ZM2.62103 5.49095L1.38938 5.70437L1.5015 6.35142L2.73315 6.138L3.96479 5.92458L3.85267 5.27753L2.62103 5.49095ZM2.73315 6.138L1.5409 5.76243L1.3356 6.41418L2.52784 6.78975L3.72009 7.16531L3.92539 6.51356L2.73315 6.138ZM2.52784 6.78975L1.27789 6.77909L1.27235 7.42868L2.52231 7.43933L3.77226 7.44998L3.7778 6.8004L2.52784 6.78975ZM2.52231 7.43933L1.32625 7.80257L1.52326 8.45126L2.71931 8.08801L3.91537 7.72477L3.71836 7.07608L2.52231 7.43933ZM2.71931 8.08801L1.47672 7.95217L1.40537 8.60483L2.64797 8.74067L3.89056 8.87651L3.96191 8.22385L2.71931 8.08801ZM2.64797 8.74067L1.52157 8.1987L1.20854 8.84928L2.33493 9.39125L3.46133 9.93323L3.77436 9.28265L2.64797 8.74067ZM2.33493 9.39125L1.30693 10.1024L1.75471 10.7497L2.78271 10.0385L3.81071 9.32741L3.36293 8.68011L2.33493 9.39125ZM2.78271 10.0385L1.55896 9.78374L1.42348 10.4344L2.64724 10.6892L3.87099 10.944L4.00647 10.2934L2.78271 10.0385ZM2.64724 10.6892L1.44477 11.0306L1.62854 11.6779L2.83101 11.3364L4.03348 10.995L3.84971 10.3478L2.64724 10.6892ZM2.83101 11.3364L1.70722 10.7891L1.38818 11.4441L2.51197 11.9915L3.63576 12.5388L3.9548 11.8838L2.83101 11.3364ZM2.51197 11.9915L1.2761 12.1789L1.37457 12.8282L2.61044 12.6407L3.8463 12.4533L3.74784 11.804L2.51197 11.9915ZM2.61044 12.6407L1.37454 12.828L1.47268 13.4756L2.70857 13.2884L3.94447 13.1011L3.84633 12.4534L2.61044 12.6407ZM2.70857 13.2884L1.50437 13.6236L1.68422 14.2696L2.88842 13.9344L4.09263 13.5991L3.91278 12.9531L2.70857 13.2884ZM2.88842 13.9344L1.86353 13.2188L1.40243 13.8792L2.42733 14.5948L3.45222 15.3104L3.91332 14.65L2.88842 13.9344ZM2.42733 14.5948L1.434 15.3536L1.92172 15.9921L2.91506 15.2332L3.90839 14.4744L3.42066 13.836L2.42733 14.5948ZM2.91506 15.2332L1.73872 14.8105L1.50277 15.467L2.67911 15.8897L3.85544 16.3125L4.09139 15.656L2.91506 15.2332ZM2.67911 15.8897L1.46776 16.1982L1.6321 16.8436L2.84345 16.5352L4.0548 16.2268L3.89046 15.5813L2.67911 15.8897ZM2.84345 16.5352L1.74788 15.9334L1.38412 16.5955L2.47969 17.1974L3.57527 17.7992L3.93903 17.137L2.84345 16.5352ZM2.47969 17.1974L1.51571 17.9931L2.03736 18.6251L3.00135 17.8293L3.96533 17.0335L3.44368 16.4016L2.47969 17.1974ZM3.00135 17.8293L1.77034 17.6122L1.65494 18.2665L2.88594 18.4836L4.11695 18.7007L4.23235 18.0464L3.00135 17.8293ZM2.88594 18.4836L1.63732 18.4251L1.60674 19.0767L2.85537 19.1353L4.104 19.1938L4.13457 18.5422L2.88594 18.4836ZM2.85537 19.1353L1.61351 19.2777L1.68773 19.9248L2.92959 19.7823L4.17144 19.6399L4.09723 18.9928L2.85537 19.1353ZM2.92959 19.7823L1.79093 19.2666L1.48928 19.9326L2.62794 20.4483L3.7666 20.9641L4.06824 20.298L2.92959 19.7823ZM2.62794 20.4483L1.48398 20.9522L1.76425 21.5885L2.90821 21.0847L4.05217 20.5808L3.7719 19.9445L2.62794 20.4483ZM2.90821 21.0847L1.66325 21.1968L1.72158 21.8443L2.96654 21.7321L4.2115 21.6199L4.15317 20.9725L2.90821 21.0847ZM2.96654 21.7321L1.80325 21.2747L1.54048 21.9429L2.70377 22.4003L3.86706 22.8578L4.12983 22.1896L2.96654 21.7321ZM2.70377 22.4003L1.68972 23.1312L2.13765 23.7527L3.1517 23.0218L4.16575 22.2909L3.71782 21.6694L2.70377 22.4003ZM3.1517 23.0218L1.91149 22.8657L1.82867 23.5237L3.06889 23.6798L4.3091 23.8359L4.39192 23.1779L3.1517 23.0218ZM3.06889 23.6798L1.83292 23.493L1.73302 24.1541L2.96899 24.3409L4.20496 24.5277L4.30486 23.8665L3.06889 23.6798ZM2.96899 24.3409L1.82344 24.8411L2.09768 25.4692L3.24323 24.9689L4.38878 24.4687L4.11454 23.8407L2.96899 24.3409ZM3.24323 24.9689L2.00292 25.1243L2.08355 25.768L3.32385 25.6126L4.56416 25.4572L4.48353 24.8136L3.24323 24.9689ZM3.32385 25.6126L2.17547 25.1189L1.88059 25.8049L3.02898 26.2985L4.17736 26.7922L4.47224 26.1062L3.32385 25.6126ZM3.02898 26.2985L2.11797 27.1544L2.67412 27.7464L3.58513 26.8905L4.49614 26.0346L3.93999 25.4426L3.02898 26.2985ZM3.58513 26.8905L2.47561 26.3148L2.1137 27.0122L3.22322 27.5879L4.33273 28.1637L4.69464 27.4662L3.58513 26.8905ZM3.22322 27.5879L2.00714 27.8772L2.15893 28.5153L3.375 28.2261L4.59107 27.9368L4.43929 27.2987L3.22322 27.5879ZM3.375 28.2261L2.41859 29.0309L2.91315 29.6186L3.86956 28.8138L4.82598 28.0089L4.33142 27.4212L3.375 28.2261ZM3.86956 28.8138L2.63006 28.9755L2.71388 29.618L3.95338 29.4563L5.19288 29.2946L5.10906 28.6521L3.86956 28.8138ZM3.95338 29.4563L2.7978 28.9797L2.50839 29.6814L3.66397 30.158L4.81954 30.6346L5.10895 29.9329L3.95338 29.4563ZM3.66397 30.158L2.5078 30.6332L2.76188 31.2514L3.91804 30.7762L5.07421 30.3011L4.82013 29.6829L3.66397 30.158ZM3.91804 30.7762L2.69104 31.0149L2.81499 31.6521L4.04199 31.4135L5.269 31.1748L5.14505 30.5376L3.91804 30.7762ZM4.04199 31.4135L2.79476 31.4966L2.8383 32.1497L4.08553 32.0666L5.33277 31.9834L5.28923 31.3303L4.04199 31.4135ZM4.08553 32.0666L2.84193 32.1929L2.90797 32.8431L4.15157 32.7168L5.39517 32.5905L5.32914 31.9403L4.08553 32.0666ZM4.15157 32.7168L2.90365 32.789L2.94163 33.4456L4.18955 33.3734L5.43746 33.3012L5.39948 32.6446L4.15157 32.7168ZM4.18955 33.3734L3.24095 34.1875L3.72432 34.7507L4.67291 33.9367L5.62151 33.1226L5.13814 32.5594L4.18955 33.3734ZM4.67291 33.9367L3.42302 33.953L3.43168 34.6151L4.68157 34.5987L5.93146 34.5824L5.92281 33.9203L4.67291 33.9367ZM4.68157 34.5987L3.61237 35.2463L3.96738 35.8324L5.03658 35.1849L6.10578 34.5374L5.75077 33.9512L4.68157 34.5987ZM5.03658 35.1849L3.81557 34.9172L3.66158 35.6197L4.88258 35.8874L6.10359 36.1551L6.25759 35.4526L5.03658 35.1849ZM4.88258 35.8874L3.70794 36.3148L3.93146 36.9291L5.10611 36.5017L6.28075 36.0742L6.05723 35.46L4.88258 35.8874ZM5.10611 36.5017L3.89341 36.8048L4.05109 37.4356L5.26378 37.1325L6.47648 36.8294L6.3188 36.1986L5.10611 36.5017ZM5.26378 37.1325L4.1412 37.6823L4.43155 38.2751L5.55413 37.7253L6.67671 37.1755L6.38636 36.5827L5.26378 37.1325ZM5.55413 37.7253L4.36804 38.1199L4.54452 38.6504L5.73061 38.2558L6.91671 37.8613L6.74023 37.3307L5.55413 37.7253ZM5.73061 38.2558L5.55995 39.4941L6.15329 39.5759L6.32395 38.3376L6.49462 37.0993L5.90128 37.0175L5.73061 38.2558ZM6.32395 38.3376L6.32154 39.5876L6.97057 39.5888L6.97298 38.3388L6.97539 37.0888L6.32636 37.0876L6.32395 38.3376ZM6.97298 38.3388L7.22584 39.563L7.86838 39.4303L7.61552 38.2061L7.36266 36.982L6.72012 37.1147L6.97298 38.3388ZM7.61552 38.2061L7.86581 39.4308L8.50749 39.2997L8.2572 38.075L8.00692 36.8503L7.36523 36.9814L7.61552 38.2061ZM8.2572 38.075L8.31014 39.3239L8.95888 39.2964L8.90595 38.0475L8.85301 36.7986L8.20427 36.8261L8.2572 38.075ZM8.90595 38.0475L8.90086 39.2975L9.5535 39.3001L9.55859 38.0501L9.56367 36.8001L8.91103 36.7975L8.90595 38.0475ZM9.55859 38.0501L9.1045 39.2147L9.77471 39.4761L10.2288 38.3115L10.6829 37.1469L10.0127 36.8855L9.55859 38.0501ZM10.2288 38.3115L10.4454 39.5426L11.0915 39.4289L10.8749 38.1978L10.6584 36.9667L10.0122 37.0804L10.2288 38.3115ZM10.8749 38.1978L11.4529 39.3062L12.0773 38.9806L11.4993 37.8722L10.9214 36.7638L10.297 37.0894L10.8749 38.1978ZM11.4993 37.8722L11.6032 39.1179L12.25 39.0639L12.1461 37.8183L12.0422 36.5726L11.3955 36.6265L11.4993 37.8722ZM12.1461 37.8183L11.8873 39.0412L12.5499 39.1814L12.8087 37.9585L13.0675 36.7356L12.4049 36.5953L12.1461 37.8183ZM12.8087 37.9585L12.7496 39.2071L13.4043 39.2381L13.4634 37.9895L13.5225 36.7409L12.8678 36.7099L12.8087 37.9585ZM13.4634 37.9895L13.4715 39.2394L14.1234 39.2352L14.1153 37.9852L14.1072 36.7353L13.4553 36.7395L13.4634 37.9895ZM14.1153 37.9852L14.1162 39.2352L14.7686 39.2348L14.7678 37.9848L14.7669 36.7348L14.1145 36.7352L14.1153 37.9852ZM14.7678 37.9848L15.0417 39.2044L15.6832 39.0603L15.4093 37.8407L15.1354 36.6211L14.4938 36.7652L14.7678 37.9848ZM15.4093 37.8407L15.4387 39.0904L16.0907 39.075L16.0613 37.8254L16.0319 36.5757L15.3799 36.5911L15.4093 37.8407ZM16.0613 37.8254L15.9383 39.0693L16.5966 39.1344L16.7196 37.8905L16.8426 36.6465L16.1844 36.5814L16.0613 37.8254ZM16.7196 37.8905L17.3536 38.9678L17.9753 38.6019L17.3413 37.5246L16.7073 36.4473L16.0856 36.8132L16.7196 37.8905ZM17.3413 37.5246L17.7338 38.7114L18.3687 38.5014L17.9762 37.3146L17.5837 36.1278L16.9488 36.3378L17.3413 37.5246ZM17.9762 37.3146L17.842 38.5574L18.5 38.6284L18.6342 37.3857L18.7684 36.1429L18.1104 36.0718L17.9762 37.3146ZM18.6342 37.3857L18.6738 38.635L19.3253 38.6143L19.2857 37.365L19.246 36.1156L18.5945 36.1363L18.6342 37.3857ZM19.2857 37.365L19.4622 38.6024L20.1072 38.5104L19.9307 37.2729L19.7541 36.0355L19.1091 36.1275L19.2857 37.365ZM19.9307 37.2729L20.0514 38.5171L20.6976 38.4544L20.5769 37.2103L20.4562 35.9661L19.81 36.0288L19.9307 37.2729ZM20.5769 37.2103L20.1777 38.3948L20.8479 38.6207L21.2471 37.4361L21.6463 36.2516L20.9762 36.0257L20.5769 37.2103ZM21.2471 37.4361L21.767 38.5729L22.3969 38.2848L21.877 37.148L21.3572 36.0113L20.7272 36.2994L21.2471 37.4361ZM21.877 37.148L21.8735 38.398L22.5257 38.3999L22.5292 37.1499L22.5328 35.8999L21.8806 35.8981L21.877 37.148ZM22.5292 37.1499L22.6648 38.3925L23.311 38.3221L23.1754 37.0794L23.0399 35.8368L22.3937 35.9073L22.5292 37.1499ZM23.1754 37.0794L23.2038 38.3291L23.855 38.3143L23.8266 37.0647L23.7983 35.815L23.1471 35.8298L23.1754 37.0794ZM23.8266 37.0647L23.5799 38.2901L24.243 38.4236L24.4898 37.1982L24.7365 35.9728L24.0734 35.8393L23.8266 37.0647ZM24.4898 37.1982L25.2915 38.1572L25.9027 37.6463L25.1009 36.6873L24.2992 35.7283L23.688 36.2392L24.4898 37.1982ZM25.1009 36.6873L24.4168 37.7334L25.105 38.1835L25.7892 37.1374L26.4733 36.0912L25.7851 35.6411L25.1009 36.6873ZM25.7892 37.1374L25.9335 38.379L26.5797 38.3039L26.4354 37.0623L26.2911 35.8206L25.6449 35.8957L25.7892 37.1374ZM26.4354 37.0623L26.9358 38.2077L27.5658 37.9325L27.0654 36.787L26.565 35.6416L25.935 35.9168L26.4354 37.0623ZM27.0654 36.787L27.4977 37.9599L28.1316 37.7262L27.6992 36.5534L27.2669 35.3805L26.633 35.6142L27.0654 36.787ZM27.6992 36.5534L27.7957 37.7997L28.444 37.7495L28.3475 36.5032L28.251 35.2569L27.6027 35.3071L27.6992 36.5534ZM28.3475 36.5032L28.505 37.7432L29.15 37.6613L28.9925 36.4212L28.8349 35.1812L28.1899 35.2631L28.3475 36.5032ZM28.9925 36.4212L28.3868 37.5147L29.0697 37.893L29.6754 36.7995L30.281 35.706L29.5981 35.3278L28.9925 36.4212ZM29.6754 36.7995L30.0757 37.9837L30.7113 37.7688L30.3109 36.5846L29.9106 35.4005L29.275 35.6154L29.6754 36.7995ZM30.3109 36.5846L30.2153 37.831L30.8714 37.8813L30.967 36.635L31.0627 35.3886L30.4065 35.3383L30.3109 36.5846ZM30.967 36.635L31.3364 37.8291L31.9716 37.6327L31.6022 36.4385L31.2329 35.2443L30.5977 35.4408L30.967 36.635ZM31.6022 36.4385L31.5781 37.6883L32.2321 37.7009L32.2563 36.4511L32.2804 35.2014L31.6264 35.1887L31.6022 36.4385ZM32.2563 36.4511L32.8621 37.5445L33.4874 37.198L32.8815 36.1047L32.2756 35.0113L31.6504 35.3578L32.2563 36.4511ZM32.8815 36.1047L32.2346 37.1742L32.9203 37.589L33.5672 36.5194L34.2141 35.4499L33.5284 35.0351L32.8815 36.1047ZM33.5672 36.5194L34.2422 37.5715L34.8616 37.1741L34.1866 36.122L33.5116 35.0699L32.8922 35.4673L33.5672 36.5194ZM34.1866 36.122L34.0519 37.3647L34.7082 37.4359L34.8429 36.1932L34.9777 34.9505L34.3214 34.8793L34.1866 36.122ZM34.8429 36.1932L34.862 37.443L35.5145 37.4331L35.4954 36.1832L35.4763 34.9334L34.8238 34.9433L34.8429 36.1932ZM35.4954 36.1832L36.0906 37.2824L36.7165 36.9435L36.1213 35.8443L35.5262 34.7451L34.9002 35.084L35.4954 36.1832ZM36.1213 35.8443L35.7935 37.0505L36.461 37.232L36.7889 36.0257L37.1167 34.8195L36.4492 34.6381L36.1213 35.8443ZM36.7889 36.0257L36.8189 37.2754L37.4702 37.2598L37.4402 36.0101L37.4102 34.7605L36.7589 34.7761L36.7889 36.0257ZM37.4402 36.0101L37.135 37.2223L37.801 37.39L38.1062 36.1778L38.4114 34.9656L37.7454 34.7979L37.4402 36.0101ZM38.1062 36.1778L38.8094 37.2113L39.4276 36.7907L38.7244 35.7572L38.0212 34.7237L37.4031 35.1443L38.1062 36.1778ZM38.7244 35.7572L38.764 37.0066L39.4135 36.986L39.3739 35.7366L39.3342 34.4872L38.6848 34.5078L38.7244 35.7572ZM39.3739 35.7366L39.1489 36.9662L39.8082 37.0868L40.0331 35.8572L40.2581 34.6276L39.5988 34.507L39.3739 35.7366ZM40.0331 35.8572L39.9562 37.1048L40.6142 37.1454L40.6912 35.8978L40.7681 34.6502L40.1101 34.6096L40.0331 35.8572ZM40.6912 35.8978L40.9134 37.1279L41.5561 37.0118L41.3338 35.7817L41.1116 34.5516L40.4689 34.6677L40.6912 35.8978ZM41.3338 35.7817L41.7765 36.9507L42.409 36.7112L41.9664 35.5422L41.5237 34.3732L40.8912 34.6127L41.3338 35.7817ZM41.9664 35.5422L42.2146 36.7673L42.8546 36.6376L42.6064 35.4125L42.3581 34.1874L41.7182 34.3171L41.9664 35.5422ZM42.6064 35.4125L42.8501 36.6385L43.4926 36.5108L43.2488 35.2848L43.005 34.0588L42.3626 34.1865L42.6064 35.4125ZM43.2488 35.2848L42.6535 36.3839L43.3352 36.7531L43.9304 35.6539L44.5257 34.5547L43.844 34.1856L43.2488 35.2848ZM43.9304 35.6539L44.7013 36.6379L45.3139 36.1579L44.543 35.174L43.7721 34.19L43.1595 34.6699L43.9304 35.6539ZM44.543 35.174L44.4271 36.4186L45.0839 36.4798L45.1998 35.2351L45.3157 33.9905L44.6589 33.9294L44.543 35.174ZM45.1998 35.2351L45.3354 36.4778L45.9808 36.4073L45.8451 35.1647L45.7095 33.9221L45.0641 33.9925L45.1998 35.2351ZM45.8451 35.1647L45.7923 36.4136L46.45 36.4414L46.5028 35.1925L46.5556 33.9436L45.898 33.9158L45.8451 35.1647ZM46.5028 35.1925L47.3898 36.0733L47.8411 35.6188L46.9541 34.738L46.0672 33.8572L45.6159 34.3117L46.5028 35.1925ZM46.9541 34.738L47.7901 35.6674L48.2933 35.2147L47.4574 34.2854L46.6214 33.356L46.1182 33.8087L46.9541 34.738ZM47.4574 34.2854L48.7001 34.4201L48.7726 33.7514L47.5299 33.6167L46.2871 33.482L46.2147 34.1507L47.4574 34.2854ZM47.5299 33.6167L48.5606 34.3238L48.9659 33.7331L47.9352 33.0259L46.9044 32.3187L46.4991 32.9095L47.5299 33.6167ZM47.9352 33.0259L49.0434 32.4477L48.6778 31.7469L47.5695 32.3251L46.4613 32.9032L46.8269 33.6041L47.9352 33.0259ZM47.5695 32.3251L48.5452 33.1064L49.0415 32.4868L48.0658 31.7054L47.0901 30.9241L46.5939 31.5437L47.5695 32.3251ZM48.0658 31.7054L49.3143 31.6457L49.2828 30.9858L48.0342 31.0455L46.7857 31.1052L46.8172 31.7651L48.0658 31.7054ZM48.0342 31.0455L49.0401 30.3034L48.5628 29.6564L47.5569 30.3986L46.551 31.1407L47.0284 31.7876L48.0342 31.0455ZM47.5569 30.3986L48.8018 30.5114L48.8605 29.8636L47.6156 29.7508L46.3707 29.638L46.312 30.2858L47.5569 30.3986ZM47.6156 29.7508L48.8312 30.0419L48.9883 29.3861L47.7727 29.095L46.557 28.8038L46.4 29.4596L47.6156 29.7508ZM47.7727 29.095L48.9721 29.4471L49.1676 28.781L47.9682 28.4289L46.7688 28.0768L46.5733 28.7429L47.7727 29.095ZM47.9682 28.4289L49.1204 27.9441L48.8535 27.3099L47.7014 27.7946L46.5492 28.2794L46.816 28.9137L47.9682 28.4289ZM47.7014 27.7946L48.9513 27.7788L48.943 27.1255L47.6931 27.1414L46.4432 27.1573L46.4515 27.8105L47.7014 27.7946ZM47.6931 27.1414L48.9273 26.9433L48.824 26.3002L47.5898 26.4983L46.3556 26.6963L46.4589 27.3395L47.6931 27.1414ZM47.5898 26.4983L48.8116 26.234L48.6734 25.595L47.4516 25.8592L46.2299 26.1235L46.3681 26.7625L47.5898 26.4983ZM47.4516 25.8592L48.6936 26.0006L48.769 25.3386L47.527 25.1972L46.285 25.0558L46.2097 25.7178L47.4516 25.8592ZM47.527 25.1972L48.7725 25.0912L48.7173 24.4426L47.4718 24.5486L46.2263 24.6546L46.2815 25.3032L47.527 25.1972ZM47.4718 24.5486L48.7169 24.6591L48.7757 23.9965L47.5306 23.886L46.2855 23.7755L46.2267 24.4381L47.4718 24.5486ZM47.5306 23.886L48.5998 23.2384L48.2302 22.6283L47.1611 23.2759L46.0919 23.9235L46.4614 24.5336L47.5306 23.886ZM47.1611 23.2759L48.3696 23.5951L48.5489 22.9166L47.3403 22.5973L46.1318 22.2781L45.9525 22.9567L47.1611 23.2759ZM47.3403 22.5973L48.5587 22.3182L48.4127 21.6809L47.1943 21.96L45.9759 22.2392L46.1219 22.8765L47.3403 22.5973ZM47.1943 21.96L48.4416 21.8782L48.3989 21.2275L47.1516 21.3093L45.9043 21.3911L45.947 22.0418L47.1943 21.96ZM47.1516 21.3093L48.2936 20.8011L48.0184 20.1825L46.8763 20.6907L45.7343 21.199L46.0096 21.8175L47.1516 21.3093ZM46.8763 20.6907L47.9828 20.1091L47.6616 19.4981L46.5552 20.0797L45.4487 20.6613L45.7699 21.2723L46.8763 20.6907ZM46.5552 20.0797L47.7918 19.8974L47.697 19.2547L46.4604 19.4371L45.2238 19.6194L45.3185 20.262L46.5552 20.0797ZM46.4604 19.4371L47.6812 19.7056L47.8305 19.027L46.6097 18.7585L45.3889 18.4899L45.2396 19.1685L46.4604 19.4371ZM46.6097 18.7585L47.7534 18.254L47.4813 17.6372L46.3376 18.1416L45.1939 18.6461L45.466 19.2629L46.6097 18.7585ZM46.3376 18.1416L47.5702 18.3497L47.6841 17.675L46.4515 17.467L45.2189 17.2589L45.1051 17.9336L46.3376 18.1416ZM46.4515 17.467L47.6411 17.0831L47.4388 16.4562L46.2492 16.8401L45.0596 17.224L45.2619 17.8509L46.4515 17.467ZM46.2492 16.8401L47.4845 16.6493L47.3853 16.0068L46.1499 16.1976L44.9146 16.3884L45.0138 17.0309L46.2492 16.8401ZM46.1499 16.1976L47.3604 15.8859L47.1976 15.2534L45.9871 15.5651L44.7766 15.8769L44.9394 16.5093L46.1499 16.1976ZM45.9871 15.5651L47.1292 15.0572L46.8559 14.4426L45.7137 14.9506L44.5716 15.4585L44.8449 16.0731L45.9871 15.5651ZM45.7137 14.9506L46.9637 14.9559L46.9665 14.2973L45.7166 14.2919L44.4666 14.2866L44.4637 14.9452L45.7137 14.9506ZM45.7166 14.2919L46.9441 14.5277L47.0747 13.8478L45.8471 13.612L44.6195 13.3763L44.489 14.0562L45.7166 14.2919ZM45.8471 13.612L47.0728 13.3667L46.9451 12.7287L45.7194 12.974L44.4937 13.2193L44.6214 13.8574L45.8471 13.612ZM45.7194 12.974L46.9619 12.8372L46.8906 12.1899L45.6481 12.3268L44.4056 12.4636L44.4769 13.1108L45.7194 12.974ZM45.6481 12.3268L46.6438 11.571L46.2003 10.9867L45.2046 11.7425L44.209 12.4982L44.6524 13.0825L45.6481 12.3268ZM45.2046 11.7425L46.3889 12.1424L46.6246 11.4444L45.4403 11.0445L44.2561 10.6446L44.0204 11.3425L45.2046 11.7425ZM45.4403 11.0445L46.4645 10.3279L46.052 9.73831L45.0278 10.4549L44.0037 11.1716L44.4162 11.7611L45.4403 11.0445ZM45.0278 10.4549L46.2395 10.1475L46.0789 9.51457L44.8673 9.82198L43.6556 10.1294L43.8162 10.7623L45.0278 10.4549ZM44.8673 9.82198L46.1163 9.77209L46.0902 9.11885L44.8412 9.16874L43.5922 9.21863L43.6183 9.87187L44.8673 9.82198ZM44.8412 9.16874L45.9956 9.64821L46.292 8.93438L45.1376 8.45491L43.9833 7.97545L43.6868 8.68927L44.8412 9.16874ZM45.1376 8.45491L46.3587 8.18736L46.2198 7.55376L44.9988 7.82132L43.7778 8.08887L43.9166 8.72247L45.1376 8.45491ZM44.9988 7.82132L45.9414 7.00032L45.444 6.42925L44.5014 7.25024L43.5588 8.07123L44.0562 8.64231L44.9988 7.82132ZM44.5014 7.25024L45.7345 7.45498L45.8477 6.77315L44.6146 6.56841L43.3815 6.36367L43.2683 7.0455L44.5014 7.25024ZM44.6146 6.56841L45.8636 6.619L45.8907 5.95069L44.6417 5.90011L43.3927 5.84952L43.3656 6.51783L44.6146 6.56841ZM44.6417 5.90011L45.7304 5.28603L45.3945 4.69042L44.3057 5.3045L43.217 5.91858L43.5529 6.51419L44.6417 5.90011ZM44.3057 5.3045L45.5241 5.02495L45.3784 4.39023L44.1601 4.66978L42.9418 4.94933L43.0874 5.58405L44.3057 5.3045ZM44.1601 4.66978L45.2489 4.05578L44.9162 3.46579L43.8274 4.0798L42.7386 4.6938L43.0713 5.28378L44.1601 4.66978ZM43.8274 4.0798L45.0148 3.68929L44.812 3.0724L43.6245 3.4629L42.4371 3.85341L42.64 4.4703L43.8274 4.0798ZM43.6245 3.4629L44.7856 3.92589L45.0922 3.15696L43.9311 2.69398L42.77 2.231L42.4634 2.99992L43.6245 3.4629ZM43.9311 2.69398L44.8723 1.87139L44.369 1.29552L43.4278 2.11811L42.4866 2.9407L42.9899 3.51657L43.9311 2.69398ZM43.4278 2.11811L43.6864 0.895143L43.0023 0.750538L42.7438 1.97351L42.4853 3.19648L43.1693 3.34108L43.4278 2.11811ZM42.7438 1.97351L43.1349 0.786277L42.5098 0.580321L42.1186 1.76755L41.7275 2.95479L42.3527 3.16074L42.7438 1.97351ZM42.1186 1.76755L42.5309 0.587482L41.8987 0.366634L41.4864 1.54671L41.0742 2.72678L41.7064 2.94763L42.1186 1.76755ZM41.4864 1.54671L41.5189 0.297128L40.8589 0.279972L40.8264 1.52955L40.794 2.77913L41.4539 2.79628L41.4864 1.54671ZM40.8264 1.52955L40.8959 0.281483L40.2442 0.245192L40.1747 1.49326L40.1052 2.74133L40.7569 2.77762L40.8264 1.52955ZM40.1747 1.49326L40.0049 0.254839L39.3461 0.345152L39.5158 1.58357L39.6856 2.82199L40.3444 2.73168L40.1747 1.49326ZM39.5158 1.58357L39.1724 0.381667L38.5162 0.569164L38.8596 1.77107L39.203 2.97297L39.8592 2.78548L39.5158 1.58357ZM38.8596 1.77107L38.8068 0.522183L38.1574 0.549623L38.2102 1.79851L38.263 3.04739L38.9123 3.01995L38.8596 1.77107ZM38.2102 1.79851L38.5261 0.589073L37.8811 0.420636L37.5653 1.63007L37.2494 2.83951L37.8944 3.00794L38.2102 1.79851ZM37.5653 1.63007L37.3164 0.4051L36.6644 0.537558L36.9133 1.76253L37.1622 2.9875L37.8141 2.85504L37.5653 1.63007ZM36.9133 1.76253L37.2161 0.549757L36.5697 0.388356L36.2669 1.60113L35.9641 2.8139L36.6105 2.9753L36.9133 1.76253ZM36.2669 1.60113L36.1095 0.361078L35.459 0.443646L35.6164 1.6837L35.7738 2.92375L36.4243 2.84118L36.2669 1.60113ZM35.6164 1.6837L36.062 0.515833L35.4115 0.267634L34.9659 1.4355L34.5203 2.60336L35.1707 2.85156L35.6164 1.6837ZM34.9659 1.4355L34.524 0.266211L33.8758 0.511192L34.3177 1.68048L34.7596 2.84976L35.4078 2.60478L34.9659 1.4355ZM34.3177 1.68048L34.5126 0.445769L33.8625 0.343145L33.6676 1.57785L33.4727 2.81256L34.1227 2.91519L34.3177 1.68048ZM33.6676 1.57785L33.8762 0.34538L33.2248 0.235144L33.0163 1.46762L32.8077 2.70009L33.459 2.81033L33.6676 1.57785ZM33.0163 1.46762L33.3697 0.268637L32.716 0.0759062L32.3625 1.27489L32.009 2.47387L32.6628 2.6666L33.0163 1.46762ZM32.3625 1.27489L32.1927 0.0364734L31.5431 0.125538L31.7129 1.36395L31.8827 2.60237L32.5323 2.5133L32.3625 1.27489ZM31.7129 1.36395L31.566 0.122611L30.9167 0.199439L31.0636 1.44078L31.2105 2.68212L31.8598 2.60529L31.7129 1.36395ZM31.0636 1.44078L31.2978 0.212914L30.6437 0.0881578L30.4095 1.31602L30.1753 2.54389L30.8294 2.66865L31.0636 1.44078ZM30.4095 1.31602L30.0578 0.116507L29.4125 0.305704L29.7641 1.50522L30.1158 2.70474L30.7612 2.51554L30.4095 1.31602ZM29.7641 1.50522L29.4541 0.294284L28.8089 0.459472L29.119 1.67041L29.429 2.88134L30.0742 2.71616L29.7641 1.50522ZM29.119 1.67041L28.895 0.440645L28.249 0.558321L28.473 1.78808L28.697 3.01785L29.343 2.90017L29.119 1.67041ZM28.473 1.78808L28.9081 0.616254L28.2484 0.371296L27.8133 1.54313L27.3782 2.71496L28.0379 2.95991L28.473 1.78808ZM27.8133 1.54313L27.5686 0.317304L26.923 0.446154L27.1677 1.67198L27.4124 2.8978L28.0579 2.76895L27.8133 1.54313ZM27.1677 1.67198L26.666 0.527084L26.028 0.806668L26.5297 1.95156L27.0314 3.09645L27.6694 2.81687L27.1677 1.67198ZM26.5297 1.95156L26.6468 0.707052L25.9936 0.64562L25.8766 1.89013L25.7595 3.13463L26.4126 3.19607L26.5297 1.95156ZM25.8766 1.89013L26.0067 0.646917L25.3525 0.578459L25.2224 1.82167L25.0923 3.06488L25.7465 3.13334L25.8766 1.89013ZM25.2224 1.82167L25.3419 0.577397L24.6874 0.514524L24.5679 1.7588L24.4484 3.00307L25.1029 3.06594L25.2224 1.82167ZM24.5679 1.7588L24.1109 0.595328L23.4744 0.845323L23.9314 2.00879L24.3884 3.17226L25.0249 2.92227L24.5679 1.7588ZM23.9314 2.00879L24.3194 0.820546L23.6548 0.603484L23.2667 1.79173L22.8787 2.97998L23.5434 3.19704L23.9314 2.00879ZM23.2667 1.79173L22.9403 0.585099L22.3001 0.758276L22.6265 1.96491L22.953 3.17154L23.5931 2.99836L23.2667 1.79173ZM22.6265 1.96491L22.7612 0.722183L22.1045 0.651007L21.9698 1.89373L21.8351 3.13645L22.4919 3.20763L22.6265 1.96491ZM21.9698 1.89373L21.3319 0.818746L20.7082 1.18886L21.3461 2.26385L21.9839 3.33883L22.6077 2.96872L21.9698 1.89373ZM21.3461 2.26385L21.8571 1.12308L21.1817 0.82052L20.6706 1.96129L20.1596 3.10205L20.835 3.40462L21.3461 2.26385ZM20.6706 1.96129L19.9718 0.924879L19.3541 1.34142L20.0529 2.37783L20.7517 3.41424L21.3695 2.99769L20.6706 1.96129ZM20.0529 2.37783L20.4698 1.19939L19.7966 0.961254L19.3797 2.13969L18.9628 3.31813L19.636 3.55627L20.0529 2.37783ZM19.3797 2.13969L19.3972 0.889813L18.7431 0.880639L18.7256 2.13052L18.7081 3.38039L19.3622 3.38957L19.3797 2.13969ZM18.7256 2.13052L17.9878 1.12145L17.3778 1.56744L18.1156 2.5765L18.8534 3.58556L19.4633 3.13958L18.7256 2.13052ZM18.1156 2.5765L18.6634 1.45295L17.9773 1.11838L17.4294 2.24193L16.8816 3.36547L17.5677 3.70005L18.1156 2.5765ZM17.4294 2.24193L17.2096 1.01141L16.5682 1.12601L16.788 2.35653L17.0079 3.58704L17.6493 3.47244L17.4294 2.24193ZM16.788 2.35653L16.556 1.12824L15.9143 1.24944L16.1463 2.47772L16.3783 3.706L17.02 3.58481L16.788 2.35653ZM16.1463 2.47772L16.4098 1.2558L15.7385 1.11106L15.475 2.33297L15.2116 3.55489L15.8829 3.69964L16.1463 2.47772ZM15.475 2.33297L14.5893 1.45096L14.0037 2.03903L14.8894 2.92105L15.7752 3.80307L16.3608 3.21499L15.475 2.33297ZM14.8894 2.92105L14.8384 1.67209L14.1883 1.69864L14.2393 2.9476L14.2903 4.19656L14.9404 4.17001L14.8894 2.92105ZM14.2393 2.9476L14.6352 1.76195L13.9511 1.53352L13.5552 2.71916L13.1593 3.9048L13.8434 4.13324L14.2393 2.9476ZM13.5552 2.71916L12.9727 1.61319L12.3593 1.93624L12.9419 3.04221L13.5244 4.14817L14.1377 3.82512L13.5552 2.71916ZM12.9419 3.04221L12.8881 1.79336L12.2365 1.82141L12.2902 3.07025L12.344 4.3191L12.9956 4.29105L12.9419 3.04221ZM12.2902 3.07025L11.961 1.8644L11.3288 2.03702L11.658 3.24287L11.9873 4.44873L12.6195 4.27611L12.2902 3.07025ZM11.658 3.24287L12.1904 2.11189L11.4874 1.78101L10.9551 2.912L10.4227 4.04298L11.1257 4.37385L11.658 3.24287ZM10.9551 2.912L10.234 1.89094L9.63768 2.31205L10.3587 3.33311L11.0798 4.35417L11.6761 3.93306L10.9551 2.912ZM10.3587 3.33311L10.7439 2.14392L10.0527 1.92007L9.66756 3.10926L9.28243 4.29845L9.97361 4.5223L10.3587 3.33311ZM9.66756 3.10926L8.75955 2.25019L8.19423 2.84772L9.10224 3.70679L10.0103 4.56586L10.5756 3.96834L9.66756 3.10926ZM9.10224 3.70679L8.95026 2.46606L8.30538 2.54506L8.45736 3.78578L8.60934 5.02651L9.25422 4.94752L9.10224 3.70679ZM8.45736 3.78578L8.49483 2.53634L7.83353 2.51651L7.79606 3.76595L7.75859 5.01539L8.4199 5.03522L8.45736 3.78578ZM7.79606 3.76595L7.54445 2.54154L6.90769 2.67239L7.15929 3.8968L7.4109 5.12122L8.04767 4.99037L7.79606 3.76595ZM7.15929 3.8968L7.58887 2.72294L6.88718 2.46615L6.45761 3.64002L6.02803 4.81389L6.72972 5.07067L7.15929 3.8968ZM6.45761 3.64002L6.0534 2.45718L5.42856 2.6707L5.83277 3.85354L6.23697 5.03639L6.86181 4.82286L6.45761 3.64002ZM5.83277 3.85354L5.59327 2.6267L4.95538 2.75122L5.19487 3.97807L5.43437 5.20491L6.07226 5.08039L5.83277 3.85354ZM5.19487 3.97807L4.80876 2.78919L4.18483 2.99183L4.57094 4.1807L4.95705 5.36957L5.58098 5.16694L5.19487 3.97807ZM4.57094 4.1807L3.85737 3.15439L3.27401 3.56L3.98758 4.5863L4.70116 5.61261L5.28452 5.20701L4.57094 4.1807ZM3.98758 4.5863L3.94161 3.33715L3.28557 3.3613L3.33155 4.61045L3.37753 5.8596L4.03356 5.83546L3.98758 4.5863ZM3.33155 4.61045L3.48106 3.36942L2.79991 3.28737L2.65041 4.52839L2.50091 5.76942L3.18205 5.85148L3.33155 4.61045ZM2.65041 4.52839L2.50408 3.28699L1.85548 3.36344L2.0018 4.60485L2.14813 5.84625L2.79674 5.7698L2.65041 4.52839ZM2.0018 4.60485L1.21932 3.63005L0.652251 4.08525L1.43474 5.06004L2.21722 6.03484L2.78429 5.57964L2.0018 4.60485ZM1.43474 5.06004L2.22104 4.08833L2.03643 3.93894L1.25012 4.91065L0.463814 5.88236L0.648427 6.03175L1.43474 5.06004Z" fill="black"/>
<path d="M1.94164 3.86939C1.36654 3.48747 0.590735 3.64408 0.208822 4.21917C-0.173092 4.79426 -0.0164875 5.57007 0.558607 5.95199L1.25012 4.91069L1.94164 3.86939ZM1.33343 4.96601L0.641911 6.00731L0.758097 6.08447L0.888433 6.13412L1.33343 4.96601ZM1.85801 5.16585L2.90595 4.48443L2.68381 4.1428L2.303 3.99774L1.85801 5.16585ZM2.24474 5.76059L1.1968 6.442L1.48115 6.87931L1.992 6.98477L2.24474 5.76059ZM2.93064 5.90219L3.44145 4.76133L3.31696 4.70559L3.18338 4.67801L2.93064 5.90219ZM3.53088 6.17094L4.50843 5.39192L4.31904 5.15426L4.04169 5.03008L3.53088 6.17094ZM3.9568 6.70541L2.97924 7.48444L3.09548 7.63029L3.24923 7.73587L3.9568 6.70541ZM4.49204 7.07293L3.78447 8.10339L3.94168 8.21134L4.12393 8.2675L4.49204 7.07293ZM5.14001 7.27261L5.94875 6.31948L5.7532 6.15356L5.50812 6.07804L5.14001 7.27261ZM5.64041 7.6972L6.72097 7.06879L6.61296 6.88307L6.44914 6.74407L5.64041 7.6972ZM6.00362 8.32174L4.92306 8.95015L5.28809 9.57781L6.01414 9.57169L6.00362 8.32174ZM6.78998 8.31512L7.68982 7.44748L7.31682 7.06063L6.77945 7.06516L6.78998 8.31512ZM7.25257 8.79488L6.35273 9.66251L6.56492 9.88258L6.85473 9.97988L7.25257 8.79488ZM7.89014 9.00893L8.97815 8.39352L8.74224 7.97644L8.28798 7.82393L7.89014 9.00893ZM8.24866 9.64276L7.16065 10.2582L7.35173 10.596L7.70055 10.7662L8.24866 9.64276ZM8.83863 9.93061L9.38957 8.80857L9.38674 8.80719L8.83863 9.93061ZM9.42781 10.2199L8.87687 11.3419L8.94375 11.3748L9.01405 11.3994L9.42781 10.2199ZM10.0609 10.442L11.2351 10.0132L11.0324 9.45808L10.4747 9.26245L10.0609 10.442ZM10.3372 11.1985L9.16301 11.6272L9.47547 12.4829L10.3857 12.4475L10.3372 11.1985ZM11.14 11.1673L12.1647 10.4514L11.7737 9.89172L11.0914 9.91823L11.14 11.1673ZM11.5396 11.7394L10.5149 12.4552L10.733 12.7674L11.0881 12.905L11.5396 11.7394ZM12.1608 11.98L13.2882 11.4402L13.0743 10.9934L12.6124 10.8145L12.1608 11.98ZM12.4871 12.6614L11.3597 13.2012L11.7247 13.9637L12.5683 13.9087L12.4871 12.6614ZM13.3049 12.6081L14.2037 11.7395L13.8014 11.3231L13.2236 11.3608L13.3049 12.6081ZM13.7673 13.0867L12.8684 13.9553L12.9223 14.011L12.9826 14.0597L13.7673 13.0867ZM14.2756 13.4966L13.4909 14.4696L13.5675 14.5314L13.6528 14.5804L14.2756 13.4966ZM14.8406 13.8212L15.9345 13.2163L15.7657 12.9111L15.4634 12.7374L14.8406 13.8212ZM15.1941 14.4604L14.1002 15.0653L14.3691 15.5514L14.91 15.6777L15.1941 14.4604ZM15.871 14.6184L16.5344 13.559L16.358 13.4485L16.1552 13.4011L15.871 14.6184ZM16.4231 14.9641L17.4947 14.3205L17.3404 14.0636L17.0865 13.9046L16.4231 14.9641ZM16.7923 15.5787L15.7207 16.2224L16.0698 16.8035L16.7472 16.8279L16.7923 15.5787ZM17.558 15.6064L18.4482 14.7288L18.0995 14.3751L17.6031 14.3572L17.558 15.6064ZM18.0232 16.0782L18.9409 15.2295L18.9273 15.2149L18.9133 15.2007L18.0232 16.0782ZM18.4775 16.5695L17.5598 17.4182L17.8008 17.6788L18.1428 17.7739L18.4775 16.5695ZM19.1377 16.753L19.8087 15.6984L19.6517 15.5985L19.4724 15.5486L19.1377 16.753ZM19.6862 17.102L20.8046 16.5437L20.6497 16.2335L20.3572 16.0474L19.6862 17.102ZM20.0184 17.7675L18.9 18.3258L19.2635 19.054L20.0765 19.0162L20.0184 17.7675ZM20.8297 17.7298L21.991 17.2673L21.6615 16.4397L20.7716 16.4811L20.8297 17.7298ZM21.1209 18.4609L19.9596 18.9234L20.1328 19.3585L20.5493 19.5726L21.1209 18.4609ZM21.7079 18.7627L21.1364 19.8744L21.8236 20.2277L22.4468 19.7709L21.7079 18.7627ZM22.2072 18.3968L22.9462 19.405L22.9699 19.3876L22.9928 19.3691L22.2072 18.3968ZM22.7045 17.995L22.5065 16.7608L22.1779 16.8135L21.919 17.0227L22.7045 17.995ZM23.4548 17.8746L23.6528 19.1088L24.1511 19.0289L24.4542 18.6254L23.4548 17.8746ZM23.855 17.3418L23.037 16.3966L22.9359 16.4841L22.8556 16.591L23.855 17.3418ZM24.3471 16.9159L23.6693 15.8656L23.5955 15.9133L23.5291 15.9708L24.3471 16.9159ZM24.8961 16.5617L25.5739 17.612L25.5843 17.6052L25.5946 17.5983L24.8961 16.5617ZM25.4367 16.1974L24.7999 15.1218L24.7685 15.1404L24.7382 15.1608L25.4367 16.1974ZM26.0006 15.8635L26.6374 16.9392L26.9921 16.7292L27.1523 16.3495L26.0006 15.8635ZM26.2893 15.1794L25.7325 14.0603L25.3177 14.2666L25.1376 14.6935L26.2893 15.1794ZM26.8838 14.8836L27.4406 16.0027L27.7362 15.8557L27.9206 15.5819L26.8838 14.8836ZM27.2672 14.3144L27.0114 13.0908L26.5142 13.1947L26.2304 13.6161L27.2672 14.3144ZM27.9719 14.1671L28.2276 15.3906L28.5754 15.318L28.8329 15.0733L27.9719 14.1671ZM28.4462 13.7165L27.696 12.7166L27.6379 12.7602L27.5852 12.8103L28.4462 13.7165ZM28.9662 13.3263L29.7164 14.3262L29.8095 14.2563L29.8881 14.1704L28.9662 13.3263ZM29.4146 12.8366L28.7703 11.7654L28.615 11.8588L28.4926 11.9925L29.4146 12.8366ZM29.9744 12.4999L29.3431 11.4211L29.3366 11.4248L29.3302 11.4287L29.9744 12.4999ZM30.5378 12.1702L31.1691 13.2491L31.1844 13.2402L31.1993 13.2308L30.5378 12.1702ZM31.0901 11.8258L31.7516 12.8864L31.8491 12.8256L31.9339 12.748L31.0901 11.8258ZM31.575 11.3821L30.7469 10.4458L30.739 10.4527L30.7313 10.4598L31.575 11.3821ZM32.0674 10.9466L31.4103 9.88326L31.3193 9.93947L31.2392 10.0103L32.0674 10.9466ZM32.6218 10.604L32.0261 9.50506L31.9949 9.52199L31.9647 9.54066L32.6218 10.604ZM33.196 10.2928L33.0461 9.05179L32.8097 9.08034L32.6003 9.19383L33.196 10.2928ZM33.9107 10.2065L34.0606 11.4475L34.4026 11.4062L34.6751 11.1955L33.9107 10.2065ZM34.4267 9.8077L35.1911 10.7967L35.3389 10.6824L35.4469 10.5299L34.4267 9.8077ZM34.8351 9.23072L34.1795 8.16646L33.9623 8.30027L33.8149 8.5085L34.8351 9.23072ZM35.3893 8.8893L35.0748 7.67951L34.8933 7.72669L34.7337 7.82504L35.3893 8.8893ZM36.0452 8.71879L36.3597 9.92858L36.4538 9.9041L36.5431 9.86535L36.0452 8.71879ZM36.6458 8.45796L37.1437 9.60451L37.1716 9.5924L37.1989 9.57894L36.6458 8.45796ZM37.2295 8.16995L36.6882 7.0432L36.6765 7.04897L37.2295 8.16995ZM37.8165 7.88792L38.3579 9.01461L38.4804 8.95575L38.5874 8.87194L37.8165 7.88792ZM38.3331 7.48327L37.7747 6.3649L37.6617 6.42134L37.5622 6.49925L38.3331 7.48327ZM38.915 7.19273L38.5011 6.01324L38.427 6.03926L38.3567 6.07436L38.915 7.19273ZM39.5378 6.97421L39.9517 8.1537L40.3344 8.0194L40.5654 7.68595L39.5378 6.97421ZM39.9491 6.38041L39.0966 5.46616L38.9981 5.55799L38.9215 5.66868L39.9491 6.38041ZM40.4388 5.92377L40.0434 4.73795L39.7854 4.824L39.5864 5.00952L40.4388 5.92377ZM41.0664 5.71451L41.4618 6.90034L41.5436 6.87306L41.6209 6.83482L41.0664 5.71451ZM41.6498 5.42582L42.2042 6.54613L42.2653 6.51593L42.3227 6.47927L41.6498 5.42582ZM42.1987 5.07522L41.5748 3.99202L41.55 4.00634L41.5258 4.02178L42.1987 5.07522ZM42.7621 4.75075L43.0122 3.52602L42.5484 3.43132L42.1383 3.66754L42.7621 4.75075ZM43.1822 4.83653L42.9321 6.06126L45.5858 6.60312L44.2764 4.23223L43.1822 4.83653ZM44.1939 4.08277C43.8601 3.47845 43.0997 3.25911 42.4954 3.59285C41.891 3.9266 41.6717 4.68705 42.0054 5.29137L43.0997 4.68707L44.1939 4.08277ZM1.25012 4.91069L0.558607 5.95199L0.641911 6.00731L1.33343 4.96601L2.02494 3.92471L1.94164 3.86939L1.25012 4.91069ZM1.33343 4.96601L0.888433 6.13412L1.41302 6.33396L1.85801 5.16585L2.303 3.99774L1.77842 3.7979L1.33343 4.96601ZM1.85801 5.16585L0.810072 5.84726L1.1968 6.442L2.24474 5.76059L3.29267 5.07917L2.90595 4.48443L1.85801 5.16585ZM2.24474 5.76059L1.992 6.98477L2.67791 7.12638L2.93064 5.90219L3.18338 4.67801L2.49747 4.5364L2.24474 5.76059ZM2.93064 5.90219L2.41983 7.04306L3.02007 7.31181L3.53088 6.17094L4.04169 5.03008L3.44145 4.76133L2.93064 5.90219ZM3.53088 6.17094L2.55332 6.94997L2.97924 7.48444L3.9568 6.70541L4.93436 5.92638L4.50843 5.39192L3.53088 6.17094ZM3.9568 6.70541L3.24923 7.73587L3.78447 8.10339L4.49204 7.07293L5.19961 6.04247L4.66437 5.67495L3.9568 6.70541ZM4.49204 7.07293L4.12393 8.2675L4.7719 8.46718L5.14001 7.27261L5.50812 6.07804L4.86015 5.87836L4.49204 7.07293ZM5.14001 7.27261L4.33128 8.22574L4.83168 8.65032L5.64041 7.6972L6.44914 6.74407L5.94875 6.31948L5.14001 7.27261ZM5.64041 7.6972L4.55985 8.32561L4.92306 8.95015L6.00362 8.32174L7.08417 7.69333L6.72097 7.06879L5.64041 7.6972ZM6.00362 8.32174L6.01414 9.57169L6.8005 9.56507L6.78998 8.31512L6.77945 7.06516L5.99309 7.07178L6.00362 8.32174ZM6.78998 8.31512L5.89014 9.18275L6.35273 9.66251L7.25257 8.79488L8.15241 7.92725L7.68982 7.44748L6.78998 8.31512ZM7.25257 8.79488L6.85473 9.97988L7.49231 10.1939L7.89014 9.00893L8.28798 7.82393L7.6504 7.60988L7.25257 8.79488ZM7.89014 9.00893L6.80213 9.62434L7.16065 10.2582L8.24866 9.64276L9.33667 9.02735L8.97815 8.39352L7.89014 9.00893ZM8.24866 9.64276L7.70055 10.7662L8.29052 11.054L8.83863 9.93061L9.38674 8.80719L8.79677 8.51934L8.24866 9.64276ZM8.83863 9.93061L8.28769 11.0526L8.87687 11.3419L9.42781 10.2199L9.97875 9.09787L9.38957 8.80857L8.83863 9.93061ZM9.42781 10.2199L9.01405 11.3994L9.64718 11.6215L10.0609 10.442L10.4747 9.26245L9.84156 9.04037L9.42781 10.2199ZM10.0609 10.442L8.88677 10.8708L9.16301 11.6272L10.3372 11.1985L11.5113 10.7697L11.2351 10.0132L10.0609 10.442ZM10.3372 11.1985L10.3857 12.4475L11.1885 12.4163L11.14 11.1673L11.0914 9.91823L10.2886 9.94943L10.3372 11.1985ZM11.14 11.1673L10.1153 11.8831L10.5149 12.4552L11.5396 11.7394L12.5644 11.0235L12.1647 10.4514L11.14 11.1673ZM11.5396 11.7394L11.0881 12.905L11.7093 13.1456L12.1608 11.98L12.6124 10.8145L11.9912 10.5738L11.5396 11.7394ZM12.1608 11.98L11.0334 12.5199L11.3597 13.2012L12.4871 12.6614L13.6145 12.1215L13.2882 11.4402L12.1608 11.98ZM12.4871 12.6614L12.5683 13.9087L13.3861 13.8555L13.3049 12.6081L13.2236 11.3608L12.4058 11.414L12.4871 12.6614ZM13.3049 12.6081L12.406 13.4767L12.8684 13.9553L13.7673 13.0867L14.6662 12.218L14.2037 11.7395L13.3049 12.6081ZM13.7673 13.0867L12.9826 14.0597L13.4909 14.4696L14.2756 13.4966L15.0603 12.5235L14.552 12.1136L13.7673 13.0867ZM14.2756 13.4966L13.6528 14.5804L14.2179 14.905L14.8406 13.8212L15.4634 12.7374L14.8983 12.4127L14.2756 13.4966ZM14.8406 13.8212L13.7468 14.4262L14.1002 15.0653L15.1941 14.4604L16.288 13.8554L15.9345 13.2163L14.8406 13.8212ZM15.1941 14.4604L14.91 15.6777L15.5869 15.8357L15.871 14.6184L16.1552 13.4011L15.4783 13.2431L15.1941 14.4604ZM15.871 14.6184L15.2077 15.6779L15.7597 16.0235L16.4231 14.9641L17.0865 13.9046L16.5344 13.559L15.871 14.6184ZM16.4231 14.9641L15.3516 15.6077L15.7207 16.2224L16.7923 15.5787L17.8639 14.9351L17.4947 14.3205L16.4231 14.9641ZM16.7923 15.5787L16.7472 16.8279L17.5129 16.8556L17.558 15.6064L17.6031 14.3572L16.8374 14.3296L16.7923 15.5787ZM17.558 15.6064L16.6678 16.4839L17.133 16.9558L18.0232 16.0782L18.9133 15.2007L18.4482 14.7288L17.558 15.6064ZM18.0232 16.0782L17.1055 16.927L17.5598 17.4182L18.4775 16.5695L19.3952 15.7208L18.9409 15.2295L18.0232 16.0782ZM18.4775 16.5695L18.1428 17.7739L18.8029 17.9573L19.1377 16.753L19.4724 15.5486L18.8122 15.3652L18.4775 16.5695ZM19.1377 16.753L18.4666 17.8076L19.0151 18.1566L19.6862 17.102L20.3572 16.0474L19.8087 15.6984L19.1377 16.753ZM19.6862 17.102L18.5678 17.6603L18.9 18.3258L20.0184 17.7675L21.1368 17.2092L20.8046 16.5437L19.6862 17.102ZM20.0184 17.7675L20.0765 19.0162L20.8878 18.9784L20.8297 17.7298L20.7716 16.4811L19.9603 16.5189L20.0184 17.7675ZM20.8297 17.7298L19.6684 18.1922L19.9596 18.9234L21.1209 18.4609L22.2822 17.9985L21.991 17.2673L20.8297 17.7298ZM21.1209 18.4609L20.5493 19.5726L21.1364 19.8744L21.7079 18.7627L22.2795 17.6511L21.6924 17.3492L21.1209 18.4609ZM21.7079 18.7627L22.4468 19.7709L22.9462 19.405L22.2072 18.3968L21.4683 17.3886L20.969 17.7545L21.7079 18.7627ZM22.2072 18.3968L22.9928 19.3691L23.4901 18.9673L22.7045 17.995L21.919 17.0227L21.4217 17.4245L22.2072 18.3968ZM22.7045 17.995L22.9026 19.2292L23.6528 19.1088L23.4548 17.8746L23.2567 16.6404L22.5065 16.7608L22.7045 17.995ZM23.4548 17.8746L24.4542 18.6254L24.8545 18.0926L23.855 17.3418L22.8556 16.591L22.4553 17.1238L23.4548 17.8746ZM23.855 17.3418L24.673 18.287L25.1651 17.8611L24.3471 16.9159L23.5291 15.9708L23.037 16.3966L23.855 17.3418ZM24.3471 16.9159L25.0248 17.9662L25.5739 17.612L24.8961 16.5617L24.2184 15.5113L23.6693 15.8656L24.3471 16.9159ZM24.8961 16.5617L25.5946 17.5983L26.1352 17.234L25.4367 16.1974L24.7382 15.1608L24.1976 15.525L24.8961 16.5617ZM25.4367 16.1974L26.0734 17.2731L26.6374 16.9392L26.0006 15.8635L25.3639 14.7879L24.7999 15.1218L25.4367 16.1974ZM26.0006 15.8635L27.1523 16.3495L27.441 15.6653L26.2893 15.1794L25.1376 14.6935L24.849 15.3776L26.0006 15.8635ZM26.2893 15.1794L26.8461 16.2985L27.4406 16.0027L26.8838 14.8836L26.327 13.7645L25.7325 14.0603L26.2893 15.1794ZM26.8838 14.8836L27.9206 15.5819L28.304 15.0126L27.2672 14.3144L26.2304 13.6161L25.847 14.1854L26.8838 14.8836ZM27.2672 14.3144L27.5229 15.5379L28.2276 15.3906L27.9719 14.1671L27.7162 12.9435L27.0114 13.0908L27.2672 14.3144ZM27.9719 14.1671L28.8329 15.0733L29.3072 14.6227L28.4462 13.7165L27.5852 12.8103L27.1109 13.2609L27.9719 14.1671ZM28.4462 13.7165L29.1964 14.7163L29.7164 14.3262L28.9662 13.3263L28.216 12.3265L27.696 12.7166L28.4462 13.7165ZM28.9662 13.3263L29.8881 14.1704L30.3365 13.6807L29.4146 12.8366L28.4926 11.9925L28.0442 12.4822L28.9662 13.3263ZM29.4146 12.8366L30.0588 13.9078L30.6186 13.5711L29.9744 12.4999L29.3302 11.4287L28.7703 11.7654L29.4146 12.8366ZM29.9744 12.4999L30.6057 13.5788L31.1691 13.2491L30.5378 12.1702L29.9065 11.0914L29.3431 11.4211L29.9744 12.4999ZM30.5378 12.1702L31.1993 13.2308L31.7516 12.8864L31.0901 11.8258L30.4286 10.7651L29.8763 11.1096L30.5378 12.1702ZM31.0901 11.8258L31.9339 12.748L32.4188 12.3043L31.575 11.3821L30.7313 10.4598L30.2463 10.9035L31.0901 11.8258ZM31.575 11.3821L32.4032 12.3184L32.8955 11.8829L32.0674 10.9466L31.2392 10.0103L30.7469 10.4458L31.575 11.3821ZM32.0674 10.9466L32.7245 12.0099L33.2789 11.6673L32.6218 10.604L31.9647 9.54066L31.4103 9.88326L32.0674 10.9466ZM32.6218 10.604L33.2175 11.7029L33.7916 11.3917L33.196 10.2928L32.6003 9.19383L32.0261 9.50506L32.6218 10.604ZM33.196 10.2928L33.3458 11.5338L34.0606 11.4475L33.9107 10.2065L33.7609 8.96549L33.0461 9.05179L33.196 10.2928ZM33.9107 10.2065L34.6751 11.1955L35.1911 10.7967L34.4267 9.8077L33.6622 8.81868L33.1463 9.21745L33.9107 10.2065ZM34.4267 9.8077L35.4469 10.5299L35.8553 9.95294L34.8351 9.23072L33.8149 8.5085L33.4064 9.08547L34.4267 9.8077ZM34.8351 9.23072L35.4907 10.295L36.0449 9.95356L35.3893 8.8893L34.7337 7.82504L34.1795 8.16646L34.8351 9.23072ZM35.3893 8.8893L35.7038 10.0991L36.3597 9.92858L36.0452 8.71879L35.7307 7.50901L35.0748 7.67951L35.3893 8.8893ZM36.0452 8.71879L36.5431 9.86535L37.1437 9.60451L36.6458 8.45796L36.1479 7.3114L35.5473 7.57224L36.0452 8.71879ZM36.6458 8.45796L37.1989 9.57894L37.7826 9.29093L37.2295 8.16995L36.6765 7.04897L36.0927 7.33697L36.6458 8.45796ZM37.2295 8.16995L37.7709 9.29664L38.3579 9.01461L37.8165 7.88792L37.2752 6.76123L36.6882 7.04326L37.2295 8.16995ZM37.8165 7.88792L38.5874 8.87194L39.1039 8.46729L38.3331 7.48327L37.5622 6.49925L37.0457 6.9039L37.8165 7.88792ZM38.3331 7.48327L38.8914 8.60165L39.4734 8.3111L38.915 7.19273L38.3567 6.07436L37.7747 6.3649L38.3331 7.48327ZM38.915 7.19273L39.3289 8.37222L39.9517 8.1537L39.5378 6.97421L39.1239 5.79472L38.5011 6.01324L38.915 7.19273ZM39.5378 6.97421L40.5654 7.68595L40.9766 7.09215L39.9491 6.38041L38.9215 5.66868L38.5102 6.26248L39.5378 6.97421ZM39.9491 6.38041L40.8015 7.29467L41.2912 6.83803L40.4388 5.92377L39.5864 5.00952L39.0966 5.46616L39.9491 6.38041ZM40.4388 5.92377L40.8342 7.1096L41.4618 6.90034L41.0664 5.71451L40.6711 4.52868L40.0434 4.73795L40.4388 5.92377ZM41.0664 5.71451L41.6209 6.83482L42.2042 6.54613L41.6498 5.42582L41.0954 4.30551L40.512 4.5942L41.0664 5.71451ZM41.6498 5.42582L42.3227 6.47927L42.8715 6.12867L42.1987 5.07522L41.5258 4.02178L40.9769 4.37237L41.6498 5.42582ZM42.1987 5.07522L42.8225 6.15843L43.3859 5.83395L42.7621 4.75075L42.1383 3.66754L41.5748 3.99202L42.1987 5.07522ZM42.7621 4.75075L42.512 5.97547L42.9321 6.06126L43.1822 4.83653L43.4323 3.6118L43.0122 3.52602L42.7621 4.75075ZM43.1822 4.83653L44.2764 4.23223L44.1939 4.08277L43.0997 4.68707L42.0054 5.29137L42.088 5.44083L43.1822 4.83653Z" fill="black"/>
<path d="M23.2039 13.3913C23.5571 12.7981 23.3626 12.0309 22.7695 11.6777C22.1763 11.3245 21.4091 11.519 21.0559 12.1122L22.1299 12.7517L23.2039 13.3913ZM22.0788 12.8376L22.2175 14.0799L22.8349 14.0109L23.1528 13.4772L22.0788 12.8376ZM21.4954 12.9028L21.4571 14.1522L21.5459 14.1549L21.6342 14.1451L21.4954 12.9028ZM20.7907 12.8812L20.8289 11.6318L20.0996 11.6094L19.7215 12.2336L20.7907 12.8812ZM20.4234 13.4875L21.4382 14.2173L21.467 14.1773L21.4925 14.1352L20.4234 13.4875ZM20.0465 14.0116L20.6885 15.0841L20.9103 14.9513L21.0613 14.7414L20.0465 14.0116ZM19.4653 14.3595L18.8232 13.287L18.6344 13.4001L18.4955 13.5708L19.4653 14.3595ZM19.0547 14.8644L18.0849 14.0758L17.95 14.2417L17.8779 14.443L19.0547 14.8644ZM18.8266 15.5011L19.7629 16.3293L19.9223 16.1491L20.0034 15.9226L18.8266 15.5011ZM18.3948 15.9893L19.0221 17.0705L19.197 16.969L19.331 16.8175L18.3948 15.9893ZM17.7682 16.3529L17.1409 15.2717L16.4669 15.6628L16.5213 16.4401L17.7682 16.3529ZM17.8219 17.1199L18.9066 17.7411L19.0953 17.4116L19.0688 17.0327L17.8219 17.1199ZM17.5087 17.6668L16.424 17.0456L16.2068 17.4248L16.2732 17.8567L17.5087 17.6668ZM17.6077 18.3113L18.716 18.8895L18.9055 18.5263L18.8432 18.1214L17.6077 18.3113ZM17.2748 18.9494L16.1666 18.3711L15.9599 18.7673L16.0512 19.2048L17.2748 18.9494ZM17.4094 19.5937L16.1858 19.8492L16.1935 19.8863L16.2035 19.9228L17.4094 19.5937ZM17.5812 20.2235L16.3753 20.5526L16.4041 20.6581L16.4508 20.757L17.5812 20.2235ZM17.8638 20.8221L19.0174 21.3035L19.2312 20.7909L18.9942 20.2886L17.8638 20.8221ZM17.554 21.5645L16.4004 21.0832L16.0224 21.9891L16.8129 22.5711L17.554 21.5645ZM18.196 22.0372L19.4434 21.9562L19.4057 21.3756L18.9371 21.0306L18.196 22.0372ZM18.2397 22.7096L16.9923 22.7906L17.0253 23.2988L17.404 23.6392L18.2397 22.7096ZM18.7245 23.1454L19.9374 22.8432L19.8448 22.4717L19.5601 22.2158L18.7245 23.1454ZM18.9079 23.8815L17.695 24.1837L17.9308 25.1297L18.9057 25.1315L18.9079 23.8815ZM19.7258 23.8829L20.6 22.9895L20.2366 22.6338L19.728 22.6329L19.7258 23.8829ZM20.1821 24.3294L19.3079 25.2228L19.4948 25.4057L19.7394 25.4983L20.1821 24.3294ZM20.7628 24.5493L20.32 25.7183L20.5058 25.7886L20.7042 25.7979L20.7628 24.5493ZM21.4055 24.5794L22.0258 23.4942L21.7646 23.3449L21.464 23.3308L21.4055 24.5794ZM22.0417 24.943L21.4214 26.0283L21.9323 26.3202L22.4828 26.1126L22.0417 24.943ZM22.6952 24.6965L22.6068 23.4496L22.4248 23.4625L22.2541 23.5269L22.6952 24.6965ZM23.3428 24.6506L23.7855 23.4816L23.5285 23.3842L23.2543 23.4037L23.3428 24.6506ZM24.0171 24.9059L23.5743 26.0749L24.2328 26.3243L24.7874 25.8904L24.0171 24.9059ZM24.6211 24.4333L24.6748 23.1845L24.214 23.1647L23.8508 23.4489L24.6211 24.4333ZM25.2788 24.4616L25.2251 25.7105L25.3031 25.7138L25.3809 25.7075L25.2788 24.4616ZM25.9553 24.4062L26.0574 25.6521L26.5651 25.6105L26.8991 25.2259L25.9553 24.4062ZM26.4073 23.8859L25.4945 23.0318L25.4787 23.0487L25.4635 23.0662L26.4073 23.8859ZM26.8363 23.4274L26.2617 22.3173L26.0706 22.4162L25.9236 22.5733L26.8363 23.4274ZM27.5046 23.0815L28.0792 24.1916L28.8803 23.777L28.7392 22.886L27.5046 23.0815ZM27.3772 22.2766L26.7425 21.1997L26.0095 21.6317L26.1426 22.4721L27.3772 22.2766ZM28.0536 21.8779L28.6883 22.9548L29.0874 22.7196L29.2368 22.2811L28.0536 21.8779ZM28.264 21.2604L29.4472 21.6636L29.549 21.3649L29.4968 21.0537L28.264 21.2604ZM28.1391 20.5154L26.9384 20.1678L26.8592 20.4413L26.9063 20.7222L28.1391 20.5154ZM28.3119 19.9184L27.3798 19.0856L27.1903 19.2977L27.1113 19.5708L28.3119 19.9184ZM28.8155 19.3548L29.7477 20.1876L30.1113 19.7807L30.06 19.2375L28.8155 19.3548ZM28.7526 18.6877L27.5068 18.5857L27.4978 18.6954L27.5082 18.8051L28.7526 18.6877ZM28.8057 18.04L27.5801 17.7946L27.5658 17.8657L27.5599 17.9379L28.8057 18.04ZM28.9342 17.3984L30.1599 17.6438L30.1643 17.6217L30.1679 17.5994L28.9342 17.3984ZM29.0392 16.7538L27.8141 16.5055L27.8093 16.5291L27.8054 16.5529L29.0392 16.7538ZM29.1709 16.1039L30.396 16.3522L30.4926 15.8757L30.2419 15.4592L29.1709 16.1039ZM28.7902 15.4715L27.5471 15.6026L27.5762 15.8785L27.7193 16.1161L28.7902 15.4715ZM28.7243 14.846L29.9674 14.7149L29.9032 14.1064L29.3834 13.7839L28.7243 14.846ZM28.172 14.5032L27.0329 15.0181L27.1896 15.3648L27.5129 15.5654L28.172 14.5032ZM27.8813 13.8602L29.0204 13.3454L28.8403 12.947L28.4511 12.7477L27.8813 13.8602ZM27.2966 13.5608L26.6805 14.6484L26.7033 14.6613L26.7267 14.6733L27.2966 13.5608ZM26.7319 13.2409L27.3479 12.1533L27.2159 12.0784L27.0697 12.0374L26.7319 13.2409ZM26.0965 13.0625L25.4762 14.1478L25.6101 14.2243L25.7586 14.266L26.0965 13.0625ZM25.5337 12.7409L26.154 11.6557L26.1397 11.6475L26.1252 11.6397L25.5337 12.7409ZM24.9607 12.4332L25.5521 11.3319L25.4534 11.2789L25.3468 11.2443L24.9607 12.4332ZM24.3492 12.2346L24.7353 11.0457L24.5309 10.9793L24.316 10.985L24.3492 12.2346ZM23.6996 12.2518L23.6664 11.0023L23.6045 11.0039L23.5431 11.0117L23.6996 12.2518ZM23.062 12.3323L23.1013 13.5817L23.1601 13.5798L23.2185 13.5725L23.062 12.3323ZM22.4215 12.3525L21.8425 13.4603L22.1331 13.6122L22.4608 13.6019L22.4215 12.3525ZM22.7171 11.0966C22.1053 10.7769 21.3501 11.0137 21.0303 11.6255C20.7106 12.2374 20.9474 12.9926 21.5593 13.3123L22.1382 12.2045L22.7171 11.0966ZM22.1299 12.7517L21.0559 12.1122L21.0048 12.1981L22.0788 12.8376L23.1528 13.4772L23.2039 13.3913L22.1299 12.7517ZM22.0788 12.8376L21.94 11.5954L21.3566 11.6605L21.4954 12.9028L21.6342 14.1451L22.2175 14.0799L22.0788 12.8376ZM21.4954 12.9028L21.5337 11.6534L20.8289 11.6318L20.7907 12.8812L20.7524 14.1306L21.4571 14.1522L21.4954 12.9028ZM20.7907 12.8812L19.7215 12.2336L19.3543 12.8399L20.4234 13.4875L21.4925 14.1352L21.8598 13.5289L20.7907 12.8812ZM20.4234 13.4875L19.4086 12.7577L19.0317 13.2818L20.0465 14.0116L21.0613 14.7414L21.4382 14.2173L20.4234 13.4875ZM20.0465 14.0116L19.4044 12.9391L18.8232 13.287L19.4653 14.3595L20.1074 15.432L20.6885 15.0841L20.0465 14.0116ZM19.4653 14.3595L18.4955 13.5708L18.0849 14.0758L19.0547 14.8644L20.0244 15.6531L20.4351 15.1482L19.4653 14.3595ZM19.0547 14.8644L17.8779 14.443L17.6498 15.0797L18.8266 15.5011L20.0034 15.9226L20.2315 15.2859L19.0547 14.8644ZM18.8266 15.5011L17.8904 14.6729L17.4585 15.1611L18.3948 15.9893L19.331 16.8175L19.7629 16.3293L18.8266 15.5011ZM18.3948 15.9893L17.7674 14.9082L17.1409 15.2717L17.7682 16.3529L18.3956 17.4341L19.0221 17.0705L18.3948 15.9893ZM17.7682 16.3529L16.5213 16.4401L16.5749 17.2071L17.8219 17.1199L19.0688 17.0327L19.0152 16.2657L17.7682 16.3529ZM17.8219 17.1199L16.7372 16.4987L16.424 17.0456L17.5087 17.6668L18.5934 18.288L18.9066 17.7411L17.8219 17.1199ZM17.5087 17.6668L16.2732 17.8567L16.3722 18.5012L17.6077 18.3113L18.8432 18.1214L18.7442 17.4769L17.5087 17.6668ZM17.6077 18.3113L16.4995 17.7331L16.1666 18.3711L17.2748 18.9494L18.383 19.5276L18.716 18.8895L17.6077 18.3113ZM17.2748 18.9494L16.0512 19.2048L16.1858 19.8492L17.4094 19.5937L18.633 19.3383L18.4984 18.6939L17.2748 18.9494ZM17.4094 19.5937L16.2035 19.9228L16.3753 20.5526L17.5812 20.2235L18.7871 19.8944L18.6153 19.2647L17.4094 19.5937ZM17.5812 20.2235L16.4508 20.757L16.7333 21.3556L17.8638 20.8221L18.9942 20.2886L18.7116 19.69L17.5812 20.2235ZM17.8638 20.8221L16.7101 20.3408L16.4004 21.0832L17.554 21.5645L18.7076 22.0459L19.0174 21.3035L17.8638 20.8221ZM17.554 21.5645L16.8129 22.5711L17.4549 23.0438L18.196 22.0372L18.9371 21.0306L18.2951 20.5579L17.554 21.5645ZM18.196 22.0372L16.9487 22.1182L16.9923 22.7906L18.2397 22.7096L19.4871 22.6286L19.4434 21.9562L18.196 22.0372ZM18.2397 22.7096L17.404 23.6392L17.8888 24.075L18.7245 23.1454L19.5601 22.2158L19.0753 21.78L18.2397 22.7096ZM18.7245 23.1454L17.5116 23.4477L17.695 24.1837L18.9079 23.8815L20.1208 23.5792L19.9374 22.8432L18.7245 23.1454ZM18.9079 23.8815L18.9057 25.1315L19.7236 25.1329L19.7258 23.8829L19.728 22.6329L18.9101 22.6315L18.9079 23.8815ZM19.7258 23.8829L18.8516 24.7764L19.3079 25.2228L20.1821 24.3294L21.0563 23.4359L20.6 22.9895L19.7258 23.8829ZM20.1821 24.3294L19.7394 25.4983L20.32 25.7183L20.7628 24.5493L21.2055 23.3803L20.6249 23.1604L20.1821 24.3294ZM20.7628 24.5493L20.7042 25.7979L21.347 25.828L21.4055 24.5794L21.464 23.3308L20.8213 23.3007L20.7628 24.5493ZM21.4055 24.5794L20.7853 25.6647L21.4214 26.0283L22.0417 24.943L22.6619 23.8578L22.0258 23.4942L21.4055 24.5794ZM22.0417 24.943L22.4828 26.1126L23.1364 25.8661L22.6952 24.6965L22.2541 23.5269L21.6005 23.7734L22.0417 24.943ZM22.6952 24.6965L22.7837 25.9434L23.4312 25.8974L23.3428 24.6506L23.2543 23.4037L22.6068 23.4496L22.6952 24.6965ZM23.3428 24.6506L22.9 25.8195L23.5743 26.0749L24.0171 24.9059L24.4598 23.737L23.7855 23.4816L23.3428 24.6506ZM24.0171 24.9059L24.7874 25.8904L25.3914 25.4178L24.6211 24.4333L23.8508 23.4489L23.2468 23.9215L24.0171 24.9059ZM24.6211 24.4333L24.5674 25.6822L25.2251 25.7105L25.2788 24.4616L25.3325 23.2128L24.6748 23.1845L24.6211 24.4333ZM25.2788 24.4616L25.3809 25.7075L26.0574 25.6521L25.9553 24.4062L25.8533 23.1604L25.1768 23.2158L25.2788 24.4616ZM25.9553 24.4062L26.8991 25.2259L27.351 24.7055L26.4073 23.8859L25.4635 23.0662L25.0116 23.5866L25.9553 24.4062ZM26.4073 23.8859L27.32 24.7399L27.749 24.2814L26.8363 23.4274L25.9236 22.5733L25.4945 23.0318L26.4073 23.8859ZM26.8363 23.4274L27.4109 24.5375L28.0792 24.1916L27.5046 23.0815L26.93 21.9714L26.2617 22.3173L26.8363 23.4274ZM27.5046 23.0815L28.7392 22.886L28.6118 22.0811L27.3772 22.2766L26.1426 22.4721L26.27 23.277L27.5046 23.0815ZM27.3772 22.2766L28.0118 23.3535L28.6883 22.9548L28.0536 21.8779L27.419 20.801L26.7425 21.1997L27.3772 22.2766ZM28.0536 21.8779L29.2368 22.2811L29.4472 21.6636L28.264 21.2604L27.0808 20.8573L26.8704 21.4748L28.0536 21.8779ZM28.264 21.2604L29.4968 21.0537L29.3719 20.3087L28.1391 20.5154L26.9063 20.7222L27.0313 21.4672L28.264 21.2604ZM28.1391 20.5154L29.3398 20.8631L29.5126 20.2661L28.3119 19.9184L27.1113 19.5708L26.9384 20.1678L28.1391 20.5154ZM28.3119 19.9184L29.2441 20.7513L29.7477 20.1876L28.8155 19.3548L27.8834 18.522L27.3798 19.0856L28.3119 19.9184ZM28.8155 19.3548L30.06 19.2375L29.9971 18.5704L28.7526 18.6877L27.5082 18.8051L27.5711 19.4721L28.8155 19.3548ZM28.7526 18.6877L29.9985 18.7898L30.0515 18.1421L28.8057 18.04L27.5599 17.9379L27.5068 18.5857L28.7526 18.6877ZM28.8057 18.04L30.0314 18.2854L30.1599 17.6438L28.9342 17.3984L27.7085 17.153L27.5801 17.7946L28.8057 18.04ZM28.9342 17.3984L30.1679 17.5994L30.2729 16.9548L29.0392 16.7538L27.8054 16.5529L27.7005 17.1974L28.9342 17.3984ZM29.0392 16.7538L30.2643 17.0021L30.396 16.3522L29.1709 16.1039L27.9458 15.8556L27.8141 16.5055L29.0392 16.7538ZM29.1709 16.1039L30.2419 15.4592L29.8612 14.8268L28.7902 15.4715L27.7193 16.1161L28.1 16.7485L29.1709 16.1039ZM28.7902 15.4715L30.0333 15.3404L29.9674 14.7149L28.7243 14.846L27.4812 14.9771L27.5471 15.6026L28.7902 15.4715ZM28.7243 14.846L29.3834 13.7839L28.8311 13.4411L28.172 14.5032L27.5129 15.5654L28.0652 15.9081L28.7243 14.846ZM28.172 14.5032L29.311 13.9884L29.0204 13.3454L27.8813 13.8602L26.7423 14.3751L27.0329 15.0181L28.172 14.5032ZM27.8813 13.8602L28.4511 12.7477L27.8664 12.4482L27.2966 13.5608L26.7267 14.6733L27.3115 14.9728L27.8813 13.8602ZM27.2966 13.5608L27.9126 12.4731L27.3479 12.1533L26.7319 13.2409L26.1158 14.3285L26.6805 14.6484L27.2966 13.5608ZM26.7319 13.2409L27.0697 12.0374L26.4343 11.859L26.0965 13.0625L25.7586 14.266L26.394 14.4444L26.7319 13.2409ZM26.0965 13.0625L26.7167 11.9772L26.154 11.6557L25.5337 12.7409L24.9135 13.8262L25.4762 14.1478L26.0965 13.0625ZM25.5337 12.7409L26.1252 11.6397L25.5521 11.3319L24.9607 12.4332L24.3693 13.5344L24.9423 13.8422L25.5337 12.7409ZM24.9607 12.4332L25.3468 11.2443L24.7353 11.0457L24.3492 12.2346L23.9631 13.4235L24.5746 13.622L24.9607 12.4332ZM24.3492 12.2346L24.316 10.985L23.6664 11.0023L23.6996 12.2518L23.7328 13.5014L24.3824 13.4841L24.3492 12.2346ZM23.6996 12.2518L23.5431 11.0117L22.9055 11.0921L23.062 12.3323L23.2185 13.5725L23.8561 13.492L23.6996 12.2518ZM23.062 12.3323L23.0226 11.0829L22.3821 11.1031L22.4215 12.3525L22.4608 13.6019L23.1013 13.5817L23.062 12.3323ZM22.4215 12.3525L23.0004 11.2446L22.7171 11.0966L22.1382 12.2045L21.5593 13.3123L21.8425 13.4603L22.4215 12.3525Z" fill="black"/>
</svg>
