<svg width="37" height="48" viewBox="0 0 37 48" fill="none" xmlns="http://www.w3.org/2000/svg">
<path d="M5.59211 15.0504C4.93912 14.8263 4.22814 15.174 4.00407 15.827C3.78001 16.48 4.12771 17.191 4.7807 17.415L5.1864 16.2327L5.59211 15.0504ZM5.28099 16.2652L4.87528 17.4475L5.12362 17.5327L5.38526 17.5108L5.28099 16.2652ZM5.84994 16.2175L6.57639 15.2003L6.20296 14.9336L5.74567 14.9719L5.84994 16.2175ZM6.42643 16.6292L5.69998 17.6465L6.1088 17.9384L6.60595 17.8663L6.42643 16.6292ZM7.11825 16.5288L7.23811 15.2846L7.08798 15.2701L6.93873 15.2918L7.11825 16.5288ZM7.77663 16.5922L8.47144 15.5531L8.20979 15.3782L7.89649 15.348L7.77663 16.5922ZM8.34558 16.9727L7.65077 18.0118L7.79717 18.1097L7.96492 18.1633L8.34558 16.9727ZM8.96475 17.1706L8.58409 18.3613L8.75679 18.4165L8.93806 18.4204L8.96475 17.1706ZM9.64318 17.1851L10.1747 16.0538L9.93485 15.9411L9.66987 15.9354L9.64318 17.1851ZM10.2372 17.4642L11.1365 16.596L10.9768 16.4306L10.7687 16.3329L10.2372 17.4642ZM10.7387 17.9837L9.83936 18.8519L10.3258 19.3558L11.0096 19.204L10.7387 17.9837ZM11.5056 17.8134L12.2281 16.7933L11.7758 16.473L11.2347 16.5931L11.5056 17.8134ZM12.0512 18.1997L11.3287 19.2198L11.5683 19.3895L11.8584 19.4348L12.0512 18.1997ZM12.7187 18.304L13.6954 17.5238L13.3919 17.1439L12.9115 17.0689L12.7187 18.304ZM13.1737 18.8736L12.197 19.6537L12.4358 19.9527L12.8011 20.0668L13.1737 18.8736ZM13.7998 19.0691L14.1791 17.8781L14.1724 17.876L13.7998 19.0691ZM14.4244 19.268L14.0451 20.4591L14.1179 20.4823L14.1931 20.4965L14.4244 19.268ZM15.0826 19.392L16.1702 18.7757L15.8841 18.2709L15.3139 18.1635L15.0826 19.392ZM15.4798 20.0928L14.3922 20.7091L14.8733 21.558L15.8135 21.2975L15.4798 20.0928ZM16.243 19.8814L16.8652 18.7972L16.4124 18.5373L15.9093 18.6768L16.243 19.8814ZM16.8104 20.207L16.1882 21.2912L16.7061 21.5884L17.2628 21.3723L16.8104 20.207ZM17.4168 19.9716L17.7449 18.7655L17.348 18.6575L16.9644 18.8063L17.4168 19.9716ZM18.1457 20.1699L17.8176 21.3761L18.6735 21.6089L19.1759 20.8779L18.1457 20.1699ZM18.6104 19.4938L18.4613 18.2527L17.9003 18.3201L17.5802 18.7858L18.6104 19.4938ZM19.2667 19.4149L19.4159 20.6559L19.4988 20.646L19.5797 20.6251L19.2667 19.4149ZM19.899 19.2514L20.212 20.4616L20.3093 20.4364L20.4014 20.396L19.899 19.2514ZM20.4956 18.9895L20.6557 17.7498L20.3113 17.7053L19.9932 17.8449L20.4956 18.9895ZM21.2199 19.0831L21.0598 20.3228L21.612 20.3941L22.0343 20.0314L21.2199 19.0831ZM21.7472 18.6303L21.2827 17.4698L21.0901 17.5469L20.9328 17.682L21.7472 18.6303ZM22.3519 18.3883L22.4622 17.1432L22.1647 17.1168L21.8874 17.2278L22.3519 18.3883ZM23.0664 18.4516L22.9561 19.6967L23.6323 19.7566L24.0507 19.2221L23.0664 18.4516ZM23.5385 17.8485L23.3501 16.6128L22.8599 16.6875L22.5542 17.078L23.5385 17.8485ZM24.194 17.7486L24.0441 16.5076L24.0248 16.5099L24.0056 16.5128L24.194 17.7486ZM24.8575 17.6684L25.0073 18.9094L25.3608 18.8667L25.6387 18.6443L24.8575 17.6684ZM25.3925 17.2401L24.9279 16.0797L24.7559 16.1485L24.6113 16.2643L25.3925 17.2401ZM25.9963 16.9984L26.1928 15.7639L25.852 15.7097L25.5317 15.8379L25.9963 16.9984ZM26.7326 17.1156L26.5361 18.35L27.3397 18.4779L27.7819 17.7949L26.7326 17.1156ZM27.1738 16.4341L27.4753 15.221L26.6094 15.0058L26.1245 15.7548L27.1738 16.4341ZM27.9374 16.6239L27.636 17.837L28.0815 17.9477L28.4928 17.7437L27.9374 16.6239ZM28.5229 16.3335L29.0783 17.4534L29.3387 17.3242L29.5155 17.0934L28.5229 16.3335ZM28.9904 15.7228L28.5729 14.5446L28.2233 14.6685L27.9979 14.963L28.9904 15.7228ZM29.6023 15.506L29.8347 14.2778L29.503 14.215L29.1847 14.3278L29.6023 15.506ZM30.3496 15.6474L30.1171 16.8756L30.6163 16.9701L31.0399 16.6895L30.3496 15.6474ZM30.9062 15.2787L30.4438 14.1174L30.3236 14.1652L30.2158 14.2366L30.9062 15.2787ZM31.51 15.0383L31.2063 13.8257L31.1252 13.846L31.0476 13.877L31.51 15.0383ZM32.1451 14.8792L32.4488 16.0917L32.465 16.0877L32.4811 16.0832L32.1451 14.8792ZM32.7736 14.7038L32.4989 13.4843L32.468 13.4913L32.4375 13.4998L32.7736 14.7038ZM33.4142 14.5595L33.6889 15.7789L34.0972 15.6869L34.3678 15.3676L33.4142 14.5595ZM33.8938 13.9935L33.681 12.7618L33.2337 12.8391L32.9402 13.1854L33.8938 13.9935ZM34.546 13.8808L35.2496 12.8476L34.8315 12.5629L34.3331 12.6491L34.546 13.8808ZM34.7808 14.0407L34.0772 15.0739L36.6877 16.8516L36.0009 13.7689L34.7808 14.0407ZM35.9478 13.5308C35.7977 12.8569 35.1298 12.4324 34.4559 12.5825C33.7821 12.7326 33.3575 13.4006 33.5077 14.0744L34.7278 13.8026L35.9478 13.5308ZM5.1864 16.2327L4.7807 17.415L4.87528 17.4475L5.28099 16.2652L5.68669 15.0828L5.59211 15.0504L5.1864 16.2327ZM5.28099 16.2652L5.38526 17.5108L5.95422 17.4632L5.84994 16.2175L5.74567 14.9719L5.17672 15.0195L5.28099 16.2652ZM5.84994 16.2175L5.12349 17.2348L5.69998 17.6465L6.42643 16.6292L7.15288 15.612L6.57639 15.2003L5.84994 16.2175ZM6.42643 16.6292L6.60595 17.8663L7.29777 17.7659L7.11825 16.5288L6.93873 15.2918L6.24691 15.3922L6.42643 16.6292ZM7.11825 16.5288L6.99839 17.7731L7.65677 17.8365L7.77663 16.5922L7.89649 15.348L7.23811 15.2846L7.11825 16.5288ZM7.77663 16.5922L7.08182 17.6313L7.65077 18.0118L8.34558 16.9727L9.04039 15.9336L8.47144 15.5531L7.77663 16.5922ZM8.34558 16.9727L7.96492 18.1633L8.58409 18.3613L8.96475 17.1706L9.34542 15.98L8.72625 15.7821L8.34558 16.9727ZM8.96475 17.1706L8.93806 18.4204L9.61649 18.4348L9.64318 17.1851L9.66987 15.9354L8.99144 15.9209L8.96475 17.1706ZM9.64318 17.1851L9.11163 18.3165L9.70566 18.5956L10.2372 17.4642L10.7687 16.3329L10.1747 16.0538L9.64318 17.1851ZM10.2372 17.4642L9.33788 18.3324L9.83936 18.8519L10.7387 17.9837L11.638 17.1155L11.1365 16.596L10.2372 17.4642ZM10.7387 17.9837L11.0096 19.204L11.7766 19.0337L11.5056 17.8134L11.2347 16.5931L10.4678 16.7634L10.7387 17.9837ZM11.5056 17.8134L10.7832 18.8335L11.3287 19.2198L12.0512 18.1997L12.7736 17.1797L12.2281 16.7933L11.5056 17.8134ZM12.0512 18.1997L11.8584 19.4348L12.5259 19.539L12.7187 18.304L12.9115 17.0689L12.2439 16.9647L12.0512 18.1997ZM12.7187 18.304L11.742 19.0841L12.197 19.6537L13.1737 18.8736L14.1504 18.0935L13.6954 17.5238L12.7187 18.304ZM13.1737 18.8736L12.8011 20.0668L13.4271 20.2623L13.7998 19.0691L14.1724 17.876L13.5463 17.6804L13.1737 18.8736ZM13.7998 19.0691L13.4205 20.2602L14.0451 20.4591L14.4244 19.268L14.8036 18.077L14.1791 17.8781L13.7998 19.0691ZM14.4244 19.268L14.1931 20.4965L14.8514 20.6204L15.0826 19.392L15.3139 18.1635L14.6556 18.0396L14.4244 19.268ZM15.0826 19.392L13.9951 20.0082L14.3922 20.7091L15.4798 20.0928L16.5673 19.4766L16.1702 18.7757L15.0826 19.392ZM15.4798 20.0928L15.8135 21.2975L16.5768 21.086L16.243 19.8814L15.9093 18.6768L15.146 18.8882L15.4798 20.0928ZM16.243 19.8814L15.6208 20.9655L16.1882 21.2912L16.8104 20.207L17.4326 19.1229L16.8652 18.7972L16.243 19.8814ZM16.8104 20.207L17.2628 21.3723L17.8692 21.1369L17.4168 19.9716L16.9644 18.8063L16.3581 19.0417L16.8104 20.207ZM17.4168 19.9716L17.0887 21.1778L17.8176 21.3761L18.1457 20.1699L18.4739 18.9638L17.7449 18.7655L17.4168 19.9716ZM18.1457 20.1699L19.1759 20.8779L19.6406 20.2017L18.6104 19.4938L17.5802 18.7858L17.1156 19.4619L18.1457 20.1699ZM18.6104 19.4938L18.7596 20.7348L19.4159 20.6559L19.2667 19.4149L19.1176 18.1738L18.4613 18.2527L18.6104 19.4938ZM19.2667 19.4149L19.5797 20.6251L20.212 20.4616L19.899 19.2514L19.5861 18.0412L18.9538 18.2047L19.2667 19.4149ZM19.899 19.2514L20.4014 20.396L20.998 20.1341L20.4956 18.9895L19.9932 17.8449L19.3966 18.1068L19.899 19.2514ZM20.4956 18.9895L20.3355 20.2292L21.0598 20.3228L21.2199 19.0831L21.3801 17.8434L20.6557 17.7498L20.4956 18.9895ZM21.2199 19.0831L22.0343 20.0314L22.5615 19.5786L21.7472 18.6303L20.9328 17.682L20.4056 18.1348L21.2199 19.0831ZM21.7472 18.6303L22.2116 19.7908L22.8164 19.5488L22.3519 18.3883L21.8874 17.2278L21.2827 17.4698L21.7472 18.6303ZM22.3519 18.3883L22.2416 19.6334L22.9561 19.6967L23.0664 18.4516L23.1767 17.2065L22.4622 17.1432L22.3519 18.3883ZM23.0664 18.4516L24.0507 19.2221L24.5228 18.619L23.5385 17.8485L22.5542 17.078L22.0821 17.6811L23.0664 18.4516ZM23.5385 17.8485L23.7269 19.0842L24.3824 18.9843L24.194 17.7486L24.0056 16.5128L23.3501 16.6128L23.5385 17.8485ZM24.194 17.7486L24.3439 18.9895L25.0073 18.9094L24.8575 17.6684L24.7076 16.4274L24.0441 16.5076L24.194 17.7486ZM24.8575 17.6684L25.6387 18.6443L26.1737 18.216L25.3925 17.2401L24.6113 16.2643L24.0763 16.6926L24.8575 17.6684ZM25.3925 17.2401L25.8571 18.4006L26.4609 18.1588L25.9963 16.9984L25.5317 15.8379L24.9279 16.0797L25.3925 17.2401ZM25.9963 16.9984L25.7999 18.2329L26.5361 18.35L26.7326 17.1156L26.929 15.8811L26.1928 15.7639L25.9963 16.9984ZM26.7326 17.1156L27.7819 17.7949L28.2231 17.1134L27.1738 16.4341L26.1245 15.7548L25.6833 16.4362L26.7326 17.1156ZM27.1738 16.4341L26.8723 17.6472L27.636 17.837L27.9374 16.6239L28.2389 15.4108L27.4753 15.221L27.1738 16.4341ZM27.9374 16.6239L28.4928 17.7437L29.0783 17.4534L28.5229 16.3335L27.9676 15.2137L27.3821 15.504L27.9374 16.6239ZM28.5229 16.3335L29.5155 17.0934L29.983 16.4826L28.9904 15.7228L27.9979 14.963L27.5304 15.5737L28.5229 16.3335ZM28.9904 15.7228L29.408 16.901L30.0198 16.6842L29.6023 15.506L29.1847 14.3278L28.5729 14.5446L28.9904 15.7228ZM29.6023 15.506L29.3698 16.7342L30.1171 16.8756L30.3496 15.6474L30.582 14.4192L29.8347 14.2778L29.6023 15.506ZM30.3496 15.6474L31.0399 16.6895L31.5965 16.3208L30.9062 15.2787L30.2158 14.2366L29.6592 14.6053L30.3496 15.6474ZM30.9062 15.2787L31.3686 16.44L31.9724 16.1996L31.51 15.0383L31.0476 13.877L30.4438 14.1174L30.9062 15.2787ZM31.51 15.0383L31.8137 16.2508L32.4488 16.0917L32.1451 14.8792L31.8413 13.6667L31.2063 13.8257L31.51 15.0383ZM32.1451 14.8792L32.4811 16.0832L33.1097 15.9077L32.7736 14.7038L32.4375 13.4998L31.809 13.6752L32.1451 14.8792ZM32.7736 14.7038L33.0483 15.9232L33.6889 15.7789L33.4142 14.5595L33.1396 13.34L32.4989 13.4843L32.7736 14.7038ZM33.4142 14.5595L34.3678 15.3676L34.8475 14.8016L33.8938 13.9935L32.9402 13.1854L32.4606 13.7513L33.4142 14.5595ZM33.8938 13.9935L34.1067 15.2252L34.7589 15.1125L34.546 13.8808L34.3331 12.6491L33.681 12.7618L33.8938 13.9935ZM34.546 13.8808L33.8424 14.914L34.0772 15.0739L34.7808 14.0407L35.4844 13.0075L35.2496 12.8476L34.546 13.8808ZM34.7808 14.0407L36.0009 13.7689L35.9478 13.5308L34.7278 13.8026L33.5077 14.0744L33.5607 14.3125L34.7808 14.0407Z" fill="black"/>
<path d="M19.3229 19.7682C19.3284 19.0779 18.7732 18.5138 18.0829 18.5083C17.3925 18.5028 16.8285 19.058 16.823 19.7484L18.0729 19.7583L19.3229 19.7682ZM18.0721 19.8583L16.8222 19.8484L16.8212 19.9704L16.8438 20.0903L18.0721 19.8583ZM18.1758 20.407L19.3203 20.9095L19.4759 20.5552L19.4041 20.175L18.1758 20.407ZM17.8905 21.0569L16.7459 20.5544L16.5353 21.0342L16.7297 21.5207L17.8905 21.0569ZM18.15 21.7064L19.3834 21.5032L19.3613 21.369L19.3108 21.2426L18.15 21.7064ZM18.2572 22.3565L19.4465 22.7412L19.5399 22.4526L19.4905 22.1533L18.2572 22.3565ZM18.0469 23.0066L16.8576 22.6219L16.8002 22.7993L16.7971 22.9858L18.0469 23.0066ZM18.0361 23.6564L16.7863 23.6356L16.7831 23.8258L16.8366 24.0083L18.0361 23.6564ZM18.2271 24.3074L19.4681 24.4574L19.4989 24.2022L19.4265 23.9555L18.2271 24.3074ZM18.1485 24.9575L19.2682 25.5132L19.3637 25.3207L19.3895 25.1075L18.1485 24.9575ZM17.8268 25.6058L16.7071 25.0501L16.3851 25.699L16.788 26.3011L17.8268 25.6058ZM18.264 26.259L19.4827 26.5371L19.6026 26.0116L19.3028 25.5638L18.264 26.259ZM18.1159 26.9082L16.8973 26.6302L16.8296 26.9268L16.9058 27.2213L18.1159 26.9082ZM18.2847 27.5607L19.3932 28.1385L19.6152 27.7126L19.4949 27.2476L18.2847 27.5607ZM17.948 28.2067L16.8395 27.6288L16.661 27.9713L16.7068 28.3547L17.948 28.2067ZM18.0257 28.858L19.2678 28.7173L19.2669 28.7099L18.0257 28.858ZM18.0995 29.5099L16.8575 29.6506L16.8655 29.7216L16.8816 29.7913L18.0995 29.5099ZM18.2509 30.1648L19.2378 30.932L19.6026 30.4626L19.4688 29.8834L18.2509 30.1648ZM17.7563 30.8011L16.7694 30.0339L16.2152 30.7469L16.7179 31.497L17.7563 30.8011ZM18.2038 31.4687L19.3454 31.9778L19.6268 31.3468L19.2421 30.7728L18.2038 31.4687ZM17.9189 32.1076L16.7772 31.5985L16.6278 31.9335L16.6832 32.2961L17.9189 32.1076ZM18.0197 32.7681L19.0239 33.5124L19.3339 33.0942L19.2553 32.5795L18.0197 32.7681ZM17.5716 33.3725L16.5674 32.6282L16.1041 33.2532L16.4603 33.9448L17.5716 33.3725ZM17.9493 34.106L18.9563 34.8465L19.4153 34.2224L19.0606 33.5337L17.9493 34.106ZM17.5009 34.7157L17.9426 35.8851L18.2887 35.7543L18.5079 35.4563L17.5009 34.7157ZM16.8579 34.9586L16.4161 33.7893L16.2931 33.8358L16.1824 33.9069L16.8579 34.9586ZM16.318 35.3054L16.4226 36.551L16.7321 36.525L16.9935 36.3571L16.318 35.3054ZM15.5891 35.3666L15.4845 34.121L14.915 34.1688L14.5786 34.6308L15.5891 35.3666ZM15.1793 35.9294L15.9101 36.9435L16.0722 36.8267L16.1898 36.6652L15.1793 35.9294ZM14.6522 36.3093L14.8557 37.5426L15.1451 37.4949L15.383 37.3234L14.6522 36.3093ZM13.9423 36.4265L13.7387 35.1932L13.0656 35.3042L12.7949 35.9305L13.9423 36.4265ZM13.6389 37.1283L14.1367 38.2749L14.5902 38.078L14.7863 37.6243L13.6389 37.1283ZM13.0307 37.3924L13.4955 38.5528L13.5121 38.5461L13.5286 38.5389L13.0307 37.3924ZM12.4101 37.6409L11.9454 36.4805L11.6142 36.6132L11.4029 36.9007L12.4101 37.6409ZM12.0037 38.194L12.7549 39.1931L12.902 39.0825L13.011 38.9342L12.0037 38.194ZM11.4848 38.5842L11.6185 39.827L11.9608 39.7902L12.236 39.5833L11.4848 38.5842ZM10.7435 38.664L10.6098 37.4211L9.80033 37.5082L9.55273 38.2838L10.7435 38.664ZM10.4964 39.4378L10.525 40.6875L11.4161 40.6672L11.6872 39.818L10.4964 39.4378ZM9.71041 39.4558L9.68189 38.2061L9.22202 38.2166L8.87864 38.5227L9.71041 39.4558ZM9.22198 39.8912L8.39021 38.9581L8.17249 39.1521L8.06315 39.4225L9.22198 39.8912ZM8.93386 40.6036L9.64986 41.6282L9.95372 41.4159L10.0927 41.0722L8.93386 40.6036ZM8.40112 40.9759L8.50376 42.2217L8.84031 42.1939L9.11712 42.0005L8.40112 40.9759ZM7.64406 41.0383L7.54142 39.7925L7.03396 39.8343L6.70015 40.2188L7.64406 41.0383ZM7.20646 41.5423L7.96323 42.5372L8.06585 42.4591L8.15037 42.3618L7.20646 41.5423ZM6.6888 41.9361L7.30703 43.0225L7.37935 42.9813L7.44557 42.931L6.6888 41.9361ZM6.1201 42.2597L5.50188 41.1733L5.48712 41.1817L5.4726 41.1905L6.1201 42.2597ZM5.56228 42.5975L6.15502 43.698L6.1828 43.6831L6.20978 43.6667L5.56228 42.5975ZM4.98344 42.9093L4.3907 41.8087L4.02327 42.0066L3.84843 42.3856L4.98344 42.9093ZM4.67237 43.5835L5.20108 44.7162L5.6157 44.5226L5.80738 44.1072L4.67237 43.5835ZM4.07169 43.8639L3.54297 42.7312L3.23776 42.8737L3.04545 43.1502L4.07169 43.8639ZM3.68044 44.4265L3.92965 45.6514L4.42062 45.5515L4.70668 45.1402L3.68044 44.4265ZM2.97534 44.5699L2.72614 43.345L2.36969 43.4175L2.1078 43.67L2.97534 44.5699ZM2.50518 45.0232L3.27696 46.0065L3.32696 45.9672L3.37272 45.9231L2.50518 45.0232ZM1.99392 45.4245L1.22214 44.4412L1.1202 44.5212L1.03685 44.6204L1.99392 45.4245ZM1.56806 45.9313L2.29436 46.9487L2.42326 46.8567L2.52513 46.7354L1.56806 45.9313ZM1.04194 46.307L0.315635 45.2896L0.185398 45.3826L0.0827833 45.5054L1.04194 46.307ZM0.959153 46.406L-1.90735e-06 45.6044L1.53431 47.5158L0.959153 46.406ZM1.53442 46.1079L2.10958 47.2177L2.24801 47.146L2.36457 47.0424L1.53442 46.1079ZM2.02386 45.6731L2.85401 46.6076L2.86352 46.5992L2.87285 46.5906L2.02386 45.6731ZM2.50324 45.2295L1.79345 44.2006L1.71986 44.2513L1.65425 44.3121L2.50324 45.2295ZM3.03577 44.8621L2.35976 43.8107L2.34268 43.8217L2.32597 43.8332L3.03577 44.8621ZM3.58186 44.511L3.31192 43.2905L3.09378 43.3388L2.90585 43.4596L3.58186 44.511ZM4.28555 44.3554L4.55548 45.5759L4.9037 45.4989L5.15886 45.2497L4.28555 44.3554ZM4.75412 43.8979L5.62743 44.7922L5.7681 44.6548L5.85981 44.4809L4.75412 43.8979ZM5.08373 43.2728L4.2843 42.3118L4.09369 42.4704L3.97803 42.6897L5.08373 43.2728ZM5.58288 42.8575L5.09106 41.7083L4.92354 41.78L4.78345 41.8966L5.58288 42.8575ZM6.20555 42.591L6.69736 43.7402L6.79053 43.7003L6.87606 43.646L6.20555 42.591ZM6.75856 42.2396L7.42907 43.2945L7.45701 43.2767L7.48396 43.2575L6.75856 42.2396ZM7.28898 41.8616L6.57147 40.838L6.56358 40.8436L7.28898 41.8616ZM7.82266 41.4875L8.54014 42.5111L8.65201 42.4327L8.7443 42.3319L7.82266 41.4875ZM8.26589 41.0037L7.53212 39.9918L7.42971 40.066L7.34425 40.1593L8.26589 41.0037ZM8.79248 40.6219L8.19302 39.525L8.12316 39.5632L8.05871 39.6099L8.79248 40.6219ZM9.3712 40.3056L9.97066 41.4025L10.3251 41.2088L10.4992 40.8443L9.3712 40.3056ZM9.68238 39.6541L8.69832 38.8833L8.61361 38.9914L8.55441 39.1154L9.68238 39.6541ZM10.0956 39.1265L9.52638 38.0136L9.28129 38.139L9.11153 38.3557L10.0956 39.1265ZM10.6857 38.8247L11.2549 39.9376L11.3266 39.9009L11.3931 39.8553L10.6857 38.8247ZM11.2228 38.4559L11.9303 39.4865L11.9799 39.4524L12.026 39.4138L11.2228 38.4559ZM11.7229 38.0367L10.9813 37.0305L10.9498 37.0537L10.9198 37.0788L11.7229 38.0367ZM12.2478 37.6498L12.0108 36.4224L11.7335 36.476L11.5062 36.6435L12.2478 37.6498ZM12.9411 37.5159L13.1782 38.7432L13.646 38.6528L13.935 38.2739L12.9411 37.5159ZM13.3601 36.9666L12.8129 35.8427L12.5461 35.9726L12.3662 36.2085L13.3601 36.9666ZM13.9476 36.6805L14.4948 37.8044L14.534 37.7853L14.5718 37.7635L13.9476 36.6805ZM14.5121 36.3552L14.0421 35.1969L13.9624 35.2292L13.8879 35.2722L14.5121 36.3552ZM15.1157 36.1103L14.9955 34.8661L14.8144 34.8836L14.6458 34.952L15.1157 36.1103ZM15.7817 36.0459L15.9019 37.2902L16.437 37.2385L16.7675 36.8145L15.7817 36.0459ZM16.2736 35.4151L16.836 34.2988L15.9191 33.8369L15.2878 34.6465L16.2736 35.4151ZM17.0077 35.785L16.4453 36.9013L16.7684 37.0641L17.1285 37.0292L17.0077 35.785ZM17.6219 35.7254L17.7427 36.9695L17.832 36.9609L17.9191 36.9395L17.6219 35.7254ZM18.274 35.5658L18.2574 34.3159L18.1151 34.3178L17.9768 34.3516L18.274 35.5658ZM18.9628 35.5566L19.4389 34.4009L19.2022 34.3033L18.9462 34.3067L18.9628 35.5566ZM19.5854 35.8131L20.1308 34.6884L20.0966 34.6718L20.0615 34.6574L19.5854 35.8131ZM20.1884 36.1056L21.3365 35.6114L21.1526 35.1839L20.7338 34.9808L20.1884 36.1056ZM20.4972 36.8231L19.3491 37.3173L19.5501 37.7843L20.02 37.9785L20.4972 36.8231ZM21.1106 37.0765L22.042 36.2428L21.8516 36.0301L21.5878 35.9212L21.1106 37.0765ZM21.5472 37.5643L20.6158 38.398L20.7629 38.5623L20.9574 38.6664L21.5472 37.5643ZM22.1329 37.8778L23.0529 37.0316L22.9095 36.8757L22.7227 36.7757L22.1329 37.8778ZM22.575 38.3585L21.655 39.2047L21.8803 39.4497L22.1978 39.5502L22.575 38.3585ZM23.2554 38.5738L24.4759 38.3041L24.3203 37.5998L23.6326 37.3821L23.2554 38.5738ZM23.4283 39.3566L22.2078 39.6263L22.3776 40.3947L23.1439 40.5738L23.4283 39.3566ZM24.1463 39.5243L25.1224 38.7435L24.852 38.4056L24.4307 38.3071L24.1463 39.5243ZM24.5593 40.0407L23.5832 40.8216L23.635 40.8863L23.6949 40.9436L24.5593 40.0407ZM25.0301 40.4914L24.1657 41.3943L24.3917 41.6108L24.6931 41.6951L25.0301 40.4914ZM25.7141 40.6829L26.7847 40.0377L26.5287 39.6129L26.051 39.4792L25.7141 40.6829ZM26.0703 41.274L24.9996 41.9192L25.0963 42.0796L25.2359 42.2047L26.0703 41.274ZM26.5552 41.7087L27.6031 41.0272L27.5129 40.8885L27.3896 40.778L26.5552 41.7087ZM26.9302 42.2852L25.8823 42.9667L26.1906 43.4408L26.7503 43.5222L26.9302 42.2852ZM27.6705 42.3929L28.4793 41.4397L28.2056 41.2075L27.8504 41.1559L27.6705 42.3929ZM28.1663 42.8135L29.1526 42.0457L29.0734 41.9438L28.975 41.8604L28.1663 42.8135ZM28.5796 43.3445L27.5933 44.1123L27.6408 44.1734L27.6955 44.2281L28.5796 43.3445ZM29.0444 43.8096L28.1603 44.6932L28.2697 44.8026L28.4025 44.8821L29.0444 43.8096ZM29.6053 44.1452L28.9633 45.2178L29.0643 45.2782L29.1748 45.3188L29.6053 44.1452ZM30.2411 44.3785L30.8944 43.3128L30.7883 43.2477L30.6715 43.2049L30.2411 44.3785ZM30.818 44.7321L31.5861 45.7183L33.0096 44.6095L31.4713 43.6664L30.818 44.7321ZM30.2206 45.1974L29.0305 45.5795L29.5774 47.2828L30.9888 46.1835L30.2206 45.1974ZM31.3442 44.6077C31.1331 43.9504 30.4292 43.5886 29.7719 43.7997C29.1146 44.0107 28.7528 44.7147 28.9639 45.372L30.154 44.9898L31.3442 44.6077ZM18.0729 19.7583L16.823 19.7484L16.8222 19.8484L18.0721 19.8583L19.3221 19.8682L19.3229 19.7682L18.0729 19.7583ZM18.0721 19.8583L16.8438 20.0903L16.9475 20.639L18.1758 20.407L19.4041 20.175L19.3004 19.6263L18.0721 19.8583ZM18.1758 20.407L17.0312 19.9046L16.7459 20.5544L17.8905 21.0569L19.0351 21.5593L19.3203 20.9095L18.1758 20.407ZM17.8905 21.0569L16.7297 21.5207L16.9893 22.1703L18.15 21.7064L19.3108 21.2426L19.0513 20.5931L17.8905 21.0569ZM18.15 21.7064L16.9167 21.9097L17.0238 22.5598L18.2572 22.3565L19.4905 22.1533L19.3834 21.5032L18.15 21.7064ZM18.2572 22.3565L17.0678 21.9718L16.8576 22.6219L18.0469 23.0066L19.2362 23.3913L19.4465 22.7412L18.2572 22.3565ZM18.0469 23.0066L16.7971 22.9858L16.7863 23.6356L18.0361 23.6564L19.2859 23.6772L19.2967 23.0274L18.0469 23.0066ZM18.0361 23.6564L16.8366 24.0083L17.0277 24.6594L18.2271 24.3074L19.4265 23.9555L19.2355 23.3045L18.0361 23.6564ZM18.2271 24.3074L16.9861 24.1575L16.9076 24.8076L18.1485 24.9575L19.3895 25.1075L19.4681 24.4574L18.2271 24.3074ZM18.1485 24.9575L17.0289 24.4018L16.7071 25.0501L17.8268 25.6058L18.9465 26.1615L19.2682 25.5132L18.1485 24.9575ZM17.8268 25.6058L16.788 26.3011L17.2253 26.9543L18.264 26.259L19.3028 25.5638L18.8656 24.9105L17.8268 25.6058ZM18.264 26.259L17.0454 25.981L16.8973 26.6302L18.1159 26.9082L19.3346 27.1863L19.4827 26.5371L18.264 26.259ZM18.1159 26.9082L16.9058 27.2213L17.0746 27.8737L18.2847 27.5607L19.4949 27.2476L19.3261 26.5952L18.1159 26.9082ZM18.2847 27.5607L17.1763 26.9829L16.8395 27.6288L17.948 28.2067L19.0564 28.7845L19.3932 28.1385L18.2847 27.5607ZM17.948 28.2067L16.7068 28.3547L16.7845 29.0061L18.0257 28.858L19.2669 28.7099L19.1892 28.0586L17.948 28.2067ZM18.0257 28.858L16.7836 28.9987L16.8575 29.6506L18.0995 29.5099L19.3416 29.3692L19.2677 28.7173L18.0257 28.858ZM18.0995 29.5099L16.8816 29.7913L17.033 30.4463L18.2509 30.1648L19.4688 29.8834L19.3174 29.2284L18.0995 29.5099ZM18.2509 30.1648L17.264 29.3977L16.7694 30.0339L17.7563 30.8011L18.7432 31.5682L19.2378 30.932L18.2509 30.1648ZM17.7563 30.8011L16.7179 31.497L17.1654 32.1646L18.2038 31.4687L19.2421 30.7728L18.7947 30.1051L17.7563 30.8011ZM18.2038 31.4687L17.0621 30.9596L16.7772 31.5985L17.9189 32.1076L19.0605 32.6167L19.3454 31.9778L18.2038 31.4687ZM17.9189 32.1076L16.6832 32.2961L16.784 32.9566L18.0197 32.7681L19.2553 32.5795L19.1546 31.919L17.9189 32.1076ZM18.0197 32.7681L17.0154 32.0237L16.5674 32.6282L17.5716 33.3725L18.5758 34.1169L19.0239 33.5124L18.0197 32.7681ZM17.5716 33.3725L16.4603 33.9448L16.838 34.6783L17.9493 34.106L19.0606 33.5337L18.6829 32.8002L17.5716 33.3725ZM17.9493 34.106L16.9423 33.3654L16.4939 33.9752L17.5009 34.7157L18.5079 35.4563L18.9563 34.8465L17.9493 34.106ZM17.5009 34.7157L17.0592 33.5464L16.4161 33.7893L16.8579 34.9586L17.2996 36.128L17.9426 35.8851L17.5009 34.7157ZM16.8579 34.9586L16.1824 33.9069L15.6425 34.2536L16.318 35.3054L16.9935 36.3571L17.5333 36.0104L16.8579 34.9586ZM16.318 35.3054L16.2133 34.0597L15.4845 34.121L15.5891 35.3666L15.6938 36.6122L16.4226 36.551L16.318 35.3054ZM15.5891 35.3666L14.5786 34.6308L14.1688 35.1937L15.1793 35.9294L16.1898 36.6652L16.5997 36.1024L15.5891 35.3666ZM15.1793 35.9294L14.4485 34.9153L13.9214 35.2952L14.6522 36.3093L15.383 37.3234L15.9101 36.9435L15.1793 35.9294ZM14.6522 36.3093L14.4487 35.076L13.7387 35.1932L13.9423 36.4265L14.1458 37.6598L14.8557 37.5426L14.6522 36.3093ZM13.9423 36.4265L12.7949 35.9305L12.4915 36.6323L13.6389 37.1283L14.7863 37.6243L15.0897 36.9224L13.9423 36.4265ZM13.6389 37.1283L13.1411 35.9817L12.5329 36.2458L13.0307 37.3924L13.5286 38.5389L14.1367 38.2749L13.6389 37.1283ZM13.0307 37.3924L12.5659 36.232L11.9454 36.4805L12.4101 37.6409L12.8749 38.8013L13.4955 38.5528L13.0307 37.3924ZM12.4101 37.6409L11.4029 36.9007L10.9965 37.4538L12.0037 38.194L13.011 38.9342L13.4174 38.3811L12.4101 37.6409ZM12.0037 38.194L11.2525 37.1949L10.7335 37.5851L11.4848 38.5842L12.236 39.5833L12.7549 39.1931L12.0037 38.194ZM11.4848 38.5842L11.351 37.3414L10.6098 37.4211L10.7435 38.664L10.8773 39.9068L11.6185 39.827L11.4848 38.5842ZM10.7435 38.664L9.55273 38.2838L9.30566 39.0577L10.4964 39.4378L11.6872 39.818L11.9343 39.0441L10.7435 38.664ZM10.4964 39.4378L10.4679 38.1882L9.68189 38.2061L9.71041 39.4558L9.73893 40.7055L10.525 40.6875L10.4964 39.4378ZM9.71041 39.4558L8.87864 38.5227L8.39021 38.9581L9.22198 39.8912L10.0537 40.8243L10.5422 40.3889L9.71041 39.4558ZM9.22198 39.8912L8.06315 39.4225L7.77503 40.135L8.93386 40.6036L10.0927 41.0722L10.3808 40.3598L9.22198 39.8912ZM8.93386 40.6036L8.21787 39.579L7.68513 39.9513L8.40112 40.9759L9.11712 42.0005L9.64986 41.6282L8.93386 40.6036ZM8.40112 40.9759L8.29849 39.7301L7.54142 39.7925L7.64406 41.0383L7.7467 42.284L8.50376 42.2217L8.40112 40.9759ZM7.64406 41.0383L6.70015 40.2188L6.26255 40.7228L7.20646 41.5423L8.15037 42.3618L8.58797 41.8577L7.64406 41.0383ZM7.20646 41.5423L6.44969 40.5474L5.93203 40.9412L6.6888 41.9361L7.44557 42.931L7.96323 42.5372L7.20646 41.5423ZM6.6888 41.9361L6.07058 40.8497L5.50188 41.1733L6.1201 42.2597L6.73833 43.3461L7.30703 43.0225L6.6888 41.9361ZM6.1201 42.2597L5.4726 41.1905L4.91478 41.5283L5.56228 42.5975L6.20978 43.6667L6.7676 43.3289L6.1201 42.2597ZM5.56228 42.5975L4.96954 41.497L4.3907 41.8087L4.98344 42.9093L5.57618 44.0098L6.15502 43.698L5.56228 42.5975ZM4.98344 42.9093L3.84843 42.3856L3.53735 43.0598L4.67237 43.5835L5.80738 44.1072L6.11846 43.4329L4.98344 42.9093ZM4.67237 43.5835L4.14365 42.4508L3.54297 42.7312L4.07169 43.8639L4.60041 44.9966L5.20108 44.7162L4.67237 43.5835ZM4.07169 43.8639L3.04545 43.1502L2.6542 43.7128L3.68044 44.4265L4.70668 45.1402L5.09793 44.5776L4.07169 43.8639ZM3.68044 44.4265L3.43124 43.2016L2.72614 43.345L2.97534 44.5699L3.22454 45.7948L3.92965 45.6514L3.68044 44.4265ZM2.97534 44.5699L2.1078 43.67L1.63764 44.1232L2.50518 45.0232L3.37272 45.9231L3.84288 45.4699L2.97534 44.5699ZM2.50518 45.0232L1.7334 44.0399L1.22214 44.4412L1.99392 45.4245L2.7657 46.4077L3.27696 46.0065L2.50518 45.0232ZM1.99392 45.4245L1.03685 44.6204L0.61099 45.1273L1.56806 45.9313L2.52513 46.7354L2.95099 46.2285L1.99392 45.4245ZM1.56806 45.9313L0.841756 44.914L0.315635 45.2896L1.04194 46.307L1.76824 47.3243L2.29436 46.9487L1.56806 45.9313ZM1.04194 46.307L0.0827833 45.5054L-1.90735e-06 45.6044L0.959153 46.406L1.91831 47.2076L2.00109 47.1085L1.04194 46.307ZM0.959153 46.406L1.53431 47.5158L2.10958 47.2177L1.53442 46.1079L0.959265 44.9981L0.383996 45.2962L0.959153 46.406ZM1.53442 46.1079L2.36457 47.0424L2.85401 46.6076L2.02386 45.6731L1.19371 44.7386L0.704271 45.1734L1.53442 46.1079ZM2.02386 45.6731L2.87285 46.5906L3.35223 46.147L2.50324 45.2295L1.65425 44.3121L1.17487 44.7557L2.02386 45.6731ZM2.50324 45.2295L3.21304 46.2584L3.74556 45.8911L3.03577 44.8621L2.32597 43.8332L1.79345 44.2006L2.50324 45.2295ZM3.03577 44.8621L3.71178 45.9136L4.25786 45.5625L3.58186 44.511L2.90585 43.4596L2.35976 43.8107L3.03577 44.8621ZM3.58186 44.511L3.85179 45.7316L4.55548 45.5759L4.28555 44.3554L4.01562 43.1349L3.31192 43.2905L3.58186 44.511ZM4.28555 44.3554L5.15886 45.2497L5.62743 44.7922L4.75412 43.8979L3.8808 43.0035L3.41223 43.4611L4.28555 44.3554ZM4.75412 43.8979L5.85981 44.4809L6.18942 43.8558L5.08373 43.2728L3.97803 42.6897L3.64842 43.3148L4.75412 43.8979ZM5.08373 43.2728L5.88315 44.2337L6.3823 43.8185L5.58288 42.8575L4.78345 41.8966L4.2843 42.3118L5.08373 43.2728ZM5.58288 42.8575L6.0747 44.0067L6.69736 43.7402L6.20555 42.591L5.71373 41.4419L5.09106 41.7083L5.58288 42.8575ZM6.20555 42.591L6.87606 43.646L7.42907 43.2945L6.75856 42.2396L6.08804 41.1846L5.53503 41.5361L6.20555 42.591ZM6.75856 42.2396L7.48396 43.2575L8.01438 42.8796L7.28898 41.8616L6.56358 40.8436L6.03316 41.2216L6.75856 42.2396ZM7.28898 41.8616L8.00646 42.8852L8.54014 42.5111L7.82266 41.4875L7.10518 40.4639L6.5715 40.838L7.28898 41.8616ZM7.82266 41.4875L8.7443 42.3319L9.18753 41.8482L8.26589 41.0037L7.34425 40.1593L6.90102 40.6431L7.82266 41.4875ZM8.26589 41.0037L8.99967 42.0157L9.52626 41.6339L8.79248 40.6219L8.05871 39.6099L7.53212 39.9918L8.26589 41.0037ZM8.79248 40.6219L9.39195 41.7188L9.97066 41.4025L9.3712 40.3056L8.77173 39.2088L8.19302 39.525L8.79248 40.6219ZM9.3712 40.3056L10.4992 40.8443L10.8103 40.1927L9.68238 39.6541L8.55441 39.1154L8.24323 39.7669L9.3712 40.3056ZM9.68238 39.6541L10.6664 40.4249L11.0796 39.8973L10.0956 39.1265L9.11153 38.3557L8.69832 38.8833L9.68238 39.6541ZM10.0956 39.1265L10.6648 40.2394L11.2549 39.9376L10.6857 38.8247L10.1164 37.7118L9.52638 38.0136L10.0956 39.1265ZM10.6857 38.8247L11.3931 39.8553L11.9303 39.4865L11.2228 38.4559L10.5154 37.4254L9.97821 37.7942L10.6857 38.8247ZM11.2228 38.4559L12.026 39.4138L12.526 38.9945L11.7229 38.0367L10.9198 37.0788L10.4197 37.4981L11.2228 38.4559ZM11.7229 38.0367L12.4645 39.0429L12.9895 38.656L12.2478 37.6498L11.5062 36.6435L10.9813 37.0305L11.7229 38.0367ZM12.2478 37.6498L12.4849 38.8771L13.1782 38.7432L12.9411 37.5159L12.704 36.2885L12.0108 36.4224L12.2478 37.6498ZM12.9411 37.5159L13.935 38.2739L14.354 37.7246L13.3601 36.9666L12.3662 36.2085L11.9472 36.7578L12.9411 37.5159ZM13.3601 36.9666L13.9072 38.0904L14.4948 37.8044L13.9476 36.6805L13.4005 35.5566L12.8129 35.8427L13.3601 36.9666ZM13.9476 36.6805L14.5718 37.7635L15.1362 37.4382L14.5121 36.3552L13.8879 35.2722L13.3234 35.5975L13.9476 36.6805ZM14.5121 36.3552L14.982 37.5135L15.5856 37.2686L15.1157 36.1103L14.6458 34.952L14.0421 35.1969L14.5121 36.3552ZM15.1157 36.1103L15.2359 37.3545L15.9019 37.2902L15.7817 36.0459L15.6615 34.8017L14.9955 34.8661L15.1157 36.1103ZM15.7817 36.0459L16.7675 36.8145L17.2593 36.1837L16.2736 35.4151L15.2878 34.6465L14.7959 35.2774L15.7817 36.0459ZM16.2736 35.4151L15.7112 36.5315L16.4453 36.9013L17.0077 35.785L17.5701 34.6687L16.836 34.2988L16.2736 35.4151ZM17.0077 35.785L17.1285 37.0292L17.7427 36.9695L17.6219 35.7254L17.5012 34.4812L16.887 34.5408L17.0077 35.785ZM17.6219 35.7254L17.9191 36.9395L18.5712 36.7799L18.274 35.5658L17.9768 34.3516L17.3247 34.5112L17.6219 35.7254ZM18.274 35.5658L18.2906 36.8157L18.9794 36.8065L18.9628 35.5566L18.9462 34.3067L18.2574 34.3159L18.274 35.5658ZM18.9628 35.5566L18.4866 36.7124L19.1092 36.9689L19.5854 35.8131L20.0615 34.6574L19.4389 34.4009L18.9628 35.5566ZM19.5854 35.8131L19.0399 36.9378L19.6429 37.2303L20.1884 36.1056L20.7338 34.9808L20.1308 34.6884L19.5854 35.8131ZM20.1884 36.1056L19.0402 36.5998L19.3491 37.3173L20.4972 36.8231L21.6454 36.3289L21.3365 35.6114L20.1884 36.1056ZM20.4972 36.8231L20.02 37.9785L20.6334 38.2318L21.1106 37.0765L21.5878 35.9212L20.9744 35.6678L20.4972 36.8231ZM21.1106 37.0765L20.1792 37.9102L20.6158 38.398L21.5472 37.5643L22.4786 36.7306L22.042 36.2428L21.1106 37.0765ZM21.5472 37.5643L20.9574 38.6664L21.543 38.9798L22.1329 37.8778L22.7227 36.7757L22.1371 36.4622L21.5472 37.5643ZM22.1329 37.8778L21.2128 38.7239L21.655 39.2047L22.575 38.3585L23.495 37.5123L23.0529 37.0316L22.1329 37.8778ZM22.575 38.3585L22.1978 39.5502L22.8781 39.7656L23.2554 38.5738L23.6326 37.3821L22.9522 37.1668L22.575 38.3585ZM23.2554 38.5738L22.0348 38.8436L22.2078 39.6263L23.4283 39.3566L24.6489 39.0868L24.4759 38.3041L23.2554 38.5738ZM23.4283 39.3566L23.1439 40.5738L23.8618 40.7415L24.1463 39.5243L24.4307 38.3071L23.7128 38.1394L23.4283 39.3566ZM24.1463 39.5243L23.1702 40.3052L23.5832 40.8216L24.5593 40.0407L25.5354 39.2599L25.1224 38.7435L24.1463 39.5243ZM24.5593 40.0407L23.6949 40.9436L24.1657 41.3943L25.0301 40.4914L25.8946 39.5885L25.4238 39.1378L24.5593 40.0407ZM25.0301 40.4914L24.6931 41.6951L25.3771 41.8866L25.7141 40.6829L26.051 39.4792L25.3671 39.2877L25.0301 40.4914ZM25.7141 40.6829L24.6434 41.3281L24.9996 41.9192L26.0703 41.274L27.1409 40.6288L26.7847 40.0377L25.7141 40.6829ZM26.0703 41.274L25.2359 42.2047L25.7209 42.6395L26.5552 41.7087L27.3896 40.778L26.9047 40.3432L26.0703 41.274ZM26.5552 41.7087L25.5074 42.3902L25.8823 42.9667L26.9302 42.2852L27.978 41.6037L27.6031 41.0272L26.5552 41.7087ZM26.9302 42.2852L26.7503 43.5222L27.4907 43.6299L27.6705 42.3929L27.8504 41.1559L27.11 41.0482L26.9302 42.2852ZM27.6705 42.3929L26.8618 43.346L27.3576 43.7666L28.1663 42.8135L28.975 41.8604L28.4793 41.4397L27.6705 42.3929ZM28.1663 42.8135L27.1799 43.5814L27.5933 44.1123L28.5796 43.3445L29.566 42.5766L29.1526 42.0457L28.1663 42.8135ZM28.5796 43.3445L27.6955 44.2281L28.1603 44.6932L29.0444 43.8096L29.9286 42.9259L29.4638 42.4609L28.5796 43.3445ZM29.0444 43.8096L28.4025 44.8821L28.9633 45.2178L29.6053 44.1452L30.2472 43.0727L29.6864 42.737L29.0444 43.8096ZM29.6053 44.1452L29.1748 45.3188L29.8106 45.552L30.2411 44.3785L30.6715 43.2049L30.0357 42.9717L29.6053 44.1452ZM30.2411 44.3785L29.5878 45.4441L30.1647 45.7978L30.818 44.7321L31.4713 43.6664L30.8944 43.3128L30.2411 44.3785ZM30.818 44.7321L30.0499 43.7459L29.4525 44.2112L30.2206 45.1974L30.9888 46.1835L31.5861 45.7183L30.818 44.7321ZM30.2206 45.1974L31.4108 44.8152L31.3442 44.6077L30.154 44.9898L28.9639 45.372L29.0305 45.5795L30.2206 45.1974Z" fill="black"/>
<path d="M16.6665 21.7296C16.7165 22.4181 17.3153 22.9357 18.0038 22.8857C18.6924 22.8357 19.21 22.237 19.16 21.5484L17.9132 21.639L16.6665 21.7296ZM17.906 21.5393L19.1527 21.4487L19.1467 21.3653L19.1296 21.2835L17.906 21.5393ZM17.7914 20.9909L16.6376 20.5101L16.4886 20.8676L16.5678 21.2466L17.7914 20.9909ZM18.0638 20.3372L19.2176 20.818L19.419 20.3349L19.2159 19.8524L18.0638 20.3372ZM17.792 19.6915L16.5626 19.9172L16.5872 20.051L16.6399 20.1763L17.792 19.6915ZM17.673 19.0432L16.4768 18.6803L16.3888 18.9706L16.4436 19.269L17.673 19.0432ZM17.8713 18.3896L19.0675 18.7525L19.1217 18.5737L19.1213 18.3867L17.8713 18.3896ZM17.8698 17.7393L19.1198 17.7364L19.1193 17.5455L19.0619 17.3634L17.8698 17.7393ZM17.6659 17.0925L16.422 16.9688L16.3966 17.2239L16.4737 17.4684L17.6659 17.0925ZM17.7306 16.4413L16.5987 15.9111L16.508 16.1047L16.4868 16.3175L17.7306 16.4413ZM18.0376 15.7859L19.1696 16.3161L19.4775 15.6587L19.0591 15.0655L18.0376 15.7859ZM17.5845 15.1435L16.3589 14.898L16.2534 15.4248L16.563 15.8639L17.5845 15.1435ZM17.7153 14.4907L18.941 14.7362L19.0011 14.436L18.9157 14.142L17.7153 14.4907ZM17.5274 13.8439L16.4005 13.3032L16.1938 13.7339L16.3271 14.1926L17.5274 13.8439ZM17.8422 13.188L18.9692 13.7287L19.1405 13.3717L19.0749 12.9811L17.8422 13.188ZM17.7336 12.541L18.9664 12.3341L18.9163 12.0356L18.7351 11.793L17.7336 12.541ZM17.4443 12.1536L18.4458 11.4056L17.9943 10.8012L17.2492 10.9189L17.4443 12.1536ZM16.7974 12.2558L15.9944 13.2138L16.4305 13.5793L16.9925 13.4905L16.7974 12.2558ZM16.1809 11.7391L16.9838 10.7811L16.2897 10.1994L15.5207 10.6777L16.1809 11.7391ZM15.4983 12.1636L14.9464 13.2851L15.5691 13.5916L16.1585 13.2251L15.4983 12.1636ZM14.8705 11.8546L15.4225 10.7331L15.1064 10.5775L14.7556 10.6099L14.8705 11.8546ZM14.2006 11.9165L13.3628 12.8441L13.7696 13.2116L14.3155 13.1612L14.2006 11.9165ZM13.6424 11.4124L14.4802 10.4847L13.9064 9.96647L13.1864 10.2486L13.6424 11.4124ZM12.8781 11.7119L12.1957 12.7592L12.7349 13.1105L13.3341 12.8757L12.8781 11.7119ZM12.3054 11.3387L12.9879 10.2914L12.9778 10.2848L12.9676 10.2785L12.3054 11.3387ZM11.7434 10.9877L12.4055 9.92747L12.3797 9.91134L12.3531 9.89649L11.7434 10.9877ZM11.1665 10.6654L10.0212 11.1661L10.1896 11.5514L10.5568 11.7566L11.1665 10.6654ZM10.8754 9.99949L12.0207 9.49879L11.8184 9.03601L11.3514 8.84367L10.8754 9.99949ZM10.2378 9.7369L9.16584 10.3798L9.37885 10.735L9.7618 10.8927L10.2378 9.7369ZM9.89748 9.16945L8.68003 8.88605L8.56536 9.37865L8.8255 9.81239L9.89748 9.16945ZM10.0566 8.48587L11.2741 8.76928L11.4052 8.2059L11.0606 7.74128L10.0566 8.48587ZM9.60465 7.87642L8.38358 7.60904L8.26197 8.16438L8.60061 8.62101L9.60465 7.87642ZM9.74799 7.22182L8.56535 6.81701L8.54221 6.88463L8.52692 6.95444L9.74799 7.22182ZM9.96286 6.59409L11.1455 6.9989L11.2447 6.70913L11.1987 6.40632L9.96286 6.59409ZM9.8602 5.91846L8.64298 5.63409L8.58825 5.86837L8.62439 6.10623L9.8602 5.91846ZM10.01 5.27714L9.29158 4.25424L8.90131 4.52836L8.79281 4.99276L10.01 5.27714ZM10.569 4.88452L11.2875 5.90742L11.673 5.63662L11.7839 5.17871L10.569 4.88452ZM10.7535 4.12289L10.8774 2.87905L9.79466 2.77118L9.53858 3.8287L10.7535 4.12289ZM11.5392 4.20117L11.4152 5.44501L11.8412 5.48745L12.2038 5.25983L11.5392 4.20117ZM12.0918 3.85424L12.7564 4.9129L13.0188 4.74816L13.1739 4.47995L12.0918 3.85424ZM12.4743 3.19271L11.8938 2.08567L11.5733 2.25372L11.3922 2.567L12.4743 3.19271ZM13.0576 2.88684L13.1559 1.64072L12.7965 1.61235L12.4771 1.7798L13.0576 2.88684ZM13.8162 2.94671L13.7178 4.19284L14.1988 4.2308L14.5806 3.93571L13.8162 2.94671ZM14.3422 2.54007L13.8407 1.39512L13.6996 1.45691L13.5778 1.55107L14.3422 2.54007ZM14.9379 2.27912L14.6426 1.06451L14.5364 1.09032L14.4363 1.13418L14.9379 2.27912ZM15.5729 2.12474L15.2997 0.904962L15.2886 0.907441L15.2776 0.910121L15.5729 2.12474ZM16.206 1.98292L16.0639 0.741032L15.9978 0.748601L15.9328 0.763145L16.206 1.98292ZM16.8423 1.91008L16.9845 3.15197L17.31 3.11471L17.5753 2.92259L16.8423 1.91008ZM17.4372 1.4794L17.6257 0.243709L17.1192 0.166409L16.7041 0.466902L17.4372 1.4794ZM18.0966 1.58003L17.908 2.81572L18.219 2.86318L18.5154 2.75778L18.0966 1.58003ZM18.7446 1.34959L19.2738 0.217152L18.8091 -2.26498e-05L18.3258 0.171844L18.7446 1.34959ZM19.3976 1.65476L18.8684 2.7872L19.1889 2.93702L19.5405 2.89656L19.3976 1.65476ZM20.0474 1.57997L20.0466 0.329972L19.9753 0.330018L19.9045 0.338168L20.0474 1.57997ZM20.6975 1.57956L20.6983 2.82956L20.8178 2.82948L20.9351 2.80676L20.6975 1.57956ZM21.3489 1.45343L21.4617 0.208531L21.2852 0.19253L21.1112 0.226223L21.3489 1.45343ZM21.9991 1.51238L22.1573 0.272421L22.1347 0.269539L22.112 0.267483L21.9991 1.51238ZM22.6504 1.59544L22.8461 0.360855L22.8274 0.357883L22.8085 0.355481L22.6504 1.59544ZM23.2946 1.69757L23.0989 2.93215L23.1753 2.94427L23.2527 2.94686L23.2946 1.69757ZM23.9542 1.7197L24.0793 0.475978L24.0378 0.471801L23.9961 0.470402L23.9542 1.7197ZM24.6138 1.78606L24.9851 0.59248L24.8646 0.554982L24.739 0.542344L24.6138 1.78606ZM25.24 1.98086L25.7045 0.820351L25.6586 0.80197L25.6113 0.787277L25.24 1.98086ZM25.8521 2.22583L26.7748 1.38256L26.582 1.17154L26.3166 1.06532L25.8521 2.22583ZM26.3359 2.75514L25.4132 3.5984L25.6082 3.81185L25.8772 3.91795L26.3359 2.75514ZM26.9294 2.98923L26.4707 4.15205L26.5888 4.19863L26.7139 4.22052L26.9294 2.98923ZM27.6267 3.11129L28.3982 2.12777L28.1513 1.93411L27.8422 1.88001L27.6267 3.11129ZM28.1494 3.52131L29.2292 2.89156L29.1089 2.68522L28.9209 2.5378L28.1494 3.52131ZM28.4933 4.11083L27.4135 4.74059L27.4406 4.78711L27.4716 4.83113L28.4933 4.11083ZM28.8684 4.6429L29.9015 3.93927L29.8958 3.93089L29.89 3.92261L28.8684 4.6429ZM29.2252 5.16675L30.3837 4.6975L30.3336 4.5736L30.2583 4.46311L29.2252 5.16675ZM29.4519 5.72651L30.6199 5.28123L30.6153 5.2692L30.6105 5.25726L29.4519 5.72651ZM29.6718 6.30334L30.9216 6.32615L30.926 6.08419L30.8398 5.85806L29.6718 6.30334ZM29.6602 6.93919L30.8854 7.18677L30.9079 7.0755L30.91 6.962L29.6602 6.93919ZM29.5299 7.58416L28.3046 7.33658L28.234 7.68619L28.3585 8.02044L29.5299 7.58416ZM29.7769 8.24757L31.0052 8.47996L31.0699 8.13771L30.9483 7.81129L29.7769 8.24757ZM29.6465 8.93675L30.4971 9.85272L30.7983 9.57302L30.8748 9.16914L29.6465 8.93675ZM29.1437 9.40373L28.293 8.4877L28.2831 8.49713L29.1437 9.40373ZM28.6677 9.8555L27.8072 8.94889L27.7843 8.97056L27.7626 8.99336L28.6677 9.8555ZM28.2141 10.3317L28.9605 11.3344L29.0459 11.2709L29.1192 11.1938L28.2141 10.3317ZM27.6829 10.7271L27.8515 11.9657L28.1708 11.9222L28.4293 11.7298L27.6829 10.7271ZM26.9834 10.8223L26.8148 9.58374L26.3527 9.64664L26.0447 9.99688L26.9834 10.8223ZM26.5277 11.3405L27.0047 12.4959L27.274 12.3847L27.4664 12.1659L26.5277 11.3405ZM25.9241 11.5897L25.4471 10.4343L25.3942 10.4561L25.3435 10.4827L25.9241 11.5897ZM25.3478 11.892L25.8062 13.0549L25.8689 13.0302L25.9285 12.9989L25.3478 11.892ZM24.7417 12.131L24.9121 13.3693L25.0606 13.3488L25.2001 13.2938L24.7417 12.131ZM24.0733 12.2229L23.9029 10.9846L23.3187 11.065L23.0093 11.5669L24.0733 12.2229ZM23.6549 12.9014L23.3226 14.1064L24.2267 14.3558L24.7189 13.5575L23.6549 12.9014ZM22.8621 12.6827L23.1944 11.4777L22.7665 11.3597L22.36 11.538L22.8621 12.6827ZM22.2691 12.9428L21.7671 11.798L21.6046 11.8693L21.4683 11.983L22.2691 12.9428ZM21.7421 13.3825L22.3389 14.4808L22.4477 14.4217L22.5429 14.3423L21.7421 13.3825ZM21.1438 13.7076L21.3781 14.9354L21.5695 14.8989L21.7406 14.8059L21.1438 13.7076ZM20.5011 13.8302L20.2668 12.6024L20.2523 12.6051L20.238 12.6082L20.5011 13.8302ZM19.8592 13.9684L19.315 15.0938L19.702 15.2809L20.1223 15.1904L19.8592 13.9684ZM19.157 13.6289L19.7012 12.5036L19.2279 12.2748L18.7334 12.4529L19.157 13.6289ZM18.5309 13.8545L18.3906 15.0966L18.6803 15.1293L18.9545 15.0305L18.5309 13.8545ZM17.8833 13.7813L18.0236 12.5392L17.8373 12.5181L17.6531 12.5527L17.8833 13.7813ZM17.2363 13.9025L16.8433 15.0892L17.1495 15.1906L17.4665 15.1312L17.2363 13.9025ZM16.6315 13.7023L16.1787 14.8674L16.2084 14.8789L16.2386 14.8889L16.6315 13.7023ZM16.1038 13.4972L15.665 12.3267L12.599 13.4761L15.6509 14.6623L16.1038 13.4972ZM16.7563 14.5875C17.4027 14.3452 17.7303 13.6247 17.4879 12.9783C17.2456 12.3318 16.5251 12.0042 15.8787 12.2466L16.3175 13.417L16.7563 14.5875ZM17.9132 21.639L19.16 21.5484L19.1527 21.4487L17.906 21.5393L16.6593 21.6298L16.6665 21.7296L17.9132 21.639ZM17.906 21.5393L19.1296 21.2835L19.015 20.7352L17.7914 20.9909L16.5678 21.2466L16.6824 21.795L17.906 21.5393ZM17.7914 20.9909L18.9452 21.4717L19.2176 20.818L18.0638 20.3372L16.91 19.8564L16.6376 20.5101L17.7914 20.9909ZM18.0638 20.3372L19.2159 19.8524L18.9442 19.2066L17.792 19.6915L16.6399 20.1763L16.9116 20.8221L18.0638 20.3372ZM17.792 19.6915L19.0215 19.4657L18.9024 18.8175L17.673 19.0432L16.4436 19.269L16.5626 19.9172L17.792 19.6915ZM17.673 19.0432L18.8692 19.4062L19.0675 18.7525L17.8713 18.3896L16.6751 18.0267L16.4768 18.6803L17.673 19.0432ZM17.8713 18.3896L19.1213 18.3867L19.1198 17.7364L17.8698 17.7393L16.6198 17.7422L16.6213 18.3925L17.8713 18.3896ZM17.8698 17.7393L19.0619 17.3634L18.858 16.7167L17.6659 17.0925L16.4737 17.4684L16.6776 18.1152L17.8698 17.7393ZM17.6659 17.0925L18.9097 17.2163L18.9745 16.565L17.7306 16.4413L16.4868 16.3175L16.422 16.9688L17.6659 17.0925ZM17.7306 16.4413L18.8626 16.9715L19.1696 16.3161L18.0376 15.7859L16.9056 15.2557L16.5987 15.9111L17.7306 16.4413ZM18.0376 15.7859L19.0591 15.0655L18.6061 14.423L17.5845 15.1435L16.563 15.8639L17.0161 16.5063L18.0376 15.7859ZM17.5845 15.1435L18.8102 15.389L18.941 14.7362L17.7153 14.4907L16.4897 14.2451L16.3589 14.898L17.5845 15.1435ZM17.7153 14.4907L18.9157 14.142L18.7278 13.4952L17.5274 13.8439L16.3271 14.1926L16.5149 14.8393L17.7153 14.4907ZM17.5274 13.8439L18.6544 14.3847L18.9692 13.7287L17.8422 13.188L16.7152 12.6472L16.4005 13.3032L17.5274 13.8439ZM17.8422 13.188L19.0749 12.9811L18.9664 12.3341L17.7336 12.541L16.5008 12.7479L16.6094 13.3949L17.8422 13.188ZM17.7336 12.541L18.7351 11.793L18.4458 11.4056L17.4443 12.1536L16.4428 12.9016L16.7321 13.289L17.7336 12.541ZM17.4443 12.1536L17.2492 10.9189L16.6023 11.0211L16.7974 12.2558L16.9925 13.4905L17.6394 13.3883L17.4443 12.1536ZM16.7974 12.2558L17.6003 11.2978L16.9838 10.7811L16.1809 11.7391L15.3779 12.6972L15.9944 13.2138L16.7974 12.2558ZM16.1809 11.7391L15.5207 10.6777L14.8382 11.1022L15.4983 12.1636L16.1585 13.2251L16.841 12.8006L16.1809 11.7391ZM15.4983 12.1636L16.0503 11.0421L15.4225 10.7331L14.8705 11.8546L14.3185 12.9761L14.9464 13.2851L15.4983 12.1636ZM14.8705 11.8546L14.7556 10.6099L14.0856 10.6718L14.2006 11.9165L14.3155 13.1612L14.9854 13.0993L14.8705 11.8546ZM14.2006 11.9165L15.0384 10.9888L14.4802 10.4847L13.6424 11.4124L12.8046 12.3401L13.3628 12.8441L14.2006 11.9165ZM13.6424 11.4124L13.1864 10.2486L12.4221 10.548L12.8781 11.7119L13.3341 12.8757L14.0984 12.5763L13.6424 11.4124ZM12.8781 11.7119L13.5605 10.6646L12.9879 10.2914L12.3054 11.3387L11.623 12.386L12.1957 12.7592L12.8781 11.7119ZM12.3054 11.3387L12.9676 10.2785L12.4055 9.92747L11.7434 10.9877L11.0813 12.0479L11.6433 12.3989L12.3054 11.3387ZM11.7434 10.9877L12.3531 9.89649L11.7762 9.57414L11.1665 10.6654L10.5568 11.7566L11.1337 12.0789L11.7434 10.9877ZM11.1665 10.6654L12.3118 10.1647L12.0207 9.49879L10.8754 9.99949L9.73006 10.5002L10.0212 11.1661L11.1665 10.6654ZM10.8754 9.99949L11.3514 8.84367L10.7138 8.58109L10.2378 9.7369L9.7618 10.8927L10.3994 11.1553L10.8754 9.99949ZM10.2378 9.7369L11.3098 9.09397L10.9695 8.52652L9.89748 9.16945L8.8255 9.81239L9.16584 10.3798L10.2378 9.7369ZM9.89748 9.16945L11.1149 9.45286L11.2741 8.76928L10.0566 8.48587L8.83916 8.20246L8.68003 8.88605L9.89748 9.16945ZM10.0566 8.48587L11.0606 7.74128L10.6087 7.13184L9.60465 7.87642L8.60061 8.62101L9.05257 9.23046L10.0566 8.48587ZM9.60465 7.87642L10.8257 8.14381L10.9691 7.4892L9.74799 7.22182L8.52692 6.95444L8.38358 7.60904L9.60465 7.87642ZM9.74799 7.22182L10.9306 7.62664L11.1455 6.9989L9.96286 6.59409L8.78022 6.18928L8.56535 6.81701L9.74799 7.22182ZM9.96286 6.59409L11.1987 6.40632L11.096 5.73069L9.8602 5.91846L8.62439 6.10623L8.72704 6.78186L9.96286 6.59409ZM9.8602 5.91846L11.0774 6.20284L11.2273 5.56152L10.01 5.27714L8.79281 4.99276L8.64298 5.63409L9.8602 5.91846ZM10.01 5.27714L10.7285 6.30004L11.2875 5.90742L10.569 4.88452L9.85058 3.86162L9.29158 4.25424L10.01 5.27714ZM10.569 4.88452L11.7839 5.17871L11.9684 4.41709L10.7535 4.12289L9.53858 3.8287L9.35415 4.59033L10.569 4.88452ZM10.7535 4.12289L10.6295 5.36674L11.4152 5.44501L11.5392 4.20117L11.6631 2.95733L10.8774 2.87905L10.7535 4.12289ZM11.5392 4.20117L12.2038 5.25983L12.7564 4.9129L12.0918 3.85424L11.4271 2.79558L10.8745 3.14251L11.5392 4.20117ZM12.0918 3.85424L13.1739 4.47995L13.5564 3.81842L12.4743 3.19271L11.3922 2.567L11.0096 3.22853L12.0918 3.85424ZM12.4743 3.19271L13.0548 4.29975L13.6381 3.99388L13.0576 2.88684L12.4771 1.7798L11.8938 2.08567L12.4743 3.19271ZM13.0576 2.88684L12.9592 4.13297L13.7178 4.19284L13.8162 2.94671L13.9145 1.70058L13.1559 1.64072L13.0576 2.88684ZM13.8162 2.94671L14.5806 3.93571L15.1067 3.52907L14.3422 2.54007L13.5778 1.55107L13.0517 1.95771L13.8162 2.94671ZM14.3422 2.54007L14.8438 3.68502L15.4395 3.42407L14.9379 2.27912L14.4363 1.13418L13.8407 1.39512L14.3422 2.54007ZM14.9379 2.27912L15.2332 3.49374L15.8682 3.33935L15.5729 2.12474L15.2776 0.910121L14.6426 1.06451L14.9379 2.27912ZM15.5729 2.12474L15.8461 3.34451L16.4793 3.2027L16.206 1.98292L15.9328 0.763145L15.2997 0.904962L15.5729 2.12474ZM16.206 1.98292L16.3482 3.22481L16.9845 3.15197L16.8423 1.91008L16.7001 0.668194L16.0639 0.741032L16.206 1.98292ZM16.8423 1.91008L17.5753 2.92259L18.1702 2.49191L17.4372 1.4794L16.7041 0.466902L16.1093 0.897581L16.8423 1.91008ZM17.4372 1.4794L17.2486 2.7151L17.908 2.81572L18.0966 1.58003L18.2851 0.344335L17.6257 0.243709L17.4372 1.4794ZM18.0966 1.58003L18.5154 2.75778L19.1634 2.52735L18.7446 1.34959L18.3258 0.171844L17.6778 0.402278L18.0966 1.58003ZM18.7446 1.34959L18.2154 2.48204L18.8684 2.7872L19.3976 1.65476L19.9268 0.522313L19.2738 0.217152L18.7446 1.34959ZM19.3976 1.65476L19.5405 2.89656L20.1903 2.82178L20.0474 1.57997L19.9045 0.338168L19.2547 0.412952L19.3976 1.65476ZM20.0474 1.57997L20.0482 2.82997L20.6983 2.82956L20.6975 1.57956L20.6967 0.329559L20.0466 0.329972L20.0474 1.57997ZM20.6975 1.57956L20.9351 2.80676L21.5865 2.68063L21.3489 1.45343L21.1112 0.226223L20.4599 0.352356L20.6975 1.57956ZM21.3489 1.45343L21.236 2.69832L21.8863 2.75727L21.9991 1.51238L22.112 0.267483L21.4617 0.208531L21.3489 1.45343ZM21.9991 1.51238L21.841 2.75233L22.4923 2.83539L22.6504 1.59544L22.8085 0.355481L22.1573 0.272421L21.9991 1.51238ZM22.6504 1.59544L22.4547 2.83002L23.0989 2.93215L23.2946 1.69757L23.4903 0.462983L22.8461 0.360855L22.6504 1.59544ZM23.2946 1.69757L23.2527 2.94686L23.9123 2.969L23.9542 1.7197L23.9961 0.470402L23.3365 0.448269L23.2946 1.69757ZM23.9542 1.7197L23.8291 2.96342L24.4887 3.02979L24.6138 1.78606L24.739 0.542344L24.0793 0.475978L23.9542 1.7197ZM24.6138 1.78606L24.2425 2.97965L24.8688 3.17445L25.24 1.98086L25.6113 0.787277L24.9851 0.59248L24.6138 1.78606ZM25.24 1.98086L24.7756 3.14137L25.3877 3.38634L25.8521 2.22583L26.3166 1.06532L25.7045 0.820351L25.24 1.98086ZM25.8521 2.22583L24.9294 3.0691L25.4132 3.5984L26.3359 2.75514L27.2586 1.91187L26.7748 1.38256L25.8521 2.22583ZM26.3359 2.75514L25.8772 3.91795L26.4707 4.15205L26.9294 2.98923L27.388 1.82642L26.7945 1.59232L26.3359 2.75514ZM26.9294 2.98923L26.7139 4.22052L27.4112 4.34257L27.6267 3.11129L27.8422 1.88001L27.1449 1.75795L26.9294 2.98923ZM27.6267 3.11129L26.8552 4.09481L27.3779 4.50483L28.1494 3.52131L28.9209 2.5378L28.3982 2.12777L27.6267 3.11129ZM28.1494 3.52131L27.0697 4.15107L27.4135 4.74059L28.4933 4.11083L29.573 3.48108L29.2292 2.89156L28.1494 3.52131ZM28.4933 4.11083L27.4716 4.83113L27.8468 5.3632L28.8684 4.6429L29.89 3.92261L29.5149 3.39054L28.4933 4.11083ZM28.8684 4.6429L27.8352 5.34654L28.192 5.87038L29.2252 5.16675L30.2583 4.46311L29.9015 3.93927L28.8684 4.6429ZM29.2252 5.16675L28.0666 5.636L28.2933 6.19576L29.4519 5.72651L30.6105 5.25726L30.3837 4.6975L29.2252 5.16675ZM29.4519 5.72651L28.2839 6.17179L28.5038 6.74862L29.6718 6.30334L30.8398 5.85806L30.6199 5.28123L29.4519 5.72651ZM29.6718 6.30334L28.422 6.28053L28.4104 6.91638L29.6602 6.93919L30.91 6.962L30.9216 6.32615L29.6718 6.30334ZM29.6602 6.93919L28.4349 6.69161L28.3046 7.33658L29.5299 7.58416L30.7551 7.83173L30.8854 7.18677L29.6602 6.93919ZM29.5299 7.58416L28.3585 8.02044L28.6056 8.68385L29.7769 8.24757L30.9483 7.81129L30.7012 7.14787L29.5299 7.58416ZM29.7769 8.24757L28.5487 8.01518L28.4183 8.70436L29.6465 8.93675L30.8748 9.16914L31.0052 8.47996L29.7769 8.24757ZM29.6465 8.93675L28.796 8.02077L28.2931 8.48775L29.1437 9.40373L29.9942 10.3197L30.4971 9.85272L29.6465 8.93675ZM29.1437 9.40373L28.2831 8.49713L27.8072 8.94889L28.6677 9.8555L29.5283 10.7621L30.0042 10.3103L29.1437 9.40373ZM28.6677 9.8555L27.7626 8.99336L27.309 9.46956L28.2141 10.3317L29.1192 11.1938L29.5728 10.7176L28.6677 9.8555ZM28.2141 10.3317L27.4677 9.329L26.9365 9.72441L27.6829 10.7271L28.4293 11.7298L28.9605 11.3344L28.2141 10.3317ZM27.6829 10.7271L27.5144 9.48852L26.8148 9.58374L26.9834 10.8223L27.1519 12.0609L27.8515 11.9657L27.6829 10.7271ZM26.9834 10.8223L26.0447 9.99688L25.589 10.515L26.5277 11.3405L27.4664 12.1659L27.9221 11.6478L26.9834 10.8223ZM26.5277 11.3405L26.0507 10.1851L25.4471 10.4343L25.9241 11.5897L26.4011 12.7451L27.0047 12.4959L26.5277 11.3405ZM25.9241 11.5897L25.3435 10.4827L24.7671 10.7851L25.3478 11.892L25.9285 12.9989L26.5048 12.6966L25.9241 11.5897ZM25.3478 11.892L24.8894 10.7291L24.2832 10.9681L24.7417 12.131L25.2001 13.2938L25.8062 13.0549L25.3478 11.892ZM24.7417 12.131L24.5713 10.8926L23.9029 10.9846L24.0733 12.2229L24.2437 13.4613L24.9121 13.3693L24.7417 12.131ZM24.0733 12.2229L23.0093 11.5669L22.5909 12.2454L23.6549 12.9014L24.7189 13.5575L25.1373 12.879L24.0733 12.2229ZM23.6549 12.9014L23.9873 11.6964L23.1944 11.4777L22.8621 12.6827L22.5297 13.8877L23.3226 14.1064L23.6549 12.9014ZM22.8621 12.6827L22.36 11.538L21.7671 11.798L22.2691 12.9428L22.7711 14.0875L23.3641 13.8275L22.8621 12.6827ZM22.2691 12.9428L21.4683 11.983L20.9412 12.4227L21.7421 13.3825L22.5429 14.3423L23.0699 13.9026L22.2691 12.9428ZM21.7421 13.3825L21.1453 12.2842L20.547 12.6092L21.1438 13.7076L21.7406 14.8059L22.3389 14.4808L21.7421 13.3825ZM21.1438 13.7076L20.9095 12.4797L20.2668 12.6024L20.5011 13.8302L20.7354 15.0581L21.3781 14.9354L21.1438 13.7076ZM20.5011 13.8302L20.238 12.6082L19.596 12.7465L19.8592 13.9684L20.1223 15.1904L20.7642 15.0522L20.5011 13.8302ZM19.8592 13.9684L20.4033 12.8431L19.7012 12.5036L19.157 13.6289L18.6129 14.7543L19.315 15.0938L19.8592 13.9684ZM19.157 13.6289L18.7334 12.4529L18.1073 12.6784L18.5309 13.8545L18.9545 15.0305L19.5806 14.805L19.157 13.6289ZM18.5309 13.8545L18.6712 12.6124L18.0236 12.5392L17.8833 13.7813L17.743 15.0234L18.3906 15.0966L18.5309 13.8545ZM17.8833 13.7813L17.6531 12.5527L17.006 12.6739L17.2363 13.9025L17.4665 15.1312L18.1135 15.0099L17.8833 13.7813ZM17.2363 13.9025L17.6292 12.7159L17.0245 12.5156L16.6315 13.7023L16.2386 14.8889L16.8433 15.0892L17.2363 13.9025ZM16.6315 13.7023L17.0843 12.5372L16.5566 12.3321L16.1038 13.4972L15.6509 14.6623L16.1787 14.8674L16.6315 13.7023ZM16.1038 13.4972L16.5425 14.6676L16.7563 14.5875L16.3175 13.417L15.8787 12.2466L15.665 12.3267L16.1038 13.4972Z" fill="black"/>
</svg>
