<svg width="41" height="39" viewBox="0 0 41 39" fill="none" xmlns="http://www.w3.org/2000/svg">
<path d="M1.1652 20.3006C0.476439 20.3475 -0.0439274 20.9438 0.00293136 21.6326C0.0497903 22.3213 0.64613 22.8417 1.33489 22.7949L1.25005 21.5477L1.1652 20.3006ZM1.34982 21.5409L1.43466 22.7881L1.53242 22.7814L1.62795 22.7596L1.34982 21.5409ZM1.88865 21.418L2.35526 20.2583L1.99213 20.1122L1.61051 20.1993L1.88865 21.418ZM2.54637 21.6826L2.07976 22.8423L2.57069 23.0398L3.05424 22.8248L2.54637 21.6826ZM3.18735 21.3976L2.92153 20.1762L2.79645 20.2034L2.67948 20.2554L3.18735 21.3976ZM3.82853 21.2581L4.14299 20.0483L3.85423 19.9732L3.56271 20.0367L3.82853 21.2581ZM4.48836 21.4296L4.17391 22.6394L4.35947 22.6876L4.55096 22.678L4.48836 21.4296ZM5.13933 21.3969L5.20193 22.6454L5.39645 22.6356L5.57878 22.5671L5.13933 21.3969ZM5.77277 21.1591L5.82497 19.9101L5.57115 19.8995L5.33332 19.9888L5.77277 21.1591ZM6.4264 21.1864L6.88662 20.0242L6.68995 19.9463L6.4786 19.9375L6.4264 21.1864ZM7.09933 21.4529L6.6391 22.615L7.3172 22.8836L7.88463 22.4254L7.09933 21.4529ZM7.70985 20.9599L7.87321 19.7206L7.34167 19.6505L6.92454 19.9873L7.70985 20.9599ZM8.37135 21.0471L8.20799 22.2863L8.513 22.3265L8.80183 22.2206L8.37135 21.0471ZM9.00119 20.816L9.46393 19.6548L9.01968 19.4778L8.57071 19.6425L9.00119 20.816ZM9.67736 21.0855L9.21462 22.2467L9.57646 22.3909L9.95616 22.304L9.67736 21.0855ZM10.3182 20.9388L10.04 19.7202L10.0394 19.7203L10.3182 20.9388ZM10.9581 20.7928L11.2363 22.0114L11.3102 21.9946L11.3816 21.9689L10.9581 20.7928ZM11.5884 20.5659L12.2277 19.4918L11.7204 19.1898L11.1649 19.3898L11.5884 20.5659ZM12.2801 20.9776L11.6407 22.0518L12.425 22.5186L13.1085 21.9137L12.2801 20.9776ZM12.8816 20.4453L13.2203 19.2421L12.5639 19.0573L12.0532 19.5092L12.8816 20.4453ZM13.5532 20.6344L13.2145 21.8376L13.5819 21.941L13.9443 21.8216L13.5532 20.6344ZM14.1862 20.4259L14.7127 19.2922L14.2645 19.0841L13.7951 19.2387L14.1862 20.4259ZM14.8719 20.7444L14.3454 21.8781L15.1123 22.2342L15.7283 21.6549L14.8719 20.7444ZM15.4691 20.1827L15.6089 18.9405L15.0341 18.8758L14.6127 19.2721L15.4691 20.1827ZM16.1287 20.2569L15.9889 21.4991L16.0668 21.5078L16.1451 21.5068L16.1287 20.2569ZM16.7804 20.2484L16.7968 21.4983L16.8959 21.497L16.9936 21.4801L16.7804 20.2484ZM17.4221 20.1373L17.8757 18.9725L17.5516 18.8463L17.2089 18.9056L17.4221 20.1373ZM18.1034 20.4026L17.6498 21.5674L18.1674 21.769L18.6639 21.5199L18.1034 20.4026ZM18.7253 20.0906L18.5556 18.8522L18.3502 18.8803L18.1648 18.9733L18.7253 20.0906ZM19.3703 20.0022L19.7796 18.8211L19.4969 18.7232L19.2006 18.7638L19.3703 20.0022ZM20.0476 20.2368L19.6384 21.418L20.2805 21.6404L20.8163 21.2225L20.0476 20.2368ZM20.6509 19.7663L20.7676 18.5217L20.2735 18.4754L19.8822 18.7806L20.6509 19.7663ZM21.3118 19.8282L21.4669 18.5879L21.4477 18.5855L21.4284 18.5837L21.3118 19.8282ZM21.9758 19.9113L21.8207 21.1516L22.1742 21.1958L22.4978 21.047L21.9758 19.9113ZM22.5974 19.6256L22.4279 18.3871L22.244 18.4123L22.0754 18.4898L22.5974 19.6256ZM23.2414 19.5374L23.7306 18.3872L23.4134 18.2522L23.0718 18.299L23.2414 19.5374ZM23.9278 19.8294L23.4386 20.9797L24.1869 21.298L24.7811 20.7429L23.9278 19.8294ZM24.5213 19.2751L25.1085 18.1716L24.3204 17.7522L23.668 18.3616L24.5213 19.2751ZM25.215 19.6442L24.6279 20.7477L25.0338 20.9637L25.4828 20.8652L25.215 19.6442ZM25.8539 19.5041L26.1217 20.725L26.4056 20.6628L26.6329 20.4816L25.8539 19.5041ZM26.4557 19.0245L26.3354 17.7803L25.9665 17.816L25.6767 18.0469L26.4557 19.0245ZM27.1015 18.9621L27.625 17.8269L27.3179 17.6853L26.9813 17.7179L27.1015 18.9621ZM27.7913 19.2801L27.2678 20.4152L27.7296 20.6282L28.2089 20.4583L27.7913 19.2801ZM28.4213 19.0568L28.2534 17.8181L28.1254 17.8355L28.0036 17.8786L28.4213 19.0568ZM29.0647 18.9696L29.0637 17.7196L28.9799 17.7197L28.8969 17.7309L29.0647 18.9696ZM29.7188 18.9691L29.7198 20.2191L29.7363 20.2191L29.7528 20.2186L29.7188 18.9691ZM30.3719 18.9513L30.4031 17.7017L30.3705 17.7009L30.3379 17.7018L30.3719 18.9513ZM31.0274 18.9677L30.9962 20.2173L31.4128 20.2278L31.7522 19.9861L31.0274 18.9677ZM31.6322 18.5373L31.7383 17.2918L31.2812 17.2529L30.9074 17.5189L31.6322 18.5373ZM32.2938 18.5936L32.1877 19.8391L32.5216 19.8675L32.8249 19.7252L32.2938 18.5936ZM32.9137 18.3026L33.3156 17.119L32.8386 16.957L32.3825 17.1711L32.9137 18.3026ZM33.5951 18.534L33.1931 19.7177L33.534 19.8334L33.8843 19.7501L33.5951 18.534ZM34.2323 18.3825L34.0769 17.1422L34.0093 17.1507L33.9431 17.1664L34.2323 18.3825ZM34.8768 18.3018L35.0322 19.5421L35.1524 19.527L35.2676 19.4891L34.8768 18.3018ZM35.507 18.0944L35.4603 16.8452L35.2839 16.8518L35.1162 16.907L35.507 18.0944ZM36.1588 18.07L36.1171 16.8207L36.1121 16.8209L36.1588 18.07ZM36.8105 18.0483L36.8522 19.2976L36.8751 19.2968L36.8979 19.2952L36.8105 18.0483ZM37.4599 18.0028L37.5473 19.2498L37.6674 19.2413L37.7838 19.2101L37.4599 18.0028ZM38.0941 17.8327L37.7794 16.6229L37.7703 16.6254L38.0941 17.8327ZM38.7288 17.6675L38.6182 16.4224L38.5146 16.4316L38.4141 16.4578L38.7288 17.6675ZM39.2931 17.6174L40.534 17.4669L40.3883 16.2651L39.1825 16.3723L39.2931 17.6174ZM38.073 17.9391C38.1561 18.6244 38.7791 19.1126 39.4644 19.0295C40.1497 18.9464 40.6379 18.3234 40.5548 17.6381L39.3139 17.7886L38.073 17.9391ZM1.25005 21.5477L1.33489 22.7949L1.43466 22.7881L1.34982 21.5409L1.26497 20.2938L1.1652 20.3006L1.25005 21.5477ZM1.34982 21.5409L1.62795 22.7596L2.16678 22.6366L1.88865 21.418L1.61051 20.1993L1.07168 20.3223L1.34982 21.5409ZM1.88865 21.418L1.42204 22.5776L2.07976 22.8423L2.54637 21.6826L3.01298 20.523L2.35526 20.2583L1.88865 21.418ZM2.54637 21.6826L3.05424 22.8248L3.69522 22.5398L3.18735 21.3976L2.67948 20.2554L2.0385 20.5404L2.54637 21.6826ZM3.18735 21.3976L3.45317 22.619L4.09435 22.4795L3.82853 21.2581L3.56271 20.0367L2.92153 20.1762L3.18735 21.3976ZM3.82853 21.2581L3.51407 22.4679L4.17391 22.6394L4.48836 21.4296L4.80282 20.2198L4.14299 20.0483L3.82853 21.2581ZM4.48836 21.4296L4.55096 22.678L5.20193 22.6454L5.13933 21.3969L5.07674 20.1485L4.42577 20.1811L4.48836 21.4296ZM5.13933 21.3969L5.57878 22.5671L6.21221 22.3293L5.77277 21.1591L5.33332 19.9888L4.69989 20.2267L5.13933 21.3969ZM5.77277 21.1591L5.72057 22.408L6.3742 22.4353L6.4264 21.1864L6.4786 19.9375L5.82497 19.9101L5.77277 21.1591ZM6.4264 21.1864L5.96618 22.3486L6.6391 22.615L7.09933 21.4529L7.55955 20.2907L6.88662 20.0242L6.4264 21.1864ZM7.09933 21.4529L7.88463 22.4254L8.49516 21.9324L7.70985 20.9599L6.92454 19.9873L6.31402 20.4803L7.09933 21.4529ZM7.70985 20.9599L7.54648 22.1991L8.20799 22.2863L8.37135 21.0471L8.53472 19.8078L7.87321 19.7206L7.70985 20.9599ZM8.37135 21.0471L8.80183 22.2206L9.43167 21.9896L9.00119 20.816L8.57071 19.6425L7.94087 19.8735L8.37135 21.0471ZM9.00119 20.816L8.53845 21.9772L9.21462 22.2467L9.67736 21.0855L10.1401 19.9243L9.46393 19.6548L9.00119 20.816ZM9.67736 21.0855L9.95616 22.304L10.597 22.1574L10.3182 20.9388L10.0394 19.7203L9.39856 19.867L9.67736 21.0855ZM10.3182 20.9388L10.5964 22.1575L11.2363 22.0114L10.9581 20.7928L10.68 19.5741L10.04 19.7202L10.3182 20.9388ZM10.9581 20.7928L11.3816 21.9689L12.0118 21.742L11.5884 20.5659L11.1649 19.3898L10.5347 19.6167L10.9581 20.7928ZM11.5884 20.5659L10.949 21.64L11.6407 22.0518L12.2801 20.9776L12.9195 19.9035L12.2277 19.4918L11.5884 20.5659ZM12.2801 20.9776L13.1085 21.9137L13.71 21.3814L12.8816 20.4453L12.0532 19.5092L11.4517 20.0415L12.2801 20.9776ZM12.8816 20.4453L12.5429 21.6486L13.2145 21.8376L13.5532 20.6344L13.892 19.4312L13.2203 19.2421L12.8816 20.4453ZM13.5532 20.6344L13.9443 21.8216L14.5772 21.6132L14.1862 20.4259L13.7951 19.2387L13.1622 19.4471L13.5532 20.6344ZM14.1862 20.4259L13.6597 21.5596L14.3454 21.8781L14.8719 20.7444L15.3984 19.6107L14.7127 19.2922L14.1862 20.4259ZM14.8719 20.7444L15.7283 21.6549L16.3255 21.0932L15.4691 20.1827L14.6127 19.2721L14.0155 19.8338L14.8719 20.7444ZM15.4691 20.1827L15.3293 21.4248L15.9889 21.4991L16.1287 20.2569L16.2685 19.0148L15.6089 18.9405L15.4691 20.1827ZM16.1287 20.2569L16.1451 21.5068L16.7968 21.4983L16.7804 20.2484L16.764 18.9985L16.1123 19.007L16.1287 20.2569ZM16.7804 20.2484L16.9936 21.4801L17.6353 21.369L17.4221 20.1373L17.2089 18.9056L16.5673 19.0167L16.7804 20.2484ZM17.4221 20.1373L16.9685 21.3021L17.6498 21.5674L18.1034 20.4026L18.557 19.2378L17.8757 18.9725L17.4221 20.1373ZM18.1034 20.4026L18.6639 21.5199L19.2858 21.2079L18.7253 20.0906L18.1648 18.9733L17.5429 19.2853L18.1034 20.4026ZM18.7253 20.0906L18.8951 21.329L19.5401 21.2406L19.3703 20.0022L19.2006 18.7638L18.5556 18.8522L18.7253 20.0906ZM19.3703 20.0022L18.9611 21.1833L19.6384 21.418L20.0476 20.2368L20.4568 19.0557L19.7796 18.8211L19.3703 20.0022ZM20.0476 20.2368L20.8163 21.2225L21.4197 20.752L20.6509 19.7663L19.8822 18.7806L19.2789 19.2512L20.0476 20.2368ZM20.6509 19.7663L20.5343 21.0108L21.1951 21.0728L21.3118 19.8282L21.4284 18.5837L20.7676 18.5217L20.6509 19.7663ZM21.3118 19.8282L21.1567 21.0686L21.8207 21.1516L21.9758 19.9113L22.1309 18.6709L21.4669 18.5879L21.3118 19.8282ZM21.9758 19.9113L22.4978 21.047L23.1194 20.7614L22.5974 19.6256L22.0754 18.4898L21.4538 18.7755L21.9758 19.9113ZM22.5974 19.6256L22.7669 20.864L23.4109 20.7759L23.2414 19.5374L23.0718 18.299L22.4279 18.3871L22.5974 19.6256ZM23.2414 19.5374L22.7521 20.6877L23.4386 20.9797L23.9278 19.8294L24.4171 18.6792L23.7306 18.3872L23.2414 19.5374ZM23.9278 19.8294L24.7811 20.7429L25.3746 20.1885L24.5213 19.2751L23.668 18.3616L23.0746 18.916L23.9278 19.8294ZM24.5213 19.2751L23.9341 20.3786L24.6279 20.7477L25.215 19.6442L25.8022 18.5407L25.1085 18.1716L24.5213 19.2751ZM25.215 19.6442L25.4828 20.8652L26.1217 20.725L25.8539 19.5041L25.5861 18.2831L24.9472 18.4232L25.215 19.6442ZM25.8539 19.5041L26.6329 20.4816L27.2347 20.0021L26.4557 19.0245L25.6767 18.0469L25.0749 18.5265L25.8539 19.5041ZM26.4557 19.0245L26.576 20.2687L27.2218 20.2063L27.1015 18.9621L26.9813 17.7179L26.3354 17.7803L26.4557 19.0245ZM27.1015 18.9621L26.5781 20.0972L27.2678 20.4152L27.7913 19.2801L28.3147 18.145L27.625 17.8269L27.1015 18.9621ZM27.7913 19.2801L28.2089 20.4583L28.8389 20.235L28.4213 19.0568L28.0036 17.8786L27.3736 18.1019L27.7913 19.2801ZM28.4213 19.0568L28.5891 20.2955L29.2326 20.2083L29.0647 18.9696L28.8969 17.7309L28.2534 17.8181L28.4213 19.0568ZM29.0647 18.9696L29.0657 20.2196L29.7198 20.2191L29.7188 18.9691L29.7178 17.7191L29.0637 17.7196L29.0647 18.9696ZM29.7188 18.9691L29.7528 20.2186L30.4058 20.2009L30.3719 18.9513L30.3379 17.7018L29.6849 17.7196L29.7188 18.9691ZM30.3719 18.9513L30.3407 20.201L30.9962 20.2173L31.0274 18.9677L31.0587 17.7181L30.4031 17.7017L30.3719 18.9513ZM31.0274 18.9677L31.7522 19.9861L32.357 19.5557L31.6322 18.5373L30.9074 17.5189L30.3026 17.9493L31.0274 18.9677ZM31.6322 18.5373L31.5262 19.7828L32.1877 19.8391L32.2938 18.5936L32.3998 17.3481L31.7383 17.2918L31.6322 18.5373ZM32.2938 18.5936L32.8249 19.7252L33.4448 19.4342L32.9137 18.3026L32.3825 17.1711L31.7626 17.4621L32.2938 18.5936ZM32.9137 18.3026L32.5117 19.4862L33.1931 19.7177L33.5951 18.534L33.997 17.3504L33.3156 17.119L32.9137 18.3026ZM33.5951 18.534L33.8843 19.7501L34.5215 19.5986L34.2323 18.3825L33.9431 17.1664L33.3059 17.318L33.5951 18.534ZM34.2323 18.3825L34.3876 19.6228L35.0322 19.5421L34.8768 18.3018L34.7214 17.0615L34.0769 17.1422L34.2323 18.3825ZM34.8768 18.3018L35.2676 19.4891L35.8978 19.2817L35.507 18.0944L35.1162 16.907L34.486 17.1144L34.8768 18.3018ZM35.507 18.0944L35.5536 19.3435L36.2054 19.3192L36.1588 18.07L36.1121 16.8209L35.4603 16.8452L35.507 18.0944ZM36.1588 18.07L36.2004 19.3193L36.8522 19.2976L36.8105 18.0483L36.7689 16.799L36.1171 16.8207L36.1588 18.07ZM36.8105 18.0483L36.8979 19.2952L37.5473 19.2498L37.4599 18.0028L37.3726 16.7559L36.7232 16.8014L36.8105 18.0483ZM37.4599 18.0028L37.7838 19.2101L38.418 19.04L38.0941 17.8327L37.7703 16.6254L37.136 16.7955L37.4599 18.0028ZM38.0941 17.8327L38.4089 19.0424L39.0436 18.8773L38.7288 17.6675L38.4141 16.4578L37.7794 16.623L38.0941 17.8327ZM38.7288 17.6675L38.8395 18.9126L39.4038 18.8625L39.2931 17.6174L39.1825 16.3723L38.6182 16.4224L38.7288 17.6675ZM39.2931 17.6174L38.0522 17.7679L38.073 17.9391L39.3139 17.7886L40.5548 17.6381L40.534 17.4669L39.2931 17.6174Z" fill="black"/>
<path d="M8.10508 2.02868C7.60761 1.55003 6.8163 1.56529 6.33764 2.06276C5.85899 2.56024 5.87425 3.35155 6.37172 3.8302L7.2384 2.92944L8.10508 2.02868ZM7.31046 2.99878L6.44378 3.89954L6.56643 4.01754L6.71616 4.09846L7.31046 2.99878ZM7.80594 3.26655L8.94524 2.75225L8.77157 2.36754L8.40024 2.16686L7.80594 3.26655ZM8.09794 3.91338L6.95864 4.42768L7.17066 4.89735L7.65208 5.08116L8.09794 3.91338ZM8.75126 4.16282L9.4451 3.12306L9.3283 3.04512L9.19712 2.99504L8.75126 4.16282ZM9.29917 4.52845L10.3951 3.92724L10.2478 3.6587L9.99301 3.48869L9.29917 4.52845ZM9.62784 5.12757L8.53192 5.72877L8.62073 5.89067L8.75256 6.01997L9.62784 5.12757ZM10.0913 5.58217L9.21606 6.47457L9.35092 6.60684L9.51884 6.69336L10.0913 5.58217ZM10.6951 5.89322L11.6608 5.09961L11.497 4.90023L11.2676 4.78203L10.6951 5.89322ZM11.1106 6.3989L12.2879 5.97875L12.2147 5.77359L12.0764 5.60529L11.1106 6.3989ZM11.3541 7.08126L10.1769 7.50141L10.4194 8.18114L11.1294 8.31089L11.3541 7.08126ZM12.1261 7.22236L13.1766 6.54485L12.8833 6.09004L12.3509 5.99273L12.1261 7.22236ZM12.4874 7.7825L11.4369 8.46001L11.6013 8.71477L11.864 8.86596L12.4874 7.7825ZM13.0725 8.11917L14.2608 7.73127L14.1119 7.27506L13.6959 7.03572L13.0725 8.11917ZM13.2986 8.8115L12.1103 9.1994L12.2304 9.5675L12.5376 9.80321L13.2986 8.8115ZM13.8185 9.21042L14.583 8.22149L14.5794 8.21871L13.8185 9.21042ZM14.3371 9.61141L13.5726 10.6003L13.6311 10.6455L13.6945 10.6835L14.3371 9.61141ZM14.9128 9.9565L16.1493 9.77301L16.0625 9.18829L15.5555 8.88437L14.9128 9.9565ZM15.0311 10.7532L13.7946 10.9367L13.9283 11.8376L14.8268 11.9864L15.0311 10.7532ZM15.8237 10.8845L16.9716 10.3898L16.7014 9.76288L16.0279 9.65133L15.8237 10.8845ZM16.0998 11.5254L14.9519 12.0201L15.1027 12.37L15.4231 12.5763L16.0998 11.5254ZM16.6599 11.886L17.8727 11.583L17.7527 11.1029L17.3366 10.835L16.6599 11.886ZM16.8431 12.619L15.6304 12.9221L15.8354 13.7427L16.6735 13.8575L16.8431 12.619ZM17.6551 12.7302L18.7088 12.0577L18.3977 11.5702L17.8247 11.4918L17.6551 12.7302ZM18.0129 13.2908L16.9592 13.9633L17.0014 14.0293L17.0514 14.0896L18.0129 13.2908ZM18.4299 13.7927L17.4685 14.5915L17.5319 14.6679L17.6067 14.7333L18.4299 13.7927ZM18.9202 14.2218L20.1107 13.8408L20.0048 13.51L19.7435 13.2812L18.9202 14.2218ZM19.1431 14.9181L17.9526 15.2991L18.1222 15.8291L18.6296 16.0577L19.1431 14.9181ZM19.7768 15.2036L20.6301 14.2901L20.4789 14.1489L20.2903 14.064L19.7768 15.2036ZM20.2521 15.6475L21.4255 15.2166L21.3228 14.9372L21.1053 14.734L20.2521 15.6475ZM20.4995 16.3214L19.3262 16.7523L19.5605 17.3906L20.2237 17.5406L20.4995 16.3214ZM21.2462 16.4904L22.2817 15.7902L22.0046 15.3803L21.522 15.2712L21.2462 16.4904ZM21.6177 17.0397L22.673 16.3698L22.6633 16.3545L22.6532 16.3395L21.6177 17.0397ZM21.9757 17.6038L20.9204 18.2737L21.112 18.5757L21.4344 18.7305L21.9757 17.6038ZM22.5937 17.9007L23.4357 16.9768L23.3002 16.8533L23.135 16.774L22.5937 17.9007ZM23.0741 18.3386L24.2696 17.9733L24.1694 17.6455L23.9161 17.4147L23.0741 18.3386ZM23.292 19.0517L22.0966 19.417L22.3353 20.1981L23.1465 20.2932L23.292 19.0517ZM24.0985 19.1462L25.3188 18.8753L25.1263 18.0081L24.244 17.9047L24.0985 19.1462ZM24.2689 19.914L23.0486 20.1849L23.1489 20.6366L23.5191 20.9142L24.2689 19.914ZM24.7926 20.3066L24.0429 21.3068L24.2787 21.4836L24.5687 21.5364L24.7926 20.3066ZM25.5483 20.4442L26.403 19.532L26.1343 19.2803L25.7722 19.2144L25.5483 20.4442ZM26.0222 20.8882L27.2183 20.5251L27.1211 20.2048L26.8768 19.976L26.0222 20.8882ZM26.2429 21.6152L25.0468 21.9783L25.1955 22.4684L25.6454 22.7132L26.2429 21.6152ZM26.8298 21.9346L27.6342 20.9778L27.5379 20.8968L27.4273 20.8366L26.8298 21.9346ZM27.3273 22.3529L28.2477 21.507L28.1933 21.4478L28.1317 21.3961L27.3273 22.3529ZM27.7694 22.8339L26.849 23.6797L26.8627 23.6946L26.8767 23.7089L27.7694 22.8339ZM28.2266 23.3004L29.1583 22.467L29.1393 22.4457L29.1193 22.4253L28.2266 23.3004ZM28.6653 23.7908L27.7336 24.6242L28.0144 24.938L28.4278 25.0181L28.6653 23.7908ZM29.3932 23.9317L30.3638 23.1441L30.0773 22.7909L29.6308 22.7045L29.3932 23.9317ZM29.8114 24.447L28.8408 25.2347L29.055 25.4987L29.3734 25.6178L29.8114 24.447ZM30.4516 24.6866L31.5755 24.1394L31.3571 23.6907L30.8896 23.5158L30.4516 24.6866ZM30.7668 25.3338L29.6429 25.881L29.8026 26.209L30.1137 26.3996L30.7668 25.3338ZM31.3245 25.6756L32.0824 24.6816L32.0319 24.6431L31.9777 24.6098L31.3245 25.6756ZM31.8406 26.0691L31.0827 27.0632L31.1831 27.1396L31.2966 27.1945L31.8406 26.0691ZM32.4372 26.3575L33.2647 25.4205L33.1359 25.3068L32.9812 25.232L32.4372 26.3575ZM32.9255 26.7887L32.098 27.7256L32.1017 27.7288L32.9255 26.7887ZM33.4165 27.2189L32.5927 28.159L32.6132 28.1771L32.6346 28.1942L33.4165 27.2189ZM33.9229 27.6249L33.141 28.6002L33.238 28.6779L33.3484 28.7351L33.9229 27.6249ZM34.506 27.9267L35.0866 26.8197L35.0805 26.8165L34.506 27.9267ZM35.0876 28.2317L35.8385 27.2324L35.7577 27.1717L35.6682 27.1248L35.0876 28.2317ZM35.6064 28.6216L36.7101 28.0348L36.5796 27.7893L36.3574 27.6223L35.6064 28.6216ZM35.91 29.1927L34.8063 29.7795L36.5995 33.1523L37.1471 29.3719L35.91 29.1927ZM37.1671 29.2338C37.2661 28.5506 36.7925 27.9165 36.1092 27.8175C35.426 27.7185 34.7919 28.1922 34.6929 28.8754L35.93 29.0546L37.1671 29.2338ZM7.2384 2.92944L6.37172 3.8302L6.44378 3.89954L7.31046 2.99878L8.17714 2.09802L8.10508 2.02868L7.2384 2.92944ZM7.31046 2.99878L6.71616 4.09846L7.21164 4.36623L7.80594 3.26655L8.40024 2.16686L7.90477 1.89909L7.31046 2.99878ZM7.80594 3.26655L6.66665 3.78085L6.95864 4.42768L8.09794 3.91338L9.23723 3.39908L8.94524 2.75225L7.80594 3.26655ZM8.09794 3.91338L7.65208 5.08116L8.3054 5.3306L8.75126 4.16282L9.19712 2.99504L8.54379 2.7456L8.09794 3.91338ZM8.75126 4.16282L8.05742 5.20257L8.60534 5.5682L9.29917 4.52845L9.99301 3.48869L9.4451 3.12306L8.75126 4.16282ZM9.29917 4.52845L8.20325 5.12965L8.53192 5.72877L9.62784 5.12757L10.7238 4.52636L10.3951 3.92724L9.29917 4.52845ZM9.62784 5.12757L8.75256 6.01997L9.21606 6.47457L10.0913 5.58217L10.9666 4.68977L10.5031 4.23517L9.62784 5.12757ZM10.0913 5.58217L9.51884 6.69336L10.1226 7.00441L10.6951 5.89322L11.2676 4.78203L10.6638 4.47098L10.0913 5.58217ZM10.6951 5.89322L9.72931 6.68683L10.1449 7.19251L11.1106 6.3989L12.0764 5.60529L11.6608 5.09961L10.6951 5.89322ZM11.1106 6.3989L9.93334 6.81905L10.1769 7.50141L11.3541 7.08126L12.5314 6.66111L12.2879 5.97875L11.1106 6.3989ZM11.3541 7.08126L11.1294 8.31089L11.9014 8.45199L12.1261 7.22236L12.3509 5.99273L11.5789 5.85163L11.3541 7.08126ZM12.1261 7.22236L11.0757 7.89987L11.4369 8.46001L12.4874 7.7825L13.5379 7.10499L13.1766 6.54485L12.1261 7.22236ZM12.4874 7.7825L11.864 8.86596L12.4492 9.20263L13.0725 8.11917L13.6959 7.03572L13.1108 6.69904L12.4874 7.7825ZM13.0725 8.11917L11.8843 8.50708L12.1103 9.1994L13.2986 8.8115L14.4868 8.42359L14.2608 7.73127L13.0725 8.11917ZM13.2986 8.8115L12.5376 9.80321L13.0575 10.2021L13.8185 9.21042L14.5794 8.21871L14.0595 7.81979L13.2986 8.8115ZM13.8185 9.21042L13.0539 10.1993L13.5726 10.6003L14.3371 9.61141L15.1017 8.62248L14.583 8.2215L13.8185 9.21042ZM14.3371 9.61141L13.6945 10.6835L14.2702 11.0286L14.9128 9.9565L15.5555 8.88437L14.9798 8.53927L14.3371 9.61141ZM14.9128 9.9565L13.6764 10.14L13.7946 10.9367L15.0311 10.7532L16.2675 10.5698L16.1493 9.77301L14.9128 9.9565ZM15.0311 10.7532L14.8268 11.9864L15.6194 12.1177L15.8237 10.8845L16.0279 9.65133L15.2353 9.52005L15.0311 10.7532ZM15.8237 10.8845L14.6757 11.3792L14.9519 12.0201L16.0998 11.5254L17.2478 11.0306L16.9716 10.3898L15.8237 10.8845ZM16.0998 11.5254L15.4231 12.5763L15.9832 12.937L16.6599 11.886L17.3366 10.835L16.7766 10.4744L16.0998 11.5254ZM16.6599 11.886L15.4472 12.189L15.6304 12.9221L16.8431 12.619L18.0558 12.316L17.8727 11.583L16.6599 11.886ZM16.8431 12.619L16.6735 13.8575L17.4856 13.9687L17.6551 12.7302L17.8247 11.4918L17.0127 11.3806L16.8431 12.619ZM17.6551 12.7302L16.6014 13.4027L16.9592 13.9633L18.0129 13.2908L19.0666 12.6182L18.7088 12.0577L17.6551 12.7302ZM18.0129 13.2908L17.0514 14.0896L17.4685 14.5915L18.4299 13.7927L19.3914 12.9939L18.9744 12.492L18.0129 13.2908ZM18.4299 13.7927L17.6067 14.7333L18.097 15.1625L18.9202 14.2218L19.7435 13.2812L19.2532 12.8521L18.4299 13.7927ZM18.9202 14.2218L17.7297 14.6029L17.9526 15.2991L19.1431 14.9181L20.3336 14.537L20.1107 13.8408L18.9202 14.2218ZM19.1431 14.9181L18.6296 16.0577L19.2633 16.3433L19.7768 15.2036L20.2903 14.064L19.6566 13.7784L19.1431 14.9181ZM19.7768 15.2036L18.9236 16.1171L19.3988 16.561L20.2521 15.6475L21.1053 14.734L20.6301 14.2901L19.7768 15.2036ZM20.2521 15.6475L19.0787 16.0784L19.3262 16.7523L20.4995 16.3214L21.6729 15.8906L21.4255 15.2166L20.2521 15.6475ZM20.4995 16.3214L20.2237 17.5406L20.9704 17.7096L21.2462 16.4904L21.522 15.2712L20.7754 15.1023L20.4995 16.3214ZM21.2462 16.4904L20.2107 17.1905L20.5821 17.7398L21.6177 17.0397L22.6532 16.3395L22.2817 15.7902L21.2462 16.4904ZM21.6177 17.0397L20.5623 17.7096L20.9204 18.2737L21.9757 17.6038L23.0311 16.9339L22.673 16.3698L21.6177 17.0397ZM21.9757 17.6038L21.4344 18.7305L22.0524 19.0274L22.5937 17.9007L23.135 16.774L22.517 16.4771L21.9757 17.6038ZM22.5937 17.9007L21.7517 18.8246L22.2321 19.2624L23.0741 18.3386L23.9161 17.4147L23.4357 16.9768L22.5937 17.9007ZM23.0741 18.3386L21.8787 18.7038L22.0966 19.417L23.292 19.0517L24.4875 18.6864L24.2696 17.9733L23.0741 18.3386ZM23.292 19.0517L23.1465 20.2932L23.953 20.3877L24.0985 19.1462L24.244 17.9047L23.4375 17.8102L23.292 19.0517ZM24.0985 19.1462L22.8782 19.4171L23.0486 20.1849L24.2689 19.914L25.4892 19.6431L25.3188 18.8753L24.0985 19.1462ZM24.2689 19.914L23.5191 20.9142L24.0429 21.3068L24.7926 20.3066L25.5424 19.3064L25.0187 18.9138L24.2689 19.914ZM24.7926 20.3066L24.5687 21.5364L25.3244 21.6739L25.5483 20.4442L25.7722 19.2144L25.0165 19.0768L24.7926 20.3066ZM25.5483 20.4442L24.6937 21.3563L25.1675 21.8003L26.0222 20.8882L26.8768 19.976L26.403 19.532L25.5483 20.4442ZM26.0222 20.8882L24.8261 21.2512L25.0468 21.9783L26.2429 21.6152L27.439 21.2521L27.2183 20.5251L26.0222 20.8882ZM26.2429 21.6152L25.6454 22.7132L26.2323 23.0325L26.8298 21.9346L27.4273 20.8366L26.8404 20.5172L26.2429 21.6152ZM26.8298 21.9346L26.0254 22.8914L26.5229 23.3097L27.3273 22.3529L28.1317 21.3961L27.6342 20.9778L26.8298 21.9346ZM27.3273 22.3529L26.4069 23.1987L26.849 23.6797L27.7694 22.8339L28.6897 21.9881L28.2477 21.507L27.3273 22.3529ZM27.7694 22.8339L26.8767 23.7089L27.334 24.1754L28.2266 23.3004L29.1193 22.4253L28.662 21.9589L27.7694 22.8339ZM28.2266 23.3004L27.2949 24.1337L27.7336 24.6242L28.6653 23.7908L29.597 22.9575L29.1583 22.467L28.2266 23.3004ZM28.6653 23.7908L28.4278 25.0181L29.1557 25.159L29.3932 23.9317L29.6308 22.7045L28.9029 22.5636L28.6653 23.7908ZM29.3932 23.9317L28.4226 24.7194L28.8408 25.2347L29.8114 24.447L30.782 23.6594L30.3638 23.1441L29.3932 23.9317ZM29.8114 24.447L29.3734 25.6178L30.0137 25.8573L30.4516 24.6866L30.8896 23.5158L30.2494 23.2763L29.8114 24.447ZM30.4516 24.6866L29.3278 25.2337L29.6429 25.881L30.7668 25.3338L31.8907 24.7867L31.5755 24.1394L30.4516 24.6866ZM30.7668 25.3338L30.1137 26.3996L30.6714 26.7414L31.3245 25.6756L31.9777 24.6098L31.4199 24.2681L30.7668 25.3338ZM31.3245 25.6756L30.5667 26.6697L31.0827 27.0632L31.8406 26.0691L32.5985 25.0751L32.0824 24.6816L31.3245 25.6756ZM31.8406 26.0691L31.2966 27.1945L31.8932 27.4829L32.4372 26.3575L32.9812 25.232L32.3846 24.9437L31.8406 26.0691ZM32.4372 26.3575L31.6097 27.2944L32.098 27.7256L32.9255 26.7887L33.7529 25.8518L33.2647 25.4205L32.4372 26.3575ZM32.9255 26.7887L32.1017 27.7288L32.5927 28.159L33.4165 27.2189L34.2402 26.2787L33.7492 25.8485L32.9255 26.7887ZM33.4165 27.2189L32.6346 28.1942L33.141 28.6002L33.9229 27.6249L34.7048 26.6496L34.1983 26.2436L33.4165 27.2189ZM33.9229 27.6249L33.3484 28.7351L33.9315 29.0368L34.506 27.9267L35.0805 26.8165L34.4974 26.5148L33.9229 27.6249ZM34.506 27.9267L33.9254 29.0336L34.507 29.3387L35.0876 28.2317L35.6682 27.1248L35.0866 26.8197L34.506 27.9267ZM35.0876 28.2317L34.3366 29.231L34.8554 29.6209L35.6064 28.6216L36.3574 27.6223L35.8385 27.2324L35.0876 28.2317ZM35.6064 28.6216L34.5027 29.2084L34.8063 29.7795L35.91 29.1927L37.0137 28.6059L36.7101 28.0348L35.6064 28.6216ZM35.91 29.1927L37.1471 29.3719L37.1671 29.2338L35.93 29.0546L34.6929 28.8754L34.6729 29.0135L35.91 29.1927Z" fill="black"/>
<path d="M34.0403 1.72246C34.3011 1.08324 33.9943 0.353668 33.3551 0.092906C32.7159 -0.167856 31.9863 0.13894 31.7255 0.778154L32.8829 1.25031L34.0403 1.72246ZM32.8451 1.3429L31.6877 0.870745L31.6372 0.994649L31.614 1.12644L32.8451 1.3429ZM32.7478 1.89636L33.6215 2.79032L33.9093 2.50909L33.979 2.11282L32.7478 1.89636ZM32.2412 2.39149L31.3675 1.49754L30.9941 1.86249L30.9912 2.38463L32.2412 2.39149ZM32.2374 3.09281L33.4568 3.36771L33.4866 3.23535L33.4874 3.09967L32.2374 3.09281ZM32.093 3.73324L33.0499 4.53753L33.2455 4.30476L33.3124 4.00814L32.093 3.73324ZM31.6535 4.25614L30.6966 3.45185L30.5765 3.59479L30.5033 3.76659L31.6535 4.25614ZM31.3985 4.85519L30.2484 4.36564L30.1734 4.54172L30.1546 4.73217L31.3985 4.85519ZM31.332 5.52772L32.4263 6.13179L32.5506 5.90666L32.5759 5.65074L31.332 5.52772ZM31.0153 6.10135L31.8476 7.03402L32.0067 6.89208L32.1097 6.70543L31.0153 6.10135ZM30.4737 6.58465L29.6415 5.65198L29.1 6.13514L29.2511 6.84492L30.4737 6.58465ZM30.637 7.35181L31.6655 8.06225L31.9719 7.61875L31.8596 7.09155L30.637 7.35181ZM30.2592 7.89885L29.2307 7.18842L29.0568 7.44011L29.0188 7.74365L30.2592 7.89885ZM30.1756 8.567L30.9948 9.5111L31.3564 9.1973L31.4159 8.7222L30.1756 8.567ZM29.6255 9.04435L28.8062 8.10024L28.513 8.35464L28.4155 8.73035L29.6255 9.04435ZM29.4606 9.67963L30.6698 9.99652L30.6705 9.99362L29.4606 9.67963ZM29.2942 10.3145L28.085 9.99757L28.0662 10.0695L28.056 10.1432L29.2942 10.3145ZM29.2022 10.9799L29.8568 12.0448L30.3595 11.7357L30.4404 11.1512L29.2022 10.9799ZM28.5155 11.4021L27.8608 10.3372L27.0848 10.8143L27.3013 11.6992L28.5155 11.4021ZM28.7062 12.1819L29.6117 13.0436L30.0829 12.5486L29.9204 11.8848L28.7062 12.1819ZM28.2256 12.6869L27.3202 11.8251L27.0573 12.1013L26.9933 12.4771L28.2256 12.6869ZM28.1139 13.3433L28.8682 14.34L29.2631 14.0412L29.3462 13.5531L28.1139 13.3433ZM27.5114 13.7993L26.757 12.8026L26.0831 13.3126L26.3053 14.128L27.5114 13.7993ZM27.7269 14.5904L28.758 15.2971L29.0851 14.8199L28.933 14.2617L27.7269 14.5904ZM27.3506 15.1394L26.3196 14.4326L26.2757 14.4966L26.2401 14.5656L27.3506 15.1394ZM27.0512 15.7189L25.9407 15.1451L25.8954 15.2328L25.8644 15.3264L27.0512 15.7189ZM26.8467 16.3374L27.6596 17.2869L27.9241 17.0605L28.0335 16.7299L26.8467 16.3374ZM26.2914 16.8128L25.4784 15.8633L25.0565 16.2245L25.0418 16.7797L26.2914 16.8128ZM26.2729 17.5077L27.4445 17.9436L27.5169 17.7487L27.5225 17.5409L26.2729 17.5077ZM26.0461 18.1173L26.8937 19.0361L27.1134 18.8334L27.2177 18.5532L26.0461 18.1173ZM25.5185 18.6041L24.6709 17.6853L24.1724 18.1452L24.2862 18.8138L25.5185 18.6041ZM25.6469 19.3589L26.6874 20.0516L26.9625 19.6385L26.8792 19.1492L25.6469 19.3589ZM25.2793 19.9112L26.2973 20.6366L26.3088 20.6204L26.3198 20.6039L25.2793 19.9112ZM24.8917 20.4551L23.8737 19.7298L23.6671 20.0197L23.6443 20.3749L24.8917 20.4551ZM24.8477 21.1387L26.018 21.5778L26.0832 21.4041L26.0951 21.2189L24.8477 21.1387ZM24.6192 21.7477L25.3987 22.7249L25.6683 22.5098L25.7895 22.1868L24.6192 21.7477ZM24.036 22.2128L23.2566 21.2356L22.6212 21.7424L22.8267 22.5288L24.036 22.2128ZM24.2414 22.9987L24.9334 24.0397L25.6764 23.5458L25.4508 22.6826L24.2414 22.9987ZM23.5863 23.4342L22.8943 22.3932L22.512 22.6474L22.385 23.0886L23.5863 23.4342ZM23.4056 24.0623L22.2043 23.7167L22.1238 23.9965L22.1753 24.2831L23.4056 24.0623ZM23.5413 24.8185L24.6926 25.3053L24.8372 24.9633L24.7716 24.5977L23.5413 24.8185ZM23.2884 25.4165L24.0365 26.4179L24.3078 26.2153L24.4396 25.9034L23.2884 25.4165ZM22.6804 25.8707L21.9323 24.8694L21.5245 25.174L21.4455 25.6768L22.6804 25.8707ZM22.5768 26.5304L23.7458 26.9731L23.7916 26.8522L23.8116 26.7244L22.5768 26.5304ZM22.3465 27.1385L23.446 27.7332L23.4858 27.6595L23.5155 27.5812L22.3465 27.1385ZM22.0355 27.7135L20.936 27.1188L20.9281 27.1335L20.9205 27.1485L22.0355 27.7135ZM21.7399 28.2968L22.8245 28.9183L22.8404 28.8904L22.8549 28.8618L21.7399 28.2968ZM21.4127 28.8677L20.3282 28.2462L20.1211 28.6075L20.1721 29.0209L21.4127 28.8677ZM21.5037 29.6051L22.5492 30.2904L22.8005 29.907L22.7443 29.452L21.5037 29.6051ZM21.1413 30.1581L20.0959 29.4728L19.9117 29.7538L19.8932 30.0892L21.1413 30.1581ZM21.1035 30.8434L21.9558 31.7578L22.3239 31.4147L22.3516 30.9123L21.1035 30.8434ZM20.5789 31.3324L19.7266 30.4181L19.4613 30.6653L19.3695 31.0162L20.5789 31.3324ZM20.4129 31.9671L21.5824 32.4084L21.6056 32.3469L21.6222 32.2834L20.4129 31.9671ZM20.1837 32.5743L19.0142 32.133L18.9702 32.2497L18.9501 32.3728L20.1837 32.5743ZM20.0767 33.2294L21.2116 33.7535L21.2829 33.5989L21.3104 33.4309L20.0767 33.2294ZM19.8042 33.8196L18.6693 33.2955L18.6649 33.3052L18.6606 33.3149L19.8042 33.8196ZM19.5424 34.4127L18.3988 33.9081L18.3736 33.9653L18.3542 34.0247L19.5424 34.4127ZM19.3411 35.029L18.1529 34.641L18.0916 34.8288L18.0911 35.0264L19.3411 35.029ZM19.3397 35.6807L18.0897 35.678L18.0897 35.7162L18.0919 35.7544L19.3397 35.6807ZM19.378 36.3279L20.6239 36.4295L20.631 36.3419L20.6258 36.2542L19.378 36.3279ZM19.338 36.819L19.2875 38.0679L20.4863 38.1164L20.5838 36.9205L19.338 36.819ZM19.2161 35.563C18.5264 35.5351 17.9446 36.0717 17.9167 36.7615C17.8888 37.4513 18.4254 38.0331 19.1152 38.061L19.1656 36.812L19.2161 35.563ZM32.8829 1.25031L31.7255 0.778154L31.6877 0.870745L32.8451 1.3429L34.0025 1.81505L34.0403 1.72246L32.8829 1.25031ZM32.8451 1.3429L31.614 1.12644L31.5167 1.67991L32.7478 1.89636L33.979 2.11282L34.0763 1.55935L32.8451 1.3429ZM32.7478 1.89636L31.8741 1.00241L31.3675 1.49754L32.2412 2.39149L33.1149 3.28545L33.6215 2.79032L32.7478 1.89636ZM32.2412 2.39149L30.9912 2.38463L30.9874 3.08595L32.2374 3.09281L33.4874 3.09967L33.4912 2.39835L32.2412 2.39149ZM32.2374 3.09281L31.018 2.81791L30.8736 3.45834L32.093 3.73324L33.3124 4.00814L33.4568 3.36771L32.2374 3.09281ZM32.093 3.73324L31.1361 2.92895L30.6966 3.45185L31.6535 4.25614L32.6104 5.06043L33.0499 4.53753L32.093 3.73324ZM31.6535 4.25614L30.5033 3.76659L30.2484 4.36564L31.3985 4.85519L32.5486 5.34475L32.8036 4.74569L31.6535 4.25614ZM31.3985 4.85519L30.1546 4.73217L30.0881 5.40469L31.332 5.52772L32.5759 5.65074L32.6424 4.97822L31.3985 4.85519ZM31.332 5.52772L30.2376 4.92364L29.921 5.49728L31.0153 6.10135L32.1097 6.70543L32.4263 6.13179L31.332 5.52772ZM31.0153 6.10135L30.1831 5.16868L29.6415 5.65198L30.4737 6.58465L31.306 7.51732L31.8476 7.03402L31.0153 6.10135ZM30.4737 6.58465L29.2511 6.84492L29.4144 7.61208L30.637 7.35181L31.8596 7.09155L31.6963 6.32439L30.4737 6.58465ZM30.637 7.35181L29.6086 6.64138L29.2307 7.18842L30.2592 7.89885L31.2876 8.60929L31.6655 8.06225L30.637 7.35181ZM30.2592 7.89885L29.0188 7.74365L28.9352 8.41179L30.1756 8.567L31.4159 8.7222L31.4995 8.05406L30.2592 7.89885ZM30.1756 8.567L29.3563 7.62289L28.8062 8.10024L29.6255 9.04435L30.4447 9.98845L30.9948 9.5111L30.1756 8.567ZM29.6255 9.04435L28.4155 8.73035L28.2507 9.36563L29.4606 9.67963L30.6705 9.99362L30.8354 9.35834L29.6255 9.04435ZM29.4606 9.67963L28.2514 9.36274L28.085 9.99757L29.2942 10.3145L30.5034 10.6314L30.6698 9.99652L29.4606 9.67963ZM29.2942 10.3145L28.056 10.1432L27.964 10.8087L29.2022 10.9799L30.4404 11.1512L30.5324 10.4857L29.2942 10.3145ZM29.2022 10.9799L28.5475 9.91505L27.8608 10.3372L28.5155 11.4021L29.1701 12.467L29.8568 12.0448L29.2022 10.9799ZM28.5155 11.4021L27.3013 11.6992L27.4921 12.479L28.7062 12.1819L29.9204 11.8848L29.7296 11.105L28.5155 11.4021ZM28.7062 12.1819L27.8008 11.3201L27.3202 11.8251L28.2256 12.6869L29.1311 13.5486L29.6117 13.0436L28.7062 12.1819ZM28.2256 12.6869L26.9933 12.4771L26.8816 13.1336L28.1139 13.3433L29.3462 13.5531L29.4579 12.8966L28.2256 12.6869ZM28.1139 13.3433L27.3595 12.3466L26.757 12.8026L27.5114 13.7993L28.2657 14.7961L28.8682 14.34L28.1139 13.3433ZM27.5114 13.7993L26.3053 14.128L26.5209 14.919L27.7269 14.5904L28.933 14.2617L28.7174 13.4707L27.5114 13.7993ZM27.7269 14.5904L26.6959 13.8836L26.3196 14.4326L27.3506 15.1394L28.3817 15.8461L28.758 15.2971L27.7269 14.5904ZM27.3506 15.1394L26.2401 14.5656L25.9407 15.1451L27.0512 15.7189L28.1617 16.2927L28.4612 15.7131L27.3506 15.1394ZM27.0512 15.7189L25.8644 15.3264L25.6599 15.9449L26.8467 16.3374L28.0335 16.7299L28.238 16.1114L27.0512 15.7189ZM26.8467 16.3374L26.0337 15.3879L25.4784 15.8633L26.2914 16.8128L27.1043 17.7624L27.6596 17.2869L26.8467 16.3374ZM26.2914 16.8128L25.0418 16.7797L25.0233 17.4746L26.2729 17.5077L27.5225 17.5409L27.5409 16.846L26.2914 16.8128ZM26.2729 17.5077L25.1014 17.0719L24.8746 17.6815L26.0461 18.1173L27.2177 18.5532L27.4445 17.9436L26.2729 17.5077ZM26.0461 18.1173L25.1985 17.1986L24.6709 17.6853L25.5185 18.6041L26.366 19.5228L26.8937 19.0361L26.0461 18.1173ZM25.5185 18.6041L24.2862 18.8138L24.4146 19.5686L25.6469 19.3589L26.8792 19.1492L26.7508 18.3944L25.5185 18.6041ZM25.6469 19.3589L24.6064 18.6662L24.2387 19.2185L25.2793 19.9112L26.3198 20.6039L26.6874 20.0516L25.6469 19.3589ZM25.2793 19.9112L24.2613 19.1858L23.8737 19.7298L24.8917 20.4551L25.9097 21.1805L26.2973 20.6366L25.2793 19.9112ZM24.8917 20.4551L23.6443 20.3749L23.6003 21.0584L24.8477 21.1387L26.0951 21.2189L26.1391 20.5354L24.8917 20.4551ZM24.8477 21.1387L23.6774 20.6996L23.4489 21.3085L24.6192 21.7477L25.7895 22.1868L26.018 21.5778L24.8477 21.1387ZM24.6192 21.7477L23.8398 20.7704L23.2566 21.2356L24.036 22.2128L24.8155 23.19L25.3987 22.7249L24.6192 21.7477ZM24.036 22.2128L22.8267 22.5288L23.032 23.3147L24.2414 22.9987L25.4508 22.6826L25.2454 21.8968L24.036 22.2128ZM24.2414 22.9987L23.5494 21.9577L22.8943 22.3932L23.5863 23.4342L24.2783 24.4752L24.9334 24.0397L24.2414 22.9987ZM23.5863 23.4342L22.385 23.0886L22.2043 23.7167L23.4056 24.0623L24.6069 24.4079L24.7876 23.7798L23.5863 23.4342ZM23.4056 24.0623L22.1753 24.2831L22.3109 25.0392L23.5413 24.8185L24.7716 24.5977L24.6359 23.8415L23.4056 24.0623ZM23.5413 24.8185L22.39 24.3316L22.1371 24.9296L23.2884 25.4165L24.4396 25.9034L24.6926 25.3053L23.5413 24.8185ZM23.2884 25.4165L22.5402 24.4151L21.9323 24.8694L22.6804 25.8707L23.4285 26.8721L24.0365 26.4179L23.2884 25.4165ZM22.6804 25.8707L21.4455 25.6768L21.3419 26.3365L22.5768 26.5304L23.8116 26.7244L23.9152 26.0647L22.6804 25.8707ZM22.5768 26.5304L21.4078 26.0877L21.1775 26.6958L22.3465 27.1385L23.5155 27.5812L23.7458 26.9731L22.5768 26.5304ZM22.3465 27.1385L21.247 26.5438L20.936 27.1188L22.0355 27.7135L23.135 28.3082L23.446 27.7332L22.3465 27.1385ZM22.0355 27.7135L20.9205 27.1485L20.6249 27.7317L21.7399 28.2968L22.8549 28.8618L23.1505 28.2785L22.0355 27.7135ZM21.7399 28.2968L20.6554 27.6753L20.3282 28.2462L21.4127 28.8677L22.4973 29.4892L22.8245 28.9183L21.7399 28.2968ZM21.4127 28.8677L20.1721 29.0209L20.2632 29.7582L21.5037 29.6051L22.7443 29.452L22.6533 28.7146L21.4127 28.8677ZM21.5037 29.6051L20.4583 28.9199L20.0959 29.4728L21.1413 30.1581L22.1867 30.8433L22.5492 30.2904L21.5037 29.6051ZM21.1413 30.1581L19.8932 30.0892L19.8554 30.7746L21.1035 30.8434L22.3516 30.9123L22.3894 30.2269L21.1413 30.1581ZM21.1035 30.8434L20.2512 29.9291L19.7266 30.4181L20.5789 31.3324L21.4312 32.2468L21.9558 31.7578L21.1035 30.8434ZM20.5789 31.3324L19.3695 31.0162L19.2036 31.6508L20.4129 31.9671L21.6222 32.2834L21.7882 31.6487L20.5789 31.3324ZM20.4129 31.9671L19.2434 31.5257L19.0142 32.133L20.1837 32.5743L21.3532 33.0156L21.5824 32.4084L20.4129 31.9671ZM20.1837 32.5743L18.9501 32.3728L18.8431 33.0279L20.0767 33.2294L21.3104 33.4309L21.4174 32.7758L20.1837 32.5743ZM20.0767 33.2294L18.9419 32.7054L18.6693 33.2955L19.8042 33.8196L20.939 34.3437L21.2116 33.7535L20.0767 33.2294ZM19.8042 33.8196L18.6606 33.3149L18.3988 33.9081L19.5424 34.4127L20.686 34.9174L20.9478 34.3243L19.8042 33.8196ZM19.5424 34.4127L18.3542 34.0247L18.1529 34.641L19.3411 35.029L20.5294 35.4171L20.7306 34.8008L19.5424 34.4127ZM19.3411 35.029L18.0911 35.0264L18.0897 35.678L19.3397 35.6807L20.5897 35.6834L20.5911 35.0317L19.3411 35.029ZM19.3397 35.6807L18.0919 35.7544L18.1302 36.4017L19.378 36.3279L20.6258 36.2542L20.5876 35.607L19.3397 35.6807ZM19.378 36.3279L18.1321 36.2264L18.0921 36.7174L19.338 36.819L20.5838 36.9205L20.6239 36.4295L19.378 36.3279ZM19.338 36.819L19.3885 35.57L19.2161 35.563L19.1656 36.812L19.1152 38.061L19.2875 38.0679L19.338 36.819Z" fill="black"/>
</svg>
