<svg preserveAspectRatio="none" width="100%" height="100%" overflow="visible" style="display: block;" viewBox="0 0 96.6262 75.5463" fill="none" xmlns="http://www.w3.org/2000/svg">
<path id="Vector 9" d="M4.40493 20.3713C4.34236 19.2685 3.39765 18.4252 2.29486 18.4878C1.19206 18.5504 0.348786 19.4951 0.411352 20.5979L2.40814 20.4846L4.40493 20.3713ZM2.41381 20.5844L0.417017 20.6977L0.42441 20.828L0.44868 20.9563L2.41381 20.5844ZM2.59014 21.5163L4.44878 22.2548L4.66325 21.7151L4.55527 21.1444L2.59014 21.5163ZM2.17164 22.5695L0.313004 21.8309L0 22.6186L0.348324 23.3914L2.17164 22.5695ZM2.63272 23.5923L4.58731 23.1686L4.54265 22.9626L4.45604 22.7704L2.63272 23.5923ZM2.85563 24.6205L4.78919 25.1318L4.91212 24.6668L4.81022 24.1968L2.85563 24.6205ZM2.57616 25.6776L0.642598 25.1663L0.565258 25.4588L0.577904 25.7612L2.57616 25.6776ZM2.6196 26.7161L0.621352 26.7997L0.63426 27.1083L0.739628 27.3986L2.6196 26.7161ZM2.98943 27.735L4.98647 27.8438L5.00867 27.4362L4.8694 27.0526L2.98943 27.735ZM2.93255 28.7789L4.78249 29.539L4.91117 29.2258L4.92959 28.8877L2.93255 28.7789ZM2.49144 29.8525L0.641501 29.0924L0.199915 30.1671L0.914844 31.0831L2.49144 29.8525ZM3.26572 30.8445L5.24385 31.1394L5.37043 30.2905L4.84231 29.6139L3.26572 30.8445ZM3.10906 31.8951L1.13093 31.6001L1.05838 32.0867L1.21981 32.5514L3.10906 31.8951ZM3.4622 32.9117L5.30724 33.6836L5.60246 32.9779L5.35145 32.2554L3.4622 32.9117ZM3.01267 33.9861L1.16763 33.2142L0.927218 33.7889L1.05563 34.3984L3.01267 33.9861ZM3.22916 35.0138L5.18667 34.6037L5.1862 34.6015L3.22916 35.0138ZM3.44458 36.042L1.48707 36.4521L1.51174 36.5699L1.55034 36.6838L3.44458 36.042ZM3.78951 37.0602L5.49247 38.1089L5.98535 37.3086L5.68375 36.4184L3.78951 37.0602ZM3.11444 38.1563L1.41149 37.1075L0.639063 38.3617L1.60768 39.4715L3.11444 38.1563ZM3.959 39.1239L5.88374 39.6674L6.17811 38.6248L5.46576 37.8087L3.959 39.1239ZM3.65612 40.1965L1.73138 39.6531L1.56314 40.2489L1.76095 40.8355L3.65612 40.1965ZM3.99637 41.2056L5.82151 42.0235L6.14178 41.3088L5.89154 40.5666L3.99637 41.2056ZM3.50181 42.3093L1.67667 41.4915L1.11909 42.7358L2.07365 43.7095L3.50181 42.3093ZM4.41979 43.2457L6.41262 43.4149L6.49026 42.5007L5.84795 41.8456L4.41979 43.2457ZM4.32992 44.3038L2.3371 44.1346L2.32589 44.2665L2.33218 44.3988L4.32992 44.3038ZM4.37948 45.3457L2.38174 45.4408L2.38962 45.6064L2.42467 45.7685L4.37948 45.3457ZM4.59961 46.3637L6.49664 46.9971L6.67033 46.477L6.55443 45.941L4.59961 46.3637ZM4.229 47.4736L2.33196 46.8402L2.04763 47.6917L2.49491 48.4701L4.229 47.4736ZM4.78362 48.4388L6.74347 48.0401L6.67895 47.7229L6.51772 47.4423L4.78362 48.4388ZM4.991 49.4581L6.92405 49.9712L7.04425 49.5184L6.95084 49.0593L4.991 49.4581ZM4.69595 50.5695L2.7629 50.0564L2.48169 51.1157L3.22327 51.9228L4.69595 50.5695ZM5.52513 51.4719L7.52512 51.4784L7.52765 50.6953L6.99781 50.1187L5.52513 51.4719ZM5.5217 52.532L7.52111 52.5806L7.52162 52.5595L7.52169 52.5384L5.5217 52.532ZM5.4957 53.6014L3.49629 53.5528L3.48218 54.1331L3.78096 54.6308L5.4957 53.6014ZM6.06043 54.5421L7.99432 54.0322L7.92172 53.7569L7.77518 53.5127L6.06043 54.5421ZM6.32533 55.5466L8.25385 56.0766L8.39652 55.5573L8.25922 55.0367L6.32533 55.5466ZM6.00893 56.6981L4.08041 56.1682L3.73087 57.4403L4.76261 58.2623L6.00893 56.6981ZM7.02518 57.5079L8.91885 58.1513L9.37124 56.8199L8.2715 55.9437L7.02518 57.5079ZM6.62031 58.6994L4.72664 58.0559L4.48469 58.768L4.77186 59.4631L6.62031 58.6994ZM7.0215 59.6704L5.17304 60.4341L5.35835 60.8826L5.72859 61.1963L7.0215 59.6704ZM7.95839 60.4643L9.86381 59.8565L9.68934 59.3095L9.25129 58.9384L7.95839 60.4643ZM8.27204 61.4476L10.2328 61.8419L10.335 61.3337L10.1775 60.8399L8.27204 61.4476ZM8.03259 62.6384L6.07184 62.2441L5.90588 63.0695L6.38013 63.7651L8.03259 62.6384ZM8.63626 63.5238L10.4617 62.7067L10.389 62.5442L10.2887 62.3971L8.63626 63.5238ZM9.06115 64.4731L10.9599 63.8448L10.9281 63.7486L10.8866 63.656L9.06115 64.4731ZM9.38997 65.4669L7.49121 66.0951L7.5116 66.1568L7.53593 66.2169L9.38997 65.4669ZM9.78288 66.4382L11.6398 65.6953L11.6369 65.6882L9.78288 66.4382ZM10.1788 67.4278L8.32185 68.1707L8.59278 68.8479L9.23609 69.1917L10.1788 67.4278ZM11.2263 67.9876L13.033 67.1298L12.7503 66.5344L12.169 66.2237L11.2263 67.9876ZM11.677 68.9369L9.87025 69.7946L10.14 70.3627L10.6862 70.6742L11.677 68.9369ZM12.6134 69.4708L14.4822 68.7586L14.2269 68.0886L13.6041 67.7335L12.6134 69.4708ZM13.0192 70.5359L11.1504 71.2481L11.3942 71.888L11.9792 72.2441L13.0192 70.5359ZM13.9161 71.0819L14.9717 69.3831L14.9639 69.3783L14.9561 69.3736L13.9161 71.0819ZM14.7969 71.6292L13.7413 73.3279L13.9939 73.485L14.2814 73.5616L14.7969 71.6292ZM15.8094 71.8993L16.6789 70.0982L16.5081 70.0158L16.3249 69.9669L15.8094 71.8993ZM16.732 72.3447L15.8624 74.1458L15.9385 74.1825L16.0174 74.2127L16.732 72.3447ZM17.6984 72.7144L16.9839 74.5824L17.0912 74.6235L17.2025 74.652L17.6984 72.7144ZM18.7033 72.9717L18.2073 74.9092L18.4607 74.974L18.7222 74.9716L18.7033 72.9717ZM19.748 72.9617L19.767 74.9617L19.817 74.9612L19.8669 74.9582L19.748 72.9617ZM20.7842 72.9001L20.8975 70.9033L20.7814 70.8967L20.6653 70.9036L20.7842 72.9001ZM21.8091 72.9582L21.9406 70.9625L21.9315 70.9619L21.9224 70.9614L21.8091 72.9582ZM22.8419 73.0262L23.6217 71.1845L23.3106 71.0528L22.9734 71.0306L22.8419 73.0262ZM23.9039 73.4759L23.1241 75.3176L23.6643 75.5463L24.2424 75.447L23.9039 73.4759ZM24.939 73.2982L25.2775 75.2693L25.6014 75.2137L25.8905 75.0574L24.939 73.2982ZM25.9343 72.7599L25.7007 70.7736L25.32 70.8183L24.9828 71.0007L25.9343 72.7599ZM26.9636 72.6388L27.2861 70.665L27.0089 70.6197L26.73 70.6525L26.9636 72.6388ZM28.0307 72.8131L27.7083 74.787L27.8788 74.8148L28.0516 74.813L28.0307 72.8131ZM29.0795 72.8022L29.1004 74.8021L29.1622 74.8014L29.2238 74.797L29.0795 72.8022ZM30.1212 72.7268L30.2655 74.7216L30.2657 74.7216L30.1212 72.7268ZM31.164 72.6513L31.3084 74.6461L31.5336 74.6298L31.7496 74.5637L31.164 72.6513ZM32.1705 72.3431L31.9629 70.3539L31.7702 70.374L31.5849 70.4307L32.1705 72.3431ZM33.208 72.2348L33.2373 70.235L33.1185 70.2333L33.0004 70.2456L33.208 72.2348ZM34.2652 72.2503L34.2359 74.2501L34.8906 74.2597L35.4243 73.8803L34.2652 72.2503ZM35.2079 71.58L34.4121 69.7451L34.2198 69.8286L34.0489 69.9501L35.2079 71.58ZM36.1897 71.1542L36.2209 69.1544L35.7896 69.1477L35.394 69.3193L36.1897 71.1542ZM37.2474 71.1707L37.2163 73.1704L37.3579 73.1726L37.4984 73.1549L37.2474 71.1707ZM38.2802 71.04L38.5311 73.0242L38.6421 73.0102L38.7508 72.9839L38.2802 71.04ZM39.2929 70.7949L38.9077 68.8323L38.8648 68.8407L38.8223 68.851L39.2929 70.7949ZM40.3135 70.5946L40.7635 68.6459L40.3473 68.5498L39.9283 68.632L40.3135 70.5946ZM41.4159 70.8491L40.9659 72.7979L41.7388 72.9763L42.424 72.5765L41.4159 70.8491ZM42.3722 70.291L42.1791 68.3004L41.7428 68.3427L41.3642 68.5636L42.3722 70.291ZM43.411 70.1902L43.6041 72.1809L43.7155 72.1701L43.8251 72.1469L43.411 70.1902ZM44.429 69.9748L44.1842 67.9898L44.0989 68.0003L44.0149 68.0181L44.429 69.9748ZM45.4628 69.8473L45.6604 67.8571L45.4389 67.8351L45.218 67.8623L45.4628 69.8473ZM46.5391 69.9542L46.3415 71.9444L47.2965 72.0392L47.968 71.3535L46.5391 69.9542ZM47.431 69.0434L48.3549 67.2696L47.0397 66.5845L46.0021 67.6441L47.431 69.0434ZM48.5978 69.6512L47.6738 71.425L48.3156 71.7592L49.0226 71.6055L48.5978 69.6512ZM49.6145 69.4301L50.0394 71.3845L50.3299 71.3213L50.5895 71.1764L49.6145 69.4301ZM50.5749 68.8939L49.706 67.0925L49.6521 67.1185L49.5999 67.1476L50.5749 68.8939ZM51.5481 68.4244L51.2057 66.4539L50.9306 66.5017L50.6791 66.623L51.5481 68.4244ZM52.5733 68.2462L52.9158 70.2167L52.9624 70.2086L53.0087 70.1983L52.5733 68.2462ZM53.5902 68.0195L54.3963 66.1891L53.7956 65.9245L53.1549 66.0674L53.5902 68.0195ZM54.7329 68.5227L53.9268 70.3531L54.7335 70.7084L55.54 70.3526L54.7329 68.5227ZM55.7137 68.0901L55.6936 66.0902L55.2826 66.0943L54.9065 66.2602L55.7137 68.0901ZM56.7663 68.0795L56.7864 70.0794L57.1643 70.0756L57.5148 69.9342L56.7663 68.0795ZM57.7542 67.6808L57.6315 65.6846L57.3071 65.7045L57.0058 65.8261L57.7542 67.6808ZM58.7974 67.6167L58.9201 69.6129L59.4538 69.5801L59.8998 69.2854L58.7974 67.6167ZM59.7509 66.9868L60.6574 65.204L59.6197 64.6764L58.6485 65.318L59.7509 66.9868ZM60.8936 67.5678L59.9871 69.3506L61.0925 69.9127L62.0874 69.1725L60.8936 67.5678ZM61.8389 66.8646L61.9243 64.8665L61.2149 64.8361L60.6452 65.26L61.8389 66.8646ZM62.8971 66.9098L62.8117 68.908L62.9292 68.913L63.0464 68.9043L62.8971 66.9098ZM63.9364 66.832L64.0857 68.8264L64.5695 68.7902L64.9829 68.5364L63.9364 66.832ZM64.9059 66.2367L65.337 64.2837L64.548 64.1096L63.8594 64.5324L64.9059 66.2367ZM65.9862 66.4752L65.5551 68.4282L65.8341 68.4897L66.1192 68.4707L65.9862 66.4752ZM67.0248 66.406L67.4427 64.4501L67.17 64.3918L66.8918 64.4104L67.0248 66.406ZM68.0967 66.635L67.6788 68.5909L68.5513 68.7773L69.2729 68.2526L68.0967 66.635ZM69.0644 65.9314L68.9495 63.9347L68.3632 63.9684L67.8882 64.3138L69.0644 65.9314ZM70.1055 65.8715L70.4241 63.897L70.2086 63.8622L69.9906 63.8748L70.1055 65.8715ZM71.1683 66.0429L70.8497 68.0174L70.9603 68.0352L71.0721 68.0406L71.1683 66.0429ZM72.2157 66.0933L72.1196 68.091L72.3562 68.1024L72.5889 68.0582L72.2157 66.0933ZM73.2404 65.8988L73.6135 67.8636L73.788 67.8305L73.954 67.7671L73.2404 65.8988ZM74.2524 65.5122L73.8604 63.551L73.6957 63.5839L73.5388 63.6438L74.2524 65.5122ZM75.2796 65.3069L74.9047 63.3423L74.8961 63.3439L74.8876 63.3456L75.2796 65.3069ZM76.3091 65.1104L77.2826 63.3633L76.6479 63.0096L75.9341 63.1458L76.3091 65.1104ZM77.3941 65.715L76.4205 67.4621L77.559 68.0965L78.5992 67.3112L77.3941 65.715ZM78.387 64.9654L78.619 62.9789L77.8222 62.8858L77.1819 63.3692L78.387 64.9654ZM79.438 65.0881L79.206 67.0746L79.4011 67.0974L79.597 67.0818L79.438 65.0881ZM80.4759 65.0053L80.8019 63.0321L80.5606 62.9922L80.3169 63.0116L80.4759 65.0053ZM81.5252 65.1787L81.1992 67.1519L81.5853 67.2157L81.9669 67.1293L81.5252 65.1787ZM82.5551 64.9454L83.0435 63.006L82.5798 62.8892L82.1133 62.9948L82.5551 64.9454ZM83.6096 65.211L83.1211 67.1505L83.6288 67.2783L84.1339 67.141L83.6096 65.211ZM84.6368 64.9319L85.3374 63.0586L84.7341 62.833L84.1125 63.0019L84.6368 64.9319ZM85.6999 65.3295L84.9993 67.2028L86.0436 67.5933L86.925 66.9104L85.6999 65.3295ZM86.6978 64.5562L87.7215 62.838L86.5503 62.1402L85.4727 62.9753L86.6978 64.5562ZM87.7897 65.2067L86.7661 66.9249L87.4054 67.3058L88.1382 67.1761L87.7897 65.2067ZM88.831 65.0225L89.1795 66.9919L89.8105 66.8803L90.2591 66.4227L88.831 65.0225ZM89.7274 64.1082L89.4021 62.1349L88.757 62.2412L88.2993 62.708L89.7274 64.1082ZM90.6963 63.9485L91.0217 65.9219L91.1211 65.9055L91.2184 65.8792L90.6963 63.9485ZM91.6938 63.6788L92.2159 65.6095L92.5304 65.5244L92.8016 65.3439L91.6938 63.6788ZM92.6577 63.0375L93.7655 64.7026L94.5516 64.1797L94.6474 63.2405L92.6577 63.0375ZM92.7726 61.9118L90.9109 61.181L90.8107 61.4361L90.7829 61.7088L92.7726 61.9118ZM93.1559 60.9353L95.0176 61.6661L95.0916 61.4775L95.1263 61.278L93.1559 60.9353ZM93.3353 59.904L95.3057 60.2467L95.3211 60.158L95.3285 60.0682L93.3353 59.904ZM93.4211 58.8617L91.566 58.1144L91.4527 58.3955L91.4279 58.6976L93.4211 58.8617ZM93.82 57.8717L95.6751 58.619L95.7565 58.4169L95.7925 58.202L93.82 57.8717ZM93.9925 56.8414L92.0963 56.2053L92.046 56.3552L92.0199 56.5111L93.9925 56.8414ZM94.3322 55.8287L96.2283 56.4648L96.4405 55.8323L96.2304 55.199L94.3322 55.8287ZM93.9723 54.7439L92.19 53.8364L91.811 54.5808L92.074 55.3737L93.9723 54.7439ZM94.4823 53.7423L96.2646 54.6498L96.4925 54.2023L96.4819 53.7003L94.4823 53.7423ZM94.4603 52.6938L92.4772 52.4349L92.4576 52.5847L92.4608 52.7358L94.4603 52.6938ZM94.5958 51.6565L96.5789 51.9155L96.6262 51.5535L96.5425 51.1982L94.5958 51.6565ZM94.3471 50.6004L96.2939 50.1421L96.2768 50.0695L96.2544 49.9984L94.3471 50.6004ZM94.015 49.5483L92.0156 49.5012L92.0077 49.8335L92.1078 50.1504L94.015 49.5483ZM94.0394 48.5124L92.1807 47.774L92.0484 48.1071L92.04 48.4653L94.0394 48.5124ZM94.4493 47.4805L96.308 48.2188L96.5535 47.601L96.3802 46.9592L94.4493 47.4805ZM94.1684 46.4402L92.2636 45.8305L92.0839 46.3921L92.2376 46.9615L94.1684 46.4402ZM94.5019 45.3984L96.4067 46.0081L96.5591 45.5318L96.4695 45.0399L94.5019 45.3984ZM94.313 44.3616L92.314 44.4267L92.3189 44.5746L92.3454 44.7201L94.313 44.3616ZM94.2792 43.3232L96.2781 43.2581L96.2745 43.1466L96.2585 43.0361L94.2792 43.3232ZM94.1294 42.2904L96.1087 42.0034L96.0825 41.8224L96.0238 41.6492L94.1294 42.2904ZM93.7862 41.2764L91.7924 41.1195L91.7602 41.5287L91.8918 41.9175L93.7862 41.2764ZM93.8681 40.2346L91.9236 39.7668L91.8867 39.9204L91.8743 40.0778L93.8681 40.2346ZM94.1266 39.1602L96.0711 39.628L96.1702 39.2161L96.0938 38.7993L94.1266 39.1602ZM93.9384 38.134L91.953 38.3754L91.9603 38.4354L91.9712 38.4949L93.9384 38.134ZM93.8124 37.0975L95.7978 36.8561L95.728 36.2826L95.3632 35.8346L93.8124 37.0975ZM93.0724 36.1887L91.1479 35.6443L90.8648 36.6451L91.5215 37.4516L93.0724 36.1887ZM93.393 35.0554L95.3175 35.5999L95.5974 34.6106L94.9558 33.8073L93.393 35.0554ZM92.6756 34.1572L90.7774 34.787L90.8899 35.1262L91.1129 35.4054L92.6756 34.1572ZM92.3484 33.171L90.3622 33.4051L90.386 33.6074L90.4502 33.8008L92.3484 33.171ZM92.2259 32.131L90.3234 31.5139L90.1884 31.9303L90.2396 32.3651L92.2259 32.131ZM92.6069 30.9561L94.5094 31.5731L94.7042 30.9723L94.5186 30.3685L92.6069 30.9561ZM92.3008 29.9602L94.2125 29.3726L94.0619 28.8825L93.694 28.5253L92.3008 29.9602ZM91.4325 29.1171L89.4392 28.9528L89.3616 29.8941L90.0393 30.552L91.4325 29.1171ZM91.5235 28.013L93.5168 28.1774L93.5266 28.0576L93.5221 27.9374L91.5235 28.013ZM91.4831 26.9458L93.4817 26.8702L93.4604 26.307L93.1481 25.8377L91.4831 26.9458ZM90.8764 26.0341L88.9611 26.6102L89.0467 26.8948L89.2114 27.1423L90.8764 26.0341ZM90.5766 25.0376L92.4918 24.4615L92.4119 24.1957L92.2626 23.9618L90.5766 25.0376ZM89.9919 24.1213L88.1195 24.8242L88.1932 25.0205L88.3059 25.1972L89.9919 24.1213ZM89.625 23.144L87.7624 22.4156L87.4832 23.1294L87.7526 23.8469L89.625 23.144ZM90.0996 21.9304L91.9622 22.6588L92.2343 21.9629L91.9835 21.259L90.0996 21.9304ZM89.7495 20.9482L91.6334 20.2768L91.5802 20.1276L91.5042 19.9886L89.7495 20.9482ZM89.2373 20.0117L87.2721 20.3832L87.3308 20.6939L87.4826 20.9714L89.2373 20.0117ZM89.0434 18.9858L87.0508 19.1577L87.0595 19.2582L87.0782 19.3572L89.0434 18.9858ZM88.9524 17.9306L90.945 17.7586L90.9217 17.4894L90.8279 17.2359L88.9524 17.9306ZM88.5901 16.9524L86.6769 17.5354L86.6941 17.5918L86.7146 17.647L88.5901 16.9524ZM88.2867 15.9567L90.1998 15.3737L90.1493 15.2079L90.0709 15.0532L88.2867 15.9567ZM87.8083 15.0122L89.5926 14.1086L89.5363 13.9974L89.4666 13.8941L87.8083 15.0122ZM87.1947 14.1021L85.3137 14.7818L85.3979 15.0148L85.5364 15.2202L87.1947 14.1021ZM86.8399 13.1204L84.8415 13.1996L84.8537 13.509L84.959 13.8001L86.8399 13.1204ZM86.7976 12.053L88.796 11.9738L88.7781 11.5207L88.5665 11.1197L86.7976 12.053ZM86.3003 11.1105L84.3013 11.1751L84.3162 11.636L84.5314 12.0438L86.3003 11.1105ZM86.2657 10.0407L88.2646 9.97608L88.2528 9.61158L88.1132 9.27469L86.2657 10.0407ZM85.8633 9.07035L83.8748 8.85655L83.8202 9.36449L84.0158 9.8364L85.8633 9.07035ZM85.9822 7.96451L87.9707 8.17832L88.0508 7.43344L87.6218 6.81925L85.9822 7.96451ZM85.3462 7.05392L83.3532 7.22134L83.3983 7.75782L83.7066 8.19919L85.3462 7.05392ZM85.258 6.0045L83.2624 6.13659L83.2636 6.15427L83.265 6.17192L85.258 6.0045ZM85.1881 4.94879L83.1903 4.8557L83.1851 4.96835L83.1925 5.08087L85.1881 4.94879ZM85.2392 3.85328L87.237 3.94637L87.2619 3.41267L87.0173 2.93767L85.2392 3.85328ZM84.7117 2.82896L86.4898 1.91335L86.1528 1.25877L85.4717 0.978988L84.7117 2.82896ZM83.5879 2.36727L84.3479 0.517293L84.2409 0.473372L84.1297 0.442059L83.5879 2.36727ZM82.5331 2.07043L83.0749 0.145218L82.5589 0L82.0395 0.132306L82.5331 2.07043ZM81.4831 2.33787L81.9392 4.28517L81.958 4.28076L81.9767 4.276L81.4831 2.33787ZM80.4448 2.58107L80.7683 4.55473L80.835 4.54379L80.9009 4.52836L80.4448 2.58107ZM79.4077 2.75107L78.6805 4.61419L79.1907 4.81333L79.7312 4.72473L79.4077 2.75107ZM78.3595 2.34195L79.0867 0.478836L78.5571 0.27214L77.998 0.374897L78.3595 2.34195ZM77.3226 2.53251L76.9611 0.565452L76.7462 0.60495L76.5449 0.689924L77.3226 2.53251ZM76.2967 2.96555L76.084 4.95421L76.5981 5.00919L77.0744 4.80814L76.2967 2.96555ZM75.2535 2.85399L75.0227 4.84062L75.0317 4.84168L75.0408 4.84265L75.2535 2.85399ZM74.2083 2.73257L74.4391 0.745927L74.4291 0.744769L74.4192 0.743712L74.2083 2.73257ZM73.162 2.62163L73.3729 0.632782L72.8949 0.582103L72.4461 0.754177L73.162 2.62163ZM72.1405 3.01326L71.5078 4.91053L72.1875 5.13721L72.8565 4.88072L72.1405 3.01326ZM71.0792 2.65931L71.712 0.762038L71.1437 0.572528L70.5648 0.726577L71.0792 2.65931ZM70.0535 2.93227L69.8352 4.92033L70.2067 4.96111L70.5678 4.865L70.0535 2.93227ZM69.0026 2.81689L69.2208 0.828837L68.5547 0.755707L67.979 1.09867L69.0026 2.81689ZM68.0056 3.4108L67.1986 5.24077L68.1427 5.65711L69.0292 5.12903L68.0056 3.4108ZM66.9221 2.93299L67.7291 1.10303L66.7054 0.651596L65.785 1.28768L66.9221 2.93299ZM65.9422 3.61018L65.3076 5.50683L66.2563 5.82426L67.0793 5.25549L65.9422 3.61018ZM64.8599 3.24807L65.4945 1.35142L65.1739 1.24414L64.8358 1.24822L64.8599 3.24807ZM63.8122 3.26072L63.7881 1.26087L63.1089 1.26907L62.5751 1.68924L63.8122 3.26072ZM62.8629 4.00809L62.0675 5.84315L63.1624 6.31767L64.1 5.57957L62.8629 4.00809ZM61.7425 3.52253L62.5379 1.68747L61.9292 1.42368L61.2836 1.57589L61.7425 3.52253ZM60.7252 3.76238L60.2662 1.81574L60.2464 1.82042L60.2267 1.82549L60.7252 3.76238ZM59.7139 4.02264L59.4423 6.00412L59.8317 6.05748L60.2123 5.95953L59.7139 4.02264ZM58.623 3.87316L58.8946 1.89168L57.8003 1.74172L57.0906 2.58805L58.623 3.87316ZM57.7696 4.89086L58.0409 6.87238L58.8059 6.76764L59.3021 6.17596L57.7696 4.89086ZM56.7411 5.03166L56.3078 6.98417L56.6575 7.06176L57.0123 7.01318L56.7411 5.03166ZM55.6162 4.78205L56.0495 2.82955L55.2056 2.64228L54.491 3.12863L55.6162 4.78205ZM54.699 5.40627L55.0233 7.3798L55.4591 7.30819L55.8243 7.05969L54.699 5.40627ZM53.6705 5.57526L53.3462 3.60172L53.1189 3.63908L52.9059 3.72717L53.6705 5.57526ZM52.7028 5.97561L52.0923 7.88016L52.7902 8.10387L53.4674 7.8237L52.7028 5.97561ZM51.5186 5.59602L52.1291 3.69148L51.0174 3.33511L50.1604 4.12792L51.5186 5.59602ZM50.6612 6.38923L50.3018 8.35667L51.2855 8.53635L52.0194 7.85733L50.6612 6.38923ZM49.5182 6.18042L49.8776 4.21297L48.6358 3.98613L47.8967 5.00954L49.5182 6.18042ZM48.747 7.24832L49.2499 9.18406L49.9469 9.00299L50.3684 8.41919L48.747 7.24832ZM47.7411 7.50965L47.9424 9.4995L48.0953 9.48403L48.244 9.44539L47.7411 7.50965ZM46.6878 7.61622L46.4865 5.62638L46.2563 5.64966L46.0375 5.72487L46.6878 7.61622ZM45.7041 7.9544L45.2577 9.90394L45.8143 10.0314L46.3543 9.84575L45.7041 7.9544ZM44.5374 7.68725L44.9839 5.73771L44.2994 5.58098L43.6673 5.88647L44.5374 7.68725ZM43.5898 8.14516L44.1937 10.0518L44.3306 10.0084L44.46 9.94594L43.5898 8.14516ZM42.5986 8.4591L41.9947 6.55244L41.8864 6.58674L41.7827 6.63309L42.5986 8.4591ZM41.6408 8.88704L40.8249 7.06103L40.5641 7.17758L40.3463 7.36249L41.6408 8.88704ZM40.7734 9.62357L41.0208 11.6082L41.613 11.5344L42.0679 11.1481L40.7734 9.62357ZM39.7272 9.75395L39.6408 11.7521L39.8083 11.7593L39.9745 11.7386L39.7272 9.75395ZM38.6301 9.70654L38.7164 7.7084L38.4861 7.69845L38.2595 7.74116L38.6301 9.70654ZM37.6038 9.90001L37.2333 7.93463L36.6714 8.04057L36.2504 8.42752L37.6038 9.90001ZM36.7477 10.687L37.166 12.6427L37.6994 12.5286L38.1011 12.1594L36.7477 10.687ZM35.7282 10.905L36.0254 12.8828L36.0863 12.8736L36.1465 12.8608L35.7282 10.905ZM34.6912 11.0608L34.3941 9.083L34.2086 9.11086L34.0316 9.17271L34.6912 11.0608ZM33.707 11.4046L34.0463 13.3757L34.2099 13.3475L34.3667 13.2927L33.707 11.4046ZM32.6765 11.582L32.9463 13.5637L32.9811 13.559L33.0157 13.553L32.6765 11.582ZM31.6363 11.7237L31.3664 9.74196L31.1356 9.7734L30.9182 9.85705L31.6363 11.7237ZM30.6611 12.0989L31.1998 14.0249L31.2909 13.9995L31.3792 13.9655L30.6611 12.0989ZM29.6594 12.379L29.1208 10.4529L28.9933 10.4885L28.8717 10.5406L29.6594 12.379ZM28.695 12.7922L28.5054 14.7832L29.0135 14.8316L29.4827 14.6306L28.695 12.7922ZM27.5852 12.6866L27.7747 10.6956L27.404 10.6603L27.0455 10.7608L27.5852 12.6866ZM26.5837 12.9672L26.044 11.0414L25.9787 11.0598L25.9147 11.0825L26.5837 12.9672ZM25.6009 13.3161L24.9319 11.4313L24.9228 11.4346L25.6009 13.3161ZM24.6197 13.6698L23.9415 11.7883L23.5601 11.9258L23.2623 12.2009L24.6197 13.6698ZM23.764 14.4605L23.9905 16.4476L24.6408 16.3735L25.1214 15.9293L23.764 14.4605ZM22.7174 14.5798L22.6949 16.5796L22.8198 16.581L22.9439 16.5669L22.7174 14.5798ZM21.6311 14.5675L21.6537 12.5676L21.6386 12.5675L21.6236 12.5675L21.6311 14.5675ZM20.5471 14.5716L20.5396 12.5716L19.586 12.5752L18.9885 13.3182L20.5471 14.5716ZM19.7553 15.5561L19.6557 17.5536L20.6746 17.6045L21.3139 16.8095L19.7553 15.5561ZM18.653 15.5011L18.7526 13.5036L18.535 13.4928L18.3201 13.529L18.653 15.5011ZM17.6172 15.676L17.2843 13.7039L16.7644 13.7916L16.3553 14.1243L17.6172 15.676ZM16.7493 16.3818L17.368 18.2837L17.7222 18.1684L18.0111 17.9335L16.7493 16.3818ZM15.7627 16.7028L15.3996 18.6695L15.8987 18.7617L16.3814 18.6047L15.7627 16.7028ZM14.596 16.4874L14.9591 14.5206L13.8949 14.3242L13.1483 15.1074L14.596 16.4874ZM13.7844 17.3388L14.1088 19.3123L14.7698 19.2036L15.232 18.7187L13.7844 17.3388ZM12.7453 17.5096L12.7121 19.5093L12.892 19.5123L13.0696 19.4831L12.7453 17.5096ZM11.6378 17.4912L11.671 15.4915L10.8417 15.4777L10.2461 16.0548L11.6378 17.4912ZM10.8131 18.2903L11.1808 20.2562L11.7725 20.1455L12.2048 19.7266L10.8131 18.2903ZM9.7805 18.4834L9.4128 16.5175L8.90478 16.6125L8.5064 16.9418L9.7805 18.4834ZM8.91154 19.2016L8.76359 21.1961L9.56568 21.2556L10.1856 20.7432L8.91154 19.2016ZM7.79836 19.119L7.94631 17.1245L7.6538 17.1028L7.36738 17.166L7.79836 19.119ZM6.78154 19.3434L7.10412 21.3172L7.1586 21.3083L7.21251 21.2964L6.78154 19.3434ZM5.75481 19.5112L5.4605 21.4894L5.76929 21.5354L6.07739 21.485L5.75481 19.5112ZM4.67994 19.3513L4.97424 17.3731L4.69084 17.3309L4.407 17.37L4.67994 19.3513ZM3.94654 19.4523L3.67361 17.471L1.69055 17.7442L1.96549 19.727L3.94654 19.4523ZM2.01506 20.0845C2.16677 21.1786 3.1767 21.9425 4.2708 21.7908C5.3649 21.6391 6.12886 20.6292 5.97715 19.5351L3.9961 19.8098L2.01506 20.0845ZM2.40814 20.4846L0.411352 20.5979L0.417017 20.6977L2.41381 20.5844L4.41059 20.4711L4.40493 20.3713L2.40814 20.4846ZM2.41381 20.5844L0.44868 20.9563L0.625014 21.8881L2.59014 21.5163L4.55527 21.1444L4.37893 20.2126L2.41381 20.5844ZM2.59014 21.5163L0.7315 20.7777L0.313004 21.8309L2.17164 22.5695L4.03028 23.308L4.44878 22.2548L2.59014 21.5163ZM2.17164 22.5695L0.348324 23.3914L0.8094 24.4142L2.63272 23.5923L4.45604 22.7704L3.99496 21.7476L2.17164 22.5695ZM2.63272 23.5923L0.678126 24.0161L0.901038 25.0443L2.85563 24.6205L4.81022 24.1968L4.58731 23.1686L2.63272 23.5923ZM2.85563 24.6205L0.922072 24.1093L0.642598 25.1663L2.57616 25.6776L4.50971 26.1888L4.78919 25.1318L2.85563 24.6205ZM2.57616 25.6776L0.577904 25.7612L0.621352 26.7997L2.6196 26.7161L4.61786 26.6325L4.57441 25.594L2.57616 25.6776ZM2.6196 26.7161L0.739628 27.3986L1.10945 28.4174L2.98943 27.735L4.8694 27.0526L4.49958 26.0337L2.6196 26.7161ZM2.98943 27.735L0.99239 27.6262L0.935513 28.6701L2.93255 28.7789L4.92959 28.8877L4.98647 27.8438L2.98943 27.735ZM2.93255 28.7789L1.08262 28.0188L0.641501 29.0924L2.49144 29.8525L4.34137 30.6126L4.78249 29.539L2.93255 28.7789ZM2.49144 29.8525L0.914844 31.0831L1.68913 32.0751L3.26572 30.8445L4.84231 29.6139L4.06803 28.6219L2.49144 29.8525ZM3.26572 30.8445L1.28759 30.5495L1.13093 31.6001L3.10906 31.8951L5.08719 32.1901L5.24385 31.1394L3.26572 30.8445ZM3.10906 31.8951L1.21981 32.5514L1.57295 33.568L3.4622 32.9117L5.35145 32.2554L4.99831 31.2388L3.10906 31.8951ZM3.4622 32.9117L1.61717 32.1398L1.16763 33.2142L3.01267 33.9861L4.85771 34.7581L5.30724 33.6836L3.4622 32.9117ZM3.01267 33.9861L1.05563 34.3984L1.27212 35.4261L3.22916 35.0138L5.1862 34.6015L4.96972 33.5739L3.01267 33.9861ZM3.22916 35.0138L1.27166 35.4239L1.48707 36.4521L3.44458 36.042L5.40208 35.632L5.18667 34.6037L3.22916 35.0138ZM3.44458 36.042L1.55034 36.6838L1.89527 37.7019L3.78951 37.0602L5.68375 36.4184L5.33881 35.4003L3.44458 36.042ZM3.78951 37.0602L2.08655 36.0114L1.41149 37.1075L3.11444 38.1563L4.8174 39.2051L5.49247 38.1089L3.78951 37.0602ZM3.11444 38.1563L1.60768 39.4715L2.45224 40.439L3.959 39.1239L5.46576 37.8087L4.6212 36.8411L3.11444 38.1563ZM3.959 39.1239L2.03426 38.5804L1.73138 39.6531L3.65612 40.1965L5.58086 40.74L5.88374 39.6674L3.959 39.1239ZM3.65612 40.1965L1.76095 40.8355L2.1012 41.8447L3.99637 41.2056L5.89154 40.5666L5.55129 39.5575L3.65612 40.1965ZM3.99637 41.2056L2.17123 40.3878L1.67667 41.4915L3.50181 42.3093L5.32695 43.1272L5.82151 42.0235L3.99637 41.2056ZM3.50181 42.3093L2.07365 43.7095L2.99163 44.6458L4.41979 43.2457L5.84795 41.8456L4.92997 40.9092L3.50181 42.3093ZM4.41979 43.2457L2.42696 43.0764L2.3371 44.1346L4.32992 44.3038L6.32275 44.4731L6.41262 43.4149L4.41979 43.2457ZM4.32992 44.3038L2.33218 44.3988L2.38174 45.4408L4.37948 45.3457L6.37723 45.2507L6.32767 44.2088L4.32992 44.3038ZM4.37948 45.3457L2.42467 45.7685L2.64479 46.7864L4.59961 46.3637L6.55443 45.941L6.3343 44.923L4.37948 45.3457ZM4.59961 46.3637L2.70257 45.7303L2.33196 46.8402L4.229 47.4736L6.12604 48.107L6.49664 46.9971L4.59961 46.3637ZM4.229 47.4736L2.49491 48.4701L3.04953 49.4352L4.78362 48.4388L6.51772 47.4423L5.96309 46.4771L4.229 47.4736ZM4.78362 48.4388L2.82377 48.8375L3.03115 49.8568L4.991 49.4581L6.95084 49.0593L6.74347 48.0401L4.78362 48.4388ZM4.991 49.4581L3.05794 48.9449L2.7629 50.0564L4.69595 50.5695L6.629 51.0827L6.92405 49.9712L4.991 49.4581ZM4.69595 50.5695L3.22327 51.9228L4.05244 52.8251L5.52513 51.4719L6.99781 50.1187L6.16863 49.2163L4.69595 50.5695ZM5.52513 51.4719L3.52514 51.4654L3.52171 52.5255L5.5217 52.532L7.52169 52.5384L7.52512 51.4784L5.52513 51.4719ZM5.5217 52.532L3.52229 52.4833L3.49629 53.5528L5.4957 53.6014L7.49511 53.65L7.52111 52.5806L5.5217 52.532ZM5.4957 53.6014L3.78096 54.6308L4.34569 55.5715L6.06043 54.5421L7.77518 53.5127L7.21044 52.572L5.4957 53.6014ZM6.06043 54.5421L4.12655 55.0521L4.39144 56.0566L6.32533 55.5466L8.25922 55.0367L7.99432 54.0322L6.06043 54.5421ZM6.32533 55.5466L4.39681 55.0167L4.08041 56.1682L6.00893 56.6981L7.93744 57.2281L8.25385 56.0766L6.32533 55.5466ZM6.00893 56.6981L4.76261 58.2623L5.77886 59.0721L7.02518 57.5079L8.2715 55.9437L7.25524 55.1339L6.00893 56.6981ZM7.02518 57.5079L5.13151 56.8644L4.72664 58.0559L6.62031 58.6994L8.51398 59.3428L8.91885 58.1513L7.02518 57.5079ZM6.62031 58.6994L4.77186 59.4631L5.17304 60.4341L7.0215 59.6704L8.86995 58.9067L8.46877 57.9357L6.62031 58.6994ZM7.0215 59.6704L5.72859 61.1963L6.66548 61.9902L7.95839 60.4643L9.25129 58.9384L8.3144 58.1445L7.0215 59.6704ZM7.95839 60.4643L6.05296 61.072L6.36661 62.0554L8.27204 61.4476L10.1775 60.8399L9.86381 59.8565L7.95839 60.4643ZM8.27204 61.4476L6.31129 61.0534L6.07184 62.2441L8.03259 62.6384L9.99335 63.0327L10.2328 61.8419L8.27204 61.4476ZM8.03259 62.6384L6.38013 63.7651L6.98379 64.6505L8.63626 63.5238L10.2887 62.3971L9.68506 61.5117L8.03259 62.6384ZM8.63626 63.5238L6.81077 64.3409L7.23566 65.2902L9.06115 64.4731L10.8866 63.656L10.4617 62.7067L8.63626 63.5238ZM9.06115 64.4731L7.16239 65.1014L7.49121 66.0951L9.38997 65.4669L11.2887 64.8386L10.9599 63.8448L9.06115 64.4731ZM9.38997 65.4669L7.53593 66.2169L7.92884 67.1882L9.78288 66.4382L11.6369 65.6882L11.244 64.7169L9.38997 65.4669ZM9.78288 66.4382L7.92595 67.181L8.32185 68.1707L10.1788 67.4278L12.0357 66.685L11.6398 65.6953L9.78288 66.4382ZM10.1788 67.4278L9.23609 69.1917L10.2836 69.7515L11.2263 67.9876L12.169 66.2237L11.1215 65.6639L10.1788 67.4278ZM11.2263 67.9876L9.41957 68.8454L9.87025 69.7946L11.677 68.9369L13.4837 68.079L13.033 67.1298L11.2263 67.9876ZM11.677 68.9369L10.6862 70.6742L11.6226 71.2082L12.6134 69.4708L13.6041 67.7335L12.6677 67.1995L11.677 68.9369ZM12.6134 69.4708L10.7445 70.1831L11.1504 71.2481L13.0192 70.5359L14.8881 69.8236L14.4822 68.7586L12.6134 69.4708ZM13.0192 70.5359L11.9792 72.2441L12.876 72.7902L13.9161 71.0819L14.9561 69.3736L14.0593 68.8276L13.0192 70.5359ZM13.9161 71.0819L12.8604 72.7806L13.7413 73.3279L14.7969 71.6292L15.8525 69.9305L14.9717 69.3831L13.9161 71.0819ZM14.7969 71.6292L14.2814 73.5616L15.2938 73.8317L15.8094 71.8993L16.3249 69.9669L15.3124 69.6968L14.7969 71.6292ZM15.8094 71.8993L14.9399 73.7004L15.8624 74.1458L16.732 72.3447L17.6015 70.5436L16.6789 70.0982L15.8094 71.8993ZM16.732 72.3447L16.0174 74.2127L16.9839 74.5824L17.6984 72.7144L18.413 70.8465L17.4465 70.4767L16.732 72.3447ZM17.6984 72.7144L17.2025 74.652L18.2073 74.9092L18.7033 72.9717L19.1992 71.0341L18.1944 70.7769L17.6984 72.7144ZM18.7033 72.9717L18.7222 74.9716L19.767 74.9617L19.748 72.9617L19.7291 70.9618L18.6843 70.9717L18.7033 72.9717ZM19.748 72.9617L19.8669 74.9582L20.9031 74.8965L20.7842 72.9001L20.6653 70.9036L19.6292 70.9653L19.748 72.9617ZM20.7842 72.9001L20.6709 74.8968L21.6959 74.955L21.8091 72.9582L21.9224 70.9614L20.8975 70.9033L20.7842 72.9001ZM21.8091 72.9582L21.6777 74.9539L22.7105 75.0219L22.8419 73.0262L22.9734 71.0306L21.9406 70.9625L21.8091 72.9582ZM22.8419 73.0262L22.0621 74.868L23.1241 75.3176L23.9039 73.4759L24.6837 71.6342L23.6217 71.1845L22.8419 73.0262ZM23.9039 73.4759L24.2424 75.447L25.2775 75.2693L24.939 73.2982L24.6006 71.327L23.5655 71.5047L23.9039 73.4759ZM24.939 73.2982L25.8905 75.0574L26.8857 74.5191L25.9343 72.7599L24.9828 71.0007L23.9876 71.539L24.939 73.2982ZM25.9343 72.7599L26.1679 74.7462L27.1973 74.6251L26.9636 72.6388L26.73 70.6525L25.7007 70.7736L25.9343 72.7599ZM26.9636 72.6388L26.6412 74.6126L27.7083 74.787L28.0307 72.8131L28.3532 70.8393L27.2861 70.665L26.9636 72.6388ZM28.0307 72.8131L28.0516 74.813L29.1004 74.8021L29.0795 72.8022L29.0586 70.8023L28.0098 70.8132L28.0307 72.8131ZM29.0795 72.8022L29.2238 74.797L30.2655 74.7216L30.1212 72.7268L29.9769 70.732L28.9352 70.8074L29.0795 72.8022ZM30.1212 72.7268L30.2657 74.7216L31.3084 74.6461L31.164 72.6513L31.0195 70.6565L29.9768 70.732L30.1212 72.7268ZM31.164 72.6513L31.7496 74.5637L32.7561 74.2554L32.1705 72.3431L31.5849 70.4307L30.5784 70.739L31.164 72.6513ZM32.1705 72.3431L32.3781 74.3323L33.4156 74.224L33.208 72.2348L33.0004 70.2456L31.9629 70.3539L32.1705 72.3431ZM33.208 72.2348L33.1787 74.2346L34.2359 74.2501L34.2652 72.2503L34.2946 70.2505L33.2373 70.235L33.208 72.2348ZM34.2652 72.2503L35.4243 73.8803L36.3669 73.21L35.2079 71.58L34.0489 69.9501L33.1062 70.6204L34.2652 72.2503ZM35.2079 71.58L36.0037 73.4149L36.9855 72.9891L36.1897 71.1542L35.394 69.3193L34.4121 69.7451L35.2079 71.58ZM36.1897 71.1542L36.1586 73.154L37.2163 73.1704L37.2474 71.1707L37.2785 69.1709L36.2209 69.1544L36.1897 71.1542ZM37.2474 71.1707L37.4984 73.1549L38.5311 73.0242L38.2802 71.04L38.0292 69.0558L36.9965 69.1865L37.2474 71.1707ZM38.2802 71.04L38.7508 72.9839L39.7635 72.7387L39.2929 70.7949L38.8223 68.851L37.8096 69.0962L38.2802 71.04ZM39.2929 70.7949L39.6781 72.7574L40.6987 72.5571L40.3135 70.5946L39.9283 68.632L38.9077 68.8323L39.2929 70.7949ZM40.3135 70.5946L39.8635 72.5433L40.9659 72.7979L41.4159 70.8491L41.8659 68.9004L40.7635 68.6459L40.3135 70.5946ZM41.4159 70.8491L42.424 72.5765L43.3803 72.0184L42.3722 70.291L41.3642 68.5636L40.4078 69.1218L41.4159 70.8491ZM42.3722 70.291L42.5654 72.2817L43.6041 72.1809L43.411 70.1902L43.2178 68.1996L42.1791 68.3004L42.3722 70.291ZM43.411 70.1902L43.8251 72.1469L44.8431 71.9314L44.429 69.9748L44.0149 68.0181L42.9969 68.2336L43.411 70.1902ZM44.429 69.9748L44.6737 71.9597L45.7075 71.8323L45.4628 69.8473L45.218 67.8623L44.1842 67.9898L44.429 69.9748ZM45.4628 69.8473L45.2652 71.8375L46.3415 71.9444L46.5391 69.9542L46.7367 67.964L45.6604 67.8571L45.4628 69.8473ZM46.5391 69.9542L47.968 71.3535L48.8599 70.4428L47.431 69.0434L46.0021 67.6441L45.1102 68.5548L46.5391 69.9542ZM47.431 69.0434L46.5071 70.8172L47.6738 71.425L48.5978 69.6512L49.5217 67.8774L48.3549 67.2696L47.431 69.0434ZM48.5978 69.6512L49.0226 71.6055L50.0394 71.3845L49.6145 69.4301L49.1896 67.4758L48.1729 67.6968L48.5978 69.6512ZM49.6145 69.4301L50.5895 71.1764L51.55 70.6401L50.5749 68.8939L49.5999 67.1476L48.6395 67.6839L49.6145 69.4301ZM50.5749 68.8939L51.4439 70.6952L52.4171 70.2258L51.5481 68.4244L50.6791 66.623L49.706 67.0925L50.5749 68.8939ZM51.5481 68.4244L51.8905 70.3949L52.9158 70.2167L52.5733 68.2462L52.2309 66.2758L51.2057 66.4539L51.5481 68.4244ZM52.5733 68.2462L53.0087 70.1983L54.0255 69.9715L53.5902 68.0195L53.1549 66.0674L52.138 66.2942L52.5733 68.2462ZM53.5902 68.0195L52.7841 69.8498L53.9268 70.3531L54.7329 68.5227L55.539 66.6924L54.3963 66.1891L53.5902 68.0195ZM54.7329 68.5227L55.54 70.3526L56.5209 69.92L55.7137 68.0901L54.9065 66.2602L53.9257 66.6928L54.7329 68.5227ZM55.7137 68.0901L55.7338 70.09L56.7864 70.0794L56.7663 68.0795L56.7462 66.0796L55.6936 66.0902L55.7137 68.0901ZM56.7663 68.0795L57.5148 69.9342L58.5027 69.5355L57.7542 67.6808L57.0058 65.8261L56.0178 66.2248L56.7663 68.0795ZM57.7542 67.6808L57.877 69.677L58.9201 69.6129L58.7974 67.6167L58.6747 65.6204L57.6315 65.6846L57.7542 67.6808ZM58.7974 67.6167L59.8998 69.2854L60.8533 68.6555L59.7509 66.9868L58.6485 65.318L57.695 65.9479L58.7974 67.6167ZM59.7509 66.9868L58.8444 68.7695L59.9871 69.3506L60.8936 67.5678L61.8002 65.7851L60.6574 65.204L59.7509 66.9868ZM60.8936 67.5678L62.0874 69.1725L63.0327 68.4693L61.8389 66.8646L60.6452 65.26L59.6999 65.9632L60.8936 67.5678ZM61.8389 66.8646L61.7536 68.8628L62.8117 68.908L62.8971 66.9098L62.9824 64.9117L61.9243 64.8665L61.8389 66.8646ZM62.8971 66.9098L63.0464 68.9043L64.0857 68.8264L63.9364 66.832L63.787 64.8376L62.7478 64.9154L62.8971 66.9098ZM63.9364 66.832L64.9829 68.5364L65.9524 67.9411L64.9059 66.2367L63.8594 64.5324L62.8899 65.1277L63.9364 66.832ZM64.9059 66.2367L64.4748 68.1897L65.5551 68.4282L65.9862 66.4752L66.4173 64.5222L65.337 64.2837L64.9059 66.2367ZM65.9862 66.4752L66.1192 68.4707L67.1578 68.4015L67.0248 66.406L66.8918 64.4104L65.8532 64.4796L65.9862 66.4752ZM67.0248 66.406L66.6069 68.3618L67.6788 68.5909L68.0967 66.635L68.5146 64.6791L67.4427 64.4501L67.0248 66.406ZM68.0967 66.635L69.2729 68.2526L70.2406 67.549L69.0644 65.9314L67.8882 64.3138L66.9205 65.0174L68.0967 66.635ZM69.0644 65.9314L69.1793 67.9281L70.2204 67.8682L70.1055 65.8715L69.9906 63.8748L68.9495 63.9347L69.0644 65.9314ZM70.1055 65.8715L69.787 67.8459L70.8497 68.0174L71.1683 66.0429L71.4868 64.0685L70.4241 63.897L70.1055 65.8715ZM71.1683 66.0429L71.0721 68.0406L72.1196 68.091L72.2157 66.0933L72.3119 64.0957L71.2644 64.0452L71.1683 66.0429ZM72.2157 66.0933L72.5889 68.0582L73.6135 67.8636L73.2404 65.8988L72.8672 63.9339L71.8426 64.1285L72.2157 66.0933ZM73.2404 65.8988L73.954 67.7671L74.9661 67.3805L74.2524 65.5122L73.5388 63.6438L72.5267 64.0304L73.2404 65.8988ZM74.2524 65.5122L74.6445 67.4734L75.6717 67.2681L75.2796 65.3069L74.8876 63.3456L73.8604 63.551L74.2524 65.5122ZM75.2796 65.3069L75.6545 67.2714L76.684 67.0749L76.3091 65.1104L75.9341 63.1458L74.9047 63.3423L75.2796 65.3069ZM76.3091 65.1104L75.3355 66.8574L76.4205 67.4621L77.3941 65.715L78.3676 63.968L77.2826 63.3633L76.3091 65.1104ZM77.3941 65.715L78.5992 67.3112L79.5921 66.5615L78.387 64.9654L77.1819 63.3692L76.189 64.1189L77.3941 65.715ZM78.387 64.9654L78.155 66.9519L79.206 67.0746L79.438 65.0881L79.67 63.1016L78.619 62.9789L78.387 64.9654ZM79.438 65.0881L79.597 67.0818L80.6349 66.999L80.4759 65.0053L80.3169 63.0116L79.279 63.0944L79.438 65.0881ZM80.4759 65.0053L80.1498 66.9786L81.1992 67.1519L81.5252 65.1787L81.8512 63.2054L80.8019 63.0321L80.4759 65.0053ZM81.5252 65.1787L81.9669 67.1293L82.9968 66.896L82.5551 64.9454L82.1133 62.9948L81.0835 63.2281L81.5252 65.1787ZM82.5551 64.9454L82.0667 66.8849L83.1211 67.1505L83.6096 65.211L84.098 63.2716L83.0435 63.006L82.5551 64.9454ZM83.6096 65.211L84.1339 67.141L85.1612 66.862L84.6368 64.9319L84.1125 63.0019L83.0852 63.281L83.6096 65.211ZM84.6368 64.9319L83.9363 66.8052L84.9993 67.2028L85.6999 65.3295L86.4005 63.4562L85.3374 63.0586L84.6368 64.9319ZM85.6999 65.3295L86.925 66.9104L87.9229 66.137L86.6978 64.5562L85.4727 62.9753L84.4748 63.7486L85.6999 65.3295ZM86.6978 64.5562L85.6741 66.2743L86.7661 66.9249L87.7897 65.2067L88.8134 63.4885L87.7215 62.838L86.6978 64.5562ZM87.7897 65.2067L88.1382 67.1761L89.1795 66.9919L88.831 65.0225L88.4826 63.0531L87.4413 63.2373L87.7897 65.2067ZM88.831 65.0225L90.2591 66.4227L91.1555 65.5084L89.7274 64.1082L88.2993 62.708L87.4029 63.6223L88.831 65.0225ZM89.7274 64.1082L90.0527 66.0816L91.0217 65.9219L90.6963 63.9485L90.371 61.9751L89.4021 62.1349L89.7274 64.1082ZM90.6963 63.9485L91.2184 65.8792L92.2159 65.6095L91.6938 63.6788L91.1718 61.7481L90.1743 62.0178L90.6963 63.9485ZM91.6938 63.6788L92.8016 65.3439L93.7655 64.7026L92.6577 63.0375L91.5499 61.3723L90.586 62.0136L91.6938 63.6788ZM92.6577 63.0375L94.6474 63.2405L94.7622 62.1148L92.7726 61.9118L90.7829 61.7088L90.668 62.8345L92.6577 63.0375ZM92.7726 61.9118L94.6342 62.6426L95.0176 61.6661L93.1559 60.9353L91.2942 60.2044L90.9109 61.181L92.7726 61.9118ZM93.1559 60.9353L95.1263 61.278L95.3057 60.2467L93.3353 59.904L91.3649 59.5613L91.1855 60.5925L93.1559 60.9353ZM93.3353 59.904L95.3285 60.0682L95.4144 59.0259L93.4211 58.8617L91.4279 58.6976L91.342 59.7399L93.3353 59.904ZM93.4211 58.8617L95.2762 59.6091L95.6751 58.619L93.82 57.8717L91.9648 57.1243L91.566 58.1144L93.4211 58.8617ZM93.82 57.8717L95.7925 58.202L95.965 57.1717L93.9925 56.8414L92.0199 56.5111L91.8474 57.5414L93.82 57.8717ZM93.9925 56.8414L95.8886 57.4775L96.2283 56.4648L94.3322 55.8287L92.436 55.1926L92.0963 56.2053L93.9925 56.8414ZM94.3322 55.8287L96.2304 55.199L95.8706 54.1142L93.9723 54.7439L92.074 55.3737L92.4339 56.4585L94.3322 55.8287ZM93.9723 54.7439L95.7546 55.6515L96.2646 54.6498L94.4823 53.7423L92.7001 52.8348L92.19 53.8364L93.9723 54.7439ZM94.4823 53.7423L96.4819 53.7003L96.4599 52.6518L94.4603 52.6938L92.4608 52.7358L92.4828 53.7843L94.4823 53.7423ZM94.4603 52.6938L96.4435 52.9528L96.5789 51.9155L94.5958 51.6565L92.6126 51.3976L92.4772 52.4349L94.4603 52.6938ZM94.5958 51.6565L96.5425 51.1982L96.2939 50.1421L94.3471 50.6004L92.4004 51.0587L92.649 52.1148L94.5958 51.6565ZM94.3471 50.6004L96.2544 49.9984L95.9222 48.9463L94.015 49.5483L92.1078 50.1504L92.4399 51.2025L94.3471 50.6004ZM94.015 49.5483L96.0145 49.5954L96.0389 48.5595L94.0394 48.5124L92.04 48.4653L92.0156 49.5012L94.015 49.5483ZM94.0394 48.5124L95.8981 49.2507L96.308 48.2188L94.4493 47.4805L92.5906 46.7421L92.1807 47.774L94.0394 48.5124ZM94.4493 47.4805L96.3802 46.9592L96.0993 45.9188L94.1684 46.4402L92.2376 46.9615L92.5185 48.0018L94.4493 47.4805ZM94.1684 46.4402L96.0732 47.0498L96.4067 46.0081L94.5019 45.3984L92.5971 44.7887L92.2636 45.8305L94.1684 46.4402ZM94.5019 45.3984L96.4695 45.0399L96.2806 44.0031L94.313 44.3616L92.3454 44.7201L92.5343 45.7569L94.5019 45.3984ZM94.313 44.3616L96.3119 44.2966L96.2781 43.2581L94.2792 43.3232L92.2802 43.3882L92.314 44.4267L94.313 44.3616ZM94.2792 43.3232L96.2585 43.0361L96.1087 42.0034L94.1294 42.2904L92.1501 42.5775L92.2999 43.6102L94.2792 43.3232ZM94.1294 42.2904L96.0238 41.6492L95.6806 40.6352L93.7862 41.2764L91.8918 41.9175L92.235 42.9316L94.1294 42.2904ZM93.7862 41.2764L95.78 41.4332L95.862 40.3915L93.8681 40.2346L91.8743 40.0778L91.7924 41.1195L93.7862 41.2764ZM93.8681 40.2346L95.8126 40.7025L96.0711 39.628L94.1266 39.1602L92.1821 38.6924L91.9236 39.7668L93.8681 40.2346ZM94.1266 39.1602L96.0938 38.7993L95.9055 37.7731L93.9384 38.134L91.9712 38.4949L92.1595 39.5211L94.1266 39.1602ZM93.9384 38.134L95.9238 37.8927L95.7978 36.8561L93.8124 37.0975L91.827 37.3388L91.953 38.3754L93.9384 38.134ZM93.8124 37.0975L95.3632 35.8346L94.6233 34.9259L93.0724 36.1887L91.5215 37.4516L92.2615 38.3603L93.8124 37.0975ZM93.0724 36.1887L94.9968 36.7332L95.3175 35.5999L93.393 35.0554L91.4686 34.511L91.1479 35.6443L93.0724 36.1887ZM93.393 35.0554L94.9558 33.8073L94.2384 32.9091L92.6756 34.1572L91.1129 35.4054L91.8303 36.3036L93.393 35.0554ZM92.6756 34.1572L94.5739 33.5275L94.2467 32.5412L92.3484 33.171L90.4502 33.8008L90.7774 34.787L92.6756 34.1572ZM92.3484 33.171L94.3347 32.9369L94.2121 31.8968L92.2259 32.131L90.2396 32.3651L90.3622 33.4051L92.3484 33.171ZM92.2259 32.131L94.1283 32.748L94.5094 31.5731L92.6069 30.9561L90.7045 30.3391L90.3234 31.5139L92.2259 32.131ZM92.6069 30.9561L94.5186 30.3685L94.2125 29.3726L92.3008 29.9602L90.3891 30.5479L90.6952 31.5437L92.6069 30.9561ZM92.3008 29.9602L93.694 28.5253L92.8257 27.6822L91.4325 29.1171L90.0393 30.552L90.9076 31.3951L92.3008 29.9602ZM91.4325 29.1171L93.4257 29.2815L93.5168 28.1774L91.5235 28.013L89.5303 27.8487L89.4392 28.9528L91.4325 29.1171ZM91.5235 28.013L93.5221 27.9374L93.4817 26.8702L91.4831 26.9458L89.4846 27.0214L89.5249 28.0886L91.5235 28.013ZM91.4831 26.9458L93.1481 25.8377L92.5413 24.926L90.8764 26.0341L89.2114 27.1423L89.8182 28.054L91.4831 26.9458ZM90.8764 26.0341L92.7916 25.458L92.4918 24.4615L90.5766 25.0376L88.6614 25.6137L88.9611 26.6102L90.8764 26.0341ZM90.5766 25.0376L92.2626 23.9618L91.6779 23.0455L89.9919 24.1213L88.3059 25.1972L88.8906 26.1135L90.5766 25.0376ZM89.9919 24.1213L91.8643 23.4184L91.4974 22.4411L89.625 23.144L87.7526 23.8469L88.1195 24.8242L89.9919 24.1213ZM89.625 23.144L91.4877 23.8723L91.9622 22.6588L90.0996 21.9304L88.2369 21.202L87.7624 22.4156L89.625 23.144ZM90.0996 21.9304L91.9835 21.259L91.6334 20.2768L89.7495 20.9482L87.8656 21.6197L88.2156 22.6018L90.0996 21.9304ZM89.7495 20.9482L91.5042 19.9886L90.992 19.052L89.2373 20.0117L87.4826 20.9714L87.9948 21.9079L89.7495 20.9482ZM89.2373 20.0117L91.2025 19.6402L91.0086 18.6143L89.0434 18.9858L87.0782 19.3572L87.2721 20.3832L89.2373 20.0117ZM89.0434 18.9858L91.036 18.8139L90.945 17.7586L88.9524 17.9306L86.9598 18.1025L87.0508 19.1577L89.0434 18.9858ZM88.9524 17.9306L90.8279 17.2359L90.4656 16.2578L88.5901 16.9524L86.7146 17.647L87.0769 18.6252L88.9524 17.9306ZM88.5901 16.9524L90.5032 16.3694L90.1998 15.3737L88.2867 15.9567L86.3735 16.5398L86.6769 17.5354L88.5901 16.9524ZM88.2867 15.9567L90.0709 15.0532L89.5926 14.1086L87.8083 15.0122L86.0241 15.9157L86.5024 16.8603L88.2867 15.9567ZM87.8083 15.0122L89.4666 13.8941L88.853 12.984L87.1947 14.1021L85.5364 15.2202L86.15 16.1303L87.8083 15.0122ZM87.1947 14.1021L89.0756 13.4223L88.7208 12.4406L86.8399 13.1204L84.959 13.8001L85.3137 14.7818L87.1947 14.1021ZM86.8399 13.1204L88.8383 13.0412L88.796 11.9738L86.7976 12.053L84.7992 12.1322L84.8415 13.1996L86.8399 13.1204ZM86.7976 12.053L88.5665 11.1197L88.0691 10.1771L86.3003 11.1105L84.5314 12.0438L85.0287 12.9863L86.7976 12.053ZM86.3003 11.1105L88.2992 11.0458L88.2646 9.97608L86.2657 10.0407L84.2667 10.1054L84.3013 11.1751L86.3003 11.1105ZM86.2657 10.0407L88.1132 9.27469L87.7108 8.30431L85.8633 9.07035L84.0158 9.8364L84.4182 10.8068L86.2657 10.0407ZM85.8633 9.07035L87.8519 9.28416L87.9707 8.17832L85.9822 7.96451L83.9937 7.75071L83.8748 8.85655L85.8633 9.07035ZM85.9822 7.96451L87.6218 6.81925L86.9858 5.90866L85.3462 7.05392L83.7066 8.19919L84.3426 9.10978L85.9822 7.96451ZM85.3462 7.05392L87.3391 6.88651L87.251 5.83709L85.258 6.0045L83.265 6.17192L83.3532 7.22134L85.3462 7.05392ZM85.258 6.0045L87.2537 5.87242L87.1838 4.8167L85.1881 4.94879L83.1925 5.08087L83.2624 6.13659L85.258 6.0045ZM85.1881 4.94879L87.186 5.04188L87.237 3.94637L85.2392 3.85328L83.2414 3.76019L83.1903 4.8557L85.1881 4.94879ZM85.2392 3.85328L87.0173 2.93767L86.4898 1.91335L84.7117 2.82896L82.9336 3.74458L83.4611 4.7689L85.2392 3.85328ZM84.7117 2.82896L85.4717 0.978988L84.3479 0.517293L83.5879 2.36727L82.8279 4.21725L83.9517 4.67894L84.7117 2.82896ZM83.5879 2.36727L84.1297 0.442059L83.0749 0.145218L82.5331 2.07043L81.9913 3.99564L83.046 4.29248L83.5879 2.36727ZM82.5331 2.07043L82.0395 0.132306L80.9894 0.39975L81.4831 2.33787L81.9767 4.276L83.0267 4.00855L82.5331 2.07043ZM81.4831 2.33787L81.027 0.390576L79.9887 0.633771L80.4448 2.58107L80.9009 4.52836L81.9392 4.28517L81.4831 2.33787ZM80.4448 2.58107L80.1213 0.607408L79.0842 0.77741L79.4077 2.75107L79.7312 4.72473L80.7683 4.55473L80.4448 2.58107ZM79.4077 2.75107L80.1349 0.887953L79.0867 0.478836L78.3595 2.34195L77.6323 4.20507L78.6805 4.61419L79.4077 2.75107ZM78.3595 2.34195L77.998 0.374897L76.9611 0.565452L77.3226 2.53251L77.6842 4.49956L78.721 4.30901L78.3595 2.34195ZM77.3226 2.53251L76.5449 0.689924L75.519 1.12297L76.2967 2.96555L77.0744 4.80814L78.1004 4.37509L77.3226 2.53251ZM76.2967 2.96555L76.5094 0.976892L75.4661 0.865326L75.2535 2.85399L75.0408 4.84265L76.084 4.95421L76.2967 2.96555ZM75.2535 2.85399L75.4843 0.867347L74.4391 0.745927L74.2083 2.73257L73.9775 4.7192L75.0227 4.84062L75.2535 2.85399ZM74.2083 2.73257L74.4192 0.743712L73.3729 0.632782L73.162 2.62163L72.9511 4.61049L73.9974 4.72142L74.2083 2.73257ZM73.162 2.62163L72.4461 0.754177L71.4246 1.14581L72.1405 3.01326L72.8565 4.88072L73.878 4.48909L73.162 2.62163ZM72.1405 3.01326L72.7733 1.11599L71.712 0.762038L71.0792 2.65931L70.4464 4.55658L71.5078 4.91053L72.1405 3.01326ZM71.0792 2.65931L70.5648 0.726577L69.5392 0.999541L70.0535 2.93227L70.5678 4.865L71.5936 4.59204L71.0792 2.65931ZM70.0535 2.93227L70.2718 0.944216L69.2208 0.828837L69.0026 2.81689L68.7843 4.80495L69.8352 4.92033L70.0535 2.93227ZM69.0026 2.81689L67.979 1.09867L66.982 1.69258L68.0056 3.4108L69.0292 5.12903L70.0261 4.53512L69.0026 2.81689ZM68.0056 3.4108L68.8126 1.58084L67.7291 1.10303L66.9221 2.93299L66.1151 4.76295L67.1986 5.24077L68.0056 3.4108ZM66.9221 2.93299L65.785 1.28768L64.8051 1.96487L65.9422 3.61018L67.0793 5.25549L68.0592 4.5783L66.9221 2.93299ZM65.9422 3.61018L66.5768 1.71353L65.4945 1.35142L64.8599 3.24807L64.2253 5.14472L65.3076 5.50683L65.9422 3.61018ZM64.8599 3.24807L64.8358 1.24822L63.7881 1.26087L63.8122 3.26072L63.8364 5.26058L64.8841 5.24793L64.8599 3.24807ZM63.8122 3.26072L62.5751 1.68924L61.6258 2.43661L62.8629 4.00809L64.1 5.57957L65.0493 4.83221L63.8122 3.26072ZM62.8629 4.00809L63.6582 2.17303L62.5379 1.68747L61.7425 3.52253L60.9472 5.35759L62.0675 5.84315L62.8629 4.00809ZM61.7425 3.52253L61.2836 1.57589L60.2662 1.81574L60.7252 3.76238L61.1841 5.70901L62.2015 5.46916L61.7425 3.52253ZM60.7252 3.76238L60.2267 1.82549L59.2154 2.08576L59.7139 4.02264L60.2123 5.95953L61.2236 5.69926L60.7252 3.76238ZM59.7139 4.02264L59.9854 2.04116L58.8946 1.89168L58.623 3.87316L58.3515 5.85464L59.4423 6.00412L59.7139 4.02264ZM58.623 3.87316L57.0906 2.58805L56.2371 3.60575L57.7696 4.89086L59.3021 6.17596L60.1555 5.15827L58.623 3.87316ZM57.7696 4.89086L57.4984 2.90934L56.4698 3.05014L56.7411 5.03166L57.0123 7.01318L58.0409 6.87238L57.7696 4.89086ZM56.7411 5.03166L57.1743 3.07916L56.0495 2.82955L55.6162 4.78205L55.1829 6.73455L56.3078 6.98417L56.7411 5.03166ZM55.6162 4.78205L54.491 3.12863L53.5738 3.75284L54.699 5.40627L55.8243 7.05969L56.7415 6.43547L55.6162 4.78205ZM54.699 5.40627L54.3747 3.43273L53.3462 3.60172L53.6705 5.57526L53.9948 7.54879L55.0233 7.3798L54.699 5.40627ZM53.6705 5.57526L52.9059 3.72717L51.9382 4.12753L52.7028 5.97561L53.4674 7.8237L54.4351 7.42334L53.6705 5.57526ZM52.7028 5.97561L53.3133 4.07107L52.1291 3.69148L51.5186 5.59602L50.9081 7.50057L52.0923 7.88016L52.7028 5.97561ZM51.5186 5.59602L50.1604 4.12792L49.303 4.92113L50.6612 6.38923L52.0194 7.85733L52.8768 7.06412L51.5186 5.59602ZM50.6612 6.38923L51.0206 4.42178L49.8776 4.21297L49.5182 6.18042L49.1588 8.14786L50.3018 8.35667L50.6612 6.38923ZM49.5182 6.18042L47.8967 5.00954L47.1256 6.07744L48.747 7.24832L50.3684 8.41919L51.1396 7.35129L49.5182 6.18042ZM48.747 7.24832L48.2441 5.31258L47.2382 5.57391L47.7411 7.50965L48.244 9.44539L49.2499 9.18406L48.747 7.24832ZM47.7411 7.50965L47.5398 5.51981L46.4865 5.62638L46.6878 7.61622L46.8891 9.60606L47.9424 9.4995L47.7411 7.50965ZM46.6878 7.61622L46.0375 5.72487L45.0539 6.06304L45.7041 7.9544L46.3543 9.84575L47.338 9.50757L46.6878 7.61622ZM45.7041 7.9544L46.1505 6.00485L44.9839 5.73771L44.5374 7.68725L44.091 9.63679L45.2577 9.90394L45.7041 7.9544ZM44.5374 7.68725L43.6673 5.88647L42.7196 6.34439L43.5898 8.14516L44.46 9.94594L45.4076 9.48802L44.5374 7.68725ZM43.5898 8.14516L42.986 6.2385L41.9947 6.55244L42.5986 8.4591L43.2024 10.3658L44.1937 10.0518L43.5898 8.14516ZM42.5986 8.4591L41.7827 6.63309L40.8249 7.06103L41.6408 8.88704L42.4567 10.7131L43.4145 10.2851L42.5986 8.4591ZM41.6408 8.88704L40.3463 7.36249L39.4789 8.09901L40.7734 9.62357L42.0679 11.1481L42.9353 10.4116L41.6408 8.88704ZM40.7734 9.62357L40.5261 7.63892L39.4799 7.76931L39.7272 9.75395L39.9745 11.7386L41.0208 11.6082L40.7734 9.62357ZM39.7272 9.75395L39.8136 7.75582L38.7164 7.7084L38.6301 9.70654L38.5437 11.7047L39.6408 11.7521L39.7272 9.75395ZM38.6301 9.70654L38.2595 7.74116L37.2333 7.93463L37.6038 9.90001L37.9744 11.8654L39.0006 11.6719L38.6301 9.70654ZM37.6038 9.90001L36.2504 8.42752L35.3942 9.21446L36.7477 10.687L38.1011 12.1594L38.9573 11.3725L37.6038 9.90001ZM36.7477 10.687L36.3293 8.73119L35.3099 8.94923L35.7282 10.905L36.1465 12.8608L37.166 12.6427L36.7477 10.687ZM35.7282 10.905L35.4311 8.92719L34.3941 9.083L34.6912 11.0608L34.9884 13.0386L36.0254 12.8828L35.7282 10.905ZM34.6912 11.0608L34.0316 9.17271L33.0474 9.51655L33.707 11.4046L34.3667 13.2927L35.3509 12.9489L34.6912 11.0608ZM33.707 11.4046L33.3677 9.43363L32.3372 9.61102L32.6765 11.582L33.0157 13.553L34.0463 13.3757L33.707 11.4046ZM32.6765 11.582L32.4066 9.60032L31.3664 9.74196L31.6363 11.7237L31.9061 13.7054L32.9463 13.5637L32.6765 11.582ZM31.6363 11.7237L30.9182 9.85705L29.943 10.2322L30.6611 12.0989L31.3792 13.9655L32.3544 13.5903L31.6363 11.7237ZM30.6611 12.0989L30.1224 10.1728L29.1208 10.4529L29.6594 12.379L30.1981 14.3051L31.1998 14.0249L30.6611 12.0989ZM29.6594 12.379L28.8717 10.5406L27.9073 10.9539L28.695 12.7922L29.4827 14.6306L30.4471 14.2173L29.6594 12.379ZM28.695 12.7922L28.8845 10.8012L27.7747 10.6956L27.5852 12.6866L27.3956 14.6776L28.5054 14.7832L28.695 12.7922ZM27.5852 12.6866L27.0455 10.7608L26.044 11.0414L26.5837 12.9672L27.1234 14.893L28.1249 14.6124L27.5852 12.6866ZM26.5837 12.9672L25.9147 11.0825L24.9319 11.4314L25.6009 13.3161L26.27 15.2009L27.2528 14.852L26.5837 12.9672ZM25.6009 13.3161L24.9228 11.4346L23.9415 11.7883L24.6197 13.6698L25.2978 15.5513L26.2791 15.1976L25.6009 13.3161ZM24.6197 13.6698L23.2623 12.2009L22.4067 12.9916L23.764 14.4605L25.1214 15.9293L25.977 15.1387L24.6197 13.6698ZM23.764 14.4605L23.5376 12.4733L22.4909 12.5926L22.7174 14.5798L22.9439 16.5669L23.9905 16.4476L23.764 14.4605ZM22.7174 14.5798L22.74 12.5799L21.6537 12.5676L21.6311 14.5675L21.6086 16.5674L22.6949 16.5796L22.7174 14.5798ZM21.6311 14.5675L21.6236 12.5675L20.5396 12.5716L20.5471 14.5716L20.5546 16.5716L21.6386 16.5675L21.6311 14.5675ZM20.5471 14.5716L18.9885 13.3182L18.1967 14.3028L19.7553 15.5561L21.3139 16.8095L22.1056 15.8249L20.5471 14.5716ZM19.7553 15.5561L19.855 13.5586L18.7526 13.5036L18.653 15.5011L18.5533 17.4987L19.6557 17.5536L19.7553 15.5561ZM18.653 15.5011L18.3201 13.529L17.2843 13.7039L17.6172 15.676L17.9501 17.6481L18.9858 17.4732L18.653 15.5011ZM17.6172 15.676L16.3553 14.1243L15.4874 14.8301L16.7493 16.3818L18.0111 17.9335L18.879 17.2276L17.6172 15.676ZM16.7493 16.3818L16.1305 14.4799L15.1439 14.8009L15.7627 16.7028L16.3814 18.6047L17.368 18.2837L16.7493 16.3818ZM15.7627 16.7028L16.1258 14.736L14.9591 14.5206L14.596 16.4874L14.2329 18.4542L15.3996 18.6695L15.7627 16.7028ZM14.596 16.4874L13.1483 15.1074L12.3367 15.9588L13.7844 17.3388L15.232 18.7187L16.0436 17.8674L14.596 16.4874ZM13.7844 17.3388L13.46 15.3653L12.4209 15.536L12.7453 17.5096L13.0696 19.4831L14.1088 19.3123L13.7844 17.3388ZM12.7453 17.5096L12.7784 15.5098L11.671 15.4915L11.6378 17.4912L11.6046 19.4909L12.7121 19.5093L12.7453 17.5096ZM11.6378 17.4912L10.2461 16.0548L9.42135 16.854L10.8131 18.2903L12.2048 19.7266L13.0295 18.9275L11.6378 17.4912ZM10.8131 18.2903L10.4454 16.3244L9.4128 16.5175L9.7805 18.4834L10.1482 20.4493L11.1808 20.2562L10.8131 18.2903ZM9.7805 18.4834L8.5064 16.9418L7.63744 17.6599L8.91154 19.2016L10.1856 20.7432L11.0546 20.0251L9.7805 18.4834ZM8.91154 19.2016L9.0595 17.2071L7.94631 17.1245L7.79836 19.119L7.6504 21.1135L8.76359 21.1961L8.91154 19.2016ZM7.79836 19.119L7.36738 17.166L6.35057 17.3904L6.78154 19.3434L7.21251 21.2964L8.22933 21.072L7.79836 19.119ZM6.78154 19.3434L6.45896 17.3696L5.43222 17.5374L5.75481 19.5112L6.07739 21.485L7.10412 21.3172L6.78154 19.3434ZM5.75481 19.5112L6.04911 17.533L4.97424 17.3731L4.67994 19.3513L4.38563 21.3295L5.4605 21.4894L5.75481 19.5112ZM4.67994 19.3513L4.407 17.37L3.67361 17.471L3.94654 19.4523L4.21947 21.4336L4.95287 21.3326L4.67994 19.3513ZM3.94654 19.4523L1.96549 19.727L2.01506 20.0845L3.9961 19.8098L5.97715 19.5351L5.92758 19.1776L3.94654 19.4523Z" fill="var(--stroke-0, black)"/>
</svg>
