<svg preserveAspectRatio="none" width="100%" height="100%" overflow="visible" style="display: block;" viewBox="0 0 42.3647 35.3283" fill="none" xmlns="http://www.w3.org/2000/svg">
<path id="Vector 3" d="M18.7329 8.48984C19.7454 8.04836 20.2083 6.86967 19.7668 5.85716C19.3254 4.84466 18.1467 4.38175 17.1342 4.82323L17.9335 6.65653L18.7329 8.48984ZM17.8419 6.6965L18.146 8.67324L18.4029 8.63371L18.6412 8.52981L17.8419 6.6965ZM16.8966 6.84193L16.134 8.69082L16.6495 8.90347L17.2007 8.81867L16.8966 6.84193ZM15.8475 6.4092L16.6101 4.56031L15.8239 4.23599L15.0449 4.57732L15.8475 6.4092ZM14.82 6.85938L15.2375 8.81532L15.4364 8.77287L15.6227 8.69125L14.82 6.85938ZM13.7918 7.07883L13.2941 9.01593L13.7495 9.13291L14.2092 9.03478L13.7918 7.07883ZM12.7359 6.80759L13.2336 4.87049L12.9232 4.79075L12.6035 4.81198L12.7359 6.80759ZM11.6973 6.87654L11.5648 4.88093L11.2303 4.90314L10.9213 5.03322L11.6973 6.87654ZM10.7016 7.29571L10.772 9.29447L11.1391 9.28154L11.4776 9.13902L10.7016 7.29571ZM9.66555 7.33219L9.25544 9.2897L9.49318 9.3395L9.73594 9.33096L9.66555 7.33219ZM8.51564 7.09128L8.92575 5.13378L7.47662 4.83018L6.76316 6.12754L8.51564 7.09128ZM7.91013 8.19234L8.84191 9.96203L9.37325 9.68227L9.66261 9.15609L7.91013 8.19234ZM7.01138 8.66555L6.07961 6.89586L5.46563 7.21913L5.18379 7.85319L7.01138 8.66555ZM6.58835 9.61724L7.58996 11.3484L8.15213 11.0231L8.41594 10.4296L6.58835 9.61724ZM5.59252 10.1934L4.59091 8.4623L3.97254 8.82008L3.7208 9.48867L5.59252 10.1934ZM5.22183 11.1779L3.35011 10.4732L3.3326 10.5197L3.31742 10.567L5.22183 11.1779ZM4.90225 12.1742L2.99784 11.5632L2.95083 11.7098L2.9268 11.8618L4.90225 12.1742ZM4.73568 13.2277L5.78017 14.9332L6.56703 14.4514L6.71114 13.54L4.73568 13.2277ZM3.63777 13.9L2.59328 12.1944L1.33242 12.9665L1.70087 14.3984L3.63777 13.9ZM3.95792 15.1442L5.47691 16.4452L6.15433 15.6543L5.89482 14.6458L3.95792 15.1442ZM3.24273 15.9792L1.72374 14.6781L1.24825 15.2333L1.24278 15.9642L3.24273 15.9792ZM3.23485 17.0323L4.79935 18.2782L5.22963 17.7379L5.2348 17.0472L3.23485 17.0323ZM2.47981 17.9804L0.915313 16.7344L0 17.8838L0.823131 19.1008L2.47981 17.9804ZM3.21331 19.0649L5.17069 19.4756L5.34468 18.6463L4.86998 17.9444L3.21331 19.0649ZM2.99918 20.0854L1.0418 19.6748L1.00219 19.8636L0.999395 20.0564L2.99918 20.0854ZM2.98419 21.1192L0.984403 21.0902L0.981207 21.3106L1.02608 21.5264L2.98419 21.1192ZM3.19455 22.1309L5.11785 22.6795L5.25292 22.2059L5.15267 21.7238L3.19455 22.1309ZM2.87263 23.2596L0.949332 22.711L0.687045 23.6306L1.23811 24.4121L2.87263 23.2596ZM3.51872 24.1759L5.39274 23.4773L5.30236 23.2348L5.15324 23.0233L3.51872 24.1759ZM3.88005 25.1452L5.87995 25.166L5.88382 24.7946L5.75408 24.4466L3.88005 25.1452ZM3.86785 26.3136L1.86796 26.2927L1.85492 27.5424L2.97238 28.102L3.86785 26.3136ZM4.97163 26.8663L6.74653 25.9445L6.44741 25.3686L5.86711 25.078L4.97163 26.8663ZM5.45362 27.7944L3.67872 28.7162L3.71293 28.7821L3.75193 28.8452L5.45362 27.7944ZM6.01918 28.7102L4.31748 29.7611L4.66194 30.3189L5.26978 30.5645L6.01918 28.7102ZM7.03901 29.1224L8.18502 27.4833L7.99893 27.3532L7.78841 27.2681L7.03901 29.1224ZM7.88464 29.7136L9.6595 28.7918L9.43314 28.3559L9.03065 28.0745L7.88464 29.7136ZM8.43675 30.7766L6.66188 31.6985L7.28967 32.9071L8.64432 32.7658L8.43675 30.7766ZM9.73017 30.6416L11.5113 29.7319L10.8872 28.51L9.5226 28.6524L9.73017 30.6416ZM10.3023 31.7618L8.52124 32.6716L8.88439 33.3825L9.6373 33.648L10.3023 31.7618ZM11.3216 32.1212L10.6566 34.0074L11.2615 34.2207L11.8776 34.0424L11.3216 32.1212ZM12.4972 31.781L12.9023 29.8224L12.4171 29.7221L11.9412 29.8598L12.4972 31.781ZM13.4886 31.986L14.7532 30.4365L14.3735 30.1267L13.8937 30.0274L13.4886 31.986ZM14.4273 32.752L13.1627 34.3015L13.8194 34.8374L14.6611 34.7383L14.4273 32.752ZM15.4903 32.6269L15.6364 30.6323L15.4461 30.6183L15.2565 30.6406L15.4903 32.6269ZM16.5274 32.7029L16.919 30.7416L16.7973 30.7173L16.6735 30.7082L16.5274 32.7029ZM17.556 32.9083L17.1643 34.8696L17.2131 34.8793L17.2623 34.8866L17.556 32.9083ZM18.5918 33.0621L18.9267 31.0903L18.9061 31.0868L18.8855 31.0837L18.5918 33.0621ZM19.6353 33.2393L19.3004 35.2111L19.9909 35.3283L20.6037 34.9893L19.6353 33.2393ZM20.675 32.664L21.0046 30.6914L20.3168 30.5764L19.7066 30.9141L20.675 32.664ZM21.7165 32.8381L21.3869 34.8107L21.957 34.906L22.49 34.6824L21.7165 32.8381ZM22.7209 32.4168L23.3776 30.5277L22.6539 30.2762L21.9474 30.5725L22.7209 32.4168ZM23.8031 32.7931L23.1464 34.6822L23.7371 34.8875L24.3395 34.7198L23.8031 32.7931ZM24.8142 32.5116L24.3918 30.5567L24.3344 30.5691L24.2778 30.5849L24.8142 32.5116ZM25.8287 32.2924L26.2511 34.2473L26.5031 34.1928L26.7331 34.0762L25.8287 32.2924ZM26.7673 31.8166L26.237 29.8881L26.0426 29.9416L25.8629 30.0327L26.7673 31.8166ZM27.7556 31.5448L28.2859 33.4732L28.3455 33.4568L28.4041 33.4367L27.7556 31.5448ZM28.7379 31.2081L29.3864 33.1L29.4671 33.0724L29.5451 33.0379L28.7379 31.2081ZM29.6887 30.7886L30.496 32.6184L30.7162 32.5213L30.9071 32.3746L29.6887 30.7886ZM30.5184 30.1512L31.7368 31.7373L31.7674 31.7137L31.7971 31.6891L30.5184 30.1512ZM31.3175 29.4867L30.2303 27.8081L30.1304 27.8728L30.0388 27.9489L31.3175 29.4867ZM32.1798 28.9282L31.1001 27.2447L31.0926 27.2496L32.1798 28.9282ZM33.0486 28.371L32.5497 26.4342L32.2389 26.5143L31.9688 26.6876L33.0486 28.371ZM34.1683 28.0826L34.6672 30.0194L35.2785 29.8619L35.6887 29.382L34.1683 28.0826ZM34.8589 27.2745L36.3793 28.5739L36.6249 28.2866L36.7486 27.9295L34.8589 27.2745ZM35.2288 26.2074L33.663 24.9631L33.4507 25.2301L33.339 25.5524L35.2288 26.2074ZM35.8672 25.4039L34.6451 23.8208L34.4527 23.9693L34.3014 24.1596L35.8672 25.4039ZM36.721 24.7448L37.9431 26.328L38.109 26.1999L38.2447 26.0403L36.721 24.7448ZM37.4033 23.9422L38.9271 25.2376L38.9886 25.1653L39.043 25.0874L37.4033 23.9422ZM38.0052 23.0804L39.6449 24.2256L39.6633 24.1992L39.6809 24.1722L38.0052 23.0804ZM38.5802 22.1978L40.256 23.2895L40.3955 23.0754L40.4766 22.8331L38.5802 22.1978ZM38.917 21.1926L37.147 20.2615L37.0718 20.4043L37.0206 20.5573L38.917 21.1926ZM39.4059 20.2633L37.7201 19.1872L37.6749 19.2579L37.6359 19.3321L39.4059 20.2633ZM39.9813 19.3619L41.6671 20.438L42.0511 19.8365L41.9676 19.1278L39.9813 19.3619ZM39.8448 18.2041L37.8461 18.2762L37.8491 18.3575L37.8586 18.4382L39.8448 18.2041ZM39.8071 17.1567L37.8956 16.5682L37.7962 16.8911L37.8084 17.2288L39.8071 17.1567ZM40.1122 16.1655L42.0237 16.7541L42.0899 16.539L42.1067 16.3146L40.1122 16.1655ZM40.1892 15.1358L42.1836 15.2848L42.1971 15.1044L42.178 14.9246L40.1892 15.1358ZM40.08 14.1076L42.0688 13.8964L42.0669 13.8788L42.0647 13.8612L40.08 14.1076ZM39.953 13.085L38.0081 12.619L37.9236 12.9716L37.9682 13.3314L39.953 13.085ZM40.2173 11.9819L42.1623 12.4478L42.3647 11.6031L41.8854 10.8785L40.2173 11.9819ZM39.6036 11.054L37.6644 11.5433L37.7477 11.8734L37.9355 12.1573L39.6036 11.054ZM39.3505 10.0507L41.2897 9.56143L41.2212 9.28985L41.0807 9.04754L39.3505 10.0507ZM38.8328 9.15787L40.563 8.15468L40.5219 8.0838L40.4751 8.01652L38.8328 9.15787ZM38.2408 8.30612L36.4978 9.28688L36.5443 9.36956L36.5985 9.44747L38.2408 8.30612ZM37.7037 7.35151L39.4467 6.37075L38.9276 5.44818L37.8728 5.35867L37.7037 7.35151ZM36.4359 7.24393L34.5029 7.75722L34.8642 9.11774L36.2668 9.23676L36.4359 7.24393ZM36.0988 5.9745L38.0318 5.4612L37.8368 4.72676L37.2033 4.30712L36.0988 5.9745ZM35.2242 5.39514L36.3287 3.72777L36.0661 3.55384L35.7628 3.46902L35.2242 5.39514ZM34.1632 5.09848L33.5674 7.00765L33.5959 7.01656L33.6247 7.0246L34.1632 5.09848ZM33.1495 4.78209L32.2806 6.58347L32.4132 6.64741L32.5536 6.69126L33.1495 4.78209ZM32.2538 4.35003L33.1227 2.54865L32.9669 2.47348L32.8005 2.42619L32.2538 4.35003ZM31.2859 4.07499L29.8173 5.4326L30.1987 5.84523L30.7392 5.99883L31.2859 4.07499ZM30.4402 3.16008L31.9088 1.80247L31.2595 1.1L30.305 1.16465L30.4402 3.16008ZM29.36 3.23324L28.791 5.15057L29.136 5.25299L29.4952 5.22867L29.36 3.23324ZM28.3453 2.93206L28.9144 1.01473L28.5202 0.897749L28.1119 0.945732L28.3453 2.93206ZM27.2842 3.05675L26.9271 5.02461L27.221 5.07794L27.5176 5.04309L27.2842 3.05675ZM26.2553 2.87004L26.6124 0.902174L26.0659 0.802999L25.5465 0.999852L26.2553 2.87004ZM25.1877 3.27466L23.933 4.83211L24.8252 5.55089L25.8965 5.14484L25.1877 3.27466ZM24.1901 2.471L25.4449 0.913543L24.3109 0L23.0933 0.79861L24.1901 2.471ZM23.1743 3.13723L23.2915 5.13379L23.8246 5.10251L24.2712 4.80962L23.1743 3.13723ZM22.1247 3.19881L22.0075 1.20225L21.7897 1.21503L21.5797 1.27451L22.1247 3.19881ZM21.1171 3.48419L20.5721 1.55988L20.0133 1.71816L19.6261 2.15116L21.1171 3.48419ZM20.3649 4.32553L20.635 6.30721L21.3649 6.20773L21.8559 5.65856L20.3649 4.32553ZM19.2789 4.47355L19.0088 2.49187L18.6735 2.53756L18.3719 2.69101L19.2789 4.47355ZM18.3494 4.94643L18.6888 6.91743L18.9868 6.86611L19.2564 6.72897L18.3494 4.94643ZM17.2836 5.12996L16.9442 3.15896L16.1435 3.29683L15.6658 3.95402L17.2836 5.12996ZM16.5872 6.08798L15.0439 7.36007L16.6865 9.35289L18.205 7.26392L16.5872 6.08798ZM18.0187 4.68025C17.3161 3.82791 16.0556 3.70648 15.2033 4.40904C14.351 5.11159 14.2295 6.37209 14.9321 7.22443L16.4754 5.95234L18.0187 4.68025ZM17.9335 6.65653L17.1342 4.82323L17.0425 4.8632L17.8419 6.6965L18.6412 8.52981L18.7329 8.48984L17.9335 6.65653ZM17.8419 6.6965L17.5377 4.71976L16.5925 4.86519L16.8966 6.84193L17.2007 8.81867L18.146 8.67324L17.8419 6.6965ZM16.8966 6.84193L17.6592 4.99304L16.6101 4.56031L15.8475 6.4092L15.0849 8.25808L16.134 8.69082L16.8966 6.84193ZM15.8475 6.4092L15.0449 4.57732L14.0174 5.0275L14.82 6.85938L15.6227 8.69125L16.6501 8.24107L15.8475 6.4092ZM14.82 6.85938L14.4026 4.90343L13.3743 5.12289L13.7918 7.07883L14.2092 9.03478L15.2375 8.81532L14.82 6.85938ZM13.7918 7.07883L14.2894 5.14173L13.2336 4.87049L12.7359 6.80759L12.2383 8.74469L13.2941 9.01593L13.7918 7.07883ZM12.7359 6.80759L12.6035 4.81198L11.5648 4.88093L11.6973 6.87654L11.8298 8.87215L12.8684 8.80319L12.7359 6.80759ZM11.6973 6.87654L10.9213 5.03322L9.92559 5.45239L10.7016 7.29571L11.4776 9.13902L12.4733 8.71985L11.6973 6.87654ZM10.7016 7.29571L10.6312 5.29695L9.59515 5.33343L9.66555 7.33219L9.73594 9.33096L10.772 9.29447L10.7016 7.29571ZM9.66555 7.33219L10.0756 5.37469L8.92575 5.13378L8.51564 7.09128L8.10554 9.04879L9.25544 9.2897L9.66555 7.33219ZM8.51564 7.09128L6.76316 6.12754L6.15765 7.22859L7.91013 8.19234L9.66261 9.15609L10.2681 8.05503L8.51564 7.09128ZM7.91013 8.19234L6.97836 6.42265L6.07961 6.89586L7.01138 8.66555L7.94315 10.4352L8.84191 9.96203L7.91013 8.19234ZM7.01138 8.66555L5.18379 7.85319L4.76077 8.80487L6.58835 9.61724L8.41594 10.4296L8.83896 9.47791L7.01138 8.66555ZM6.58835 9.61724L5.58675 7.88611L4.59091 8.4623L5.59252 10.1934L6.59413 11.9245L7.58996 11.3484L6.58835 9.61724ZM5.59252 10.1934L3.7208 9.48867L3.35011 10.4732L5.22183 11.1779L7.09355 11.8827L7.46424 10.8982L5.59252 10.1934ZM5.22183 11.1779L3.31742 10.567L2.99784 11.5632L4.90225 12.1742L6.80667 12.7851L7.12625 11.7888L5.22183 11.1779ZM4.90225 12.1742L2.9268 11.8618L2.76022 12.9153L4.73568 13.2277L6.71114 13.54L6.87771 12.4865L4.90225 12.1742ZM4.73568 13.2277L3.69119 11.5221L2.59328 12.1944L3.63777 13.9L4.68226 15.6056L5.78017 14.9332L4.73568 13.2277ZM3.63777 13.9L1.70087 14.3984L2.02102 15.6426L3.95792 15.1442L5.89482 14.6458L5.57468 13.4016L3.63777 13.9ZM3.95792 15.1442L2.43893 13.8431L1.72374 14.6781L3.24273 15.9792L4.76172 17.2802L5.47691 16.4452L3.95792 15.1442ZM3.24273 15.9792L1.24278 15.9642L1.23491 17.0173L3.23485 17.0323L5.2348 17.0472L5.24267 15.9941L3.24273 15.9792ZM3.23485 17.0323L1.67036 15.7863L0.915313 16.7344L2.47981 17.9804L4.0443 19.2263L4.79935 18.2782L3.23485 17.0323ZM2.47981 17.9804L0.823131 19.1008L1.55663 20.1854L3.21331 19.0649L4.86998 17.9444L4.13648 16.8599L2.47981 17.9804ZM3.21331 19.0649L1.25593 18.6542L1.0418 19.6748L2.99918 20.0854L4.95657 20.4961L5.17069 19.4756L3.21331 19.0649ZM2.99918 20.0854L0.999395 20.0564L0.984403 21.0902L2.98419 21.1192L4.98398 21.1482L4.99897 20.1144L2.99918 20.0854ZM2.98419 21.1192L1.02608 21.5264L1.23643 22.5381L3.19455 22.1309L5.15267 21.7238L4.94231 20.7121L2.98419 21.1192ZM3.19455 22.1309L1.27125 21.5824L0.949332 22.711L2.87263 23.2596L4.79593 23.8082L5.11785 22.6795L3.19455 22.1309ZM2.87263 23.2596L1.23811 24.4121L1.8842 25.3284L3.51872 24.1759L5.15324 23.0233L4.50715 22.1071L2.87263 23.2596ZM3.51872 24.1759L1.6447 24.8745L2.00603 25.8438L3.88005 25.1452L5.75408 24.4466L5.39274 23.4773L3.51872 24.1759ZM3.88005 25.1452L1.88016 25.1243L1.86796 26.2927L3.86785 26.3136L5.86775 26.3345L5.87995 25.166L3.88005 25.1452ZM3.86785 26.3136L2.97238 28.102L4.07615 28.6547L4.97163 26.8663L5.86711 25.078L4.76333 24.5253L3.86785 26.3136ZM4.97163 26.8663L3.19673 27.7881L3.67872 28.7162L5.45362 27.7944L7.22852 26.8726L6.74653 25.9445L4.97163 26.8663ZM5.45362 27.7944L3.75193 28.8452L4.31748 29.7611L6.01918 28.7102L7.72087 27.6594L7.15531 26.7436L5.45362 27.7944ZM6.01918 28.7102L5.26978 30.5645L6.28962 30.9767L7.03901 29.1224L7.78841 27.2681L6.76857 26.8559L6.01918 28.7102ZM7.03901 29.1224L5.893 30.7615L6.73863 31.3527L7.88464 29.7136L9.03065 28.0745L8.18502 27.4833L7.03901 29.1224ZM7.88464 29.7136L6.10977 30.6355L6.66188 31.6985L8.43675 30.7766L10.2116 29.8547L9.6595 28.7918L7.88464 29.7136ZM8.43675 30.7766L8.64432 32.7658L9.93774 32.6308L9.73017 30.6416L9.5226 28.6524L8.22918 28.7874L8.43675 30.7766ZM9.73017 30.6416L7.94906 31.5514L8.52124 32.6716L10.3023 31.7618L12.0835 30.8521L11.5113 29.7319L9.73017 30.6416ZM10.3023 31.7618L9.6373 33.648L10.6566 34.0074L11.3216 32.1212L11.9867 30.235L10.9674 29.8756L10.3023 31.7618ZM11.3216 32.1212L11.8776 34.0424L13.0532 33.7021L12.4972 31.781L11.9412 29.8598L10.7656 30.2001L11.3216 32.1212ZM12.4972 31.781L12.0922 33.7395L13.0836 33.9446L13.4886 31.986L13.8937 30.0274L12.9023 29.8224L12.4972 31.781ZM13.4886 31.986L12.2241 33.5355L13.1627 34.3015L14.4273 32.752L15.6918 31.2025L14.7532 30.4365L13.4886 31.986ZM14.4273 32.752L14.6611 34.7383L15.7241 34.6132L15.4903 32.6269L15.2565 30.6406L14.1935 30.7657L14.4273 32.752ZM15.4903 32.6269L15.3442 34.6216L16.3813 34.6976L16.5274 32.7029L16.6735 30.7082L15.6364 30.6323L15.4903 32.6269ZM16.5274 32.7029L16.1357 34.6642L17.1643 34.8696L17.556 32.9083L17.9476 30.947L16.919 30.7416L16.5274 32.7029ZM17.556 32.9083L17.2623 34.8866L18.2981 35.0404L18.5918 33.0621L18.8855 31.0837L17.8497 30.93L17.556 32.9083ZM18.5918 33.0621L18.2569 35.0338L19.3004 35.2111L19.6353 33.2393L19.9702 31.2675L18.9267 31.0903L18.5918 33.0621ZM19.6353 33.2393L20.6037 34.9893L21.6433 34.414L20.675 32.664L19.7066 30.9141L18.667 31.4894L19.6353 33.2393ZM20.675 32.664L20.3453 34.6367L21.3869 34.8107L21.7165 32.8381L22.0461 30.8654L21.0046 30.6914L20.675 32.664ZM21.7165 32.8381L22.49 34.6824L23.4944 34.2612L22.7209 32.4168L21.9474 30.5725L20.943 30.9937L21.7165 32.8381ZM22.7209 32.4168L22.0642 34.306L23.1464 34.6822L23.8031 32.7931L24.4598 30.904L23.3776 30.5277L22.7209 32.4168ZM23.8031 32.7931L24.3395 34.7198L25.3506 34.4383L24.8142 32.5116L24.2778 30.5849L23.2667 30.8663L23.8031 32.7931ZM24.8142 32.5116L25.2366 34.4665L26.2511 34.2473L25.8287 32.2924L25.4063 30.3375L24.3918 30.5567L24.8142 32.5116ZM25.8287 32.2924L26.7331 34.0762L27.6716 33.6004L26.7673 31.8166L25.8629 30.0327L24.9243 30.5085L25.8287 32.2924ZM26.7673 31.8166L27.2976 33.745L28.2859 33.4732L27.7556 31.5448L27.2253 29.6164L26.237 29.8881L26.7673 31.8166ZM27.7556 31.5448L28.4041 33.4367L29.3864 33.1L28.7379 31.2081L28.0894 29.3161L27.1071 29.6528L27.7556 31.5448ZM28.7379 31.2081L29.5451 33.0379L30.496 32.6184L29.6887 30.7886L28.8815 28.9588L27.9306 29.3782L28.7379 31.2081ZM29.6887 30.7886L30.9071 32.3746L31.7368 31.7373L30.5184 30.1512L29.3 28.5652L28.4703 29.2026L29.6887 30.7886ZM30.5184 30.1512L31.7971 31.6891L32.5963 31.0246L31.3175 29.4867L30.0388 27.9489L29.2397 28.6134L30.5184 30.1512ZM31.3175 29.4867L32.4048 31.1654L33.2671 30.6069L32.1798 28.9282L31.0926 27.2496L30.2303 27.8081L31.3175 29.4867ZM32.1798 28.9282L33.2596 30.6117L34.1283 30.0545L33.0486 28.371L31.9688 26.6876L31.1001 27.2448L32.1798 28.9282ZM33.0486 28.371L33.5474 30.3078L34.6672 30.0194L34.1683 28.0826L33.6694 26.1458L32.5497 26.4342L33.0486 28.371ZM34.1683 28.0826L35.6887 29.382L36.3793 28.5739L34.8589 27.2745L33.3385 25.9751L32.6479 26.7833L34.1683 28.0826ZM34.8589 27.2745L36.7486 27.9295L37.1185 26.8623L35.2288 26.2074L33.339 25.5524L32.9692 26.6196L34.8589 27.2745ZM35.2288 26.2074L36.7946 27.4516L37.4331 26.6482L35.8672 25.4039L34.3014 24.1596L33.663 24.9631L35.2288 26.2074ZM35.8672 25.4039L37.0894 26.987L37.9431 26.328L36.721 24.7448L35.4988 23.1617L34.6451 23.8208L35.8672 25.4039ZM36.721 24.7448L38.2447 26.0403L38.9271 25.2376L37.4033 23.9422L35.8796 22.6468L35.1972 23.4494L36.721 24.7448ZM37.4033 23.9422L39.043 25.0874L39.6449 24.2256L38.0052 23.0804L36.3655 21.9353L35.7636 22.797L37.4033 23.9422ZM38.0052 23.0804L39.6809 24.1722L40.256 23.2895L38.5802 22.1978L36.9045 21.1061L36.3294 21.9887L38.0052 23.0804ZM38.5802 22.1978L40.4766 22.8331L40.8134 21.828L38.917 21.1926L37.0206 20.5573L36.6838 21.5624L38.5802 22.1978ZM38.917 21.1926L40.687 22.1238L41.1759 21.1945L39.4059 20.2633L37.6359 19.3321L37.147 20.2615L38.917 21.1926ZM39.4059 20.2633L41.0917 21.3394L41.6671 20.438L39.9813 19.3619L38.2955 18.2857L37.7201 19.1872L39.4059 20.2633ZM39.9813 19.3619L41.9676 19.1278L41.8311 17.97L39.8448 18.2041L37.8586 18.4382L37.9951 19.596L39.9813 19.3619ZM39.8448 18.2041L41.8435 18.132L41.8058 17.0846L39.8071 17.1567L37.8084 17.2288L37.8461 18.2762L39.8448 18.2041ZM39.8071 17.1567L41.7185 17.7452L42.0237 16.7541L40.1122 16.1655L38.2008 15.577L37.8956 16.5682L39.8071 17.1567ZM40.1122 16.1655L42.1067 16.3146L42.1836 15.2848L40.1892 15.1358L38.1947 14.9868L38.1178 16.0165L40.1122 16.1655ZM40.1892 15.1358L42.178 14.9246L42.0688 13.8964L40.08 14.1076L38.0912 14.3188L38.2004 15.347L40.1892 15.1358ZM40.08 14.1076L42.0647 13.8612L41.9378 12.8386L39.953 13.085L37.9682 13.3314L38.0952 14.354L40.08 14.1076ZM39.953 13.085L41.898 13.551L42.1623 12.4478L40.2173 11.9819L38.2724 11.5159L38.0081 12.619L39.953 13.085ZM40.2173 11.9819L41.8854 10.8785L41.2717 9.95064L39.6036 11.054L37.9355 12.1573L38.5492 13.0852L40.2173 11.9819ZM39.6036 11.054L41.5428 10.5647L41.2897 9.56143L39.3505 10.0507L37.4112 10.54L37.6644 11.5433L39.6036 11.054ZM39.3505 10.0507L41.0807 9.04754L40.563 8.15468L38.8328 9.15787L37.1026 10.1611L37.6202 11.0539L39.3505 10.0507ZM38.8328 9.15787L40.4751 8.01652L39.8832 7.16477L38.2408 8.30612L36.5985 9.44747L37.1904 10.2992L38.8328 9.15787ZM38.2408 8.30612L39.9839 7.32536L39.4467 6.37075L37.7037 7.35151L35.9607 8.33227L36.4978 9.28688L38.2408 8.30612ZM37.7037 7.35151L37.8728 5.35867L36.605 5.25109L36.4359 7.24393L36.2668 9.23676L37.5346 9.34435L37.7037 7.35151ZM36.4359 7.24393L38.3689 6.73063L38.0318 5.4612L36.0988 5.9745L34.1658 6.4878L34.5029 7.75722L36.4359 7.24393ZM36.0988 5.9745L37.2033 4.30712L36.3287 3.72777L35.2242 5.39514L34.1197 7.06252L34.9944 7.64188L36.0988 5.9745ZM35.2242 5.39514L35.7628 3.46902L34.7018 3.17236L34.1632 5.09848L33.6247 7.0246L34.6856 7.32126L35.2242 5.39514ZM34.1632 5.09848L34.7591 3.18931L33.7454 2.87292L33.1495 4.78209L32.5536 6.69126L33.5674 7.00765L34.1632 5.09848ZM33.1495 4.78209L34.0185 2.98071L33.1227 2.54865L32.2538 4.35003L31.3849 6.1514L32.2806 6.58347L33.1495 4.78209ZM32.2538 4.35003L32.8005 2.42619L31.8326 2.15116L31.2859 4.07499L30.7392 5.99883L31.7071 6.27386L32.2538 4.35003ZM31.2859 4.07499L32.7546 2.71738L31.9088 1.80247L30.4402 3.16008L28.9715 4.51769L29.8173 5.4326L31.2859 4.07499ZM30.4402 3.16008L30.305 1.16465L29.2249 1.23781L29.36 3.23324L29.4952 5.22867L30.5753 5.15551L30.4402 3.16008ZM29.36 3.23324L29.9291 1.31591L28.9144 1.01473L28.3453 2.93206L27.7762 4.8494L28.791 5.15057L29.36 3.23324ZM28.3453 2.93206L28.1119 0.945732L27.0508 1.07042L27.2842 3.05675L27.5176 5.04309L28.5787 4.9184L28.3453 2.93206ZM27.2842 3.05675L27.6413 1.08889L26.6124 0.902174L26.2553 2.87004L25.8982 4.8379L26.9271 5.02461L27.2842 3.05675ZM26.2553 2.87004L25.5465 0.999852L24.4789 1.40447L25.1877 3.27466L25.8965 5.14484L26.9641 4.74022L26.2553 2.87004ZM25.1877 3.27466L26.4424 1.7172L25.4449 0.913543L24.1901 2.471L22.9354 4.02845L23.933 4.83211L25.1877 3.27466ZM24.1901 2.471L23.0933 0.79861L22.0775 1.46484L23.1743 3.13723L24.2712 4.80962L25.287 4.14339L24.1901 2.471ZM23.1743 3.13723L23.0572 1.14066L22.0075 1.20225L22.1247 3.19881L22.2418 5.19538L23.2915 5.13379L23.1743 3.13723ZM22.1247 3.19881L21.5797 1.27451L20.5721 1.55988L21.1171 3.48419L21.6622 5.40849L22.6697 5.12312L22.1247 3.19881ZM21.1171 3.48419L19.6261 2.15116L18.8739 2.9925L20.3649 4.32553L21.8559 5.65856L22.6081 4.81721L21.1171 3.48419ZM20.3649 4.32553L20.0948 2.34385L19.0088 2.49187L19.2789 4.47355L19.5489 6.45523L20.635 6.30721L20.3649 4.32553ZM19.2789 4.47355L18.3719 2.69101L17.4425 3.16389L18.3494 4.94643L19.2564 6.72897L20.1858 6.25609L19.2789 4.47355ZM18.3494 4.94643L18.0101 2.97543L16.9442 3.15896L17.2836 5.12996L17.6229 7.10095L18.6888 6.91743L18.3494 4.94643ZM17.2836 5.12996L15.6658 3.95402L14.9694 4.91204L16.5872 6.08798L18.205 7.26392L18.9013 6.3059L17.2836 5.12996ZM16.5872 6.08798L18.1305 4.81589L18.0187 4.68025L16.4754 5.95234L14.9321 7.22443L15.0439 7.36007L16.5872 6.08798Z" fill="var(--stroke-0, black)"/>
</svg>
