<svg preserveAspectRatio="none" width="100%" height="100%" overflow="visible" style="display: block;" viewBox="0 0 104.796 61.3112" fill="none" xmlns="http://www.w3.org/2000/svg">
<path id="Vector 51" d="M63.4602 7.15982C64.5648 7.16038 65.4607 6.2654 65.4612 5.16083C65.4618 4.05626 64.5668 3.16038 63.4622 3.15982L63.4612 5.15982L63.4602 7.15982ZM63.3612 5.15977L63.3622 3.15977L63.1971 3.15968L63.0343 3.18667L63.3612 5.15977ZM62.4243 5.31501L61.6165 7.14462L62.1625 7.38567L62.7512 7.28811L62.4243 5.31501ZM61.3866 4.85685L62.1944 3.02724L61.4266 2.68823L60.6467 2.99873L61.3866 4.85685ZM60.3459 5.27122L60.6699 7.2448L60.8841 7.20964L61.0858 7.12934L60.3459 5.27122ZM59.3051 5.44208L58.6886 7.34471L59.1502 7.49427L59.6291 7.41567L59.3051 5.44208ZM58.2665 5.1056L58.883 3.20297L58.5977 3.11053L58.2978 3.10585L58.2665 5.1056ZM57.2256 5.08934L57.2569 3.08958L56.9509 3.0848L56.6575 3.17173L57.2256 5.08934ZM56.1854 5.39753L55.9537 7.38407L56.3607 7.43153L56.7535 7.31514L56.1854 5.39753ZM55.1456 5.27628L54.2682 7.07352L54.5749 7.22328L54.914 7.26282L55.1456 5.27628ZM54.1047 4.76806L54.9821 2.97082L53.9384 2.46127L52.9786 3.11521L54.1047 4.76806ZM53.0646 5.47668L52.6412 7.43136L53.4808 7.61319L54.1907 7.12954L53.0646 5.47668ZM52.025 5.25151L52.4483 3.29684L51.9689 3.193L51.4959 3.32276L52.025 5.25151ZM50.9859 5.53653L50.093 7.32612L50.7774 7.66762L51.515 7.46528L50.9859 5.53653ZM49.9433 5.01628L50.8363 3.2267L50.2793 2.94878L49.663 3.03602L49.9433 5.01628ZM48.904 5.1634L49.1822 7.14396L49.1843 7.14366L48.904 5.1634ZM47.865 5.30935L47.5868 3.32879L47.4673 3.34557L47.3508 3.37658L47.865 5.30935ZM46.8274 5.58539L45.663 7.21146L46.43 7.76071L47.3416 7.51816L46.8274 5.58539ZM45.7797 4.83513L46.9441 3.20906L45.7566 2.35868L44.5852 3.23104L45.7797 4.83513ZM44.7488 5.60279L44.0487 7.47625L45.0694 7.85768L45.9434 7.20688L44.7488 5.60279ZM43.703 5.21197L44.4031 3.33851L43.8294 3.12411L43.234 3.26774L43.703 5.21197ZM42.6679 5.46167L41.6831 7.20241L42.3699 7.59093L43.1369 7.40589L42.6679 5.46167ZM41.6157 4.8664L42.6005 3.12565L41.4189 2.45717L40.3614 3.30861L41.6157 4.8664ZM40.5939 5.68911L40.2266 7.65508L41.1313 7.82415L41.8483 7.2469L40.5939 5.68911ZM39.5492 5.49389L39.9166 3.52792L39.7878 3.50387L39.6571 3.4968L39.5492 5.49389ZM38.5084 5.43767L38.6163 3.44058L38.4496 3.43158L38.2837 3.45033L38.5084 5.43767ZM37.4755 5.55443L36.6633 7.38207L37.1601 7.60283L37.7002 7.54177L37.4755 5.55443ZM36.4046 5.07849L37.2168 3.25084L36.389 2.88293L35.5664 3.26261L36.4046 5.07849ZM35.3933 5.54531L35.643 7.52966L35.9503 7.491L36.2315 7.36118L35.3933 5.54531ZM34.3627 5.67497L33.7455 7.57736L34.1698 7.715L34.6123 7.65932L34.3627 5.67497ZM33.2658 5.31912L33.8829 3.41672L32.8097 3.06853L31.9566 3.80712L33.2658 5.31912ZM32.3382 6.12228L32.3349 8.12227L33.0823 8.12349L33.6473 7.63427L32.3382 6.12228ZM31.2829 6.12056L31.2861 4.12056L31.2769 4.12055L31.2677 4.12062L31.2829 6.12056ZM30.2113 6.12869L30.1962 4.12874L29.5947 4.1333L29.0956 4.46884L30.2113 6.12869ZM29.3003 6.74112L29.9185 8.64315L30.1842 8.5568L30.416 8.40096L29.3003 6.74112ZM28.3103 7.06292L27.8843 9.01702L28.4135 9.13238L28.9286 8.96495L28.3103 7.06292ZM27.1445 6.80878L27.5705 4.85467L26.2848 4.57439L25.5186 5.64416L27.1445 6.80878ZM26.3881 7.86481L25.8357 9.787L27.1922 10.1769L28.0141 9.02942L26.3881 7.86481ZM25.178 7.51701L25.7304 5.59482L25.0127 5.38854L24.3354 5.70315L25.178 7.51701ZM24.226 7.95922L23.3834 6.14536L22.9488 6.34727L22.6528 6.72425L24.226 7.95922ZM23.4672 8.92581L24.1352 10.811L24.6821 10.6172L25.0404 10.1608L23.4672 8.92581ZM22.4922 9.27132L22.1456 11.2411L22.664 11.3323L23.1602 11.1565L22.4922 9.27132ZM21.2968 9.06097L21.6434 7.09123L20.8226 6.9468L20.1421 7.42796L21.2968 9.06097ZM20.4236 9.6784L21.2544 11.4977L21.4251 11.4197L21.5783 11.3114L20.4236 9.6784ZM19.4774 10.1105L20.1024 12.0104L20.2075 11.9758L20.3082 11.9298L19.4774 10.1105ZM18.4822 10.4379L17.8572 8.53811L17.803 8.55592L17.75 8.57677L18.4822 10.4379ZM17.5077 10.8213L18.2343 12.6847L18.2399 12.6824L17.5077 10.8213ZM16.5136 11.2089L15.7871 9.34552L15.0816 9.62059L14.7352 10.2939L16.5136 11.2089ZM15.9695 12.2665L16.865 14.0548L17.4491 13.7623L17.7479 13.1815L15.9695 12.2665ZM15.0286 12.7377L14.133 10.9494L13.6051 11.2138L13.3054 11.7225L15.0286 12.7377ZM14.4755 13.6767L15.0695 15.5864L15.8068 15.3571L16.1987 14.6918L14.4755 13.6767ZM13.3807 14.0172L12.7866 12.1075L12.2088 12.2872L11.8276 12.7571L13.3807 14.0172ZM12.7197 14.8319L14.1543 16.2255L14.2165 16.1614L14.2728 16.0921L12.7197 14.8319ZM11.9958 15.5771L10.5612 14.1836L10.4148 14.3343L10.3029 14.5122L11.9958 15.5771ZM11.4318 16.4738L12.7819 17.9494L12.981 17.7672L13.1247 17.5387L11.4318 16.4738ZM10.6637 17.1766L9.31358 15.701L9.30338 15.7105L10.6637 17.1766ZM9.89929 17.8858L8.53898 16.4197L8.50538 16.4509L8.47325 16.4836L9.89929 17.8858ZM9.16945 18.6281L7.7434 17.2258L7.60261 17.3689L7.49309 17.5373L9.16945 18.6281ZM8.59676 19.5082L10.2724 20.6L10.2731 20.599L8.59676 19.5082ZM8.02465 20.3862L9.51028 21.7252L9.61497 21.6091L9.70033 21.478L8.02465 20.3862ZM7.32919 21.1578L8.75592 22.5594L8.78604 22.5288L8.81481 22.4968L7.32919 21.1578ZM6.59897 21.9012L7.44593 23.713L7.77283 23.5602L8.02571 23.3027L6.59897 21.9012ZM5.55134 22.3909L4.70438 20.5791L4.1636 20.8319L3.84985 21.3397L5.55134 22.3909ZM4.99559 23.2905L3.2941 22.2393L3.10114 22.5516L3.03169 22.9121L4.99559 23.2905ZM4.78245 24.3969L6.52435 25.3796L6.68464 25.0955L6.74634 24.7752L4.78245 24.3969ZM4.28152 25.2848L5.78577 26.6028L5.92192 26.4474L6.02342 26.2675L4.28152 25.2848ZM3.57396 26.0923L2.06971 24.7743L1.89855 24.9696L1.78295 25.2022L3.57396 26.0923ZM3.10325 27.0395L1.31224 26.1493L1.24995 26.2747L1.20572 26.4075L3.10325 27.0395ZM2.76852 28.0445L0.870996 27.4125L0.850695 27.4734L0.834348 27.5356L2.76852 28.0445ZM2.49892 29.0692L0.564746 28.5603L0.495692 28.8227L0.499075 29.0941L2.49892 29.0692ZM2.51216 30.131L4.49063 30.4237L4.51399 30.2657L4.512 30.1061L2.51216 30.131ZM2.35876 31.1679L4.2995 31.6512L4.323 31.5568L4.33723 31.4606L2.35876 31.1679ZM2.10204 32.1989L0.161303 31.7157L0 32.3635L0.26014 32.9783L2.10204 32.1989ZM2.5531 33.2649L4.51361 32.8694L4.47368 32.6715L4.39501 32.4856L2.5531 33.2649ZM2.76462 34.3134L4.71538 34.7545L4.80972 34.3372L4.72512 33.9179L2.76462 34.3134ZM2.53125 35.3456L0.58049 34.9045L0.548684 35.0452L0.537391 35.189L2.53125 35.3456ZM2.44968 36.384L0.455825 36.2274L0.442347 36.399L0.458386 36.5704L2.44968 36.384ZM2.54566 37.4095L0.554358 37.5959L0.560685 37.6635L0.57158 37.7305L2.54566 37.4095ZM2.70902 38.4142L4.69587 38.6432L4.72766 38.3673L4.68309 38.0932L2.70902 38.4142ZM2.57896 39.5429L0.592105 39.3139L0.486533 40.2301L1.11473 40.9053L2.57896 39.5429ZM3.33743 40.3581L5.10704 39.4261L4.98299 39.1906L4.80166 38.9957L3.33743 40.3581ZM3.81544 41.2658L2.04583 42.1977L2.16597 42.4258L2.34004 42.616L3.81544 41.2658ZM4.51557 42.0308L6.01937 40.7122L6.00534 40.6962L5.99097 40.6805L4.51557 42.0308ZM5.20166 42.8132L6.92294 41.7948L6.82816 41.6346L6.70545 41.4947L5.20166 42.8132ZM5.75417 43.7471L4.03288 44.7655L4.53509 45.6143L5.51422 45.7326L5.75417 43.7471ZM7.01857 43.8999L8.98317 43.5252L8.7094 42.0896L7.25852 41.9143L7.01857 43.8999ZM7.26493 45.1917L5.30033 45.5664L5.44104 46.3042L6.03264 46.767L7.26493 45.1917ZM8.09492 45.841L6.86263 47.4163L7.12246 47.6195L7.4338 47.7286L8.09492 45.841ZM9.13789 46.2063L9.8623 44.3421L9.83086 44.3299L9.79901 44.3187L9.13789 46.2063ZM10.1415 46.5963L11.3209 44.9811L11.1097 44.8268L10.8659 44.7321L10.1415 46.5963ZM10.9777 47.2069L9.79824 48.8221L9.84904 48.8592L9.90208 48.893L10.9777 47.2069ZM11.852 47.7646L13.708 47.0193L13.4688 46.4237L12.9276 46.0785L11.852 47.7646ZM12.3173 48.9231L10.4613 49.6684L10.7951 50.4997L11.6376 50.8041L12.3173 48.9231ZM13.3277 49.2882L14.6754 47.8104L14.3815 47.5424L14.0073 47.4072L13.3277 49.2882ZM14.1069 49.9987L12.7592 51.4765L13.0471 51.739L13.4125 51.8743L14.1069 49.9987ZM15.1073 50.3691L16.3401 48.7942L16.0943 48.6019L15.8017 48.4935L15.1073 50.3691ZM15.9307 51.0137L14.698 52.5885L15.1345 52.9303L15.6847 52.9985L15.9307 51.0137ZM17.0617 51.1538L18.89 50.3431L18.4311 49.3083L17.3077 49.169L17.0617 51.1538ZM17.5815 52.3259L15.7532 53.1367L16.2716 54.3058L17.5504 54.3257L17.5815 52.3259ZM18.7622 52.3443L19.9947 50.7692L19.4653 50.355L18.7933 50.3445L18.7622 52.3443ZM19.5941 52.9952L18.3615 54.5703L18.4833 54.6656L18.6182 54.741L19.5941 52.9952ZM20.5056 53.5048L19.5298 55.2505L19.9896 55.5075L20.5163 55.5047L20.5056 53.5048ZM21.6387 53.4987L22.9729 52.0087L22.3988 51.4946L21.6281 51.4987L21.6387 53.4987ZM22.4588 54.233L21.1246 55.723L21.3628 55.9362L21.6556 56.0646L22.4588 54.233ZM23.4135 54.6517L24.6374 53.0699L24.4425 52.919L24.2167 52.82L23.4135 54.6517ZM24.2869 55.3274L23.063 56.9092L23.7957 57.4762L24.702 57.2839L24.2869 55.3274ZM25.4598 55.0786L26.1054 53.1857L25.5838 53.0078L25.0447 53.1222L25.4598 55.0786ZM26.4415 55.4135L27.4272 53.6732L27.2643 53.581L27.0872 53.5206L26.4415 55.4135ZM27.3785 55.9441L26.3929 57.6844L26.5149 57.7535L26.6454 57.8049L27.3785 55.9441ZM28.3608 56.3311L27.6277 58.1919L27.8692 58.2871L28.1271 58.3174L28.3608 56.3311ZM29.4025 56.4537L29.1688 58.44L29.3667 58.4633L29.5654 58.447L29.4025 56.4537ZM30.4819 56.3655L30.6175 54.3701L30.4682 54.3599L30.319 54.3721L30.4819 56.3655ZM31.5254 56.4364L31.3898 58.4318L31.3972 58.4323L31.4045 58.4327L31.5254 56.4364ZM32.5676 56.4995L33.9225 55.0283L33.3989 54.5462L32.6885 54.5031L32.5676 56.4995ZM33.4807 57.3405L32.1259 58.8116L33.0974 59.7064L34.3018 59.1642L33.4807 57.3405ZM34.6161 56.8293L35.2618 54.9364L34.5148 54.6816L33.7951 55.0056L34.6161 56.8293ZM35.615 57.17L34.9693 59.0629L35.1654 59.1298L35.371 59.1551L35.615 57.17ZM36.6462 57.2968L37.3439 55.4224L37.1236 55.3404L36.8902 55.3117L36.6462 57.2968ZM37.6438 57.6681L36.9461 59.5424L37.3206 59.6818L37.7199 59.6666L37.6438 57.6681ZM38.6988 57.6279L39.5226 55.8054L39.0933 55.6114L38.6226 55.6293L38.6988 57.6279ZM39.6894 58.0757L38.8656 59.8982L39.3476 60.116L39.8743 60.0672L39.6894 58.0757ZM40.7503 57.9772L41.7572 56.2492L41.2035 55.9266L40.5654 55.9858L40.7503 57.9772ZM41.7307 58.5486L40.7237 60.2766L41.6861 60.8375L42.6697 60.3144L41.7307 58.5486ZM42.845 57.956L44.1598 56.4489L43.122 55.5436L41.906 56.1902L42.845 57.956ZM43.8018 58.7908L42.487 60.2979L43.0296 60.7712L43.7495 60.7901L43.8018 58.7908ZM44.8468 58.8181L44.7945 60.8174L45.3731 60.8326L45.8704 60.5364L44.8468 58.8181ZM45.9527 58.1594L46.3576 56.2008L45.5967 56.0435L44.9291 56.4411L45.9527 58.1594ZM46.9747 58.3706L47.6734 56.4966L47.5297 56.4431L47.3796 56.412L46.9747 58.3706ZM47.9887 58.7486L48.7885 56.9155L48.7384 56.8937L48.6873 56.8746L47.9887 58.7486ZM49.0056 59.1923L48.2058 61.0254L48.8609 61.3112L49.5487 61.1171L49.0056 59.1923ZM50.0639 58.8936L50.2742 56.9047L49.8913 56.8642L49.5207 56.9688L50.0639 58.8936ZM51.1023 59.0034L50.892 60.9924L51.0467 61.0087L51.2021 61.0009L51.1023 59.0034ZM52.1446 58.9514L52.2444 60.9489L52.3098 60.9456L52.3748 60.9381L52.1446 58.9514ZM53.1839 58.831L53.576 56.8698L53.2669 56.808L52.9537 56.8443L53.1839 58.831ZM54.2302 59.0402L53.838 61.0013L54.0474 61.0432L54.2609 61.0399L54.2302 59.0402ZM55.274 59.0241L55.558 57.0444L55.4014 57.0219L55.2433 57.0243L55.274 59.0241ZM56.3315 59.1758L56.0476 61.1555L56.7099 61.2505L57.2961 60.9278L56.3315 59.1758ZM57.3331 58.6244L57.8946 56.7048L57.0967 56.4714L56.3685 56.8724L57.3331 58.6244ZM58.4126 58.9402L57.8511 60.8597L58.3375 61.002L58.833 60.8955L58.4126 58.9402ZM59.4394 58.7194L59.3049 56.7239L59.1605 56.7336L59.0189 56.764L59.4394 58.7194ZM60.4849 58.6489L60.6194 60.6444L60.9898 60.6194L61.3265 60.4632L60.4849 58.6489ZM61.4701 58.1919L62.3117 60.0061L62.386 59.9717L62.4572 59.9313L61.4701 58.1919ZM62.4288 57.6478L62.0448 55.685L61.725 55.7476L61.4417 55.9084L62.4288 57.6478ZM63.4435 57.4493L63.7527 55.4733L63.4049 55.4189L63.0595 55.4865L63.4435 57.4493ZM64.5396 57.6208L64.2304 59.5968L64.8943 59.7006L65.4863 59.3825L64.5396 57.6208ZM65.4884 57.111L65.6386 55.1166L65.0561 55.0727L64.5417 55.3492L65.4884 57.111ZM66.5788 57.1931L66.4286 59.1874L66.9321 59.2254L67.3932 59.0197L66.5788 57.1931ZM67.5415 56.7639L66.9982 54.8391L66.8591 54.8783L66.7271 54.9372L67.5415 56.7639ZM68.5414 56.4816L69.0847 58.4064L69.1939 58.3756L69.2989 58.3326L68.5414 56.4816ZM69.5068 56.0865L70.2643 57.9375L70.4321 57.8689L70.5848 57.7712L69.5068 56.0865ZM70.4099 55.5086L70.0961 53.5334L69.6837 53.5989L69.332 53.824L70.4099 55.5086ZM71.4461 55.344L71.4767 53.3442L71.3034 53.3416L71.1323 53.3688L71.4461 55.344ZM72.5526 55.3609L72.5219 57.3607L72.9266 57.3669L73.3019 57.2153L72.5526 55.3609ZM73.5186 54.9706L72.9129 53.0645L72.8401 53.0876L72.7693 53.1162L73.5186 54.9706ZM74.5126 54.6547L75.1184 56.5607L75.6574 56.3894L76.0269 55.9612L74.5126 54.6547ZM75.2788 53.7667L75.4883 51.7778L74.448 51.6681L73.7646 52.4602L75.2788 53.7667ZM76.4513 53.8903L76.2417 55.8793L77.2625 55.9868L77.9451 55.2201L76.4513 53.8903ZM77.2153 53.032L76.2694 51.2698L75.9571 51.4375L75.7215 51.7022L77.2153 53.032ZM78.1298 52.5411L77.5478 50.6277L77.3583 50.6853L77.1839 50.7789L78.1298 52.5411ZM79.1291 52.2371L79.3818 50.2532L78.9568 50.199L78.547 50.3237L79.1291 52.2371ZM80.3547 52.3933L80.102 54.3772L80.7376 54.4582L81.3019 54.1548L80.3547 52.3933ZM81.2769 51.8974L82.224 53.6589L82.6853 53.4109L82.9658 52.9687L81.2769 51.8974ZM81.9253 50.8753L81.658 48.8932L80.7352 49.0176L80.2364 49.804L81.9253 50.8753ZM83.0206 50.7276L83.2878 52.7097L83.4216 52.6916L83.5518 52.6558L83.0206 50.7276ZM84.0536 50.443L84.5848 52.3712L85.1417 52.2178L85.5311 51.791L84.0536 50.443ZM84.7935 49.6321L83.7433 47.93L83.5049 48.0771L83.316 48.2841L84.7935 49.6321ZM85.6789 49.0858L86.7291 50.788L86.9815 50.6323L87.1778 50.41L85.6789 49.0858ZM86.3958 48.2744L85.1743 46.6907L85.0233 46.8073L84.8969 46.9502L86.3958 48.2744ZM87.217 47.641L87.3257 45.6439L86.5838 45.6035L85.9955 46.0573L87.217 47.641ZM88.5176 47.7117L88.4089 49.7088L89.1821 49.7508L89.782 49.2613L88.5176 47.7117ZM89.3316 47.0475L90.596 48.5971L90.7394 48.4801L90.859 48.3386L89.3316 47.0475ZM90.0237 46.2287L88.9149 44.5642L88.6791 44.7213L88.4962 44.9376L90.0237 46.2287ZM90.8942 45.6489L89.8591 43.9375L89.8218 43.9601L89.7854 43.9843L90.8942 45.6489ZM91.8137 45.0927L92.8487 46.8041L93.1323 46.6326L93.3453 46.3788L91.8137 45.0927ZM92.4965 44.2795L94.0281 45.5656L94.0284 45.5653L92.4965 44.2795ZM93.1737 43.4727L94.7056 44.7585L94.8502 44.5862L94.9529 44.3862L93.1737 43.4727ZM93.6608 42.5239L95.44 43.4374L95.5203 43.2811L95.572 43.1133L93.6608 42.5239ZM93.9822 41.4819L92.2309 40.516L92.1316 40.696L92.071 40.8926L93.9822 41.4819ZM94.4793 40.5806L93.0513 39.1803L92.86 39.3754L92.7281 39.6147L94.4793 40.5806ZM95.2206 39.8247L96.6486 41.225L96.9952 40.8715L97.1369 40.3972L95.2206 39.8247ZM95.5231 38.8119L94.0117 37.5021L93.7299 37.8272L93.6068 38.2394L95.5231 38.8119ZM96.2184 38.0095L97.7298 39.3193L97.9913 39.0176L98.1169 38.6386L96.2184 38.0095ZM96.5468 37.0184L95.1432 35.5936L94.7999 35.9318L94.6483 36.3893L96.5468 37.0184ZM97.3383 36.2386L98.7419 37.6633L99.2979 37.1156L99.336 36.3361L97.3383 36.2386ZM97.3924 35.1308L95.6887 34.0832L95.4198 34.5205L95.3948 35.0333L97.3924 35.1308ZM97.9428 34.2357L99.6465 35.2833L99.6498 35.278L97.9428 34.2357ZM98.4936 33.3338L96.9006 32.1245L96.8394 32.2051L96.7866 32.2915L98.4936 33.3338ZM99.1563 32.4607L100.749 33.67L101.026 33.305L101.117 32.8559L99.1563 32.4607ZM99.3655 31.4231L101.326 31.8183L101.328 31.808L99.3655 31.4231ZM99.5678 30.3918L97.7956 29.4648L97.6611 29.722L97.6052 30.0068L99.5678 30.3918ZM100.063 29.4441L101.836 30.3711L102.065 29.9332L102.063 29.439L100.063 29.4441ZM100.061 28.3647L98.0612 28.3211L98.0607 28.3454L98.0608 28.3697L100.061 28.3647ZM100.084 27.2988L98.0911 27.1296L98.0858 27.1923L98.0844 27.2553L100.084 27.2988ZM100.173 26.2528L98.5394 25.0987L98.226 25.5423L98.18 26.0835L100.173 26.2528ZM100.822 25.3333L102.456 26.4874L102.786 26.0208L102.819 25.4504L100.822 25.3333ZM100.884 24.2813L102.881 24.3984L102.894 24.1789L102.859 23.9618L100.884 24.2813ZM100.706 23.1818L98.8243 22.505L98.6495 22.9912L98.732 23.5013L100.706 23.1818ZM101.062 22.1938L99.187 21.497L99.1833 21.5069L99.1797 21.5169L101.062 22.1938ZM101.428 21.2071L103.303 21.9039L103.306 21.8953L103.309 21.8866L101.428 21.2071ZM101.786 20.2169L103.667 20.8964L103.835 20.4313L103.767 19.9415L101.786 20.2169ZM101.636 19.1349L99.9119 18.1206L99.5588 18.7207L99.6547 19.4103L101.636 19.1349ZM102.203 18.171L103.927 19.1852L104.244 18.6459L104.197 18.0218L102.203 18.171ZM102.124 17.1116L100.191 16.5975L100.104 16.9239L100.129 17.2607L102.124 17.1116ZM102.396 16.0876L104.329 16.6016L104.517 15.8952L104.205 15.234L102.396 16.0876ZM101.905 15.0464L100.088 14.2104L99.6982 15.0571L100.096 15.8999L101.905 15.0464ZM102.397 13.976L104.214 14.812L104.796 13.5478L103.813 12.563L102.397 13.976ZM101.586 13.1636L99.6127 13.4888L99.7171 14.1223L100.171 14.5767L101.586 13.1636ZM101.41 12.0921L103.383 11.7669L103.294 11.2285L102.944 10.8098L101.41 12.0921ZM100.73 11.2785L102.265 9.9962L101.789 9.42625L101.056 9.30522L100.73 11.2785ZM99.5393 11.0818L97.6568 11.7571L98.0536 12.8635L99.2134 13.0551L99.5393 11.0818ZM99.1273 9.93323L101.01 9.25792L100.787 8.63565L100.236 8.269L99.1273 9.93323ZM98.2568 9.35304L99.366 7.68881L99.3516 7.67924L99.3371 7.66991L98.2568 9.35304ZM97.3777 8.78884L95.7396 9.93614L95.9657 10.259L96.2974 10.472L97.3777 8.78884ZM96.7465 7.88753L98.3847 6.74022L97.7514 5.83589L96.6486 5.88992L96.7465 7.88753ZM95.4198 7.95254L94.1507 9.4983L94.747 9.9879L95.5177 9.95014L95.4198 7.95254ZM94.6173 7.29372L92.8923 8.30583L93.0727 8.61328L93.3482 8.83948L94.6173 7.29372ZM94.0343 6.30009L95.7593 5.28797L95.3195 4.53831L94.4713 4.34841L94.0343 6.30009ZM92.9526 6.05788L91.7437 7.65122L92.0906 7.91441L92.5156 8.00956L92.9526 6.05788ZM92.1225 5.42815L93.3314 3.83482L93.1394 3.68918L92.9184 3.59331L92.1225 5.42815ZM91.1638 5.01231L89.3853 5.92715L89.7122 6.56275L90.3679 6.84716L91.1638 5.01231ZM90.5947 3.90595L92.3732 2.99111L91.8242 1.9238L90.6241 1.90616L90.5947 3.90595ZM89.4217 3.88871L87.9047 5.19208L88.4917 5.87526L89.3923 5.88849L89.4217 3.88871ZM88.649 2.98932L90.1659 1.68595L89.1935 0.554159L87.8316 1.16395L88.649 2.98932ZM87.437 3.532L87.0676 5.4976L87.6829 5.61321L88.2543 5.35737L87.437 3.532ZM86.434 3.34355L85.8303 5.25023L85.9457 5.28679L86.0647 5.30915L86.434 3.34355ZM85.4296 3.02548L86.0334 1.1188L85.7931 1.04268L85.5413 1.0286L85.4296 3.02548ZM84.3953 2.96762L83.2687 4.62014L83.7282 4.93343L84.2836 4.9645L84.3953 2.96762ZM83.4058 2.29305L84.5323 0.64053L83.9432 0.238904L83.2329 0.30054L83.4058 2.29305ZM82.3537 2.38434L82.2586 4.38208L82.3927 4.38847L82.5266 4.37686L82.3537 2.38434ZM81.3134 2.33483L81.4084 0.337095L81.2873 0.331331L81.1664 0.34024L81.3134 2.33483ZM80.2664 2.41197L80.1194 0.417378L79.8272 0.438908L79.5534 0.543362L80.2664 2.41197ZM79.2036 2.81747L78.7874 4.77368L79.3649 4.89655L79.9166 4.68608L79.2036 2.81747ZM78.1745 2.59852L77.4498 4.46261L77.6003 4.52112L77.7583 4.55473L78.1745 2.59852ZM77.1515 2.20083L77.8762 0.336735L77.6558 0.251042L77.4214 0.219125L77.1515 2.20083ZM76.1148 2.05963L76.3847 0.077925L75.8125 0L75.2869 0.239021L76.1148 2.05963ZM75.0568 2.54073L74.8537 4.53039L75.3921 4.58534L75.8847 4.36134L75.0568 2.54073ZM74.0196 2.43486L73.7513 4.41679L73.7838 4.4212L73.8165 4.42453L74.0196 2.43486ZM72.994 2.29605L73.2622 0.314122L72.9721 0.274852L72.6829 0.320393L72.994 2.29605ZM71.9681 2.45759L71.9918 4.45745L72.1364 4.45573L72.2792 4.43324L71.9681 2.45759ZM70.9245 2.46997L70.9311 4.46996L70.9397 4.46993L70.9482 4.46983L70.9245 2.46997ZM69.8747 2.47348L69.868 0.473492L69.6021 0.47438L69.3458 0.544682L69.8747 2.47348ZM68.8656 2.75018L69.2894 4.70477L69.3423 4.6933L69.3945 4.67898L68.8656 2.75018ZM67.8505 2.97026L67.4267 1.01567L67.2488 1.05426L67.0807 1.12435L67.8505 2.97026ZM66.8863 3.37236L66.789 5.36999L67.2397 5.39196L67.6561 5.21827L66.8863 3.37236ZM65.77 3.31795L65.8674 1.32032L65.4427 1.29962L65.0464 1.45345L65.77 3.31795ZM64.7901 3.69829L64.0664 1.8338L63.9881 1.86419L63.9126 1.90105L64.7901 3.69829ZM63.8624 4.15121L64.4737 6.05548L64.6106 6.01153L64.7398 5.94845L63.8624 4.15121ZM62.9023 4.45942L62.2909 2.55514L61.8616 2.69297L61.533 3.00168L62.9023 4.45942ZM62.2798 5.04418L60.2847 5.18409L60.5793 9.38547L63.6491 6.50192L62.2798 5.04418ZM64.246 4.49349C64.1688 3.39163 63.2129 2.56103 62.111 2.6383C61.0092 2.71557 60.1786 3.67144 60.2558 4.77331L62.2509 4.6334L64.246 4.49349ZM63.4612 5.15982L63.4622 3.15982L63.3622 3.15977L63.3612 5.15977L63.3602 7.15977L63.4602 7.15982L63.4612 5.15982ZM63.3612 5.15977L63.0343 3.18667L62.0974 3.34192L62.4243 5.31501L62.7512 7.28811L63.6882 7.13287L63.3612 5.15977ZM62.4243 5.31501L63.2321 3.48541L62.1944 3.02724L61.3866 4.85685L60.5788 6.68645L61.6165 7.14462L62.4243 5.31501ZM61.3866 4.85685L60.6467 2.99873L59.6061 3.4131L60.3459 5.27122L61.0858 7.12934L62.1264 6.71497L61.3866 4.85685ZM60.3459 5.27122L60.0219 3.29764L58.9811 3.4685L59.3051 5.44208L59.6291 7.41567L60.6699 7.2448L60.3459 5.27122ZM59.3051 5.44208L59.9215 3.53946L58.883 3.20297L58.2665 5.1056L57.6501 7.00823L58.6886 7.34471L59.3051 5.44208ZM58.2665 5.1056L58.2978 3.10585L57.2569 3.08958L57.2256 5.08934L57.1944 7.08909L58.2353 7.10536L58.2665 5.1056ZM57.2256 5.08934L56.6575 3.17173L55.6173 3.47992L56.1854 5.39753L56.7535 7.31514L57.7938 7.00695L57.2256 5.08934ZM56.1854 5.39753L56.417 3.41099L55.3773 3.28974L55.1456 5.27628L54.914 7.26282L55.9537 7.38407L56.1854 5.39753ZM55.1456 5.27628L56.0231 3.47904L54.9821 2.97082L54.1047 4.76806L53.2272 6.5653L54.2682 7.07352L55.1456 5.27628ZM54.1047 4.76806L52.9786 3.11521L51.9385 3.82383L53.0646 5.47668L54.1907 7.12954L55.2308 6.42092L54.1047 4.76806ZM53.0646 5.47668L53.4879 3.522L52.4483 3.29684L52.025 5.25151L51.6016 7.20619L52.6412 7.43136L53.0646 5.47668ZM52.025 5.25151L51.4959 3.32276L50.4568 3.60778L50.9859 5.53653L51.515 7.46528L52.554 7.18026L52.025 5.25151ZM50.9859 5.53653L51.8789 3.74695L50.8363 3.2267L49.9433 5.01628L49.0503 6.80587L50.093 7.32612L50.9859 5.53653ZM49.9433 5.01628L49.663 3.03602L48.6237 3.18314L48.904 5.1634L49.1843 7.14366L50.2236 6.99654L49.9433 5.01628ZM48.904 5.1634L48.6258 3.18284L47.5868 3.32879L47.865 5.30935L48.1432 7.2899L49.1822 7.14396L48.904 5.1634ZM47.865 5.30935L47.3508 3.37658L46.3132 3.65263L46.8274 5.58539L47.3416 7.51816L48.3792 7.24211L47.865 5.30935ZM46.8274 5.58539L47.9918 3.95933L46.9441 3.20906L45.7797 4.83513L44.6153 6.46119L45.663 7.21146L46.8274 5.58539ZM45.7797 4.83513L44.5852 3.23104L43.5543 3.9987L44.7488 5.60279L45.9434 7.20688L46.9742 6.43921L45.7797 4.83513ZM44.7488 5.60279L45.4489 3.72933L44.4031 3.33851L43.703 5.21197L43.0029 7.08543L44.0487 7.47625L44.7488 5.60279ZM43.703 5.21197L43.234 3.26774L42.1989 3.51744L42.6679 5.46167L43.1369 7.40589L44.172 7.1562L43.703 5.21197ZM42.6679 5.46167L43.6527 3.72092L42.6005 3.12565L41.6157 4.8664L40.6309 6.60715L41.6831 7.20241L42.6679 5.46167ZM41.6157 4.8664L40.3614 3.30861L39.3396 4.13132L40.5939 5.68911L41.8483 7.2469L42.87 6.42419L41.6157 4.8664ZM40.5939 5.68911L40.9613 3.72314L39.9166 3.52792L39.5492 5.49389L39.1818 7.45986L40.2266 7.65508L40.5939 5.68911ZM39.5492 5.49389L39.6571 3.4968L38.6163 3.44058L38.5084 5.43767L38.4005 7.43476L39.4413 7.49098L39.5492 5.49389ZM38.5084 5.43767L38.2837 3.45033L37.2509 3.56708L37.4755 5.55443L37.7002 7.54177L38.733 7.42501L38.5084 5.43767ZM37.4755 5.55443L38.2878 3.72678L37.2168 3.25084L36.4046 5.07849L35.5924 6.90614L36.6633 7.38207L37.4755 5.55443ZM36.4046 5.07849L35.5664 3.26261L34.5551 3.72943L35.3933 5.54531L36.2315 7.36118L37.2428 6.89437L36.4046 5.07849ZM35.3933 5.54531L35.1437 3.56095L34.113 3.69061L34.3627 5.67497L34.6123 7.65932L35.643 7.52966L35.3933 5.54531ZM34.3627 5.67497L34.9798 3.77257L33.8829 3.41672L33.2658 5.31912L32.6486 7.22151L33.7455 7.57736L34.3627 5.67497ZM33.2658 5.31912L31.9566 3.80712L31.029 4.61028L32.3382 6.12228L33.6473 7.63427L34.5749 6.83111L33.2658 5.31912ZM32.3382 6.12228L32.3414 4.12228L31.2861 4.12056L31.2829 6.12056L31.2796 8.12056L32.3349 8.12227L32.3382 6.12228ZM31.2829 6.12056L31.2677 4.12062L30.1962 4.12874L30.2113 6.12869L30.2265 8.12863L31.298 8.1205L31.2829 6.12056ZM30.2113 6.12869L29.0956 4.46884L28.1845 5.08127L29.3003 6.74112L30.416 8.40096L31.3271 7.78853L30.2113 6.12869ZM29.3003 6.74112L28.682 4.83908L27.692 5.16088L28.3103 7.06292L28.9286 8.96495L29.9185 8.64315L29.3003 6.74112ZM28.3103 7.06292L28.7363 5.10881L27.5705 4.85467L27.1445 6.80878L26.7185 8.76289L27.8843 9.01702L28.3103 7.06292ZM27.1445 6.80878L25.5186 5.64416L24.7622 6.70019L26.3881 7.86481L28.0141 9.02942L28.7705 7.9734L27.1445 6.80878ZM26.3881 7.86481L26.9406 5.94262L25.7304 5.59482L25.178 7.51701L24.6255 9.43919L25.8357 9.787L26.3881 7.86481ZM25.178 7.51701L24.3354 5.70315L23.3834 6.14536L24.226 7.95922L25.0686 9.77307L26.0205 9.33086L25.178 7.51701ZM24.226 7.95922L22.6528 6.72425L21.894 7.69085L23.4672 8.92581L25.0404 10.1608L25.7992 9.19418L24.226 7.95922ZM23.4672 8.92581L22.7992 7.04068L21.8242 7.38618L22.4922 9.27132L23.1602 11.1565L24.1352 10.811L23.4672 8.92581ZM22.4922 9.27132L22.8388 7.30158L21.6434 7.09123L21.2968 9.06097L20.9502 11.0307L22.1456 11.2411L22.4922 9.27132ZM21.2968 9.06097L20.1421 7.42796L19.2689 8.0454L20.4236 9.6784L21.5783 11.3114L22.4515 10.694L21.2968 9.06097ZM20.4236 9.6784L19.5928 7.85914L18.6465 8.29127L19.4774 10.1105L20.3082 11.9298L21.2544 11.4977L20.4236 9.6784ZM19.4774 10.1105L18.8523 8.21071L17.8572 8.53811L18.4822 10.4379L19.1072 12.3378L20.1024 12.0104L19.4774 10.1105ZM18.4822 10.4379L17.75 8.57677L16.7756 8.9601L17.5077 10.8213L18.2399 12.6824L19.2143 12.2991L18.4822 10.4379ZM17.5077 10.8213L16.7812 8.9579L15.7871 9.34552L16.5136 11.2089L17.2401 13.0723L18.2343 12.6846L17.5077 10.8213ZM16.5136 11.2089L14.7352 10.2939L14.191 11.3515L15.9695 12.2665L17.7479 13.1815L18.292 12.1239L16.5136 11.2089ZM15.9695 12.2665L15.0739 10.4782L14.133 10.9494L15.0286 12.7377L15.9242 14.526L16.865 14.0548L15.9695 12.2665ZM15.0286 12.7377L13.3054 11.7225L12.7522 12.6615L14.4755 13.6767L16.1987 14.6918L16.7518 13.7528L15.0286 12.7377ZM14.4755 13.6767L13.8814 11.7669L12.7866 12.1075L13.3807 14.0172L13.9748 15.927L15.0695 15.5864L14.4755 13.6767ZM13.3807 14.0172L11.8276 12.7571L11.1666 13.5718L12.7197 14.8319L14.2728 16.0921L14.9338 15.2774L13.3807 14.0172ZM12.7197 14.8319L11.2851 13.4384L10.5612 14.1836L11.9958 15.5771L13.4304 16.9706L14.1543 16.2255L12.7197 14.8319ZM11.9958 15.5771L10.3029 14.5122L9.73886 15.409L11.4318 16.4738L13.1247 17.5387L13.6888 16.642L11.9958 15.5771ZM11.4318 16.4738L10.0817 14.9983L9.31361 15.701L10.6637 17.1766L12.0138 18.6522L12.7819 17.9494L11.4318 16.4738ZM10.6637 17.1766L9.30338 15.7105L8.53898 16.4197L9.89929 17.8858L11.2596 19.352L12.024 18.6428L10.6637 17.1766ZM9.89929 17.8858L8.47325 16.4836L7.7434 17.2258L9.16945 18.6281L10.5955 20.0303L11.3253 19.2881L9.89929 17.8858ZM9.16945 18.6281L7.49309 17.5373L6.92041 18.4174L8.59676 19.5082L10.2731 20.599L10.8458 19.7188L9.16945 18.6281ZM8.59676 19.5082L6.92108 18.4163L6.34897 19.2944L8.02465 20.3862L9.70033 21.478L10.2724 20.6L8.59676 19.5082ZM8.02465 20.3862L6.53903 19.0472L5.84356 19.8188L7.32919 21.1578L8.81481 22.4968L9.51028 21.7252L8.02465 20.3862ZM7.32919 21.1578L5.90245 19.7563L5.17224 20.4996L6.59897 21.9012L8.02571 23.3027L8.75592 22.5594L7.32919 21.1578ZM6.59897 21.9012L5.75202 20.0893L4.70438 20.5791L5.55134 22.3909L6.39829 24.2027L7.44593 23.713L6.59897 21.9012ZM5.55134 22.3909L3.84985 21.3397L3.2941 22.2393L4.99559 23.2905L6.69707 24.3416L7.25283 23.442L5.55134 22.3909ZM4.99559 23.2905L3.03169 22.9121L2.81855 24.0186L4.78245 24.3969L6.74634 24.7752L6.95948 23.6688L4.99559 23.2905ZM4.78245 24.3969L3.04055 23.4142L2.53962 24.302L4.28152 25.2848L6.02342 26.2675L6.52435 25.3796L4.78245 24.3969ZM4.28152 25.2848L2.77727 23.9667L2.06971 24.7743L3.57396 26.0923L5.07822 27.4103L5.78577 26.6028L4.28152 25.2848ZM3.57396 26.0923L1.78295 25.2022L1.31224 26.1493L3.10325 27.0395L4.89426 27.9296L5.36497 26.9824L3.57396 26.0923ZM3.10325 27.0395L1.20572 26.4075L0.870996 27.4125L2.76852 28.0445L4.66605 28.6765L5.00077 27.6714L3.10325 27.0395ZM2.76852 28.0445L0.834348 27.5356L0.564746 28.5603L2.49892 29.0692L4.43309 29.5781L4.70269 28.5534L2.76852 28.0445ZM2.49892 29.0692L0.499075 29.0941L0.512313 30.1559L2.51216 30.131L4.512 30.1061L4.49876 29.0442L2.49892 29.0692ZM2.51216 30.131L0.533689 29.8383L0.380293 30.8753L2.35876 31.1679L4.33723 31.4606L4.49063 30.4237L2.51216 30.131ZM2.35876 31.1679L0.418022 30.6847L0.161303 31.7157L2.10204 32.1989L4.04278 32.6822L4.2995 31.6512L2.35876 31.1679ZM2.10204 32.1989L0.26014 32.9783L0.711202 34.0443L2.5531 33.2649L4.39501 32.4856L3.94395 31.4196L2.10204 32.1989ZM2.5531 33.2649L0.592601 33.6605L0.804117 34.7089L2.76462 34.3134L4.72512 33.9179L4.51361 32.8694L2.5531 33.2649ZM2.76462 34.3134L0.81386 33.8724L0.58049 34.9045L2.53125 35.3456L4.48201 35.7866L4.71538 34.7545L2.76462 34.3134ZM2.53125 35.3456L0.537391 35.189L0.455825 36.2274L2.44968 36.384L4.44354 36.5407L4.52511 35.5022L2.53125 35.3456ZM2.44968 36.384L0.458386 36.5704L0.554358 37.5959L2.54566 37.4095L4.53695 37.2231L4.44098 36.1977L2.44968 36.384ZM2.54566 37.4095L0.57158 37.7305L0.734943 38.7352L2.70902 38.4142L4.68309 38.0932L4.51973 37.0885L2.54566 37.4095ZM2.70902 38.4142L0.722167 38.1853L0.592105 39.3139L2.57896 39.5429L4.56581 39.7718L4.69587 38.6432L2.70902 38.4142ZM2.57896 39.5429L1.11473 40.9053L1.8732 41.7204L3.33743 40.3581L4.80166 38.9957L4.04319 38.1805L2.57896 39.5429ZM3.33743 40.3581L1.56782 41.29L2.04583 42.1977L3.81544 41.2658L5.58505 40.3338L5.10704 39.4261L3.33743 40.3581ZM3.81544 41.2658L2.34004 42.616L3.04018 43.381L4.51557 42.0308L5.99097 40.6805L5.29084 39.9155L3.81544 41.2658ZM4.51557 42.0308L3.01178 43.3493L3.69787 44.1318L5.20166 42.8132L6.70545 41.4947L6.01937 40.7122L4.51557 42.0308ZM5.20166 42.8132L3.48038 43.8317L4.03288 44.7655L5.75417 43.7471L7.47545 42.7286L6.92294 41.7948L5.20166 42.8132ZM5.75417 43.7471L5.51422 45.7326L6.77862 45.8854L7.01857 43.8999L7.25852 41.9143L5.99412 41.7615L5.75417 43.7471ZM7.01857 43.8999L5.05398 44.2745L5.30033 45.5664L7.26493 45.1917L9.22953 44.8171L8.98317 43.5252L7.01857 43.8999ZM7.26493 45.1917L6.03264 46.767L6.86263 47.4163L8.09492 45.841L9.32722 44.2657L8.49722 43.6165L7.26493 45.1917ZM8.09492 45.841L7.4338 47.7286L8.47677 48.0939L9.13789 46.2063L9.79901 44.3187L8.75604 43.9534L8.09492 45.841ZM9.13789 46.2063L8.41348 48.0705L9.41709 48.4605L10.1415 46.5963L10.8659 44.7321L9.8623 44.3421L9.13789 46.2063ZM10.1415 46.5963L8.96207 48.2115L9.79824 48.8221L10.9777 47.2069L12.1571 45.5917L11.3209 44.9811L10.1415 46.5963ZM10.9777 47.2069L9.90208 48.893L10.7764 49.4508L11.852 47.7646L12.9276 46.0785L12.0533 45.5207L10.9777 47.2069ZM11.852 47.7646L9.99609 48.5099L10.4613 49.6684L12.3173 48.9231L14.1732 48.1778L13.708 47.0193L11.852 47.7646ZM12.3173 48.9231L11.6376 50.8041L12.6481 51.1692L13.3277 49.2882L14.0073 47.4072L12.9969 47.0421L12.3173 48.9231ZM13.3277 49.2882L11.9801 50.766L12.7592 51.4765L14.1069 49.9987L15.4545 48.5209L14.6754 47.8104L13.3277 49.2882ZM14.1069 49.9987L13.4125 51.8743L14.4129 52.2447L15.1073 50.3691L15.8017 48.4935L14.8013 48.1231L14.1069 49.9987ZM15.1073 50.3691L13.8745 51.944L14.698 52.5885L15.9307 51.0137L17.1635 49.4388L16.3401 48.7942L15.1073 50.3691ZM15.9307 51.0137L15.6847 52.9985L16.8157 53.1386L17.0617 51.1538L17.3077 49.169L16.1767 49.0288L15.9307 51.0137ZM17.0617 51.1538L15.2334 51.9646L15.7532 53.1367L17.5815 52.3259L19.4098 51.5152L18.89 50.3431L17.0617 51.1538ZM17.5815 52.3259L17.5504 54.3257L18.7311 54.344L18.7622 52.3443L18.7933 50.3445L17.6126 50.3262L17.5815 52.3259ZM18.7622 52.3443L17.5297 53.9194L18.3615 54.5703L19.5941 52.9952L20.8266 51.4201L19.9947 50.7692L18.7622 52.3443ZM19.5941 52.9952L18.6182 54.741L19.5298 55.2505L20.5056 53.5048L21.4814 51.759L20.5699 51.2494L19.5941 52.9952ZM20.5056 53.5048L20.5163 55.5047L21.6494 55.4987L21.6387 53.4987L21.6281 51.4987L20.4949 51.5048L20.5056 53.5048ZM21.6387 53.4987L20.3046 54.9887L21.1246 55.723L22.4588 54.233L23.7929 52.743L22.9729 52.0087L21.6387 53.4987ZM22.4588 54.233L21.6556 56.0646L22.6104 56.4833L23.4135 54.6517L24.2167 52.82L23.2619 52.4014L22.4588 54.233ZM23.4135 54.6517L22.1896 56.2334L23.063 56.9092L24.2869 55.3274L25.5108 53.7457L24.6374 53.0699L23.4135 54.6517ZM24.2869 55.3274L24.702 57.2839L25.8748 57.0351L25.4598 55.0786L25.0447 53.1222L23.8719 53.371L24.2869 55.3274ZM25.4598 55.0786L24.8142 56.9716L25.7959 57.3064L26.4415 55.4135L27.0872 53.5206L26.1054 53.1857L25.4598 55.0786ZM26.4415 55.4135L25.4559 57.1538L26.3929 57.6844L27.3785 55.9441L28.3641 54.2039L27.4272 53.6732L26.4415 55.4135ZM27.3785 55.9441L26.6454 57.8049L27.6277 58.1919L28.3608 56.3311L29.0938 54.4703L28.1115 54.0833L27.3785 55.9441ZM28.3608 56.3311L28.1271 58.3174L29.1688 58.44L29.4025 56.4537L29.6362 54.4674L28.5945 54.3448L28.3608 56.3311ZM29.4025 56.4537L29.5654 58.447L30.6448 58.3588L30.4819 56.3655L30.319 54.3721L29.2396 54.4603L29.4025 56.4537ZM30.4819 56.3655L30.3463 58.3609L31.3898 58.4318L31.5254 56.4364L31.661 54.441L30.6175 54.3701L30.4819 56.3655ZM31.5254 56.4364L31.4045 58.4327L32.4467 58.4958L32.5676 56.4995L32.6885 54.5031L31.6463 54.44L31.5254 56.4364ZM32.5676 56.4995L31.2127 57.9706L32.1259 58.8116L33.4807 57.3405L34.8356 55.8693L33.9225 55.0283L32.5676 56.4995ZM33.4807 57.3405L34.3018 59.1642L35.4372 58.653L34.6161 56.8293L33.7951 55.0056L32.6597 55.5168L33.4807 57.3405ZM34.6161 56.8293L33.9705 58.7222L34.9693 59.0629L35.615 57.17L36.2607 55.2771L35.2618 54.9364L34.6161 56.8293ZM35.615 57.17L35.371 59.1551L36.4023 59.2818L36.6462 57.2968L36.8902 55.3117L35.8589 55.185L35.615 57.17ZM36.6462 57.2968L35.9486 59.1711L36.9461 59.5424L37.6438 57.6681L38.3415 55.7937L37.3439 55.4224L36.6462 57.2968ZM37.6438 57.6681L37.7199 59.6666L38.7749 59.6264L38.6988 57.6279L38.6226 55.6293L37.5676 55.6695L37.6438 57.6681ZM38.6988 57.6279L37.8749 59.4503L38.8656 59.8982L39.6894 58.0757L40.5133 56.2533L39.5226 55.8054L38.6988 57.6279ZM39.6894 58.0757L39.8743 60.0672L40.9351 59.9687L40.7503 57.9772L40.5654 55.9858L39.5046 56.0843L39.6894 58.0757ZM40.7503 57.9772L39.7433 59.7052L40.7237 60.2766L41.7307 58.5486L42.7377 56.8206L41.7572 56.2492L40.7503 57.9772ZM41.7307 58.5486L42.6697 60.3144L43.784 59.7219L42.845 57.956L41.906 56.1902L40.7917 56.7827L41.7307 58.5486ZM42.845 57.956L41.5302 59.4631L42.487 60.2979L43.8018 58.7908L45.1166 57.2837L44.1598 56.4489L42.845 57.956ZM43.8018 58.7908L43.7495 60.7901L44.7945 60.8174L44.8468 58.8181L44.8992 56.8188L43.8541 56.7915L43.8018 58.7908ZM44.8468 58.8181L45.8704 60.5364L46.9763 59.8776L45.9527 58.1594L44.9291 56.4411L43.8233 57.0999L44.8468 58.8181ZM45.9527 58.1594L45.5478 60.1179L46.5699 60.3292L46.9747 58.3706L47.3796 56.412L46.3576 56.2008L45.9527 58.1594ZM46.9747 58.3706L46.2761 60.2447L47.2901 60.6226L47.9887 58.7486L48.6873 56.8746L47.6734 56.4966L46.9747 58.3706ZM47.9887 58.7486L47.1889 60.5818L48.2058 61.0254L49.0056 59.1923L49.8053 57.3591L48.7885 56.9155L47.9887 58.7486ZM49.0056 59.1923L49.5487 61.1171L50.607 60.8185L50.0639 58.8936L49.5207 56.9688L48.4624 57.2674L49.0056 59.1923ZM50.0639 58.8936L49.8535 60.8825L50.892 60.9924L51.1023 59.0034L51.3126 57.0145L50.2742 56.9047L50.0639 58.8936ZM51.1023 59.0034L51.2021 61.0009L52.2444 60.9489L52.1446 58.9514L52.0448 56.9539L51.0025 57.0059L51.1023 59.0034ZM52.1446 58.9514L52.3748 60.9381L53.4141 60.8177L53.1839 58.831L52.9537 56.8443L51.9145 56.9647L52.1446 58.9514ZM53.1839 58.831L52.7918 60.7921L53.838 61.0013L54.2302 59.0402L54.6223 57.079L53.576 56.8698L53.1839 58.831ZM54.2302 59.0402L54.2609 61.0399L55.3048 61.0239L55.274 59.0241L55.2433 57.0243L54.1994 57.0404L54.2302 59.0402ZM55.274 59.0241L54.9901 61.0038L56.0476 61.1555L56.3315 59.1758L56.6155 57.196L55.558 57.0444L55.274 59.0241ZM56.3315 59.1758L57.2961 60.9278L58.2976 60.3764L57.3331 58.6244L56.3685 56.8724L55.3669 57.4238L56.3315 59.1758ZM57.3331 58.6244L56.7715 60.5439L57.8511 60.8597L58.4126 58.9402L58.9741 57.0206L57.8946 56.7048L57.3331 58.6244ZM58.4126 58.9402L58.833 60.8955L59.8599 60.6747L59.4394 58.7194L59.0189 56.764L57.9921 56.9849L58.4126 58.9402ZM59.4394 58.7194L59.5739 60.7148L60.6194 60.6444L60.4849 58.6489L60.3504 56.6534L59.3049 56.7239L59.4394 58.7194ZM60.4849 58.6489L61.3265 60.4632L62.3117 60.0061L61.4701 58.1919L60.6285 56.3776L59.6432 56.8346L60.4849 58.6489ZM61.4701 58.1919L62.4572 59.9313L63.4159 59.3872L62.4288 57.6478L61.4417 55.9084L60.483 56.4524L61.4701 58.1919ZM62.4288 57.6478L62.8128 59.6106L63.8275 59.4121L63.4435 57.4493L63.0595 55.4865L62.0448 55.685L62.4288 57.6478ZM63.4435 57.4493L63.1343 59.4252L64.2304 59.5968L64.5396 57.6208L64.8488 55.6448L63.7527 55.4733L63.4435 57.4493ZM64.5396 57.6208L65.4863 59.3825L66.4351 58.8727L65.4884 57.111L64.5417 55.3492L63.5929 55.8591L64.5396 57.6208ZM65.4884 57.111L65.3382 59.1053L66.4286 59.1874L66.5788 57.1931L66.729 55.1987L65.6386 55.1166L65.4884 57.111ZM66.5788 57.1931L67.3932 59.0197L68.3559 58.5905L67.5415 56.7639L66.7271 54.9372L65.7644 55.3664L66.5788 57.1931ZM67.5415 56.7639L68.0848 58.6886L69.0847 58.4064L68.5414 56.4816L67.9981 54.5568L66.9982 54.8391L67.5415 56.7639ZM68.5414 56.4816L69.2989 58.3326L70.2643 57.9375L69.5068 56.0865L68.7493 54.2355L67.7839 54.6306L68.5414 56.4816ZM69.5068 56.0865L70.5848 57.7712L71.4879 57.1933L70.4099 55.5086L69.332 53.824L68.4288 54.4019L69.5068 56.0865ZM70.4099 55.5086L70.7238 57.4839L71.76 57.3192L71.4461 55.344L71.1323 53.3688L70.0961 53.5334L70.4099 55.5086ZM71.4461 55.344L71.4155 57.3438L72.5219 57.3607L72.5526 55.3609L72.5832 53.3612L71.4767 53.3442L71.4461 55.344ZM72.5526 55.3609L73.3019 57.2153L74.2679 56.8249L73.5186 54.9706L72.7693 53.1162L71.8032 53.5066L72.5526 55.3609ZM73.5186 54.9706L74.1244 56.8766L75.1184 56.5607L74.5126 54.6547L73.9069 52.7486L72.9129 53.0645L73.5186 54.9706ZM74.5126 54.6547L76.0269 55.9612L76.793 55.0733L75.2788 53.7667L73.7646 52.4602L72.9984 53.3481L74.5126 54.6547ZM75.2788 53.7667L75.0692 55.7557L76.2417 55.8793L76.4513 53.8903L76.6608 51.9013L75.4883 51.7778L75.2788 53.7667ZM76.4513 53.8903L77.9451 55.2201L78.7091 54.3619L77.2153 53.032L75.7215 51.7022L74.9574 52.5604L76.4513 53.8903ZM77.2153 53.032L78.1612 54.7942L79.0758 54.3033L78.1298 52.5411L77.1839 50.7789L76.2694 51.2698L77.2153 53.032ZM78.1298 52.5411L78.7119 54.4545L79.7111 54.1506L79.1291 52.2371L78.547 50.3237L77.5478 50.6277L78.1298 52.5411ZM79.1291 52.2371L78.8763 54.2211L80.102 54.3772L80.3547 52.3933L80.6075 50.4093L79.3818 50.2532L79.1291 52.2371ZM80.3547 52.3933L81.3019 54.1548L82.224 53.6589L81.2769 51.8974L80.3298 50.1359L79.4076 50.6318L80.3547 52.3933ZM81.2769 51.8974L82.9658 52.9687L83.6141 51.9466L81.9253 50.8753L80.2364 49.804L79.588 50.8261L81.2769 51.8974ZM81.9253 50.8753L82.1925 52.8574L83.2878 52.7097L83.0206 50.7276L82.7534 48.7456L81.658 48.8932L81.9253 50.8753ZM83.0206 50.7276L83.5518 52.6558L84.5848 52.3712L84.0536 50.443L83.5224 48.5149L82.4894 48.7994L83.0206 50.7276ZM84.0536 50.443L85.5311 51.791L86.2709 50.9802L84.7935 49.6321L83.316 48.2841L82.5762 49.095L84.0536 50.443ZM84.7935 49.6321L85.8436 51.3343L86.7291 50.788L85.6789 49.0858L84.6288 47.3837L83.7433 47.93L84.7935 49.6321ZM85.6789 49.0858L87.1778 50.41L87.8947 49.5985L86.3958 48.2744L84.8969 46.9502L84.1801 47.7617L85.6789 49.0858ZM86.3958 48.2744L87.6173 49.858L88.4385 49.2246L87.217 47.641L85.9955 46.0573L85.1743 46.6907L86.3958 48.2744ZM87.217 47.641L87.1084 49.638L88.4089 49.7088L88.5176 47.7117L88.6262 45.7147L87.3257 45.6439L87.217 47.641ZM88.5176 47.7117L89.782 49.2613L90.596 48.5971L89.3316 47.0475L88.0671 45.4979L87.2531 46.1621L88.5176 47.7117ZM89.3316 47.0475L90.859 48.3386L91.5511 47.5199L90.0237 46.2287L88.4962 44.9376L87.8041 45.7564L89.3316 47.0475ZM90.0237 46.2287L91.1324 47.8933L92.003 47.3134L90.8942 45.6489L89.7854 43.9843L88.9149 44.5642L90.0237 46.2287ZM90.8942 45.6489L91.9293 47.3602L92.8487 46.8041L91.8137 45.0927L90.7786 43.3814L89.8591 43.9375L90.8942 45.6489ZM91.8137 45.0927L93.3453 46.3788L94.0281 45.5656L92.4965 44.2795L90.9648 42.9935L90.282 43.8067L91.8137 45.0927ZM92.4965 44.2795L94.0284 45.5653L94.7056 44.7585L93.1737 43.4727L91.6418 42.1869L90.9646 42.9937L92.4965 44.2795ZM93.1737 43.4727L94.9529 44.3862L95.44 43.4374L93.6608 42.5239L91.8817 41.6104L91.3945 42.5592L93.1737 43.4727ZM93.6608 42.5239L95.572 43.1133L95.8934 42.0713L93.9822 41.4819L92.071 40.8926L91.7497 41.9345L93.6608 42.5239ZM93.9822 41.4819L95.7334 42.4479L96.2306 41.5466L94.4793 40.5806L92.7281 39.6147L92.2309 40.516L93.9822 41.4819ZM94.4793 40.5806L95.9073 41.9809L96.6486 41.225L95.2206 39.8247L93.7926 38.4244L93.0513 39.1803L94.4793 40.5806ZM95.2206 39.8247L97.1369 40.3972L97.4394 39.3843L95.5231 38.8119L93.6068 38.2394L93.3042 39.2523L95.2206 39.8247ZM95.5231 38.8119L97.0346 40.1216L97.7298 39.3193L96.2184 38.0095L94.7069 36.6998L94.0117 37.5021L95.5231 38.8119ZM96.2184 38.0095L98.1169 38.6386L98.4453 37.6474L96.5468 37.0184L94.6483 36.3893L94.3199 37.3805L96.2184 38.0095ZM96.5468 37.0184L97.9504 38.4431L98.7419 37.6633L97.3383 36.2386L95.9348 34.8138L95.1432 35.5936L96.5468 37.0184ZM97.3383 36.2386L99.336 36.3361L99.39 35.2284L97.3924 35.1308L95.3948 35.0333L95.3407 36.1411L97.3383 36.2386ZM97.3924 35.1308L99.0961 36.1784L99.6465 35.2833L97.9428 34.2357L96.2391 33.1881L95.6887 34.0832L97.3924 35.1308ZM97.9428 34.2357L99.6498 35.278L100.201 34.376L98.4936 33.3338L96.7866 32.2915L96.2359 33.1935L97.9428 34.2357ZM98.4936 33.3338L100.087 34.543L100.749 33.67L99.1563 32.4607L97.5633 31.2514L96.9006 32.1245L98.4936 33.3338ZM99.1563 32.4607L101.117 32.8559L101.326 31.8183L99.3655 31.4231L97.4049 31.0279L97.1958 32.0655L99.1563 32.4607ZM99.3655 31.4231L101.328 31.808L101.53 30.7767L99.5678 30.3918L97.6052 30.0068L97.4029 31.0381L99.3655 31.4231ZM99.5678 30.3918L101.34 31.3187L101.836 30.3711L100.063 29.4441L98.2913 28.5171L97.7956 29.4648L99.5678 30.3918ZM100.063 29.4441L102.063 29.439L102.061 28.3596L100.061 28.3647L98.0608 28.3697L98.0635 29.4491L100.063 29.4441ZM100.061 28.3647L102.06 28.4082L102.083 27.3424L100.084 27.2988L98.0844 27.2553L98.0612 28.3211L100.061 28.3647ZM100.084 27.2988L102.077 27.4681L102.166 26.4221L100.173 26.2528L98.18 26.0835L98.0911 27.1296L100.084 27.2988ZM100.173 26.2528L101.806 27.4069L102.456 26.4874L100.822 25.3333L99.1891 24.1792L98.5394 25.0987L100.173 26.2528ZM100.822 25.3333L102.819 25.4504L102.881 24.3984L100.884 24.2813L98.8876 24.1641L98.8259 25.2162L100.822 25.3333ZM100.884 24.2813L102.859 23.9618L102.681 22.8623L100.706 23.1818L98.732 23.5013L98.9099 24.6007L100.884 24.2813ZM100.706 23.1818L102.588 23.8586L102.944 22.8706L101.062 22.1938L99.1797 21.5169L98.8243 22.505L100.706 23.1818ZM101.062 22.1938L102.936 22.8906L103.303 21.9039L101.428 21.2071L99.5537 20.5103L99.187 21.497L101.062 22.1938ZM101.428 21.2071L103.309 21.8866L103.667 20.8964L101.786 20.2169L99.9051 19.5374L99.5474 20.5276L101.428 21.2071ZM101.786 20.2169L103.767 19.9415L103.617 18.8595L101.636 19.1349L99.6547 19.4103L99.8052 20.4923L101.786 20.2169ZM101.636 19.1349L103.359 20.1492L103.927 19.1852L102.203 18.171L100.479 17.1567L99.9119 18.1206L101.636 19.1349ZM102.203 18.171L104.197 18.0218L104.118 16.9624L102.124 17.1116L100.129 17.2607L100.208 18.3201L102.203 18.171ZM102.124 17.1116L104.056 17.6256L104.329 16.6016L102.396 16.0876L100.463 15.5735L100.191 16.5975L102.124 17.1116ZM102.396 16.0876L104.205 15.234L103.713 14.1928L101.905 15.0464L100.096 15.8999L100.587 16.9411L102.396 16.0876ZM101.905 15.0464L103.722 15.8824L104.214 14.812L102.397 13.976L100.58 13.14L100.088 14.2104L101.905 15.0464ZM102.397 13.976L103.813 12.563L103.001 11.7506L101.586 13.1636L100.171 14.5767L100.982 15.3891L102.397 13.976ZM101.586 13.1636L103.559 12.8385L103.383 11.7669L101.41 12.0921L99.4361 12.4172L99.6127 13.4888L101.586 13.1636ZM101.41 12.0921L102.944 10.8098L102.265 9.9962L100.73 11.2785L99.195 12.5608L99.8747 13.3744L101.41 12.0921ZM100.73 11.2785L101.056 9.30522L99.8652 9.10856L99.5393 11.0818L99.2134 13.0551L100.404 13.2517L100.73 11.2785ZM99.5393 11.0818L101.422 10.4065L101.01 9.25792L99.1273 9.93323L97.2447 10.6085L97.6568 11.7571L99.5393 11.0818ZM99.1273 9.93323L100.236 8.269L99.366 7.68881L98.2568 9.35304L97.1475 11.0173L98.0181 11.5975L99.1273 9.93323ZM98.2568 9.35304L99.3371 7.66991L98.4581 7.10572L97.3777 8.78884L96.2974 10.472L97.1764 11.0362L98.2568 9.35304ZM97.3777 8.78884L99.0159 7.64153L98.3847 6.74022L96.7465 7.88753L95.1083 9.03483L95.7396 9.93614L97.3777 8.78884ZM96.7465 7.88753L96.6486 5.88992L95.3219 5.95494L95.4198 7.95254L95.5177 9.95014L96.8444 9.88513L96.7465 7.88753ZM95.4198 7.95254L96.6889 6.40678L95.8864 5.74795L94.6173 7.29372L93.3482 8.83948L94.1507 9.4983L95.4198 7.95254ZM94.6173 7.29372L96.3423 6.2816L95.7593 5.28797L94.0343 6.30009L92.3093 7.3122L92.8923 8.30583L94.6173 7.29372ZM94.0343 6.30009L94.4713 4.34841L93.3895 4.1062L92.9526 6.05788L92.5156 8.00956L93.5973 8.25176L94.0343 6.30009ZM92.9526 6.05788L94.1614 4.46454L93.3314 3.83482L92.1225 5.42815L90.9137 7.02149L91.7437 7.65122L92.9526 6.05788ZM92.1225 5.42815L92.9184 3.59331L91.9596 3.17746L91.1638 5.01231L90.3679 6.84716L91.3267 7.263L92.1225 5.42815ZM91.1638 5.01231L92.9423 4.09747L92.3732 2.99111L90.5947 3.90595L88.8162 4.82078L89.3853 5.92715L91.1638 5.01231ZM90.5947 3.90595L90.6241 1.90616L89.4511 1.88892L89.4217 3.88871L89.3923 5.88849L90.5653 5.90573L90.5947 3.90595ZM89.4217 3.88871L90.9387 2.58534L90.1659 1.68595L88.649 2.98932L87.132 4.29269L87.9047 5.19208L89.4217 3.88871ZM88.649 2.98932L87.8316 1.16395L86.6196 1.70663L87.437 3.532L88.2543 5.35737L89.4663 4.81469L88.649 2.98932ZM87.437 3.532L87.8063 1.5664L86.8034 1.37795L86.434 3.34355L86.0647 5.30915L87.0676 5.4976L87.437 3.532ZM86.434 3.34355L87.0378 1.43687L86.0334 1.1188L85.4296 3.02548L84.8258 4.93216L85.8303 5.25023L86.434 3.34355ZM85.4296 3.02548L85.5413 1.0286L84.507 0.970742L84.3953 2.96762L84.2836 4.9645L85.3179 5.02236L85.4296 3.02548ZM84.3953 2.96762L85.5218 1.3151L84.5323 0.64053L83.4058 2.29305L82.2792 3.94558L83.2687 4.62014L84.3953 2.96762ZM83.4058 2.29305L83.2329 0.30054L82.1808 0.39183L82.3537 2.38434L82.5266 4.37686L83.5786 4.28557L83.4058 2.29305ZM82.3537 2.38434L82.4487 0.386605L81.4084 0.337095L81.3134 2.33483L81.2183 4.33257L82.2586 4.38208L82.3537 2.38434ZM81.3134 2.33483L81.1664 0.34024L80.1194 0.417378L80.2664 2.41197L80.4133 4.40657L81.4603 4.32943L81.3134 2.33483ZM80.2664 2.41197L79.5534 0.543362L78.4907 0.948858L79.2036 2.81747L79.9166 4.68608L80.9793 4.28058L80.2664 2.41197ZM79.2036 2.81747L79.6198 0.861253L78.5907 0.642301L78.1745 2.59852L77.7583 4.55473L78.7874 4.77368L79.2036 2.81747ZM78.1745 2.59852L78.8992 0.734421L77.8762 0.336735L77.1515 2.20083L76.4268 4.06492L77.4498 4.46261L78.1745 2.59852ZM77.1515 2.20083L77.4214 0.219125L76.3847 0.077925L76.1148 2.05963L75.8449 4.04133L76.8816 4.18253L77.1515 2.20083ZM76.1148 2.05963L75.2869 0.239021L74.2289 0.720122L75.0568 2.54073L75.8847 4.36134L76.9427 3.88024L76.1148 2.05963ZM75.0568 2.54073L75.2599 0.551067L74.2226 0.445201L74.0196 2.43486L73.8165 4.42453L74.8537 4.53039L75.0568 2.54073ZM74.0196 2.43486L74.2878 0.452937L73.2622 0.314122L72.994 2.29605L72.7257 4.27798L73.7513 4.41679L74.0196 2.43486ZM72.994 2.29605L72.6829 0.320393L71.657 0.48193L71.9681 2.45759L72.2792 4.43324L73.3051 4.27171L72.994 2.29605ZM71.9681 2.45759L71.9444 0.457727L70.9007 0.470114L70.9245 2.46997L70.9482 4.46983L71.9918 4.45745L71.9681 2.45759ZM70.9245 2.46997L70.9178 0.469984L69.868 0.473492L69.8747 2.47348L69.8814 4.47347L70.9311 4.46996L70.9245 2.46997ZM69.8747 2.47348L69.3458 0.544682L68.3367 0.821385L68.8656 2.75018L69.3945 4.67898L70.4036 4.40228L69.8747 2.47348ZM68.8656 2.75018L68.4418 0.795596L67.4267 1.01567L67.8505 2.97026L68.2743 4.92485L69.2894 4.70477L68.8656 2.75018ZM67.8505 2.97026L67.0807 1.12435L66.1165 1.52645L66.8863 3.37236L67.6561 5.21827L68.6203 4.81617L67.8505 2.97026ZM66.8863 3.37236L66.9837 1.37473L65.8674 1.32032L65.77 3.31795L65.6726 5.31557L66.789 5.36999L66.8863 3.37236ZM65.77 3.31795L65.0464 1.45345L64.0664 1.8338L64.7901 3.69829L65.5137 5.56278L66.4937 5.18244L65.77 3.31795ZM64.7901 3.69829L63.9126 1.90105L62.9849 2.35396L63.8624 4.15121L64.7398 5.94845L65.6675 5.49554L64.7901 3.69829ZM63.8624 4.15121L63.251 2.24693L62.2909 2.55514L62.9023 4.45942L63.5136 6.3637L64.4737 6.05548L63.8624 4.15121ZM62.9023 4.45942L61.533 3.00168L60.9105 3.58644L62.2798 5.04418L63.6491 6.50192L64.2716 5.91716L62.9023 4.45942ZM62.2798 5.04418L64.2749 4.90427L64.246 4.49349L62.2509 4.6334L60.2558 4.77331L60.2847 5.18409L62.2798 5.04418Z" fill="var(--stroke-0, black)"/>
</svg>
