<svg width="58" height="72" viewBox="0 0 58 72" fill="none" xmlns="http://www.w3.org/2000/svg">
<path d="M20.8886 8.48981C21.9011 8.04833 22.364 6.86964 21.9226 5.85713C21.4811 4.84462 20.3024 4.38172 19.2899 4.82319L20.0892 6.6565L20.8886 8.48981ZM19.9976 6.69647L20.3017 8.67321L20.5586 8.63368L20.7969 8.52977L19.9976 6.69647ZM19.0523 6.8419L18.2897 8.69078L18.8052 8.90344L19.3564 8.81864L19.0523 6.8419ZM18.0032 6.40916L18.7658 4.56027L17.9796 4.23596L17.2006 4.57729L18.0032 6.40916ZM16.9758 6.85934L17.3932 8.81529L17.5921 8.77284L17.7784 8.69122L16.9758 6.85934ZM15.9475 7.0788L15.4499 9.0159L15.9052 9.13287L16.365 9.03475L15.9475 7.0788ZM14.8917 6.80755L15.3893 4.87045L15.0789 4.79072L14.7592 4.81195L14.8917 6.80755ZM13.853 6.87651L13.7205 4.8809L13.386 4.90311L13.077 5.03319L13.853 6.87651ZM12.8573 7.29567L12.9277 9.29444L13.2948 9.28151L13.6333 9.13899L12.8573 7.29567ZM11.8213 7.33216L11.4112 9.28966L11.6489 9.33947L11.8917 9.33092L11.8213 7.33216ZM10.6714 7.09125L11.0815 5.13375L9.63234 4.83015L8.91888 6.1275L10.6714 7.09125ZM10.0659 8.19231L10.9976 9.962L11.529 9.68224L11.8183 9.15606L10.0659 8.19231ZM9.1671 8.66552L8.23533 6.89583L7.62135 7.2191L7.33951 7.85316L9.1671 8.66552ZM8.74408 9.6172L9.74568 11.3483L10.3079 11.0231L10.5717 10.4296L8.74408 9.6172ZM7.74824 10.1934L6.74663 8.46226L6.12826 8.82004L5.87652 9.48864L7.74824 10.1934ZM7.37755 11.1779L5.50583 10.4731L5.48832 10.5196L5.47314 10.567L7.37755 11.1779ZM7.05798 12.1741L5.15356 11.5632L5.10655 11.7098L5.08252 11.8618L7.05798 12.1741ZM6.8914 13.2276L7.93589 14.9332L8.72275 14.4513L8.86686 13.54L6.8914 13.2276ZM5.79349 13.9L4.749 12.1944L3.48815 12.9665L3.85659 14.3984L5.79349 13.9ZM6.11364 15.1441L7.63263 16.4452L8.31005 15.6542L8.05054 14.6457L6.11364 15.1441ZM5.39845 15.9791L3.87946 14.6781L3.40397 15.2333L3.3985 15.9642L5.39845 15.9791ZM5.39057 17.0322L6.95507 18.2782L7.38535 17.7379L7.39052 17.0472L5.39057 17.0322ZM4.63553 17.9803L3.07103 16.7344L2.15572 17.8837L2.97885 19.1008L4.63553 17.9803ZM5.36903 19.0649L7.32641 19.4755L7.5004 18.6463L7.0257 17.9444L5.36903 19.0649ZM5.15491 20.0854L3.19752 19.6747L3.15791 19.8635L3.15512 20.0564L5.15491 20.0854ZM5.13991 21.1192L3.14012 21.0902L3.13693 21.3106L3.1818 21.5264L5.13991 21.1192ZM5.35027 22.1309L7.27357 22.6795L7.40864 22.2059L7.30839 21.7237L5.35027 22.1309ZM5.02835 23.2596L3.10505 22.711L2.84277 23.6306L3.39383 24.4121L5.02835 23.2596ZM5.67444 24.1758L7.54846 23.4772L7.45808 23.2348L7.30896 23.0233L5.67444 24.1758ZM6.03577 25.1451L8.03567 25.166L8.03954 24.7946L7.9098 24.4465L6.03577 25.1451ZM6.02358 26.3136L4.02368 26.2927L4.01064 27.5424L5.1281 28.1019L6.02358 26.3136ZM7.12735 26.8663L8.90225 25.9445L8.60313 25.3685L8.02283 25.078L7.12735 26.8663ZM7.60934 27.7943L5.83444 28.7162L5.86865 28.782L5.90765 28.8452L7.60934 27.7943ZM8.1749 28.7102L6.4732 29.761L6.81766 30.3188L7.4255 30.5645L8.1749 28.7102ZM9.19473 29.1224L10.3407 27.4833L10.1547 27.3531L9.94413 27.2681L9.19473 29.1224ZM10.0404 29.7136L11.8152 28.7917L11.5889 28.3559L11.1864 28.0745L10.0404 29.7136ZM10.5925 30.7766L8.8176 31.6984L9.44539 32.9071L10.8 32.7658L10.5925 30.7766ZM11.8859 30.6416L13.667 29.7318L13.0429 28.51L11.6783 28.6524L11.8859 30.6416ZM12.4581 31.7618L10.677 32.6715L11.0401 33.3825L11.793 33.648L12.4581 31.7618ZM13.4773 32.1212L12.8123 34.0074L13.4172 34.2207L14.0334 34.0423L13.4773 32.1212ZM14.6529 31.7809L15.058 29.8224L14.5728 29.722L14.0969 29.8598L14.6529 31.7809ZM15.6443 31.986L16.9089 30.4365L16.5292 30.1267L16.0494 30.0274L15.6443 31.986ZM16.583 32.752L15.3185 34.3015L15.9751 34.8374L16.8168 34.7383L16.583 32.752ZM17.646 32.6269L17.7921 30.6322L17.6018 30.6183L17.4123 30.6406L17.646 32.6269ZM18.6831 32.7029L19.0747 30.7416L18.953 30.7173L18.8292 30.7082L18.6831 32.7029ZM19.7117 32.9083L19.32 34.8695L19.3688 34.8793L19.418 34.8866L19.7117 32.9083ZM20.7475 33.062L21.0824 31.0903L21.0618 31.0868L21.0412 31.0837L20.7475 33.062ZM21.7911 33.2393L21.4562 35.211L22.1466 35.3283L22.7594 34.9892L21.7911 33.2393ZM22.8307 32.664L23.1603 30.6913L22.4725 30.5764L21.8623 30.914L22.8307 32.664ZM23.8722 32.838L23.5426 34.8107L24.1127 34.9059L24.6457 34.6824L23.8722 32.838ZM24.8766 32.4168L25.5333 30.5277L24.8097 30.2761L24.1031 30.5724L24.8766 32.4168ZM25.9588 32.793L25.3021 34.6821L25.8928 34.8875L26.4952 34.7198L25.9588 32.793ZM26.9699 32.5115L26.5475 30.5567L26.4901 30.5691L26.4335 30.5848L26.9699 32.5115ZM27.9844 32.2923L28.4068 34.2472L28.6588 34.1928L28.8888 34.0762L27.9844 32.2923ZM28.923 31.8165L28.3927 29.8881L28.1984 29.9415L28.0186 30.0327L28.923 31.8165ZM29.9113 31.5447L30.4416 33.4732L30.5013 33.4567L30.5598 33.4367L29.9113 31.5447ZM30.8936 31.208L31.5421 33.1L31.6228 33.0723L31.7009 33.0379L30.8936 31.208ZM31.8444 30.7886L32.6517 32.6184L32.8719 32.5212L33.0628 32.3746L31.8444 30.7886ZM32.6741 30.1512L33.8925 31.7372L33.9232 31.7137L33.9528 31.689L32.6741 30.1512ZM33.4733 29.4867L32.386 27.8081L32.2861 27.8728L32.1945 27.9489L33.4733 29.4867ZM34.3356 28.9282L33.2558 27.2447L33.2483 27.2495L34.3356 28.9282ZM35.2043 28.371L34.7054 26.4342L34.3946 26.5143L34.1245 26.6875L35.2043 28.371ZM36.324 28.0826L36.8229 30.0194L37.4343 29.8619L37.8444 29.382L36.324 28.0826ZM37.0146 27.2745L38.535 28.5738L38.7806 28.2865L38.9044 27.9294L37.0146 27.2745ZM37.3845 26.2073L35.8187 24.963L35.6065 25.2301L35.4948 25.5524L37.3845 26.2073ZM38.023 25.4039L36.8008 23.8207L36.6084 23.9693L36.4572 24.1596L38.023 25.4039ZM38.8767 24.7448L40.0989 26.3279L40.2647 26.1999L40.4005 26.0402L38.8767 24.7448ZM39.5591 23.9422L41.0828 25.2376L41.1444 25.1652L41.1988 25.0873L39.5591 23.9422ZM40.1609 23.0804L41.8006 24.2256L41.8191 24.1991L41.8367 24.1721L40.1609 23.0804ZM40.7359 22.1977L42.4117 23.2895L42.5512 23.0754L42.6323 22.8331L40.7359 22.1977ZM41.0727 21.1926L39.3027 20.2614L39.2276 20.4042L39.1763 20.5572L41.0727 21.1926ZM41.5616 20.2632L39.8758 19.1871L39.8307 19.2578L39.7916 19.3321L41.5616 20.2632ZM42.137 19.3618L43.8228 20.4379L44.2068 19.8364L44.1233 19.1277L42.137 19.3618ZM42.0006 18.2041L40.0019 18.2762L40.0048 18.3574L40.0143 18.4382L42.0006 18.2041ZM41.9628 17.1567L40.0513 16.5681L39.9519 16.8911L39.9641 17.2288L41.9628 17.1567ZM42.2679 16.1655L44.1794 16.754L44.2456 16.539L44.2624 16.3145L42.2679 16.1655ZM42.3449 15.1358L44.3393 15.2848L44.3528 15.1044L44.3337 14.9245L42.3449 15.1358ZM42.2357 14.1076L44.2245 13.8964L44.2226 13.8787L44.2205 13.8611L42.2357 14.1076ZM42.1087 13.085L40.1638 12.619L40.0793 12.9716L40.124 13.3314L42.1087 13.085ZM42.373 11.9818L44.318 12.4478L44.5204 11.603L44.0412 10.8785L42.373 11.9818ZM41.7593 11.0539L39.8201 11.5432L39.9034 11.8733L40.0912 12.1573L41.7593 11.0539ZM41.5062 10.0507L43.4454 9.56139L43.3769 9.28982L43.2364 9.04751L41.5062 10.0507ZM40.9885 9.15784L42.7187 8.15464L42.6776 8.08377L42.6308 8.01649L40.9885 9.15784ZM40.3966 8.30609L38.6535 9.28685L38.7001 9.36953L38.7542 9.44743L40.3966 8.30609ZM39.8594 7.35148L41.6024 6.37072L41.0833 5.44815L40.0285 5.35864L39.8594 7.35148ZM38.5916 7.24389L36.6586 7.75719L37.0199 9.11771L38.4225 9.23673L38.5916 7.24389ZM38.2545 5.97447L40.1876 5.46117L39.9925 4.72673L39.359 4.30709L38.2545 5.97447ZM37.3799 5.39511L38.4844 3.72773L38.2218 3.5538L37.9185 3.46899L37.3799 5.39511ZM36.319 5.09845L35.7231 7.00762L35.7516 7.01652L35.7804 7.02457L36.319 5.09845ZM35.3052 4.78206L34.4363 6.58343L34.5689 6.64738L34.7094 6.69123L35.3052 4.78206ZM34.4095 4.34999L35.2785 2.54862L35.1226 2.47345L34.9562 2.42616L34.4095 4.34999ZM33.4416 4.07496L31.973 5.43257L32.3544 5.8452L32.895 5.99879L33.4416 4.07496ZM32.5959 3.16004L34.0645 1.80243L33.4152 1.09997L32.4607 1.16462L32.5959 3.16004ZM31.5157 3.23321L30.9467 5.15054L31.2918 5.25296L31.6509 5.22863L31.5157 3.23321ZM30.501 2.93203L31.0701 1.0147L30.676 0.897716L30.2676 0.945699L30.501 2.93203ZM29.4399 3.05672L29.0828 5.02458L29.3767 5.07791L29.6733 5.04305L29.4399 3.05672ZM28.411 2.87L28.7681 0.902141L28.2216 0.802967L27.7022 0.999819L28.411 2.87ZM27.3434 3.27462L26.0887 4.83208L26.9809 5.55085L28.0522 5.14481L27.3434 3.27462ZM26.3459 2.47097L27.6006 0.91351L26.4666 -3.29018e-05L25.249 0.798577L26.3459 2.47097ZM25.3301 3.1372L25.4472 5.13376L25.9803 5.10248L26.4269 4.80958L25.3301 3.1372ZM24.2804 3.19878L24.1633 1.20221L23.9454 1.215L23.7354 1.27448L24.2804 3.19878ZM23.2728 3.48415L22.7278 1.55985L22.169 1.71813L21.7819 2.15113L23.2728 3.48415ZM22.5206 4.3255L22.7907 6.30718L23.5206 6.2077L24.0116 5.65853L22.5206 4.3255ZM21.4346 4.47352L21.1645 2.49184L20.8292 2.53753L20.5276 2.69097L21.4346 4.47352ZM20.5052 4.9464L20.8445 6.91739L21.1426 6.86608L21.4121 6.72894L20.5052 4.9464ZM19.4393 5.12993L19.0999 3.15893L18.2992 3.2968L17.8215 3.95398L19.4393 5.12993ZM18.7429 6.08795L17.1996 7.36004L18.8422 9.35286L20.3607 7.26389L18.7429 6.08795ZM20.1744 4.68022C19.4719 3.82788 18.2114 3.70645 17.359 4.409C16.5067 5.11156 16.3852 6.37205 17.0878 7.2244L18.6311 5.95231L20.1744 4.68022ZM20.0892 6.6565L19.2899 4.82319L19.1982 4.86316L19.9976 6.69647L20.7969 8.52977L20.8886 8.48981L20.0892 6.6565ZM19.9976 6.69647L19.6935 4.71973L18.7482 4.86515L19.0523 6.8419L19.3564 8.81864L20.3017 8.67321L19.9976 6.69647ZM19.0523 6.8419L19.8149 4.99301L18.7658 4.56027L18.0032 6.40916L17.2406 8.25805L18.2897 8.69078L19.0523 6.8419ZM18.0032 6.40916L17.2006 4.57729L16.1731 5.02747L16.9758 6.85934L17.7784 8.69122L18.8059 8.24104L18.0032 6.40916ZM16.9758 6.85934L16.5583 4.90339L15.5301 5.12285L15.9475 7.0788L16.365 9.03475L17.3932 8.81529L16.9758 6.85934ZM15.9475 7.0788L16.4451 5.1417L15.3893 4.87045L14.8917 6.80755L14.394 8.74465L15.4499 9.0159L15.9475 7.0788ZM14.8917 6.80755L14.7592 4.81195L13.7205 4.8809L13.853 6.87651L13.9855 8.87211L15.0241 8.80316L14.8917 6.80755ZM13.853 6.87651L13.077 5.03319L12.0813 5.45236L12.8573 7.29567L13.6333 9.13899L14.629 8.71982L13.853 6.87651ZM12.8573 7.29567L12.7869 5.29691L11.7509 5.3334L11.8213 7.33216L11.8917 9.33092L12.9277 9.29444L12.8573 7.29567ZM11.8213 7.33216L12.2314 5.37466L11.0815 5.13375L10.6714 7.09125L10.2613 9.04875L11.4112 9.28966L11.8213 7.33216ZM10.6714 7.09125L8.91888 6.1275L8.31337 7.22856L10.0659 8.19231L11.8183 9.15606L12.4238 8.055L10.6714 7.09125ZM10.0659 8.19231L9.13408 6.42262L8.23533 6.89583L9.1671 8.66552L10.0989 10.4352L10.9976 9.962L10.0659 8.19231ZM9.1671 8.66552L7.33951 7.85316L6.91649 8.80484L8.74408 9.6172L10.5717 10.4296L10.9947 9.47788L9.1671 8.66552ZM8.74408 9.6172L7.74247 7.88608L6.74663 8.46226L7.74824 10.1934L8.74985 11.9245L9.74568 11.3483L8.74408 9.6172ZM7.74824 10.1934L5.87652 9.48864L5.50583 10.4731L7.37755 11.1779L9.24927 11.8826L9.61996 10.8981L7.74824 10.1934ZM7.37755 11.1779L5.47314 10.567L5.15356 11.5632L7.05798 12.1741L8.96239 12.785L9.28197 11.7888L7.37755 11.1779ZM7.05798 12.1741L5.08252 11.8618L4.91594 12.9153L6.8914 13.2276L8.86686 13.54L9.03343 12.4865L7.05798 12.1741ZM6.8914 13.2276L5.84691 11.522L4.749 12.1944L5.79349 13.9L6.83798 15.6056L7.93589 14.9332L6.8914 13.2276ZM5.79349 13.9L3.85659 14.3984L4.17674 15.6425L6.11364 15.1441L8.05054 14.6457L7.7304 13.4016L5.79349 13.9ZM6.11364 15.1441L4.59465 13.8431L3.87946 14.6781L5.39845 15.9791L6.91744 17.2802L7.63263 16.4452L6.11364 15.1441ZM5.39845 15.9791L3.3985 15.9642L3.39063 17.0173L5.39057 17.0322L7.39052 17.0472L7.39839 15.9941L5.39845 15.9791ZM5.39057 17.0322L3.82608 15.7863L3.07103 16.7344L4.63553 17.9803L6.20002 19.2263L6.95507 18.2782L5.39057 17.0322ZM4.63553 17.9803L2.97885 19.1008L3.71235 20.1853L5.36903 19.0649L7.0257 17.9444L6.2922 16.8599L4.63553 17.9803ZM5.36903 19.0649L3.41165 18.6542L3.19752 19.6747L5.15491 20.0854L7.11229 20.4961L7.32641 19.4755L5.36903 19.0649ZM5.15491 20.0854L3.15512 20.0564L3.14012 21.0902L5.13991 21.1192L7.1397 21.1482L7.1547 20.1144L5.15491 20.0854ZM5.13991 21.1192L3.1818 21.5264L3.39215 22.538L5.35027 22.1309L7.30839 21.7237L7.09803 20.7121L5.13991 21.1192ZM5.35027 22.1309L3.42697 21.5823L3.10505 22.711L5.02835 23.2596L6.95165 23.8081L7.27357 22.6795L5.35027 22.1309ZM5.02835 23.2596L3.39383 24.4121L4.03992 25.3284L5.67444 24.1758L7.30896 23.0233L6.66287 22.107L5.02835 23.2596ZM5.67444 24.1758L3.80042 24.8744L4.16175 25.8437L6.03577 25.1451L7.9098 24.4465L7.54846 23.4772L5.67444 24.1758ZM6.03577 25.1451L4.03588 25.1243L4.02368 26.2927L6.02358 26.3136L8.02347 26.3345L8.03567 25.166L6.03577 25.1451ZM6.02358 26.3136L5.1281 28.1019L6.23187 28.6546L7.12735 26.8663L8.02283 25.078L6.91905 24.5253L6.02358 26.3136ZM7.12735 26.8663L5.35245 27.7881L5.83444 28.7162L7.60934 27.7943L9.38424 26.8725L8.90225 25.9445L7.12735 26.8663ZM7.60934 27.7943L5.90765 28.8452L6.4732 29.761L8.1749 28.7102L9.87659 27.6594L9.31104 26.7435L7.60934 27.7943ZM8.1749 28.7102L7.4255 30.5645L8.44534 30.9766L9.19473 29.1224L9.94413 27.2681L8.92429 26.8559L8.1749 28.7102ZM9.19473 29.1224L8.04872 30.7615L8.89435 31.3527L10.0404 29.7136L11.1864 28.0745L10.3407 27.4833L9.19473 29.1224ZM10.0404 29.7136L8.26549 30.6355L8.8176 31.6984L10.5925 30.7766L12.3673 29.8547L11.8152 28.7917L10.0404 29.7136ZM10.5925 30.7766L10.8 32.7658L12.0935 32.6308L11.8859 30.6416L11.6783 28.6524L10.3849 28.7874L10.5925 30.7766ZM11.8859 30.6416L10.1048 31.5513L10.677 32.6715L12.4581 31.7618L14.2392 30.852L13.667 29.7318L11.8859 30.6416ZM12.4581 31.7618L11.793 33.648L12.8123 34.0074L13.4773 32.1212L14.1424 30.235L13.1231 29.8756L12.4581 31.7618ZM13.4773 32.1212L14.0334 34.0423L15.209 33.7021L14.6529 31.7809L14.0969 29.8598L12.9213 30.2L13.4773 32.1212ZM14.6529 31.7809L14.2479 33.7395L15.2393 33.9445L15.6443 31.986L16.0494 30.0274L15.058 29.8224L14.6529 31.7809ZM15.6443 31.986L14.3798 33.5355L15.3185 34.3015L16.583 32.752L17.8475 31.2025L16.9089 30.4365L15.6443 31.986ZM16.583 32.752L16.8168 34.7383L17.8798 34.6132L17.646 32.6269L17.4123 30.6406L16.3492 30.7657L16.583 32.752ZM17.646 32.6269L17.4999 34.6216L18.537 34.6975L18.6831 32.7029L18.8292 30.7082L17.7921 30.6322L17.646 32.6269ZM18.6831 32.7029L18.2915 34.6641L19.32 34.8695L19.7117 32.9083L20.1033 30.947L19.0747 30.7416L18.6831 32.7029ZM19.7117 32.9083L19.418 34.8866L20.4538 35.0403L20.7475 33.062L21.0412 31.0837L20.0054 30.9299L19.7117 32.9083ZM20.7475 33.062L20.4126 35.0338L21.4562 35.211L21.7911 33.2393L22.126 31.2675L21.0824 31.0903L20.7475 33.062ZM21.7911 33.2393L22.7594 34.9892L23.799 34.4139L22.8307 32.664L21.8623 30.914L20.8227 31.4893L21.7911 33.2393ZM22.8307 32.664L22.5011 34.6366L23.5426 34.8107L23.8722 32.838L24.2018 30.8654L23.1603 30.6913L22.8307 32.664ZM23.8722 32.838L24.6457 34.6824L25.6501 34.2612L24.8766 32.4168L24.1031 30.5724L23.0987 30.9936L23.8722 32.838ZM24.8766 32.4168L24.2199 34.3059L25.3021 34.6821L25.9588 32.793L26.6155 30.9039L25.5333 30.5277L24.8766 32.4168ZM25.9588 32.793L26.4952 34.7198L27.5063 34.4383L26.9699 32.5115L26.4335 30.5848L25.4224 30.8663L25.9588 32.793ZM26.9699 32.5115L27.3923 34.4664L28.4068 34.2472L27.9844 32.2923L27.562 30.3375L26.5475 30.5567L26.9699 32.5115ZM27.9844 32.2923L28.8888 34.0762L29.8273 33.6004L28.923 31.8165L28.0186 30.0327L27.0801 30.5085L27.9844 32.2923ZM28.923 31.8165L29.4533 33.7449L30.4416 33.4732L29.9113 31.5447L29.381 29.6163L28.3927 29.8881L28.923 31.8165ZM29.9113 31.5447L30.5598 33.4367L31.5421 33.1L30.8936 31.208L30.2451 29.3161L29.2628 29.6528L29.9113 31.5447ZM30.8936 31.208L31.7009 33.0379L32.6517 32.6184L31.8444 30.7886L31.0372 28.9587L30.0863 29.3782L30.8936 31.208ZM31.8444 30.7886L33.0628 32.3746L33.8925 31.7372L32.6741 30.1512L31.4557 28.5652L30.626 29.2025L31.8444 30.7886ZM32.6741 30.1512L33.9528 31.689L34.752 31.0245L33.4733 29.4867L32.1945 27.9489L31.3954 28.6134L32.6741 30.1512ZM33.4733 29.4867L34.5605 31.1654L35.4228 30.6068L34.3356 28.9282L33.2483 27.2495L32.386 27.8081L33.4733 29.4867ZM34.3356 28.9282L35.4154 30.6117L36.2841 30.0545L35.2043 28.371L34.1245 26.6875L33.2558 27.2447L34.3356 28.9282ZM35.2043 28.371L35.7031 30.3078L36.8229 30.0194L36.324 28.0826L35.8252 26.1458L34.7054 26.4342L35.2043 28.371ZM36.324 28.0826L37.8444 29.382L38.535 28.5738L37.0146 27.2745L35.4942 25.9751L34.8036 26.7832L36.324 28.0826ZM37.0146 27.2745L38.9044 27.9294L39.2742 26.8623L37.3845 26.2073L35.4948 25.5524L35.1249 26.6195L37.0146 27.2745ZM37.3845 26.2073L38.9503 27.4516L39.5888 26.6481L38.023 25.4039L36.4572 24.1596L35.8187 24.963L37.3845 26.2073ZM38.023 25.4039L39.2451 26.987L40.0989 26.3279L38.8767 24.7448L37.6545 23.1617L36.8008 23.8207L38.023 25.4039ZM38.8767 24.7448L40.4005 26.0402L41.0828 25.2376L39.5591 23.9422L38.0353 22.6467L37.3529 23.4494L38.8767 24.7448ZM39.5591 23.9422L41.1988 25.0873L41.8006 24.2256L40.1609 23.0804L38.5212 21.9353L37.9194 22.797L39.5591 23.9422ZM40.1609 23.0804L41.8367 24.1721L42.4117 23.2895L40.7359 22.1977L39.0602 21.106L38.4852 21.9887L40.1609 23.0804ZM40.7359 22.1977L42.6323 22.8331L42.9691 21.8279L41.0727 21.1926L39.1763 20.5572L38.8395 21.5624L40.7359 22.1977ZM41.0727 21.1926L42.8427 22.1238L43.3316 21.1944L41.5616 20.2632L39.7916 19.3321L39.3027 20.2614L41.0727 21.1926ZM41.5616 20.2632L43.2474 21.3394L43.8228 20.4379L42.137 19.3618L40.4512 18.2857L39.8758 19.1871L41.5616 20.2632ZM42.137 19.3618L44.1233 19.1277L43.9868 17.97L42.0006 18.2041L40.0143 18.4382L40.1508 19.5959L42.137 19.3618ZM42.0006 18.2041L43.9993 18.132L43.9615 17.0845L41.9628 17.1567L39.9641 17.2288L40.0019 18.2762L42.0006 18.2041ZM41.9628 17.1567L43.8742 17.7452L44.1794 16.754L42.2679 16.1655L40.3565 15.577L40.0513 16.5681L41.9628 17.1567ZM42.2679 16.1655L44.2624 16.3145L44.3393 15.2848L42.3449 15.1358L40.3504 14.9867L40.2735 16.0165L42.2679 16.1655ZM42.3449 15.1358L44.3337 14.9245L44.2245 13.8964L42.2357 14.1076L40.2469 14.3188L40.3561 15.347L42.3449 15.1358ZM42.2357 14.1076L44.2205 13.8611L44.0935 12.8386L42.1087 13.085L40.124 13.3314L40.2509 14.354L42.2357 14.1076ZM42.1087 13.085L44.0537 13.551L44.318 12.4478L42.373 11.9818L40.4281 11.5158L40.1638 12.619L42.1087 13.085ZM42.373 11.9818L44.0412 10.8785L43.4274 9.95061L41.7593 11.0539L40.0912 12.1573L40.7049 13.0851L42.373 11.9818ZM41.7593 11.0539L43.6985 10.5646L43.4454 9.56139L41.5062 10.0507L39.567 10.54L39.8201 11.5432L41.7593 11.0539ZM41.5062 10.0507L43.2364 9.04751L42.7187 8.15464L40.9885 9.15784L39.2583 10.161L39.776 11.0539L41.5062 10.0507ZM40.9885 9.15784L42.6308 8.01649L42.0389 7.16474L40.3966 8.30609L38.7542 9.44743L39.3461 10.2992L40.9885 9.15784ZM40.3966 8.30609L42.1396 7.32533L41.6024 6.37072L39.8594 7.35148L38.1164 8.33224L38.6535 9.28685L40.3966 8.30609ZM39.8594 7.35148L40.0285 5.35864L38.7607 5.25106L38.5916 7.24389L38.4225 9.23673L39.6903 9.34432L39.8594 7.35148ZM38.5916 7.24389L40.5246 6.7306L40.1876 5.46117L38.2545 5.97447L36.3215 6.48776L36.6586 7.75719L38.5916 7.24389ZM38.2545 5.97447L39.359 4.30709L38.4844 3.72773L37.3799 5.39511L36.2754 7.06249L37.1501 7.64184L38.2545 5.97447ZM37.3799 5.39511L37.9185 3.46899L36.8575 3.17233L36.319 5.09845L35.7804 7.02457L36.8413 7.32123L37.3799 5.39511ZM36.319 5.09845L36.9148 3.18928L35.9011 2.87289L35.3052 4.78206L34.7094 6.69123L35.7231 7.00762L36.319 5.09845ZM35.3052 4.78206L36.1742 2.98068L35.2785 2.54862L34.4095 4.34999L33.5406 6.15137L34.4363 6.58343L35.3052 4.78206ZM34.4095 4.34999L34.9562 2.42616L33.9883 2.15112L33.4416 4.07496L32.895 5.99879L33.8629 6.27383L34.4095 4.34999ZM33.4416 4.07496L34.9103 2.71735L34.0645 1.80243L32.5959 3.16004L31.1273 4.51766L31.973 5.43257L33.4416 4.07496ZM32.5959 3.16004L32.4607 1.16462L31.3806 1.23778L31.5157 3.23321L31.6509 5.22863L32.7311 5.15547L32.5959 3.16004ZM31.5157 3.23321L32.0848 1.31587L31.0701 1.0147L30.501 2.93203L29.932 4.84936L30.9467 5.15054L31.5157 3.23321ZM30.501 2.93203L30.2676 0.945699L29.2065 1.07039L29.4399 3.05672L29.6733 5.04305L30.7344 4.91837L30.501 2.93203ZM29.4399 3.05672L29.797 1.08886L28.7681 0.902141L28.411 2.87L28.0539 4.83786L29.0828 5.02458L29.4399 3.05672ZM28.411 2.87L27.7022 0.999819L26.6346 1.40444L27.3434 3.27462L28.0522 5.14481L29.1198 4.74019L28.411 2.87ZM27.3434 3.27462L28.5981 1.71717L27.6006 0.91351L26.3459 2.47097L25.0911 4.02842L26.0887 4.83208L27.3434 3.27462ZM26.3459 2.47097L25.249 0.798577L24.2332 1.46481L25.3301 3.1372L26.4269 4.80958L27.4427 4.14335L26.3459 2.47097ZM25.3301 3.1372L25.2129 1.14063L24.1633 1.20221L24.2804 3.19878L24.3975 5.19535L25.4472 5.13376L25.3301 3.1372ZM24.2804 3.19878L23.7354 1.27448L22.7278 1.55985L23.2728 3.48415L23.8179 5.40846L24.8254 5.12308L24.2804 3.19878ZM23.2728 3.48415L21.7819 2.15113L21.0296 2.99247L22.5206 4.3255L24.0116 5.65853L24.7638 4.81718L23.2728 3.48415ZM22.5206 4.3255L22.2506 2.34382L21.1645 2.49184L21.4346 4.47352L21.7047 6.4552L22.7907 6.30718L22.5206 4.3255ZM21.4346 4.47352L20.5276 2.69097L19.5982 3.16385L20.5052 4.9464L21.4121 6.72894L22.3415 6.25606L21.4346 4.47352ZM20.5052 4.9464L20.1658 2.9754L19.0999 3.15893L19.4393 5.12993L19.7787 7.10092L20.8445 6.91739L20.5052 4.9464ZM19.4393 5.12993L17.8215 3.95398L17.1251 4.91201L18.7429 6.08795L20.3607 7.26389L21.0571 6.30587L19.4393 5.12993ZM18.7429 6.08795L20.2862 4.81586L20.1744 4.68022L18.6311 5.95231L17.0878 7.2244L17.1996 7.36004L18.7429 6.08795Z" fill="black"/>
<path d="M24.866 32.8819C24.8512 31.7774 23.9439 30.8941 22.8394 30.9089C21.7349 30.9237 20.8516 31.831 20.8664 32.9355L22.8662 32.9087L24.866 32.8819ZM22.8676 33.0087L20.8677 33.0355L20.8702 33.2218L20.9071 33.4044L22.8676 33.0087ZM23.0566 33.9451L24.8995 34.7221L25.139 34.1538L25.017 33.5494L23.0566 33.9451ZM22.6162 34.9896L20.7733 34.2126L20.4479 34.9843L20.7695 35.7576L22.6162 34.9896ZM23.0464 36.0243L25.0151 35.6716L24.9767 35.4574L24.8931 35.2563L23.0464 36.0243ZM23.2323 37.062L25.1437 37.6506L25.2865 37.1869L25.201 36.7094L23.2323 37.062ZM22.9104 38.1075L20.9989 37.5189L20.911 37.8045L20.9104 38.1034L22.9104 38.1075ZM22.9082 39.1476L20.9082 39.1435L20.9076 39.4492L20.9983 39.7411L22.9082 39.1476ZM23.2301 40.1834L25.2194 40.3896L25.2617 39.9816L25.14 39.5899L23.2301 40.1834ZM23.1221 41.2251L24.93 42.0803L25.0762 41.7713L25.1115 41.4313L23.1221 41.2251ZM22.6268 42.2721L20.8189 41.4169L20.3223 42.4666L20.9878 43.4183L22.6268 42.2721ZM23.3477 43.303L25.3071 43.7037L25.4794 42.8614L24.9867 42.1568L23.3477 43.303ZM23.1344 44.3458L21.175 43.945L21.0768 44.425L21.2116 44.896L23.1344 44.3458ZM23.4308 45.3815L25.2296 46.2558L25.5642 45.5673L25.3536 44.8314L23.4308 45.3815ZM22.9215 46.4295L21.1227 45.5553L20.8508 46.1146L20.9441 46.7295L22.9215 46.4295ZM23.0789 47.4674L25.0567 47.1706L25.0563 47.1675L23.0789 47.4674ZM23.2346 48.5048L21.2567 48.8017L21.2746 48.9204L21.3065 49.0362L23.2346 48.5048ZM23.5198 49.5397L25.1557 50.6903L25.6987 49.9183L25.4479 49.0083L23.5198 49.5397ZM22.7783 50.594L21.1424 49.4434L20.3027 50.6372L21.1835 51.801L22.7783 50.594ZM23.554 51.6189L25.4323 52.3058L25.8069 51.2815L25.1487 50.4119L23.554 51.6189ZM23.1709 52.6664L21.2926 51.9795L21.0823 52.5545L21.2299 53.1487L23.1709 52.6664ZM23.4282 53.7018L25.1763 54.6734L25.5593 53.9844L25.3692 53.2195L23.4282 53.7018ZM22.841 54.7582L21.0929 53.7866L20.4323 54.9752L21.2948 56.0267L22.841 54.7582ZM23.6726 55.7719L25.6421 56.1195L25.8019 55.2142L25.2189 54.5034L23.6726 55.7719ZM23.4883 56.8161L21.5187 56.4684L21.4953 56.601L21.4899 56.7356L23.4883 56.8161ZM23.4463 57.8576L21.4479 57.7771L21.441 57.9495L21.4637 58.1205L23.4463 57.8576ZM23.583 58.8882L25.431 59.6529L25.6361 59.1572L25.5656 58.6253L23.583 58.8882ZM23.1354 59.9697L21.2874 59.2049L20.941 60.0418L21.3416 60.8542L23.1354 59.9697ZM23.6277 60.9682L25.6106 61.2288L25.6897 60.6276L25.4215 60.0837L23.6277 60.9682ZM21.6192 60.9021C21.4752 61.9972 22.2463 63.0017 23.3414 63.1457C24.4366 63.2897 25.4411 62.5186 25.5851 61.4234L23.6021 61.1628L21.6192 60.9021ZM22.8662 32.9087L20.8664 32.9355L20.8677 33.0355L22.8676 33.0087L24.8674 32.9819L24.866 32.8819L22.8662 32.9087ZM22.8676 33.0087L20.9071 33.4044L21.0961 34.3408L23.0566 33.9451L25.017 33.5494L24.828 32.613L22.8676 33.0087ZM23.0566 33.9451L21.2137 33.1681L20.7733 34.2126L22.6162 34.9896L24.4591 35.7666L24.8995 34.7221L23.0566 33.9451ZM22.6162 34.9896L20.7695 35.7576L21.1997 36.7922L23.0464 36.0243L24.8931 35.2563L24.4629 34.2217L22.6162 34.9896ZM23.0464 36.0243L21.0777 36.3769L21.2636 37.4147L23.2323 37.062L25.201 36.7094L25.0151 35.6716L23.0464 36.0243ZM23.2323 37.062L21.3209 36.4735L20.9989 37.5189L22.9104 38.1075L24.8218 38.6961L25.1437 37.6506L23.2323 37.062ZM22.9104 38.1075L20.9104 38.1034L20.9082 39.1435L22.9082 39.1476L24.9082 39.1517L24.9104 38.1116L22.9104 38.1075ZM22.9082 39.1476L20.9983 39.7411L21.3202 40.7769L23.2301 40.1834L25.14 39.5899L24.8182 38.5541L22.9082 39.1476ZM23.2301 40.1834L21.2408 39.9772L21.1328 41.0188L23.1221 41.2251L25.1115 41.4313L25.2194 40.3896L23.2301 40.1834ZM23.1221 41.2251L21.3142 40.3698L20.8189 41.4169L22.6268 42.2721L24.4347 43.1274L24.93 42.0803L23.1221 41.2251ZM22.6268 42.2721L20.9878 43.4183L21.7087 44.4492L23.3477 43.303L24.9867 42.1568L24.2658 41.1259L22.6268 42.2721ZM23.3477 43.303L21.3883 42.9022L21.175 43.945L23.1344 44.3458L25.0939 44.7465L25.3071 43.7037L23.3477 43.303ZM23.1344 44.3458L21.2116 44.896L21.508 45.9317L23.4308 45.3815L25.3536 44.8314L25.0573 43.7956L23.1344 44.3458ZM23.4308 45.3815L21.632 44.5073L21.1227 45.5553L22.9215 46.4295L24.7203 47.3038L25.2296 46.2558L23.4308 45.3815ZM22.9215 46.4295L20.9441 46.7295L21.1015 47.7674L23.0789 47.4674L25.0563 47.1675L24.8988 46.1296L22.9215 46.4295ZM23.0789 47.4674L21.101 47.7643L21.2567 48.8017L23.2346 48.5048L25.2124 48.208L25.0567 47.1706L23.0789 47.4674ZM23.2346 48.5048L21.3065 49.0362L21.5917 50.0711L23.5198 49.5397L25.4479 49.0083L25.1627 47.9734L23.2346 48.5048ZM23.5198 49.5397L21.8839 48.3891L21.1424 49.4434L22.7783 50.594L24.4142 51.7446L25.1557 50.6903L23.5198 49.5397ZM22.7783 50.594L21.1835 51.801L21.9592 52.8259L23.554 51.6189L25.1487 50.4119L24.373 49.387L22.7783 50.594ZM23.554 51.6189L21.6756 50.932L21.2926 51.9795L23.1709 52.6664L25.0492 53.3533L25.4323 52.3058L23.554 51.6189ZM23.1709 52.6664L21.2299 53.1487L21.4872 54.1841L23.4282 53.7018L25.3692 53.2195L25.1119 52.1841L23.1709 52.6664ZM23.4282 53.7018L21.6801 52.7302L21.0929 53.7866L22.841 54.7582L24.5892 55.7298L25.1763 54.6734L23.4282 53.7018ZM22.841 54.7582L21.2948 56.0267L22.1263 57.0403L23.6726 55.7719L25.2189 54.5034L24.3873 53.4897L22.841 54.7582ZM23.6726 55.7719L21.703 55.4242L21.5187 56.4684L23.4883 56.8161L25.4578 57.1637L25.6421 56.1195L23.6726 55.7719ZM23.4883 56.8161L21.4899 56.7356L21.4479 57.7771L23.4463 57.8576L25.4447 57.9381L25.4867 56.8966L23.4883 56.8161ZM23.4463 57.8576L21.4637 58.1205L21.6003 59.151L23.583 58.8882L25.5656 58.6253L25.429 57.5947L23.4463 57.8576ZM23.583 58.8882L21.735 58.1234L21.2874 59.2049L23.1354 59.9697L24.9834 60.7345L25.431 59.6529L23.583 58.8882ZM23.1354 59.9697L21.3416 60.8542L21.8339 61.8526L23.6277 60.9682L25.4215 60.0837L24.9292 59.0852L23.1354 59.9697ZM23.6277 60.9682L21.6448 60.7075L21.6192 60.9021L23.6021 61.1628L25.5851 61.4234L25.6106 61.2288L23.6277 60.9682Z" fill="black"/>
<path d="M25.3273 61.879C25.7784 60.8708 25.3267 59.6877 24.3184 59.2366C23.3102 58.7855 22.1271 59.2372 21.676 60.2455L23.5016 61.0623L25.3273 61.879ZM23.4608 61.1535L21.6352 60.3367L21.4739 60.6973L21.4617 61.0921L23.4608 61.1535ZM23.4312 62.1174L24.9792 63.3838L25.4094 62.8579L25.4303 62.1787L23.4312 62.1174ZM22.728 62.9769L21.1801 61.7104L20.748 62.2386L20.7288 62.9207L22.728 62.9769ZM22.6968 64.09L24.6069 64.683L24.6883 64.4207L24.696 64.1461L22.6968 64.09ZM22.3819 65.1043L23.7734 66.5409L24.1404 66.1854L24.292 65.6973L22.3819 65.1043ZM21.595 65.8665L20.2035 64.4299L19.9994 64.6277L19.8584 64.8745L21.595 65.8665ZM21.0792 66.7695L19.3426 65.7776L19.1802 66.0618L19.1169 66.3831L21.0792 66.7695ZM20.8708 67.8278L22.5531 68.9094L22.7594 68.5885L22.8331 68.2142L20.8708 67.8278ZM20.3049 68.7079L21.5074 70.306L21.7935 70.0908L21.9871 69.7896L20.3049 68.7079ZM19.3831 69.4016L18.1806 67.8035L15.6387 69.7162L18.4641 71.1779L19.3831 69.4016ZM18.7787 71.3407C19.7598 71.8483 20.9665 71.4644 21.4741 70.4834C21.9817 69.5023 21.5978 68.2956 20.6168 67.788L19.6978 69.5644L18.7787 71.3407ZM23.5016 61.0623L21.676 60.2455L21.6352 60.3367L23.4608 61.1535L25.2864 61.9703L25.3273 61.879L23.5016 61.0623ZM23.4608 61.1535L21.4617 61.0921L21.4321 62.056L23.4312 62.1174L25.4303 62.1787L25.4599 61.2149L23.4608 61.1535ZM23.4312 62.1174L21.8832 60.8509L21.1801 61.7104L22.728 62.9769L24.276 64.2433L24.9792 63.3838L23.4312 62.1174ZM22.728 62.9769L20.7288 62.9207L20.6976 64.0339L22.6968 64.09L24.696 64.1461L24.7272 63.033L22.728 62.9769ZM22.6968 64.09L20.7867 63.497L20.4718 64.5114L22.3819 65.1043L24.292 65.6973L24.6069 64.683L22.6968 64.09ZM22.3819 65.1043L20.9904 63.6678L20.2035 64.4299L21.595 65.8665L22.9865 67.3031L23.7734 66.5409L22.3819 65.1043ZM21.595 65.8665L19.8584 64.8745L19.3426 65.7776L21.0792 66.7695L22.8159 67.7615L23.3317 66.8585L21.595 65.8665ZM21.0792 66.7695L19.1169 66.3831L18.9085 67.4413L20.8708 67.8278L22.8331 68.2142L23.0415 67.156L21.0792 66.7695ZM20.8708 67.8278L19.1885 66.7461L18.6226 67.6263L20.3049 68.7079L21.9871 69.7896L22.5531 68.9094L20.8708 67.8278ZM20.3049 68.7079L19.1023 67.1098L18.1806 67.8035L19.3831 69.4016L20.5856 70.9997L21.5074 70.306L20.3049 68.7079ZM19.3831 69.4016L18.4641 71.1779L18.7787 71.3407L19.6978 69.5644L20.6168 67.788L20.3021 67.6252L19.3831 69.4016Z" fill="black"/>
<path d="M24.8471 56.0353C23.7774 55.7597 22.6869 56.4035 22.4114 57.4731C22.1358 58.5428 22.7796 59.6333 23.8492 59.9088L24.3481 57.972L24.8471 56.0353ZM24.445 57.997L23.9461 59.9338L24.3701 60.043L24.8009 59.9651L24.445 57.997ZM25.3933 57.8255L26.2623 56.0241L25.6769 55.7417L25.0374 55.8574L25.3933 57.8255ZM26.4143 58.318L25.5453 60.1193L26.2936 60.4803L27.0774 60.2049L26.4143 58.318ZM27.4724 57.9461L27.2391 55.9598L27.0187 55.9857L26.8092 56.0593L27.4724 57.9461ZM28.52 57.8231L29.2308 55.9537L28.7731 55.7797L28.2867 55.8368L28.52 57.8231ZM29.5415 58.2116L28.8306 60.081L29.0822 60.1766L29.3501 60.2024L29.5415 58.2116ZM30.5752 58.311L30.3838 60.3018L30.5755 60.3203L30.7672 60.3018L30.5752 58.311ZM31.6684 58.2056L32.4785 56.377L31.9988 56.1645L31.4764 56.2148L31.6684 58.2056ZM32.6442 58.6379L34.1182 57.2861L33.836 56.9784L33.4543 56.8093L32.6442 58.6379ZM33.4251 59.4894L31.9511 60.8412L32.7095 61.6682L33.8105 61.452L33.4251 59.4894ZM34.6573 59.2475L35.8411 57.6354L35.1334 57.1158L34.2719 57.2849L34.6573 59.2475ZM35.5181 59.8795L34.3343 61.4916L34.7217 61.7761L35.1961 61.8534L35.5181 59.8795ZM36.5823 60.0531L38.1454 58.8054L37.6647 58.2032L36.9042 58.0792L36.5823 60.0531ZM37.31 60.9648L35.7469 62.2125L36.1318 62.6947L36.7215 62.8763L37.31 60.9648ZM38.3116 61.2732L38.9104 59.3649L38.9 59.3617L38.3116 61.2732ZM39.3139 61.5877L38.7151 63.496L38.8268 63.531L38.9418 63.5528L39.3139 61.5877ZM40.3692 61.7875L42.1256 60.831L41.6724 59.9987L40.7413 59.8224L40.3692 61.7875ZM40.9854 62.919L39.229 63.8755L39.9251 65.1538L41.3554 64.8845L40.9854 62.919ZM42.2485 62.6812L43.7041 61.3096L42.9537 60.5133L41.8785 60.7157L42.2485 62.6812ZM43.0144 63.494L41.5589 64.8656L41.9758 65.308L42.5684 65.4436L43.0144 63.494ZM44.0539 63.7318L45.7155 62.6186L45.2737 61.9592L44.4999 61.7822L44.0539 63.7318ZM44.7265 64.7358L43.0649 65.849L43.8173 66.9721L45.1399 66.6926L44.7265 64.7358ZM46.0089 64.4648L47.236 62.8855L46.5033 62.3162L45.5955 62.508L46.0089 64.4648ZM46.8494 65.1179L45.6224 66.6972L45.7198 66.7729L45.8258 66.8361L46.8494 65.1179ZM47.7474 65.6528L46.7238 67.371L46.8585 67.4513L47.0041 67.5096L47.7474 65.6528ZM48.7144 66.0399L50.3118 64.8364L49.9759 64.3906L49.4577 64.1832L48.7144 66.0399ZM49.4182 66.9741L47.8208 68.1775L48.5336 69.1236L49.7057 68.9533L49.4182 66.9741ZM50.3209 68.8639C51.414 68.7051 52.1714 67.6903 52.0126 66.5972C51.8538 65.5041 50.8389 64.7467 49.7458 64.9055L50.0333 66.8847L50.3209 68.8639ZM24.3481 57.972L23.8492 59.9088L23.9461 59.9338L24.445 57.997L24.9439 56.0602L24.8471 56.0353L24.3481 57.972ZM24.445 57.997L24.8009 59.9651L25.7493 59.7935L25.3933 57.8255L25.0374 55.8574L24.089 56.0289L24.445 57.997ZM25.3933 57.8255L24.5243 59.6268L25.5453 60.1193L26.4143 58.318L27.2833 56.5166L26.2623 56.0241L25.3933 57.8255ZM26.4143 58.318L27.0774 60.2049L28.1355 59.833L27.4724 57.9461L26.8092 56.0593L25.7512 56.4311L26.4143 58.318ZM27.4724 57.9461L27.7056 59.9325L28.7532 59.8095L28.52 57.8231L28.2867 55.8368L27.2391 55.9598L27.4724 57.9461ZM28.52 57.8231L27.8091 59.6925L28.8306 60.081L29.5415 58.2116L30.2524 56.3422L29.2308 55.9537L28.52 57.8231ZM29.5415 58.2116L29.3501 60.2024L30.3838 60.3018L30.5752 58.311L30.7667 56.3202L29.733 56.2208L29.5415 58.2116ZM30.5752 58.311L30.7672 60.3018L31.8603 60.1964L31.6684 58.2056L31.4764 56.2148L30.3833 56.3202L30.5752 58.311ZM31.6684 58.2056L30.8583 60.0342L31.834 60.4665L32.6442 58.6379L33.4543 56.8093L32.4785 56.377L31.6684 58.2056ZM32.6442 58.6379L31.1702 59.9897L31.9511 60.8412L33.4251 59.4894L34.8991 58.1377L34.1182 57.2861L32.6442 58.6379ZM33.4251 59.4894L33.8105 61.452L35.0427 61.21L34.6573 59.2475L34.2719 57.2849L33.0397 57.5269L33.4251 59.4894ZM34.6573 59.2475L33.4736 60.8595L34.3343 61.4916L35.5181 59.8795L36.7018 58.2675L35.8411 57.6354L34.6573 59.2475ZM35.5181 59.8795L35.1961 61.8534L36.2603 62.027L36.5823 60.0531L36.9042 58.0792L35.84 57.9056L35.5181 59.8795ZM36.5823 60.0531L35.0192 61.3007L35.7469 62.2125L37.31 60.9648L38.8731 59.7172L38.1454 58.8054L36.5823 60.0531ZM37.31 60.9648L36.7215 62.8763L37.7231 63.1846L38.3116 61.2732L38.9 59.3617L37.8985 59.0534L37.31 60.9648ZM38.3116 61.2732L37.7128 63.1814L38.7151 63.496L39.3139 61.5877L39.9127 59.6794L38.9104 59.3649L38.3116 61.2732ZM39.3139 61.5877L38.9418 63.5528L39.9971 63.7526L40.3692 61.7875L40.7413 59.8224L39.686 59.6226L39.3139 61.5877ZM40.3692 61.7875L38.6127 62.744L39.229 63.8755L40.9854 62.919L42.7418 61.9625L42.1256 60.831L40.3692 61.7875ZM40.9854 62.919L41.3554 64.8845L42.6185 64.6467L42.2485 62.6812L41.8785 60.7157L40.6154 60.9535L40.9854 62.919ZM42.2485 62.6812L40.793 64.0529L41.5589 64.8656L43.0144 63.494L44.47 62.1223L43.7041 61.3096L42.2485 62.6812ZM43.0144 63.494L42.5684 65.4436L43.6078 65.6814L44.0539 63.7318L44.4999 61.7822L43.4605 61.5443L43.0144 63.494ZM44.0539 63.7318L42.3923 64.8449L43.0649 65.849L44.7265 64.7358L46.3881 63.6227L45.7155 62.6186L44.0539 63.7318ZM44.7265 64.7358L45.1399 66.6926L46.4224 66.4216L46.0089 64.4648L45.5955 62.508L44.313 62.779L44.7265 64.7358ZM46.0089 64.4648L44.7819 66.0442L45.6224 66.6972L46.8494 65.1179L48.0765 63.5385L47.236 62.8855L46.0089 64.4648ZM46.8494 65.1179L45.8258 66.8361L46.7238 67.371L47.7474 65.6528L48.771 63.9346L47.873 63.3996L46.8494 65.1179ZM47.7474 65.6528L47.0041 67.5096L47.9711 67.8967L48.7144 66.0399L49.4577 64.1832L48.4907 63.7961L47.7474 65.6528ZM48.7144 66.0399L47.117 67.2434L47.8208 68.1775L49.4182 66.9741L51.0156 65.7706L50.3118 64.8364L48.7144 66.0399ZM49.4182 66.9741L49.7057 68.9533L50.3209 68.8639L50.0333 66.8847L49.7458 64.9055L49.1307 64.9948L49.4182 66.9741Z" fill="black"/>
<path d="M24.8901 45.9803C23.9243 46.5163 23.5759 47.7338 24.112 48.6996C24.648 49.6653 25.8655 50.0137 26.8313 49.4777L25.8607 47.729L24.8901 45.9803ZM25.9481 47.6804L26.9187 49.4291L27.1194 49.3177L27.2896 49.1638L25.9481 47.6804ZM26.6559 47.0403L26.4619 45.0497L25.8044 45.1138L25.3144 45.5569L26.6559 47.0403ZM27.7838 46.9304L27.9778 48.921L28.8065 48.8402L29.3331 48.1951L27.7838 46.9304ZM28.4932 46.0612L27.2545 44.491L27.0824 44.6267L26.9439 44.7965L28.4932 46.0612ZM29.3218 45.4075L28.9441 43.4436L28.4656 43.5356L28.0831 43.8373L29.3218 45.4075ZM30.3924 45.2016L30.7701 47.1656L31.0642 47.1091L31.3288 46.9689L30.3924 45.2016ZM31.3121 44.7143L32.2485 46.4815L32.5182 46.3386L32.7331 46.1217L31.3121 44.7143ZM32.0758 43.9432L31.3232 42.0902L30.9433 42.2445L30.6547 42.5358L32.0758 43.9432ZM33.0458 43.5492L32.9514 41.5514L32.6099 41.5676L32.2932 41.6962L33.0458 43.5492ZM34.2026 43.4945L34.297 45.4923L35.4575 45.4374L35.9848 44.4022L34.2026 43.4945ZM34.7735 42.3736L34.2051 40.4561L33.3813 40.7003L32.9913 41.466L34.7735 42.3736ZM35.7947 42.0709L36.3631 43.9885L36.8331 43.8492L37.1854 43.5083L35.7947 42.0709ZM36.5687 41.3221L36.4927 39.3236L35.728 39.3527L35.1781 39.8847L36.5687 41.3221ZM37.7329 41.2778L37.809 43.2764L38.431 43.2527L38.9297 42.8802L37.7329 41.2778ZM38.574 40.6496L37.3788 39.046L37.3772 39.0472L38.574 40.6496ZM39.4153 40.0226L40.6105 41.6262L40.7072 41.5541L40.7946 41.4708L39.4153 40.0226ZM40.1928 39.2821L40.4327 37.2965L39.4964 37.1834L38.8134 37.8338L40.1928 39.2821ZM41.4721 39.4367L41.2321 41.4222L42.6832 41.5976L43.291 40.2684L41.4721 39.4367ZM42.0063 38.2684L41.7188 36.2891L40.6405 36.4458L40.1874 37.4367L42.0063 38.2684ZM43.1111 38.1079L43.3986 40.0871L44.0053 39.999L44.4583 39.586L43.1111 38.1079ZM43.8988 37.39L43.921 35.3901L43.1336 35.3813L42.5516 35.9118L43.8988 37.39ZM45.1079 37.4034L45.0857 39.4033L46.4467 39.4184L46.9601 38.1579L45.1079 37.4034ZM45.6023 36.1898L44.9688 34.2928L44.0969 34.584L43.7501 35.4353L45.6023 36.1898ZM46.6098 35.8534L47.2433 37.7504L47.3692 37.7084L47.4885 37.6501L46.6098 35.8534ZM47.5462 35.3955L48.4249 37.1921L48.576 37.1182L48.7126 37.0201L47.5462 35.3955ZM48.3918 34.7883L48.2081 32.7968L47.6669 32.8467L47.2254 33.1637L48.3918 34.7883ZM49.5563 34.6809L49.74 36.6725L50.644 36.589L51.1763 35.8537L49.5563 34.6809ZM50.2101 33.7778L49.0192 32.171L48.7711 32.3548L48.59 32.605L50.2101 33.7778ZM51.0451 33.159L50.6513 31.1981L50.2132 31.2861L49.8542 31.5522L51.0451 33.159ZM52.1748 32.9322L52.5685 34.893L53.6655 34.6728L54.0518 33.6227L52.1748 32.9322ZM52.5985 31.7805L51.6701 30.009L50.9875 30.3667L50.7214 31.0899L52.5985 31.7805ZM53.5361 31.289L52.6327 29.5047L52.6202 29.511L52.6077 29.5176L53.5361 31.289ZM54.4903 30.8059L55.3937 32.5903L55.9079 32.3299L56.2048 31.8359L54.4903 30.8059ZM55.0552 29.8657L54.1698 28.0724L53.6432 28.3324L53.3408 28.8358L55.0552 29.8657ZM56.4158 31.4244C57.4062 30.9354 57.8127 29.7361 57.3237 28.7457C56.8346 27.7553 55.6353 27.3488 54.6449 27.8378L55.5303 29.6311L56.4158 31.4244ZM25.8607 47.729L26.8313 49.4777L26.9187 49.4291L25.9481 47.6804L24.9775 45.9317L24.8901 45.9803L25.8607 47.729ZM25.9481 47.6804L27.2896 49.1638L27.9974 48.5237L26.6559 47.0403L25.3144 45.5569L24.6066 46.1971L25.9481 47.6804ZM26.6559 47.0403L26.8499 49.0309L27.9778 48.921L27.7838 46.9304L27.5898 44.9398L26.4619 45.0497L26.6559 47.0403ZM27.7838 46.9304L29.3331 48.1951L30.0426 47.3259L28.4932 46.0612L26.9439 44.7965L26.2344 45.6657L27.7838 46.9304ZM28.4932 46.0612L29.732 47.6314L30.5605 46.9778L29.3218 45.4075L28.0831 43.8373L27.2545 44.491L28.4932 46.0612ZM29.3218 45.4075L29.6996 47.3715L30.7701 47.1656L30.3924 45.2016L30.0146 43.2376L28.9441 43.4436L29.3218 45.4075ZM30.3924 45.2016L31.3288 46.9689L32.2485 46.4815L31.3121 44.7143L30.3756 42.9471L29.4559 43.4344L30.3924 45.2016ZM31.3121 44.7143L32.7331 46.1217L33.4968 45.3506L32.0758 43.9432L30.6547 42.5358L29.891 43.3069L31.3121 44.7143ZM32.0758 43.9432L32.8284 45.7962L33.7984 45.4022L33.0458 43.5492L32.2932 41.6962L31.3232 42.0902L32.0758 43.9432ZM33.0458 43.5492L33.1402 45.547L34.297 45.4923L34.2026 43.4945L34.1082 41.4967L32.9514 41.5514L33.0458 43.5492ZM34.2026 43.4945L35.9848 44.4022L36.5556 43.2813L34.7735 42.3736L32.9913 41.466L32.4204 42.5868L34.2026 43.4945ZM34.7735 42.3736L35.3418 44.2912L36.3631 43.9885L35.7947 42.0709L35.2264 40.1534L34.2051 40.4561L34.7735 42.3736ZM35.7947 42.0709L37.1854 43.5083L37.9594 42.7595L36.5687 41.3221L35.1781 39.8847L34.4041 40.6335L35.7947 42.0709ZM36.5687 41.3221L36.6448 43.3207L37.809 43.2764L37.7329 41.2778L37.6569 39.2793L36.4927 39.3236L36.5687 41.3221ZM37.7329 41.2778L38.9297 42.8802L39.7708 42.252L38.574 40.6496L37.3772 39.0472L36.5361 39.6754L37.7329 41.2778ZM38.574 40.6496L39.7692 42.2532L40.6105 41.6262L39.4153 40.0226L38.2201 38.419L37.3788 39.046L38.574 40.6496ZM39.4153 40.0226L40.7946 41.4708L41.5721 40.7303L40.1928 39.2821L38.8134 37.8338L38.0359 38.5744L39.4153 40.0226ZM40.1928 39.2821L39.9528 41.2676L41.2321 41.4222L41.4721 39.4367L41.712 37.4511L40.4327 37.2965L40.1928 39.2821ZM41.4721 39.4367L43.291 40.2684L43.8252 39.1L42.0063 38.2684L40.1874 37.4367L39.6532 38.605L41.4721 39.4367ZM42.0063 38.2684L42.2938 40.2476L43.3986 40.0871L43.1111 38.1079L42.8236 36.1286L41.7188 36.2891L42.0063 38.2684ZM43.1111 38.1079L44.4583 39.586L45.246 38.8682L43.8988 37.39L42.5516 35.9118L41.7639 36.6297L43.1111 38.1079ZM43.8988 37.39L43.8766 39.3898L45.0857 39.4033L45.1079 37.4034L45.1301 35.4035L43.921 35.3901L43.8988 37.39ZM45.1079 37.4034L46.9601 38.1579L47.4545 36.9444L45.6023 36.1898L43.7501 35.4353L43.2557 36.6489L45.1079 37.4034ZM45.6023 36.1898L46.2358 38.0869L47.2433 37.7504L46.6098 35.8534L45.9764 33.9564L44.9688 34.2928L45.6023 36.1898ZM46.6098 35.8534L47.4885 37.6501L48.4249 37.1921L47.5462 35.3955L46.6676 33.5988L45.7312 34.0567L46.6098 35.8534ZM47.5462 35.3955L48.7126 37.0201L49.5583 36.413L48.3918 34.7883L47.2254 33.1637L46.3798 33.7708L47.5462 35.3955ZM48.3918 34.7883L48.5756 36.7799L49.74 36.6725L49.5563 34.6809L49.3725 32.6894L48.2081 32.7968L48.3918 34.7883ZM49.5563 34.6809L51.1763 35.8537L51.8301 34.9506L50.2101 33.7778L48.59 32.605L47.9362 33.5081L49.5563 34.6809ZM50.2101 33.7778L51.4009 35.3846L52.2359 34.7658L51.0451 33.159L49.8542 31.5522L49.0192 32.171L50.2101 33.7778ZM51.0451 33.159L51.4388 35.1198L52.5685 34.893L52.1748 32.9322L51.7811 30.9713L50.6513 31.1981L51.0451 33.159ZM52.1748 32.9322L54.0518 33.6227L54.4755 32.471L52.5985 31.7805L50.7214 31.0899L50.2978 32.2416L52.1748 32.9322ZM52.5985 31.7805L53.5269 33.5519L54.4645 33.0605L53.5361 31.289L52.6077 29.5176L51.6701 30.009L52.5985 31.7805ZM53.5361 31.289L54.4395 33.0734L55.3937 32.5903L54.4903 30.8059L53.587 29.0216L52.6327 29.5047L53.5361 31.289ZM54.4903 30.8059L56.2048 31.8359L56.7696 30.8956L55.0552 29.8657L53.3408 28.8358L52.7759 29.776L54.4903 30.8059ZM55.0552 29.8657L55.9406 31.659L56.4158 31.4244L55.5303 29.6311L54.6449 27.8378L54.1698 28.0724L55.0552 29.8657Z" fill="black"/>
<path d="M20.4 51.1841C21.4803 51.4143 22.5427 50.7252 22.7729 49.6449C23.0031 48.5645 22.314 47.5022 21.2337 47.2719L20.8168 49.228L20.4 51.1841ZM20.719 49.2072L21.1359 47.2511L20.7283 47.1642L20.32 47.2474L20.719 49.2072ZM19.776 49.3992L18.9531 51.2221L19.5419 51.4878L20.175 51.359L19.776 49.3992ZM18.7415 48.9322L19.5643 47.1093L18.8068 46.7674L18.0301 47.063L18.7415 48.9322ZM17.6942 49.3308L17.9784 51.3105L18.1981 51.279L18.4056 51.2L17.6942 49.3308ZM16.6504 49.4807L15.8799 51.3263L16.3888 51.5387L16.9346 51.4604L16.6504 49.4807ZM15.6264 49.0532L16.3969 47.2076L16.2226 47.1348L16.0377 47.096L15.6264 49.0532ZM14.6107 48.8398L15.022 46.8825L14.7682 46.8292L14.5092 46.8424L14.6107 48.8398ZM13.5234 48.8951L12.7795 50.7516L13.1868 50.9148L13.625 50.8925L13.5234 48.8951ZM12.5466 48.5036L11.1958 49.9785L11.4645 50.2246L11.8027 50.3601L12.5466 48.5036ZM11.6933 47.7221L13.044 46.2472L12.202 45.4761L11.1099 45.8091L11.6933 47.7221ZM10.4906 48.0888L9.48302 49.8165L10.238 50.2568L11.074 50.0019L10.4906 48.0888ZM9.56933 47.5515L10.5769 45.8239L10.1635 45.5827L9.68561 45.5549L9.56933 47.5515ZM8.49202 47.4888L7.06268 48.8877L7.60365 49.4404L8.37574 49.4854L8.49202 47.4888ZM7.676 46.655L9.10533 45.2561L8.67581 44.8172L8.07402 44.695L7.676 46.655ZM6.64846 46.4463L6.2099 48.3977L6.23013 48.4022L6.25044 48.4063L6.64846 46.4463ZM5.62183 46.2156L6.06039 44.2643L5.96062 44.2419L5.85907 44.2297L5.62183 46.2156ZM4.55171 46.0878L2.8532 47.1437L3.36048 47.9597L4.31447 48.0736L4.55171 46.0878ZM3.87107 44.993L5.56958 43.937L4.80697 42.7103L3.40275 43.0486L3.87107 44.993ZM2.62206 45.2938L0.933768 46.366L1.70031 47.573L3.09037 47.2382L2.62206 45.2938ZM2.24409 44.6987L0.394542 43.9376L0.000184536 44.896L0.555802 45.7709L2.24409 44.6987ZM4.10004 45.4441C4.52034 44.4227 4.033 43.2539 3.01152 42.8336C1.99004 42.4133 0.821246 42.9006 0.400939 43.9221L2.25049 44.6831L4.10004 45.4441ZM20.8168 49.228L21.2337 47.2719L21.1359 47.2511L20.719 49.2072L20.3022 51.1632L20.4 51.1841L20.8168 49.228ZM20.719 49.2072L20.32 47.2474L19.377 47.4394L19.776 49.3992L20.175 51.359L21.118 51.167L20.719 49.2072ZM19.776 49.3992L20.5988 47.5763L19.5643 47.1093L18.7415 48.9322L17.9187 50.7551L18.9531 51.2221L19.776 49.3992ZM18.7415 48.9322L18.0301 47.063L16.9828 47.4616L17.6942 49.3308L18.4056 51.2L19.4529 50.8014L18.7415 48.9322ZM17.6942 49.3308L17.4099 47.3511L16.3661 47.501L16.6504 49.4807L16.9346 51.4604L17.9784 51.3105L17.6942 49.3308ZM16.6504 49.4807L17.4209 47.635L16.3969 47.2076L15.6264 49.0532L14.8559 50.8988L15.8799 51.3263L16.6504 49.4807ZM15.6264 49.0532L16.0377 47.096L15.022 46.8825L14.6107 48.8398L14.1994 50.797L15.2151 51.0105L15.6264 49.0532ZM14.6107 48.8398L14.5092 46.8424L13.4219 46.8976L13.5234 48.8951L13.625 50.8925L14.7123 50.8372L14.6107 48.8398ZM13.5234 48.8951L14.2674 47.0386L13.2905 46.6471L12.5466 48.5036L11.8027 50.3601L12.7795 50.7516L13.5234 48.8951ZM12.5466 48.5036L13.8974 47.0287L13.044 46.2472L11.6933 47.7221L10.3425 49.1971L11.1958 49.9785L12.5466 48.5036ZM11.6933 47.7221L11.1099 45.8091L9.9073 46.1758L10.4906 48.0888L11.074 50.0019L12.2766 49.6352L11.6933 47.7221ZM10.4906 48.0888L11.4983 46.3612L10.5769 45.8239L9.56933 47.5515L8.56171 49.2791L9.48302 49.8165L10.4906 48.0888ZM9.56933 47.5515L9.68561 45.5549L8.6083 45.4921L8.49202 47.4888L8.37574 49.4854L9.45305 49.5481L9.56933 47.5515ZM8.49202 47.4888L9.92135 46.0898L9.10533 45.2561L7.676 46.655L6.24667 48.0539L7.06268 48.8877L8.49202 47.4888ZM7.676 46.655L8.07402 44.695L7.04648 44.4863L6.64846 46.4463L6.25044 48.4063L7.27798 48.615L7.676 46.655ZM6.64846 46.4463L7.08702 44.495L6.06039 44.2643L5.62183 46.2156L5.18327 48.1669L6.2099 48.3977L6.64846 46.4463ZM5.62183 46.2156L5.85907 44.2297L4.78895 44.1019L4.55171 46.0878L4.31447 48.0736L5.38459 48.2015L5.62183 46.2156ZM4.55171 46.0878L6.25022 45.0318L5.56958 43.937L3.87107 44.993L2.17256 46.0489L2.8532 47.1437L4.55171 46.0878ZM3.87107 44.993L3.40275 43.0486L2.15374 43.3494L2.62206 45.2938L3.09037 47.2382L4.33938 46.9374L3.87107 44.993ZM2.62206 45.2938L4.31035 44.2216L3.93238 43.6264L2.24409 44.6987L0.555802 45.7709L0.933768 46.366L2.62206 45.2938ZM2.24409 44.6987L4.09364 45.4597L4.10004 45.4441L2.25049 44.6831L0.400939 43.9221L0.394542 43.9376L2.24409 44.6987Z" fill="black"/>
</svg>
