<svg width="203" height="76" viewBox="0 0 203 76" fill="none" xmlns="http://www.w3.org/2000/svg">
<g filter="url(#filter0_d_64_1711)">
<path d="M7 2.28546H196V65.2855H7V2.28546Z" fill="white" shape-rendering="crispEdges"/>
<path d="M4.00443 26.9983C3.96845 26.3976 4.16301 25.5497 4.17326 24.8411C4.21825 21.8727 4.35311 20.7728 4.42961 18.087C4.54322 14.1047 4.28751 2.28576 5.63916 2.28546C5.63919 2.28546 5.63923 2.28546 5.63926 2.28546C5.65252 2.28546 5.66592 2.2866 5.67949 2.2889C5.93699 2.33032 6.2181 3.33558 6.50932 3.48476C6.80065 3.63371 8.68143 3.52202 8.78716 4.94979C8.9265 7.01996 8.44426 11.986 8.46563 13.0901C8.48035 13.845 8.65133 14.7743 8.68169 15.7395C8.77954 18.8516 8.6545 20.48 9.11895 23.2838C8.8742 24.4053 8.62944 25.5269 8.38469 26.6484C8.49817 28.1117 8.17539 30.3294 8.19316 31.2184C8.20779 31.9477 8.40133 32.3751 8.41033 33.1353C8.42151 33.9878 8.2126 35.2971 8.24407 36.8478C8.29468 39.3901 8.79958 39.8425 8.8637 41.3679C8.93005 42.9497 8.65563 45.4096 8.8333 47.428C8.88884 47.6811 8.94439 47.9342 8.99993 48.1874C9.12554 48.006 9.25115 47.8247 9.37676 47.6433C9.43523 48.6599 9.17781 49.0971 9.17315 50.0312C9.16752 51.1303 9.41158 51.691 9.41045 52.4306C9.40932 53.0365 9.21362 53.8579 9.22588 54.6435C9.24275 55.7888 9.52531 55.5384 9.57818 56.1547C9.59871 56.4006 9.75464 60.947 9.75689 61.2035C9.76803 63.1542 9.38128 63.324 9.34746 64.8795C9.34457 65.0147 9.34208 65.15 9.33997 65.2855L7 62.9455C11.1854 63.0108 15.462 62.714 19.3275 62.5996C21.1094 62.5468 22.9686 62.5693 24.7454 62.6311C21.9469 63.6209 28.1402 64.3913 25.824 62.8424C27.8008 63.0628 29.2025 62.6446 31.0766 62.7153C32.2887 62.7615 33.1275 62.9762 34.8583 62.9706C37.9294 62.9592 41.2887 62.3488 42.172 63.4522C45.7771 63.2576 48.8996 63.6579 50.1988 62.6838C51.1285 62.6243 53.5109 63.2045 54.5536 63.2833C55.5397 63.3576 63.1057 63.6195 64.3435 63.6342C65.5813 63.6488 67.748 63.6647 68.7905 63.5792C70.1002 63.4735 71.0154 62.4633 73.3471 63.6444C76.0582 63.5488 77.0241 63.5826 79.5456 63.7199C80.0021 63.7447 80.0537 63.92 80.3204 63.9202C80.8698 63.9202 81.8045 63.7906 82.7852 63.7748C84.3979 63.7489 85.3182 64.1179 85.1385 63.5543C86.2017 63.4599 87.2649 63.3654 88.3281 63.2709C88.7011 63.3797 89.074 63.4884 89.447 63.5972C90.0155 63.4786 90.5839 63.3601 91.1524 63.2416C90.4847 64.0571 94.4856 63.5758 93.1865 63.1079C95.2476 63.2766 97.3086 63.4453 99.3696 63.614C99.082 64.5408 103.895 63.721 103.49 63.2171C103.726 63.2178 103.961 63.2185 104.197 63.2192C106.262 63.4656 108.158 63.2641 110.675 63.4295C113.191 63.5948 112.955 63.685 113.72 64.1113C114.312 64.0869 114.904 64.0625 115.496 64.0381C118.604 62.8694 118.055 64.8928 123.375 63.9963C125.075 64.7309 129.266 64.345 132.044 64.1223C132.368 64.0965 132.373 63.9539 132.804 63.9099C133.857 63.8042 136.543 63.9875 136.451 63.5276C137.381 63.6607 138.311 63.7937 139.241 63.9268C140.001 63.8432 140.761 63.7595 141.521 63.6759C141.517 63.5324 141.513 63.3888 141.509 63.2453C143.04 63.7345 145.445 63.5465 146.631 63.6635C146.867 63.6872 146.918 63.8852 147.652 63.9392C148.51 64.0033 150.108 63.9447 151.13 64.0066C151.528 63.7872 151.925 63.5679 152.322 63.3485C154.15 63.2295 154.792 63.8085 155.866 63.8535C156.059 63.8613 159.584 63.8198 159.774 63.8074C161.329 63.7094 160.889 63.2161 165.386 63.3218C166.187 63.3409 166.835 63.5116 167.559 63.5184C168.838 63.5308 172.691 63.1437 172.994 62.786C174.545 63.2337 178.695 63.0507 179.917 63.1801C180.286 63.2198 180.37 63.505 181.504 63.5657C182.423 63.6152 184.79 63.3868 185.956 63.4251C187.194 63.4667 187.636 63.7062 188.19 63.7232C188.714 63.7389 189.197 63.5455 189.911 63.5466C192.14 63.5534 194.158 63.8646 195.919 63.8704C195.946 63.8705 195.973 63.8705 196 63.8705L194.585 65.2855C194.582 62.7712 194.019 60.546 193.767 58.4371C193.804 57.9081 193.927 57.3883 193.928 56.8336C193.946 49.9722 194.052 42.2322 194.174 35.3504C194.231 32.1556 195.008 24.2109 193.711 26.3314C193.484 25.2211 194.007 17.1484 194.015 15.6128C194.023 14.0777 193.79 12.8608 193.787 11.6542C193.777 8.37472 193.912 5.96901 193.791 2.28546L196 4.49399C195.593 4.50734 195.171 4.52381 194.731 4.54394C193.586 4.59687 192.36 4.87234 191.682 4.86913C190.865 4.86463 189.986 4.59821 188.928 4.58129C186.407 4.54305 181.708 4.63068 179.288 4.58458C178.847 4.57559 178.692 4.34166 178.06 4.26854C175.6 3.98286 172.842 4.00764 173.33 4.75451C170.177 4.33049 167.26 4.71727 164.338 4.74096C158.16 4.78933 146.905 4.615 141.523 4.92882C138.129 5.1268 138.216 5.46177 133.219 5.17272C132.11 5.10862 131.005 5.02215 129.66 4.94567C126.507 4.7657 123.614 4.14687 121.21 4.89257C117.708 4.69917 114.919 4.83632 112.32 4.1986C112.014 4.35155 111.707 4.50451 111.401 4.65746C110.972 4.66125 110.542 4.66503 110.113 4.66881C109.979 4.52294 109.845 4.37706 109.711 4.23119C106.635 4.19191 102.733 4.79147 100.129 4.7871C95.7633 4.78035 84.5193 4.54742 80.3798 4.35058C78.1821 4.24604 78.0638 4.55847 76.8056 3.91625C76.3141 3.96093 75.8225 4.0056 75.331 4.05028C75.0234 4.19091 74.7158 4.33153 74.4081 4.47216C71.5886 4.47778 68.2444 4.25935 65.5583 4.26159C60.6639 4.26609 53.3141 4.65312 48.3991 4.39892C47.1666 4.33481 45.6261 4.04481 44.4192 4.04808C42.6628 4.05258 42.2358 4.53384 40.0069 4.54284C36.1652 4.55746 29.0107 3.99838 25.3796 4.04113C24.3011 4.05351 23.798 4.23258 23.0533 4.2517C19.9306 4.33381 17.3669 4.31923 14.3727 4.59594C11.1576 4.13476 11.4354 3.53949 10.439 2.93883C9.68392 2.48549 7.36852 1.43487 7.03984 1.03782C6.80896 0.758877 7.67099 0.400046 7.34746 0.0929973C11.1994 -0.152209 12.8176 0.117731 15.9454 0.549663C21.7215 0.532451 27.4977 0.515239 33.2739 0.498028C33.7994 0.66563 34.3249 0.833233 34.8504 1.00084C34.8504 1.0012 34.8504 1.00157 34.8504 1.00193C37.0687 1.19536 38.0088 0.763729 39.2051 0.665753C50.6582 -0.272356 73.2005 0.461874 85.8092 0.567608C88.5263 0.590096 97.3647 0.364251 99.229 0.636456C99.7117 0.707347 99.846 0.965785 100.36 0.977032C104.948 0.823346 109.536 0.669659 114.124 0.515972C123.558 0.917533 133.312 0.585894 142.818 0.524029C160.659 0.407777 178.376 0.27415 196 0.223828C197.166 0.209945 198.048 1.11931 198.062 2.28546C198.084 10.07 198.09 17.8364 198.071 25.5873C198.059 30.4767 198.252 36.6814 198.127 41.4681C198.076 43.4658 197.66 44.2982 197.97 46.9226C197.858 46.9501 197.746 46.9777 197.634 47.0052C197.769 49.2955 198.024 50.759 198.05 53.3268C198.071 55.489 198.088 61.2098 198.045 63.1206C198.024 64.1116 197.815 63.7424 197.816 64.6663C197.816 64.85 197.82 65.058 197.827 65.2855C197.84 66.3192 197.034 67.1006 196 67.1129C194.268 67.1677 191.404 67.3933 189.475 67.3933C187.497 67.3933 184.164 67.1526 182.644 67.1875C177.169 67.3112 171.205 67.668 165.371 67.5724C163.759 67.5454 161.686 67.2744 161.182 67.282C160.196 67.2977 159.902 67.5609 159.24 67.5947C155.876 67.7657 150.632 67.453 147.335 67.4406C136.591 67.4001 125.208 67.5149 114.51 67.4666C107.751 67.4362 96.5196 67.4825 90.2795 67.2846C88.9339 67.2418 89.2926 66.9535 88.1627 66.9535C86.9099 66.9536 86.2314 67.1483 85.646 67.1641C81.5934 67.2743 72.6473 67.4712 68.8213 67.2721C68.0925 67.2339 67.5638 67.008 67.1274 67.0088C66.9066 67.0088 66.4077 67.163 65.7143 67.1787C59.5923 67.3182 55.1286 67.2283 49.1299 67.1754C37.6411 67.0753 24.3291 67.3621 12.26 67.2069C9.63038 67.1732 7.82707 66.7264 7.45729 66.7309C7.29714 66.7326 7.14829 66.7458 7 66.7663C6.16238 66.7763 5.52914 66.1231 5.51917 65.2855C5.43576 64.6825 5.2304 64.0875 5.17082 62.7685C4.92681 57.3042 5.24751 49.9451 5.09684 44.7478C5.02261 42.1802 4.6411 38.6517 4.55668 36.1249C4.4892 34.1068 4.63885 29.3405 4.47135 28.446C4.37016 27.9018 4.04512 27.65 4.00443 26.9983ZM36.7021 63.2214C36.3426 63.7411 40.1211 63.3092 38.7036 63.0303C38.3843 62.9675 36.795 63.0865 36.7021 63.2214ZM194.838 47.6512C194.69 47.6858 194.541 47.7204 194.393 47.755C194.455 48.2511 194.517 48.7471 194.578 49.2431C194.668 48.9644 194.757 48.6856 194.846 48.4068C194.843 48.1549 194.841 47.9031 194.838 47.6512Z" fill="black"/>
<path d="M49.3039 30.5855C50.0239 30.5855 50.5172 31.7988 50.7839 34.2255C50.5172 34.8921 50.0772 35.2255 49.4639 35.2255C49.0372 35.1455 48.6106 34.6521 48.1839 33.7455L47.4639 33.5055C46.2106 33.5055 45.0772 34.3321 44.0639 35.9855V36.3455C44.0639 36.7455 45.9439 37.4121 49.7039 38.3455C51.2772 39.2788 52.0639 40.4121 52.0639 41.7455C52.0639 43.9321 50.3039 45.7988 46.7839 47.3455L45.3039 47.5855C43.0639 47.3455 41.9439 46.2255 41.9439 44.2255V44.1055C41.9439 43.4655 42.3572 43.0921 43.1839 42.9855C43.8239 42.9855 44.2506 43.6521 44.4639 44.9855L44.7839 45.2255H45.4639C46.9839 45.2255 48.3972 44.1855 49.7039 42.1055V41.5855C49.7039 40.7855 47.9572 40.0388 44.4639 39.3455C42.6239 38.5988 41.7039 37.5588 41.7039 36.2255C41.7039 34.4921 43.1572 32.8655 46.0639 31.3455C47.3439 31.1855 48.4239 30.9321 49.3039 30.5855ZM58.2495 22.5055C58.9962 22.6655 59.3695 23.0388 59.3695 23.6255L59.1295 25.3855V25.9055C59.1295 27.0788 59.2629 28.3188 59.5295 29.6255H59.6095C62.7029 28.6921 64.6229 28.2255 65.3695 28.2255C66.1429 28.4388 66.5295 28.8255 66.5295 29.3855C66.5295 30.2921 65.6095 30.7455 63.7695 30.7455L59.6095 32.2255C59.6095 35.8255 59.9962 40.7188 60.7695 46.9055C60.6095 47.6255 60.2229 47.9855 59.6095 47.9855H59.5295C58.5962 47.9855 58.1295 46.7855 58.1295 44.3855C57.7829 42.5988 57.4895 38.7188 57.2495 32.7455H56.5295C54.0229 32.5855 52.7695 31.9988 52.7695 30.9855C52.7695 30.6921 53.0495 30.3321 53.6095 29.9055H54.0095L55.8495 30.3855H57.1295L56.7695 25.3855C56.7695 23.4655 57.2629 22.5055 58.2495 22.5055ZM75.2283 31.3455C76.4016 31.3455 76.9883 31.8121 76.9883 32.7455L76.6283 33.5055L76.3883 40.8255C76.3883 44.1321 77.0549 46.1855 78.3883 46.9855L78.4683 47.5855C78.3883 48.3588 78.0283 48.7455 77.3883 48.7455H77.1483C75.1483 47.3855 74.1483 45.3055 74.1483 42.5055H73.8683C72.8016 45.4921 71.5083 46.9855 69.9883 46.9855C68.5749 46.5855 67.8683 45.5321 67.8683 43.8255C67.8683 40.0655 69.3749 36.3188 72.3883 32.5855C73.4016 31.7588 74.3483 31.3455 75.2283 31.3455ZM70.3883 42.2255L70.2283 43.3455V44.1055H70.6283C72.6283 39.1188 73.6283 36.0788 73.6283 34.9855H73.4683C71.9216 36.7188 70.8949 39.1321 70.3883 42.2255ZM84.708 31.0255C86.388 31.0255 87.388 32.1988 87.708 34.5455V34.9055C87.708 37.4921 86.3746 39.8655 83.708 42.0255C85.2546 43.5455 87.9613 44.3055 91.828 44.3055C92.4146 44.4921 92.708 44.9055 92.708 45.5455C92.708 46.2655 92.2413 46.6255 91.308 46.6255C88.6946 46.6255 85.948 45.9588 83.068 44.6255V45.7855C83.068 48.5321 82.4813 49.9055 81.308 49.9055C80.4813 49.9055 80.068 48.3188 80.068 45.1455V42.0255L79.948 40.9055L80.228 39.6255L79.948 35.7855V35.6255C79.948 34.9055 80.3213 34.4121 81.068 34.1455C82.108 32.0655 83.3213 31.0255 84.708 31.0255ZM82.708 39.7855C83.4813 39.7855 84.348 38.3988 85.308 35.6255V33.9055L84.828 33.3855H84.468C83.2946 34.1855 82.708 36.3188 82.708 39.7855ZM98.7573 22.5055C99.504 22.6655 99.8773 23.0388 99.8773 23.6255L99.6373 25.3855V25.9055C99.6373 27.0788 99.7707 28.3188 100.037 29.6255H100.117C103.211 28.6921 105.131 28.2255 105.877 28.2255C106.651 28.4388 107.037 28.8255 107.037 29.3855C107.037 30.2921 106.117 30.7455 104.277 30.7455L100.117 32.2255C100.117 35.8255 100.504 40.7188 101.277 46.9055C101.117 47.6255 100.731 47.9855 100.117 47.9855H100.037C99.104 47.9855 98.6373 46.7855 98.6373 44.3855C98.2907 42.5988 97.9973 38.7188 97.7573 32.7455H97.0373C94.5307 32.5855 93.2773 31.9988 93.2773 30.9855C93.2773 30.6921 93.5573 30.3321 94.1173 29.9055H94.5173L96.3573 30.3855H97.6373L97.2773 25.3855C97.2773 23.4655 97.7707 22.5055 98.7573 22.5055ZM128.534 33.3055C130.801 33.4921 131.934 34.5988 131.934 36.6255L132.014 37.1455L131.934 43.3855C131.934 44.1055 132.348 45.0788 133.174 46.3055V46.3855C132.961 47.1588 132.574 47.5455 132.014 47.5455C130.361 46.8521 129.534 45.3855 129.534 43.1455V42.6255L129.414 42.5455L129.534 42.3855V42.3055L129.654 36.7855C129.654 36.0121 129.321 35.6255 128.654 35.6255H128.174C126.841 36.1588 126.174 39.0788 126.174 44.3855C126.174 46.2255 125.708 47.1455 124.774 47.1455C124.054 47.1455 123.681 46.6921 123.654 45.7855V41.7855C123.654 36.6121 124.108 34.0255 125.014 34.0255L125.414 33.9055L126.254 34.0255C126.974 33.5455 127.734 33.3055 128.534 33.3055ZM140.828 31.7055C142.801 31.7055 144.295 33.1721 145.308 36.1055L145.468 36.9455C145.468 39.7988 144.135 42.7188 141.468 45.7055C140.401 46.6921 139.321 47.1855 138.228 47.1855C136.628 47.1855 135.495 46.2655 134.828 44.4255C134.588 43.5721 134.468 42.8255 134.468 42.1855V41.7055C134.468 37.4921 136.001 34.2921 139.068 32.1055C139.601 31.8388 140.188 31.7055 140.828 31.7055ZM136.828 42.1055C136.828 43.9188 137.295 44.8255 138.228 44.8255C140.175 44.8255 141.788 42.3321 143.068 37.3455V36.5855C142.615 34.9321 141.775 34.1055 140.548 34.1055C140.068 34.1055 139.828 34.4388 139.828 35.1055C139.828 35.5588 139.295 35.9188 138.228 36.1855C137.295 37.7588 136.828 39.7321 136.828 42.1055ZM158.56 34.2255C160.4 35.4521 161.32 37.3455 161.32 39.9055C161.32 43.3721 160.16 45.7321 157.84 46.9855L156.32 47.2255C155.414 47.2255 154.454 46.7855 153.44 45.9055H153.16C152.334 46.9721 151.56 47.5055 150.84 47.5055C148.947 47.5055 147.854 45.7188 147.56 42.1455V39.9855C147.747 36.5988 148.454 34.9055 149.68 34.9055C150.347 34.9055 150.734 35.3188 150.84 36.1455C150.227 37.2121 149.92 38.7055 149.92 40.6255V41.3855C150.027 43.7855 150.28 44.9855 150.68 44.9855C151.08 44.9855 151.494 44.2921 151.92 42.9055L151.84 40.1455C151.84 38.3055 152.28 37.3855 153.16 37.3855C154.174 37.3855 154.68 38.3855 154.68 40.3855H154.84L154.44 42.9055C154.894 44.2388 155.52 44.9055 156.32 44.9055H156.56C157.734 44.9055 158.494 43.6521 158.84 41.1455V38.9055C158.84 38.0521 158.334 36.9988 157.32 35.7455L157.16 35.3855C157.16 34.8255 157.627 34.4388 158.56 34.2255Z" fill="#040000"/>
</g>
<defs>
<filter id="filter0_d_64_1711" x="0" y="0" width="202.169" height="75.6457" filterUnits="userSpaceOnUse" color-interpolation-filters="sRGB">
<feFlood flood-opacity="0" result="BackgroundImageFix"/>
<feColorMatrix in="SourceAlpha" type="matrix" values="0 0 0 0 0 0 0 0 0 0 0 0 0 0 0 0 0 0 127 0" result="hardAlpha"/>
<feOffset dy="4"/>
<feGaussianBlur stdDeviation="2"/>
<feComposite in2="hardAlpha" operator="out"/>
<feColorMatrix type="matrix" values="0 0 0 0 0 0 0 0 0 0 0 0 0 0 0 0 0 0 0.25 0"/>
<feBlend mode="normal" in2="BackgroundImageFix" result="effect1_dropShadow_64_1711"/>
<feBlend mode="normal" in="SourceGraphic" in2="effect1_dropShadow_64_1711" result="shape"/>
</filter>
</defs>
</svg>
