<svg preserveAspectRatio="none" width="100%" height="100%" overflow="visible" style="display: block;" viewBox="0 0 43.8864 41.4841" fill="none" xmlns="http://www.w3.org/2000/svg">
<g id="Knob">
<ellipse cx="21.8587" cy="20.8742" rx="20.5" ry="19.5" fill="var(--fill-0, black)"/>
<path d="M43.241 14.1736C43.3179 14.3234 43.2678 14.586 43.3186 14.7731C43.5268 15.5627 43.5128 15.8769 43.6217 16.6034C43.8508 17.6622 44.217 20.8873 43.2659 20.8742C43.2659 20.8742 43.2659 20.8742 43.2659 20.8742C43.257 20.8742 43.2481 20.8739 43.239 20.8733C43.0678 20.8616 42.8786 20.6026 42.6834 20.5688C42.4881 20.5351 41.2372 20.5783 41.1563 20.2506C41.058 19.7772 41.2602 18.5884 41.1988 18.3279C41.1636 18.153 41.0166 17.9546 40.9563 17.7358C40.759 17.0354 40.7472 16.6363 40.2732 16.0961C40.3583 15.8021 40.4362 15.5043 40.5055 15.1996C40.3253 14.8961 40.3394 14.3299 40.246 14.1359C40.1709 13.978 40.0126 13.9345 39.9354 13.7722C39.8482 13.5911 39.8465 13.2481 39.6628 12.9255C39.359 12.3975 39.0076 12.4676 38.7965 12.1797C38.5773 11.8829 38.4296 11.2944 38.0633 10.9698C37.9994 10.9418 37.9354 10.9142 37.8714 10.8871C37.8268 10.9695 37.7816 11.0515 37.7361 11.1331C37.5722 10.9639 37.6542 10.7831 37.5294 10.6065C37.3819 10.3992 37.1737 10.3953 37.0706 10.2614C36.9863 10.1518 36.9705 9.92267 36.8485 9.78775C36.6708 9.59154 36.5635 9.7579 36.4457 9.67383C36.4034 9.63438 35.6299 8.94239 35.5841 8.90796C35.2698 8.5991 35.4208 8.38838 35.1762 8.1255C34.4914 7.39777 33.5557 6.92457 32.7625 6.48206C32.407 6.28267 32.0597 6.04505 31.7307 5.80373C32.6329 5.56837 31.6276 4.38864 31.5876 5.55798C31.2636 5.20494 30.8446 5.29916 30.484 5.06892C30.2487 4.92017 30.1338 4.70646 29.7663 4.54946C29.1055 4.26692 28.2523 4.39961 28.2916 3.63863C27.4542 3.49278 26.8009 3.05838 26.3615 3.6231C26.1496 3.61236 25.688 3.12135 25.4555 3.02821C25.2449 2.91929 23.4958 2.52628 23.1987 2.51827C22.9049 2.48796 22.3947 2.45872 22.1459 2.5137C22.045 2.53515 21.9536 2.62058 21.8587 2.69976C21.6585 2.86558 21.4544 3.00185 21.0648 2.48337C20.4258 2.57516 20.2015 2.57044 19.5957 2.54141C19.486 2.53692 19.4603 2.42237 19.397 2.42972C19.2662 2.44519 19.0571 2.55873 18.8286 2.60333C18.4519 2.67688 18.194 2.47566 18.3013 2.83768C18.0659 2.94312 17.8327 3.05289 17.6027 3.16678C17.5022 3.11421 17.4009 3.06239 17.299 3.01132C17.1857 3.11831 17.0758 3.22588 16.9653 3.33493C16.9855 2.76567 16.1484 3.32079 16.5294 3.54156C16.0399 3.55975 15.5429 3.59822 15.0475 3.65523C14.9007 3.04412 14.0127 3.97144 14.2401 4.24856C14.189 4.26909 14.138 4.28982 14.0872 4.31075C13.5786 4.34817 13.2293 4.65558 12.6574 4.8259C12.0819 5.00313 12.1044 4.9292 11.8053 4.76945C11.6898 4.85328 11.575 4.9384 11.4611 5.02478C11.243 6.07327 10.6132 4.84985 9.90325 6.084C9.28135 5.92468 8.62688 6.76901 8.24131 7.32823C8.1955 7.39315 8.25849 7.46421 8.20301 7.55517C8.06572 7.77338 7.52474 8.13669 7.75989 8.3376C7.54335 8.43036 7.32727 8.52802 7.11186 8.63066C7.03008 8.80149 6.95136 8.97281 6.87569 9.14453C6.94845 9.20672 7.02119 9.26891 7.09393 9.33111C6.61129 9.38537 6.34914 9.90893 6.12035 10.0832C6.07415 10.118 5.96139 10.0472 5.82804 10.1657C5.67111 10.3039 5.48189 10.6365 5.31214 10.8155C5.3802 10.9759 5.45011 11.1348 5.52185 11.2923C5.35787 11.6903 4.95343 11.6165 4.79646 11.8211C4.76435 11.8559 4.38234 12.5989 4.37312 12.6445C4.26601 13.004 4.58772 13.0486 4.09819 13.9701C4.0129 14.1351 3.85001 14.231 3.78273 14.3868C3.65647 14.6623 3.60701 15.596 3.82002 15.7302C3.42133 15.975 3.29455 16.9359 3.15756 17.1926C3.11385 17.2705 2.9227 17.2482 2.83129 17.5007C2.75522 17.7062 2.81337 18.2773 2.75462 18.5409C2.68938 18.8223 2.52043 18.9089 2.49529 19.0375C2.47219 19.159 2.58963 19.2836 2.57534 19.4496C2.52879 19.969 2.30646 20.4327 2.3021 20.855C2.30203 20.8614 2.30201 20.8678 2.30203 20.8742C2.30449 21.4766 2.70804 21.9817 2.91855 22.4458C2.90492 22.5688 2.83535 22.6949 2.84907 22.8234C3.00741 24.4006 3.39436 26.1597 3.9515 27.6695C4.1741 28.3713 4.6436 30.2697 5.15228 29.4024C5.38486 29.5554 6.11451 31.2947 6.35585 31.5744C6.57045 31.8612 6.86963 31.9811 7.05143 32.1912C7.6037 32.8204 7.93593 33.3372 8.78538 33.9276C9.00615 34.0791 9.33941 34.1219 9.45642 34.2219C9.5971 34.343 9.64214 34.6086 9.8283 34.7678C10.2677 35.1515 11.1974 35.7182 11.6614 36.0264C11.7456 36.0842 11.6962 36.2366 11.799 36.3535C12.198 36.8107 12.7934 37.0923 12.9151 36.5955C13.4356 37.1788 14.1703 37.2206 14.7979 37.4439C16.117 37.961 18.6478 38.6445 19.9079 38.5171C20.6942 38.4505 20.6762 38.2398 21.8086 38.4493C21.8253 38.4522 21.842 38.4551 21.8587 38.458C22.096 38.4996 22.3363 38.5494 22.625 38.5862C23.345 38.6796 24.0723 39.0221 24.5563 38.4541C25.3742 38.4716 25.9787 38.2538 26.6654 38.5247C26.7111 38.4086 26.7558 38.2923 26.7992 38.176C26.8948 38.149 26.99 38.1213 27.0849 38.0929C27.1402 38.1786 27.196 38.2642 27.2521 38.3495C27.9598 38.1843 28.6886 37.508 29.2355 37.2866C30.1832 36.9594 32.5263 35.8459 33.3667 35.3495C33.8241 35.1046 33.7143 34.9218 34.2108 35.0792C34.2838 34.9841 34.3559 34.8885 34.4268 34.7925C34.4238 34.6741 34.4197 34.5561 34.4145 34.4385C34.9133 34.0213 35.5818 33.5974 36.0153 33.1435C36.8229 32.3231 37.6585 30.8277 38.379 29.9467C38.5641 29.7275 38.9115 29.5128 39.0447 29.2624C39.2369 28.8974 38.9987 28.6637 39.2132 28.2011C39.5939 27.4167 40.5015 25.9746 40.6651 25.1287C40.718 24.8819 40.6273 24.7405 40.6519 24.569C40.7502 23.853 40.8508 23.2625 40.736 22.5602C41.1079 21.856 41.4901 21.9304 41.9041 21.7125C42.2167 21.55 42.9279 20.9766 43.1905 20.8847C43.3766 20.8232 43.6151 21.0532 43.8201 20.9681C43.9712 22.0077 43.7531 22.4496 43.3755 23.2381C43.2057 24.759 42.8573 26.2615 42.3407 27.7039C42.1878 27.7964 42.0346 27.8855 41.8806 27.9729C41.8804 27.9728 41.8801 27.9727 41.8799 27.9726C41.5484 28.4617 41.7121 28.7945 41.6404 29.1113C41.1069 32.2745 36.5953 36.7062 33.6452 38.1933C33.0508 38.5862 31.0266 39.7705 30.4901 39.7629C30.3547 39.7679 30.2569 39.6217 30.1306 39.6644C29.0623 40.2026 27.943 40.6558 26.786 41.0173C25.1553 41.1988 23.5177 41.4134 21.8587 41.4698C20.9949 41.4993 20.1345 41.486 19.282 41.4039C12.5487 40.7998 6.09427 36.9239 2.72681 31.0145C2.06907 29.89 1.26275 28.4128 0.947252 27.159C0.81511 26.6366 1.01487 26.3514 0.642085 25.7281C0.712612 25.7029 0.78316 25.6777 0.853735 25.6527C0.622745 25.0869 0.375308 24.7398 0.245845 24.0611C0.124346 23.4972 -0.0257012 21.9634 0.00374746 21.4545C0.0113797 21.1891 0.152596 21.2852 0.148952 21.0393C0.14829 20.9904 0.145187 20.935 0.140392 20.8742C0.101043 20.4131 -0.0189241 19.6445 0.0290204 19.1261C0.0700773 18.5966 0.352409 17.7365 0.405652 17.3351C0.57838 15.891 0.810476 14.2628 1.4996 12.8398C1.68785 12.4462 2.09389 12.0245 2.15007 11.9036C2.25872 11.6644 2.14018 11.5138 2.20396 11.3452C2.52362 10.4821 3.46462 9.39629 4.00535 8.70532C5.74132 6.41669 8.02446 4.31795 10.5238 2.92526C12.0733 2.00178 14.8821 0.879376 16.5365 0.665102C16.8896 0.611519 16.8394 0.82045 17.1291 0.757441C17.451 0.68924 17.6021 0.529589 17.752 0.491301C18.6905 0.230102 20.7273 -0.0817672 21.8587 0.0196122C21.9735 0.0276059 22.0785 0.0384331 22.1717 0.0519011C22.3649 0.0800409 22.4999 0.234542 22.6139 0.237677C22.6716 0.239597 22.806 0.141207 22.9888 0.139593C24.6087 0.135605 25.7846 0.369233 27.3153 0.772599C30.2409 1.53586 33.5732 2.92973 35.9914 5.06083C36.5195 5.5204 36.6675 6.06594 36.74 6.12734C36.8995 6.2666 37.1371 6.21108 37.4828 6.48114C38.6433 7.37773 39.7077 9.0471 40.5126 10.1623C40.9204 10.7079 41.6034 11.4122 41.9508 12.008C42.2415 12.4773 42.6367 13.7118 42.8153 13.9035C42.929 14.0192 43.1566 14.0119 43.241 14.1736ZM29.437 4.22882C29.6463 3.93603 28.7143 3.88275 28.9582 4.17639C29.0124 4.2409 29.3821 4.30264 29.437 4.22882ZM2.62576 25.052C2.72005 25.0208 2.81438 24.9898 2.90875 24.9589C2.84164 24.8551 2.77543 24.75 2.71018 24.6437C2.66611 24.721 2.62254 24.7988 2.57947 24.8772C2.59461 24.9356 2.61004 24.9938 2.62576 25.052Z" fill="var(--stroke-0, black)"/>
</g>
</svg>
