<svg preserveAspectRatio="none" width="100%" height="100%" overflow="visible" style="display: block;" viewBox="0 0 43.5576 42.7783" fill="none" xmlns="http://www.w3.org/2000/svg">
<path id="Vector 130" d="M1.5 36.3772C1.52959 36.3466 3.40232 34.4152 7.3745 30.5309C11.6098 26.3893 15.7716 23.0777 19.1264 20.0231C22.7042 16.7655 25.6293 14.3748 28.2675 11.8559C36.1776 4.30365 38.9219 2.19118 40.2176 1.57537C41.229 1.09473 41.8425 3.04944 42.0186 3.75239C42.6411 6.23658 35.4187 10.3881 32.2222 13.5194C29.5384 16.1485 25.6266 19.7065 21.3517 23.8487C18.1711 26.9306 12.843 33.7307 9.06055 38.2206C7.44487 40.1384 6.18 40.9594 5.3648 41.2032C4.53736 40.919 3.79377 40.2118 3.19131 39.4093C2.90617 39.0297 2.66282 38.7062 1.93905 37.7855" stroke="var(--stroke-0, black)" stroke-width="3" stroke-linecap="round"/>
</svg>
