<svg width="57" height="51" viewBox="0 0 57 51" fill="none" xmlns="http://www.w3.org/2000/svg">
<path d="M53.7549 1.5C53.718 1.5 53.1224 1.85638 47.6152 6.25832C42.6333 10.2405 33.4174 18.0278 27.9338 22.4975C21.1162 28.0545 18.8612 29.5138 17.7951 30.6314C17.3342 31.1146 17.4486 31.7503 17.6257 32.2825C18.3378 34.4221 19.7719 35.3301 20.6406 35.8039C21.0809 36.0441 21.6359 36.0327 22.2106 35.6472C25.4321 33.4861 26.5247 29.7483 29.1494 27.5681C32.3493 24.9101 36.0299 22.9677 38.2091 21.3295C44.1219 16.8848 52.3769 10.4455 54.6657 8.2972C55.4418 7.35864 55.4354 6.72797 55.2415 6.09761C55.0476 5.46725 54.6664 4.85631 53.5852 2.98878" stroke="black" stroke-width="3" stroke-linecap="round"/>
<path d="M17.9876 30.4695C16.9491 30.4695 13.5222 30.845 10.3654 32.1966C7.91142 33.2473 6.733 35.3744 5.18552 37.6881C3.85857 39.6721 4.25588 43.3162 3.39437 45.8017C2.99595 46.9512 1.63773 47.5011 1.57095 47.7828C0.700853 51.453 8.06477 46.532 11.013 45.5121C15.1282 44.0885 17.1027 41.3661 18.4294 39.5179C18.6965 39.0468 18.8983 38.5911 19.0372 38.0789C19.1761 37.5667 19.2461 37.0118 19.0213 35.2675" stroke="black" stroke-width="3" stroke-linecap="round"/>
<path d="M4.88184 45.2474C4.88184 45.283 5.27386 45.7844 5.8656 46.2184C5.99454 44.3618 5.86921 42.446 6.19568 42.0974C6.52215 42.4502 7.1751 43.8782 8.10045 45.9898" stroke="black" stroke-width="3" stroke-linecap="round"/>
</svg>
