<svg width="57" height="52" viewBox="0 0 57 52" fill="none" xmlns="http://www.w3.org/2000/svg">
<path d="M46.1483 2.07617C46.1483 2.1486 43.3138 5.39097 37.9495 11.2044C35.4197 13.8127 33.2805 15.7273 28.7086 19.9747C24.1366 24.222 17.1968 30.7443 8.90186 38.7051" stroke="black" stroke-width="3" stroke-linecap="round"/>
<path d="M46.9956 1.5C47.0358 1.5 47.5331 1.87608 48.4628 2.66424C49.3306 3.51299 50.2857 4.53816 51.2594 5.64169C51.7054 6.16996 52.0539 6.63379 52.4784 7.45779" stroke="black" stroke-width="3" stroke-linecap="round"/>
<path d="M54.5551 10.2141C53.7355 10.9182 50.5034 13.7699 47.5964 17.3834C45.6218 19.8379 43.9417 22.0346 41.8353 24.1282C39.2404 26.7073 37.4602 28.2678 35.4671 29.9699C32.2063 32.7548 27.0419 37.0491 23.3843 40.2411C22.2337 41.277 20.9728 42.3082 19.5437 43.4761C18.9242 44.008 18.5194 44.4169 17.105 45.8279" stroke="black" stroke-width="3" stroke-linecap="round"/>
<path d="M7.43018 38.5682L7.94145 39.1563" stroke="black" stroke-width="2" stroke-linecap="round"/>
<path d="M8.57659 38.3646C8.4177 38.7909 7.56204 40.1679 4.9763 43.8474C3.20839 46.127 2.34875 47.3049 1.93426 48.0069C1.72058 48.3674 1.5001 48.7364 1.27295 49.1166" stroke="black" stroke-width="2" stroke-linecap="round"/>
<path d="M16.4996 47.0921C16.0138 47.1355 14.1755 47.5222 12.425 47.9379C10.4005 48.4186 7.80068 48.9587 5.68437 49.5144C4.5256 49.858 3.39791 50.1921 2.39697 50.4219C1.90892 50.5095 1.46124 50.5379 1 50.5673" stroke="black" stroke-width="2" stroke-linecap="round"/>
<path d="M3.30103 48.0695C3.30855 48.0695 3.31607 48.0695 3.41609 48.0813C3.51612 48.0931 3.70841 48.1166 3.74917 48.0662C3.78993 48.0158 3.67333 47.8908 3.52043 47.9912" stroke="black" stroke-width="2" stroke-linecap="round"/>
<path d="M9.1447 39.287C9.1447 39.6548 9.06196 40.8671 8.79149 41.6042C8.72726 41.7793 8.67321 41.9535 8.83193 41.9982C9.92356 42.3058 10.6257 41.5984 10.9846 41.5057C11.6049 41.3454 10.7809 42.7168 10.7058 43.0893C10.6765 43.2345 10.9257 43.2861 11.1553 43.2947C11.6547 43.3132 12.2131 43.1745 12.6082 43.179C13.3486 43.1874 12.2929 44.5488 12.3024 44.8645C12.3067 45.0102 12.5307 45.0857 12.7395 45.0984C13.1941 45.1259 13.7179 44.9347 14.1949 44.9317C14.3964 44.9773 14.5156 45.1184 14.577 45.4356C14.6384 45.7528 14.6384 46.2417 14.6384 46.7454" stroke="black" stroke-linecap="round"/>
<path d="M43.9705 7.69991C44.0781 7.87868 44.8322 8.91936 46.2412 10.3825C47.0476 11.2199 48.2504 12.1955 49.2972 13.1847C49.4182 13.2991 49.204 13.2798 49.0224 13.1992C48.0231 12.7555 47.618 11.3652 46.809 9.09619C46.5775 8.44719 46.2256 7.94871 46.7416 8.36565C47.2577 8.78258 48.6086 10.144 49.1805 10.6448C49.4258 10.8597 48.4119 9.31626 47.2917 7.86321C46.6821 7.07254 49.6879 9.51988 49.6169 9.36972C49.4566 9.03088 48.8523 8.24621 49.017 8.38668C49.1817 8.52715 50.0847 9.63889 50.5361 10.1147C50.9875 10.5904 50.96 10.3965 50.6719 9.73693C50.3839 9.07735 49.8362 7.95799 49.9315 7.85499C50.0269 7.75199 50.782 8.69927 51.0693 9.06616C51.1626 9.1853 50.3022 7.8649 49.5982 6.56541C49.2999 6.01488 50.8338 8.08484 51.0448 8.63232C51.1164 8.81803 50.1618 8.23155 49.5135 7.91237C49.1292 7.72315 50.0815 9.88406 50.9632 11.6639C51.2352 12.213 51.0454 12.0831 50.6578 11.6634C50.2703 11.2437 49.6638 10.5483 49.3767 10.2752C49.0897 10.0021 49.1405 10.1723 49.2404 10.3598C49.3404 10.5473 49.488 10.7469 49.424 10.7346C49.3599 10.7222 49.0797 10.4919 48.9339 10.4644C48.7115 10.4225 48.995 11.2626 49.2411 11.8353C49.2748 11.9527 49.1232 11.7185 48.9785 11.4621C48.8339 11.2058 48.7008 10.9343 48.5638 10.6546" stroke="black" stroke-linecap="round"/>
<path d="M52.1314 9.01572C52.1455 9.02843 52.6295 10.0969 53.2234 11.6436C53.4034 12.1124 53.0836 12.0038 52.8823 11.8561C52.1846 11.344 52.3081 10.5789 52.3144 10.314C52.3149 10.2923 52.3335 10.5024 52.1827 10.3264C51.0502 9.00401 50.6983 8.35876 49.6465 7.1709C48.8273 6.24585 48.2608 5.37158 47.9202 4.90268C47.2577 3.99074 49.2401 7.61385 49.5963 8.52783C49.6687 8.71358 48.6591 7.96526 48.2544 7.61677C48.1085 7.49111 49.1029 8.59723 49.3696 9.0141C49.6362 9.43096 49.4056 9.41337 48.9719 9.20426C46.8775 8.19438 46.2516 7.03616 45.5256 6.66047C43.8626 5.80003 48.0283 10.863 47.6285 10.6231C46.3754 9.87131 45.5649 8.01066 45.2385 7.5016C45.0309 7.17777 45.9792 8.25215 46.4127 8.37543C47.738 8.75233 45.6831 5.84323 45.4626 5.57017C45.2975 5.36575 45.8375 6.56506 46.1544 6.93665C46.2248 7.01922 45.8997 6.13907 45.9376 6.08594C45.9754 6.03282 46.3318 6.64231 46.5237 6.84269C46.6614 6.98648 46.4388 5.69283 46.2576 4.79427C46.2344 4.67891 46.9667 5.68157 47.2781 5.96112C47.5894 6.24067 47.615 5.87575 47.4901 5.30036C47.3652 4.72498 47.089 3.95019 46.9553 3.71456C46.8849 3.5906 47.2833 5.23252 47.9067 6.67303C47.9681 6.81482 47.756 5.39562 47.4167 4.39455C47.1792 3.69353 48.2503 6.95899 48.5292 8.20588C48.5944 8.49771 48.222 7.25559 47.9085 6.71531C47.5533 6.10315 45.833 6.74624 44.9849 6.669C44.3067 6.60725 45.5378 7.41955 45.6092 7.43044C45.868 7.42883 46.5787 7.41272 46.8539 7.33089C47.1292 7.24906 46.9474 7.10198 47.2154 7.21568" stroke="black" stroke-linecap="round"/>
<path d="M8.88232 39.4472C8.88232 39.7356 8.93347 40.5572 9.02803 41.1472C9.08706 41.5155 9.95979 41.0815 10.4292 40.9569C10.8953 40.8332 11.4046 40.7008 11.7424 40.6801C12.2575 40.6485 11.5244 41.8769 11.4252 42.2966C11.3714 42.5244 11.3207 42.7338 11.3512 42.8673C11.4232 43.1818 12.1104 42.759 12.6308 42.7048C13.2319 42.6422 13.8736 42.4914 14.0385 42.5096C14.1842 42.5256 13.8881 43.0939 13.5448 43.7158C13.41 43.9601 13.378 44.0697 13.7162 44.1577C14.0545 44.2458 14.77 44.3116 15.1833 44.3507C15.5965 44.3898 15.6859 44.4003 15.7847 44.4111" stroke="black" stroke-width="2" stroke-linecap="round"/>
<path d="M53.4023 8.21007C53.4023 8.23064 53.6809 8.36252 54.0722 8.40515C54.185 8.32648 54.1236 8.04417 54.1481 8.03759C54.1725 8.03101 54.2847 8.3087 54.6112 8.82588" stroke="black" stroke-width="2" stroke-linecap="round"/>
</svg>
