<svg preserveAspectRatio="none" width="100%" height="100%" overflow="visible" style="display: block;" viewBox="0 0 51.9999 46.0811" fill="none" xmlns="http://www.w3.org/2000/svg">
<g id="Group 12">
<path id="Vector 122" d="M36.1164 3.77589C36.1078 3.77589 36.0992 3.77589 32.3384 6.97984C28.5776 10.1838 21.0649 16.5917 15.1544 21.2068C9.24396 25.8218 5.16339 28.4499 3.13133 29.8875C1.09926 31.3251 1.23936 31.4925 2.07758 32.1929C2.9158 32.8933 4.44789 34.1216 5.96272 35.5479C9.07097 38.4747 10.7664 40.4883 11.5893 41.1341C13.4405 42.587 14.4939 43.0623 15.2305 43.5972C16.0574 44.1977 16.7332 44.4914 17.3177 44.5731C17.968 44.664 19.0579 43.9697 20.6044 43.047C22.3679 41.9947 23.9304 40.2152 27.0558 37.1411C29.238 34.9948 33.0542 31.9253 35.7427 29.5087C38.4311 27.0921 39.9845 25.4897 41.1837 24.3457C43.1034 22.5143 44.7964 21.2111 46.4247 19.8834C49.0471 17.7452 50.069 17.2361 50.4723 16.8062C50.7963 16.4609 48.2646 13.8079 43.7917 9.49698C41.9245 7.6486 40.8749 6.48902 39.6131 5.30961C38.3513 4.1302 36.9091 2.9661 34.9716 1.50008" stroke="var(--stroke-0, black)" stroke-width="3" stroke-linecap="round"/>
<path id="Vector 123" d="M32.6734 9.34074C32.6556 9.34074 35.0036 11.3686 38.8793 14.694C41.8168 17.2028 42.6241 18.0565 43.2524 18.8005C43.3873 18.9646 43.5178 19.1213 44.0395 19.69" stroke="var(--stroke-0, black)" stroke-width="3" stroke-linecap="round"/>
</g>
</svg>
