<svg preserveAspectRatio="none" width="100%" height="100%" overflow="visible" style="display: block;" viewBox="0 0 56.0002 56.0641" fill="none" xmlns="http://www.w3.org/2000/svg">
<g id="Group 11">
<path id="Vector 103" d="M44.3904 7.7247C43.8828 8.45457 41.5459 10.9232 34.2925 18.5672C25.4323 27.9045 18.692 33.4687 16.678 35.303C9.96337 41.6161 8.25478 42.7389 7.04217 43.5252C6.39206 43.9638 5.6714 44.4828 4.85068 45.108" stroke="var(--stroke-0, black)" stroke-width="4" stroke-linecap="round"/>
<path id="Vector 104" d="M45.3286 7.52862C45.9062 7.34733 47.6573 6.92522 48.8939 7.01647C49.4612 7.05833 49.846 7.50798 50.1359 7.97571C50.7326 8.93815 50.7665 10.1751 50.5855 11.2389C50.4051 11.7461 50.0451 12.1869 49.6668 12.6333C49.2884 13.0797 48.9026 13.5184 48.5051 13.9703" stroke="var(--stroke-0, black)" stroke-width="4" stroke-linecap="round"/>
<path id="Vector 105" d="M48.2204 14.8213C46.5246 17.0925 42.2954 22.82 38.828 26.7571C37.4177 28.3585 31.2157 33.9669 21.591 42.4549C15.1263 47.8986 12.2484 50.2205 11.288 50.9647C10.7326 51.3684 10.039 51.8248 9.0317 52.3791" stroke="var(--stroke-0, black)" stroke-width="4" stroke-linecap="round"/>
<path id="Vector 106" d="M3.28021 45.3825C3.28021 45.7455 3.22495 46.778 2.88461 48.5014C2.64789 49.7001 2.61047 50.9661 2.35951 52.0083C2.30165 52.2565 2.26096 52.468 2.20347 52.6835C2.14599 52.8989 2.07295 53.112 1.94773 53.4459" stroke="var(--stroke-0, black)" stroke-width="2" stroke-linecap="round"/>
<path id="Vector 107" d="M8.37211 53.8183C7.33854 53.8183 4.86485 53.8685 4.00103 53.9908C2.93106 54.245 2.32671 54.4744 1.95228 54.6126C1.77083 54.6796 1.60677 54.7403 1.43773 54.8029" stroke="var(--stroke-0, black)" stroke-width="2" stroke-linecap="round"/>
<path id="Vector 108" d="M4.59349 45.6925C4.59349 46.4369 4.84976 48.3287 6.00833 49.8967C6.41711 50.4466 6.74029 50.7797 7.09415 51.0346C7.27119 51.1576 7.44309 51.2677 7.93231 51.5624" stroke="var(--stroke-0, black)" stroke-width="2" stroke-linecap="round"/>
<path id="Vector 109" d="M1.27633 54.931L1.43545 54.9901" stroke="var(--stroke-0, black)" stroke-width="2" stroke-linecap="round"/>
<path id="Vector 110" d="M52.5715 7.5104C52.658 7.29803 53.1287 6.4823 53.8215 5.5293C54.5388 4.54273 54.9719 3.7953 54.9981 3.41005C55.0525 2.60907 54 2.12088 53.2449 1.56633C52.9057 1.3172 52.5637 1.11729 52.2221 1.06383C51.4181 1.82334 50.4884 3.11787 49.8509 3.92652C49.6229 4.20815 49.3219 4.58428 49.0116 4.97181" stroke="var(--stroke-0, black)" stroke-width="2" stroke-linecap="round"/>
<path id="Vector 111" d="M43.8896 6.4459C43.6327 6.44813 42.1349 6.6713 40.2054 7.18098C39.077 7.52396 38.3039 7.73071 37.8239 7.83177C37.5982 7.87892 37.4091 7.91767 37.0958 7.97793" stroke="var(--stroke-0, black)" stroke-width="2" stroke-linecap="round"/>
<path id="Vector 112" d="M37.0958 7.97804C36.9794 8.16754 36.3816 8.88919 35.7365 9.4516C35.3982 9.74657 34.4225 10.412 32.517 11.9941C29.7249 14.3124 28.0445 16.0847 27.3882 16.5716C25.3914 18.1557 24.9279 18.5904 24.6127 18.885C24.4445 19.0581 24.2597 19.2792 24.0694 19.5071" stroke="var(--stroke-0, black)" stroke-width="2" stroke-linecap="round"/>
<path id="Vector 113" d="M36.6333 9.40837C36.4168 9.49433 35.8101 9.97145 35.0187 10.7125C34.3557 11.3334 33.6339 11.6766 32.8478 12.0954C32.1134 12.4866 31.4628 12.9185 30.6779 13.5447C29.7663 14.2719 29.2498 15.2882 28.5342 15.9431C27.5502 16.8437 26.6731 17.7448 25.7442 18.5336C25.3351 18.8567 25.009 19.138 24.7298 19.4262C24.5944 19.5762 24.4718 19.7334 24.1458 20.0626" stroke="var(--stroke-0, black)" stroke-width="2" stroke-linecap="round"/>
<path id="Vector 114" d="M37.8429 8.49462C37.7357 8.54855 37.4137 8.81024 37.1641 9.16371C36.8631 9.59007 36.5648 9.91579 35.7017 10.7341C34.8666 11.5259 33.58 12.3449 33.166 12.6444C32.8174 12.8966 32.4805 13.1802 31.8024 13.8812C31.4103 14.2865 30.7645 14.8429 30.1785 15.3994C29.8503 15.7112 29.4065 16.0312 28.7757 16.717C27.578 18.0191 27.2054 18.3598 26.8447 18.8004C26.1871 19.5628 25.7991 19.8844 25.1461 20.2781C24.9974 20.3609 24.8988 20.4088 24.8861 20.4389" stroke="var(--stroke-0, black)" stroke-width="2" stroke-linecap="round"/>
<path id="Vector 115" d="M40.7119 8.31729C40.5098 8.31729 39.9506 8.37338 39.4935 8.48781C38.7658 8.66999 37.9801 8.8147 37.4359 8.87915C37.3173 8.88918 37.1936 8.89862 37.0786 8.91247C36.9635 8.92631 36.861 8.94429 36.6241 9.01998" stroke="var(--stroke-0, black)" stroke-width="2" stroke-linecap="round"/>
<path id="Vector 116" d="M40.2014 12.6405C40.2855 12.9054 40.941 14.0287 42.6842 15.7345C43.1755 16.1185 43.642 16.3852 43.985 16.547C44.328 16.7088 44.5334 16.7577 44.7451 16.8081" stroke="var(--stroke-0, black)" stroke-width="2" stroke-linecap="round"/>
<path id="Vector 117" d="M37.5835 17.7221C37.7096 17.9307 38.2584 18.6436 39.1258 19.4955C39.3815 19.7094 39.6556 19.8975 39.9705 20.0864C40.2855 20.2754 40.633 20.4595 41.2184 20.7366" stroke="var(--stroke-0, black)" stroke-width="2" stroke-linecap="round"/>
<path id="Vector 118" d="M20.4599 34.7517C20.5967 34.966 21.7984 36.3191 23.0044 37.3619C23.2756 37.5963 23.6696 37.7711 23.7434 37.8673C23.1072 37.7668 22.1275 37.0059 21.3586 35.9703C21.1901 35.7223 21.0306 35.5063 20.6838 35.0487" stroke="var(--stroke-0, black)" stroke-width="2" stroke-linecap="round"/>
<path id="Vector 119" d="M6.67038 45.9891C6.68045 46.0162 6.88356 46.2776 7.29119 46.7558C7.71646 47.1927 8.13281 47.5184 8.51982 47.7598C8.71255 47.8881 8.89786 48.0282 9.11424 48.1981" stroke="var(--stroke-0, black)" stroke-width="2" stroke-linecap="round"/>
<path id="Vector 121" d="M1.04846 54.6394C1.04846 54.6504 1.1753 54.7498 1.39751 54.8146C1.49315 54.8425 1.55295 54.6312 1.49517 54.5472C1.43739 54.4631 1.25994 54.4543 1.13288 54.5251C1.00582 54.596 0.93452 54.7468 1.08427 55.0638" stroke="var(--stroke-0, black)" stroke-width="2" stroke-linecap="round"/>
</g>
</svg>
