<svg preserveAspectRatio="none" width="100%" height="100%" overflow="visible" style="display: block;" viewBox="0 0 56.8508 50.6231" fill="none" xmlns="http://www.w3.org/2000/svg">
<g id="Group 13">
<path id="Vector 127" d="M53.7548 1.5C53.7179 1.5 53.1224 1.85638 47.6152 6.25832C42.6332 10.2405 33.4173 18.0278 27.9338 22.4975C21.1161 28.0545 18.8612 29.5138 17.795 30.6314C17.3341 31.1146 17.4486 31.7503 17.6257 32.2825C18.3377 34.4221 19.7718 35.3301 20.6405 35.8039C21.0809 36.0441 21.6358 36.0327 22.2105 35.6472C25.432 33.4861 26.5246 29.7483 29.1493 27.5681C32.3492 24.9101 36.0298 22.9677 38.209 21.3295C44.1218 16.8848 52.3768 10.4455 54.6656 8.2972C55.4417 7.35864 55.4353 6.72797 55.2414 6.09761C55.0476 5.46725 54.6664 4.85631 53.5851 2.98878" stroke="var(--stroke-0, black)" stroke-width="3" stroke-linecap="round"/>
<path id="Vector 128" d="M17.9875 30.4695C16.949 30.4695 13.5221 30.845 10.3653 32.1966C7.91134 33.2473 6.73292 35.3744 5.18544 37.6881C3.85849 39.6721 4.2558 43.3162 3.3943 45.8017C2.99587 46.9512 1.63765 47.5011 1.57087 47.7828C0.700774 51.453 8.06469 46.532 11.0129 45.5121C15.1282 44.0885 17.1026 41.3661 18.4294 39.5179C18.6964 39.0468 18.8982 38.5911 19.0371 38.0789C19.176 37.5667 19.246 37.0118 19.0212 35.2675" stroke="var(--stroke-0, black)" stroke-width="3" stroke-linecap="round"/>
<path id="Vector 129" d="M4.88176 45.2474C4.88176 45.283 5.27378 45.7844 5.86552 46.2184C5.99447 44.3618 5.86913 42.446 6.1956 42.0974C6.52208 42.4502 7.17502 43.8782 8.10038 45.9898" stroke="var(--stroke-0, black)" stroke-width="3" stroke-linecap="round"/>
</g>
</svg>
