<svg width="52" height="47" viewBox="0 0 52 47" fill="none" xmlns="http://www.w3.org/2000/svg">
<path d="M36.1164 3.77587C36.1078 3.77587 36.0991 3.77587 32.3383 6.97982C28.5776 10.1838 21.0649 16.5917 15.1544 21.2067C9.24392 25.8218 5.16335 28.4499 3.13129 29.8875C1.09923 31.325 1.23932 31.4925 2.07754 32.1929C2.91576 32.8933 4.44786 34.1216 5.96268 35.5479C9.07093 38.4746 10.7664 40.4883 11.5892 41.1341C13.4404 42.587 14.4939 43.0623 15.2305 43.5972C16.0573 44.1977 16.7332 44.4914 17.3177 44.5731C17.968 44.664 19.0578 43.9697 20.6043 43.0469C22.3678 41.9947 23.9304 40.2152 27.0558 37.1411C29.238 34.9948 33.0542 31.9253 35.7426 29.5087C38.4311 27.0921 39.9844 25.4897 41.1837 24.3456C43.1034 22.5143 44.7964 21.2111 46.4247 19.8834C49.0471 17.7452 50.069 17.236 50.4723 16.8062C50.7962 16.4608 48.2645 13.8079 43.7916 9.49696C41.9245 7.64857 40.8749 6.48899 39.613 5.30958C38.3512 4.13017 36.909 2.96608 34.9716 1.50006" stroke="black" stroke-width="3" stroke-linecap="round"/>
<path d="M30.6734 11.3407C30.6556 11.3407 33.0036 13.3685 36.8793 16.6939C39.8168 19.2028 40.6241 20.0564 41.2524 20.8005C41.3873 20.9646 41.5178 21.1213 42.0395 21.6899" stroke="black" stroke-width="3" stroke-linecap="round"/>
</svg>
