<svg width="56" height="57" viewBox="0 0 56 57" fill="none" xmlns="http://www.w3.org/2000/svg">
<path d="M44.3903 7.72473C43.8827 8.4546 41.5458 10.9232 34.2924 18.5672C25.4322 27.9045 18.6919 33.4688 16.6779 35.303C9.96327 41.6162 8.25468 42.739 7.04207 43.5252C6.39197 43.9638 5.6713 44.4828 4.85059 45.108" stroke="black" stroke-width="4" stroke-linecap="round"/>
<path d="M45.3286 7.52863C45.9062 7.34734 47.6573 6.92523 48.8939 7.01648C49.4612 7.05834 49.846 7.50799 50.1359 7.97572C50.7326 8.93817 50.7665 10.1751 50.5855 11.2389C50.4051 11.7461 50.0451 12.1869 49.6668 12.6333C49.2884 13.0797 48.9026 13.5184 48.5051 13.9703" stroke="black" stroke-width="4" stroke-linecap="round"/>
<path d="M48.2202 14.8213C46.5244 17.0925 42.2952 22.82 38.8278 26.7571C37.4175 28.3585 31.2155 33.9669 21.5908 42.4549C15.1261 47.8986 12.2482 50.2205 11.2878 50.9647C10.7324 51.3684 10.0388 51.8248 9.03149 52.3791" stroke="black" stroke-width="4" stroke-linecap="round"/>
<path d="M3.28024 45.3826C3.28024 45.7456 3.22498 46.778 2.88464 48.5015C2.64791 49.7002 2.61049 50.9661 2.35954 52.0084C2.30168 52.2566 2.26098 52.468 2.2035 52.6835C2.14602 52.899 2.07298 53.1121 1.94775 53.446" stroke="black" stroke-width="2" stroke-linecap="round"/>
<path d="M8.37212 53.8184C7.33856 53.8184 4.86486 53.8685 4.00104 53.9908C2.93108 54.245 2.32672 54.4745 1.95229 54.6126C1.77085 54.6796 1.60678 54.7403 1.43774 54.8029" stroke="black" stroke-width="2" stroke-linecap="round"/>
<path d="M4.59351 45.6925C4.59351 46.4369 4.84977 48.3287 6.00835 49.8967C6.41713 50.4466 6.7403 50.7797 7.09417 51.0346C7.27121 51.1576 7.4431 51.2677 7.93232 51.5624" stroke="black" stroke-width="2" stroke-linecap="round"/>
<path d="M1.27612 54.931L1.43524 54.9901" stroke="black" stroke-width="2" stroke-linecap="round"/>
<path d="M52.5713 7.51041C52.6578 7.29804 53.1285 6.48232 53.8214 5.52932C54.5386 4.54274 54.9717 3.79531 54.9979 3.41007C55.0524 2.60909 53.9998 2.12089 53.2447 1.56635C52.9055 1.31722 52.5636 1.1173 52.2219 1.06384C51.4179 1.82335 50.4882 3.11788 49.8508 3.92654C49.6228 4.20816 49.3217 4.5843 49.0115 4.97183" stroke="black" stroke-width="2" stroke-linecap="round"/>
<path d="M43.8896 6.44592C43.6327 6.44816 42.1349 6.67132 40.2054 7.181C39.077 7.52398 38.3038 7.73073 37.8238 7.83179C37.5982 7.87894 37.409 7.9177 37.0957 7.97796" stroke="black" stroke-width="2" stroke-linecap="round"/>
<path d="M37.0957 7.97803C36.9794 8.16753 36.3816 8.88918 35.7365 9.45159C35.3981 9.74656 34.4225 10.412 32.517 11.9941C29.7249 14.3124 28.0445 16.0847 27.3882 16.5716C25.3914 18.1556 24.9278 18.5904 24.6126 18.885C24.4445 19.0581 24.2597 19.2792 24.0693 19.507" stroke="black" stroke-width="2" stroke-linecap="round"/>
<path d="M36.6333 9.40839C36.4168 9.49435 35.81 9.97147 35.0186 10.7126C34.3556 11.3334 33.6338 11.6766 32.8477 12.0954C32.1133 12.4866 31.4627 12.9185 30.6778 13.5447C29.7663 14.2719 29.2497 15.2882 28.5341 15.9432C27.5501 16.8437 26.6731 17.7448 25.7442 18.5336C25.335 18.8568 25.0089 19.138 24.7297 19.4263C24.5943 19.5762 24.4717 19.7334 24.1458 20.0626" stroke="black" stroke-width="2" stroke-linecap="round"/>
<path d="M37.8428 8.49463C37.7357 8.54855 37.4136 8.81025 37.1641 9.16372C36.863 9.59008 36.5647 9.91579 35.7016 10.7341C34.8665 11.5259 33.5799 12.3449 33.1659 12.6444C32.8174 12.8966 32.4804 13.1802 31.8023 13.8812C31.4102 14.2865 30.7645 14.8429 30.1785 15.3994C29.8502 15.7112 29.4064 16.0312 28.7756 16.717C27.5779 18.0191 27.2053 18.3598 26.8447 18.8004C26.187 19.5628 25.799 19.8845 25.1461 20.2781C24.9974 20.3609 24.8988 20.4088 24.886 20.4389" stroke="black" stroke-width="2" stroke-linecap="round"/>
<path d="M40.7117 8.31732C40.5097 8.31732 39.9505 8.37341 39.4934 8.48784C38.7657 8.67003 37.98 8.81474 37.4358 8.87918C37.3172 8.88922 37.1935 8.89865 37.0784 8.9125C36.9634 8.92635 36.8609 8.94432 36.624 9.02002" stroke="black" stroke-width="2" stroke-linecap="round"/>
<path d="M40.2014 12.6406C40.2855 12.9054 40.941 14.0287 42.6842 15.7345C43.1755 16.1185 43.642 16.3852 43.985 16.547C44.328 16.7089 44.5334 16.7578 44.7451 16.8081" stroke="black" stroke-width="2" stroke-linecap="round"/>
<path d="M37.5835 17.7221C37.7096 17.9307 38.2584 18.6436 39.1258 19.4955C39.3815 19.7094 39.6556 19.8975 39.9705 20.0865C40.2855 20.2754 40.633 20.4595 41.2184 20.7367" stroke="black" stroke-width="2" stroke-linecap="round"/>
<path d="M20.4597 34.7516C20.5966 34.966 21.7983 36.3191 23.0043 37.3619C23.2754 37.5963 23.6695 37.7711 23.7432 37.8672C23.107 37.7668 22.1273 37.0059 21.3585 35.9703C21.19 35.7223 21.0304 35.5063 20.6837 35.0487" stroke="black" stroke-width="2" stroke-linecap="round"/>
<path d="M6.67017 45.9891C6.68024 46.0162 6.88334 46.2776 7.29098 46.7558C7.71625 47.1928 8.1326 47.5184 8.5196 47.7598C8.71234 47.8881 8.89765 48.0283 9.11403 48.1982" stroke="black" stroke-width="2" stroke-linecap="round"/>
<path d="M1.04837 54.6394C1.04837 54.6504 1.17521 54.7498 1.39741 54.8146C1.49306 54.8425 1.55286 54.6312 1.49508 54.5472C1.4373 54.4631 1.25985 54.4543 1.13278 54.5251C1.00572 54.596 0.934428 54.7468 1.08418 55.0638" stroke="black" stroke-width="2" stroke-linecap="round"/>
</svg>
